<svg width="626" height="240" viewBox="0 0 626 240" fill="none" xmlns="http://www.w3.org/2000/svg">
<g clip-path="url(#clip0_9_9570)">
<path d="M10.084 208.352C10.084 208.912 9.988 209.416 9.796 209.864C9.596 210.312 9.316 210.664 8.956 210.92C8.596 211.176 8.176 211.304 7.696 211.304V209.84C8.056 209.808 8.352 209.668 8.584 209.42C8.816 209.164 8.932 208.808 8.932 208.352C8.932 207.88 8.82 207.512 8.596 207.248C8.364 206.984 8.068 206.852 7.708 206.852C7.428 206.852 7.2 206.936 7.024 207.104C6.848 207.264 6.712 207.468 6.616 207.716C6.52 207.956 6.416 208.292 6.304 208.724C6.16 209.268 6.016 209.712 5.872 210.056C5.72 210.392 5.488 210.68 5.176 210.92C4.864 211.16 4.448 211.28 3.928 211.28C3.448 211.28 3.028 211.16 2.668 210.92C2.308 210.68 2.032 210.344 1.84 209.912C1.648 209.48 1.552 208.98 1.552 208.412C1.552 207.604 1.756 206.944 2.164 206.432C2.564 205.912 3.116 205.624 3.82 205.568V207.08C3.516 207.104 3.256 207.248 3.04 207.512C2.824 207.776 2.716 208.124 2.716 208.556C2.716 208.948 2.816 209.268 3.016 209.516C3.216 209.764 3.504 209.888 3.88 209.888C4.136 209.888 4.348 209.812 4.516 209.66C4.676 209.5 4.804 209.3 4.9 209.06C4.996 208.82 5.1 208.492 5.212 208.076C5.364 207.524 5.516 207.076 5.668 206.732C5.82 206.38 6.056 206.084 6.376 205.844C6.688 205.596 7.108 205.472 7.636 205.472C8.06 205.472 8.46 205.588 8.836 205.82C9.212 206.044 9.516 206.376 9.748 206.816C9.972 207.248 10.084 207.76 10.084 208.352ZM6.688 204.314C6.008 204.314 5.412 204.178 4.9 203.906C4.38 203.626 3.98 203.242 3.7 202.754C3.42 202.266 3.28 201.706 3.28 201.074C3.28 200.274 3.472 199.614 3.856 199.094C4.232 198.566 4.772 198.21 5.476 198.026V199.502C5.148 199.622 4.892 199.814 4.708 200.078C4.524 200.342 4.432 200.674 4.432 201.074C4.432 201.634 4.632 202.082 5.032 202.418C5.424 202.746 5.976 202.91 6.688 202.91C7.4 202.91 7.956 202.746 8.356 202.418C8.756 202.082 8.956 201.634 8.956 201.074C8.956 200.282 8.608 199.758 7.912 199.502V198.026C8.584 198.218 9.12 198.578 9.52 199.106C9.912 199.634 10.108 200.29 10.108 201.074C10.108 201.706 9.968 202.266 9.688 202.754C9.4 203.242 9 203.626 8.488 203.906C7.968 204.178 7.368 204.314 6.688 204.314ZM10.108 193.794C10.108 194.418 9.968 194.982 9.688 195.486C9.4 195.99 9 196.386 8.488 196.674C7.968 196.962 7.368 197.106 6.688 197.106C6.016 197.106 5.42 196.958 4.9 196.662C4.38 196.366 3.98 195.962 3.7 195.45C3.42 194.938 3.28 194.366 3.28 193.734C3.28 193.102 3.42 192.53 3.7 192.018C3.98 191.506 4.38 191.102 4.9 190.806C5.42 190.51 6.016 190.362 6.688 190.362C7.36 190.362 7.956 190.514 8.476 190.818C8.996 191.122 9.4 191.538 9.688 192.066C9.968 192.586 10.108 193.162 10.108 193.794ZM8.92 193.794C8.92 193.442 8.836 193.114 8.668 192.81C8.5 192.498 8.248 192.246 7.912 192.054C7.576 191.862 7.168 191.766 6.688 191.766C6.208 191.766 5.804 191.858 5.476 192.042C5.14 192.226 4.888 192.47 4.72 192.774C4.552 193.078 4.468 193.406 4.468 193.758C4.468 194.11 4.552 194.438 4.72 194.742C4.888 195.038 5.14 195.274 5.476 195.45C5.804 195.626 6.208 195.714 6.688 195.714C7.4 195.714 7.952 195.534 8.344 195.174C8.728 194.806 8.92 194.346 8.92 193.794ZM4.348 187.642C4.012 187.442 3.752 187.178 3.568 186.85C3.376 186.514 3.28 186.118 3.28 185.662H4.696V186.01C4.696 186.546 4.832 186.954 5.104 187.234C5.376 187.506 5.848 187.642 6.52 187.642H10V189.01H3.388V187.642H4.348ZM6.532 178.345C6.78 178.345 7.004 178.361 7.204 178.393V183.445C7.732 183.405 8.156 183.209 8.476 182.857C8.796 182.505 8.956 182.073 8.956 181.561C8.956 180.825 8.648 180.305 8.032 180.001V178.525C8.64 178.725 9.14 179.089 9.532 179.617C9.916 180.137 10.108 180.785 10.108 181.561C10.108 182.193 9.968 182.761 9.688 183.265C9.4 183.761 9 184.153 8.488 184.441C7.968 184.721 7.368 184.861 6.688 184.861C6.008 184.861 5.412 184.725 4.9 184.453C4.38 184.173 3.98 183.785 3.7 183.289C3.42 182.785 3.28 182.209 3.28 181.561C3.28 180.937 3.416 180.381 3.688 179.893C3.96 179.405 4.344 179.025 4.84 178.753C5.328 178.481 5.892 178.345 6.532 178.345ZM6.1 179.773C5.596 179.781 5.192 179.961 4.888 180.313C4.584 180.665 4.432 181.101 4.432 181.621C4.432 182.093 4.584 182.497 4.888 182.833C5.184 183.169 5.588 183.369 6.1 183.433V179.773ZM1.66 172.513H10V173.881H1.66V172.513ZM3.28 162.713C3.28 162.193 3.388 161.729 3.604 161.321C3.82 160.905 4.14 160.581 4.564 160.349C4.988 160.109 5.5 159.989 6.1 159.989H10V161.345H6.304C5.712 161.345 5.26 161.493 4.948 161.789C4.628 162.085 4.468 162.489 4.468 163.001C4.468 163.513 4.628 163.921 4.948 164.225C5.26 164.521 5.712 164.669 6.304 164.669H10V166.025H6.304C5.712 166.025 5.26 166.173 4.948 166.469C4.628 166.765 4.468 167.169 4.468 167.681C4.468 168.193 4.628 168.601 4.948 168.905C5.26 169.201 5.712 169.349 6.304 169.349H10V170.717H3.388V169.349H4.144C3.872 169.125 3.66 168.841 3.508 168.497C3.356 168.153 3.28 167.785 3.28 167.393C3.28 166.865 3.392 166.393 3.616 165.977C3.84 165.561 4.164 165.241 4.588 165.017C4.188 164.817 3.872 164.505 3.64 164.081C3.4 163.657 3.28 163.201 3.28 162.713ZM4.36 156.88C4.056 156.648 3.8 156.332 3.592 155.932C3.384 155.532 3.28 155.08 3.28 154.576C3.28 154 3.424 153.476 3.712 153.004C3.992 152.524 4.388 152.148 4.9 151.876C5.412 151.604 6 151.468 6.664 151.468C7.328 151.468 7.924 151.604 8.452 151.876C8.972 152.148 9.38 152.524 9.676 153.004C9.964 153.476 10.108 154 10.108 154.576C10.108 155.08 10.008 155.528 9.808 155.92C9.6 156.312 9.344 156.632 9.04 156.88H13.144V158.248H3.388L3.388 156.88H4.36ZM6.664 152.86C6.208 152.86 5.816 152.956 5.488 153.148C5.152 153.332 4.9 153.58 4.732 153.892C4.556 154.196 4.468 154.524 4.468 154.876C4.468 155.22 4.556 155.548 4.732 155.86C4.908 156.164 5.164 156.412 5.5 156.604C5.836 156.788 6.232 156.88 6.688 156.88C7.144 156.88 7.544 156.788 7.888 156.604C8.224 156.412 8.48 156.164 8.656 155.86C8.832 155.548 8.92 155.22 8.92 154.876C8.92 154.524 8.832 154.196 8.656 153.892C8.472 153.58 8.208 153.332 7.864 153.148C7.52 152.956 7.12 152.86 6.664 152.86ZM4.348 148.748C4.012 148.548 3.752 148.284 3.568 147.956C3.376 147.62 3.28 147.224 3.28 146.768H4.696V147.116C4.696 147.652 4.832 148.06 5.104 148.34C5.376 148.612 5.848 148.748 6.52 148.748H10V150.116H3.388V148.748H4.348ZM10.108 142.642C10.108 143.266 9.968 143.83 9.688 144.334C9.4 144.838 9 145.234 8.488 145.522C7.968 145.81 7.368 145.954 6.688 145.954C6.016 145.954 5.42 145.806 4.9 145.51C4.38 145.214 3.98 144.81 3.7 144.298C3.42 143.786 3.28 143.214 3.28 142.582C3.28 141.95 3.42 141.378 3.7 140.866C3.98 140.354 4.38 139.95 4.9 139.654C5.42 139.358 6.016 139.21 6.688 139.21C7.36 139.21 7.956 139.362 8.476 139.666C8.996 139.97 9.4 140.386 9.688 140.914C9.968 141.434 10.108 142.01 10.108 142.642ZM8.92 142.642C8.92 142.29 8.836 141.962 8.668 141.658C8.5 141.346 8.248 141.094 7.912 140.902C7.576 140.71 7.168 140.614 6.688 140.614C6.208 140.614 5.804 140.706 5.476 140.89C5.14 141.074 4.888 141.318 4.72 141.622C4.552 141.926 4.468 142.254 4.468 142.606C4.468 142.958 4.552 143.286 4.72 143.59C4.888 143.886 5.14 144.122 5.476 144.298C5.804 144.474 6.208 144.562 6.688 144.562C7.4 144.562 7.952 144.382 8.344 144.022C8.728 143.654 8.92 143.194 8.92 142.642ZM8.776 135.302L3.388 133.43V131.978L10 134.498V136.13L3.388 138.638V137.174L8.776 135.302ZM6.532 124.884C6.78 124.884 7.004 124.9 7.204 124.932V129.984C7.732 129.944 8.156 129.748 8.476 129.396C8.796 129.044 8.956 128.612 8.956 128.1C8.956 127.364 8.648 126.844 8.032 126.54V125.064C8.64 125.264 9.14 125.628 9.532 126.156C9.916 126.676 10.108 127.324 10.108 128.1C10.108 128.732 9.968 129.3 9.688 129.804C9.4 130.3 9 130.692 8.488 130.98C7.968 131.26 7.368 131.4 6.688 131.4C6.008 131.4 5.412 131.264 4.9 130.992C4.38 130.712 3.98 130.324 3.7 129.828C3.42 129.324 3.28 128.748 3.28 128.1C3.28 127.476 3.416 126.92 3.688 126.432C3.96 125.944 4.344 125.564 4.84 125.292C5.328 125.02 5.892 124.884 6.532 124.884ZM6.1 126.312C5.596 126.32 5.192 126.5 4.888 126.852C4.584 127.204 4.432 127.64 4.432 128.16C4.432 128.632 4.584 129.036 4.888 129.372C5.184 129.708 5.588 129.908 6.1 129.972V126.312ZM3.28 115.533C3.28 115.013 3.388 114.549 3.604 114.141C3.82 113.725 4.14 113.401 4.564 113.169C4.988 112.929 5.5 112.809 6.1 112.809H10V114.165H6.304C5.712 114.165 5.26 114.313 4.948 114.609C4.628 114.905 4.468 115.309 4.468 115.821C4.468 116.333 4.628 116.741 4.948 117.045C5.26 117.341 5.712 117.489 6.304 117.489H10V118.845H6.304C5.712 118.845 5.26 118.993 4.948 119.289C4.628 119.585 4.468 119.989 4.468 120.501C4.468 121.013 4.628 121.421 4.948 121.725C5.26 122.021 5.712 122.169 6.304 122.169H10V123.537H3.388V122.169H4.144C3.872 121.945 3.66 121.661 3.508 121.317C3.356 120.973 3.28 120.605 3.28 120.213C3.28 119.685 3.392 119.213 3.616 118.797C3.84 118.381 4.164 118.061 4.588 117.837C4.188 117.637 3.872 117.325 3.64 116.901C3.4 116.477 3.28 116.021 3.28 115.533ZM6.532 105.009C6.78 105.009 7.004 105.025 7.204 105.057V110.109C7.732 110.069 8.156 109.873 8.476 109.521C8.796 109.169 8.956 108.737 8.956 108.225C8.956 107.489 8.648 106.969 8.032 106.665V105.189C8.64 105.389 9.14 105.753 9.532 106.281C9.916 106.801 10.108 107.449 10.108 108.225C10.108 108.857 9.968 109.425 9.688 109.929C9.4 110.425 9 110.817 8.488 111.105C7.968 111.385 7.368 111.525 6.688 111.525C6.008 111.525 5.412 111.389 4.9 111.117C4.38 110.837 3.98 110.449 3.7 109.953C3.42 109.449 3.28 108.873 3.28 108.225C3.28 107.601 3.416 107.045 3.688 106.557C3.96 106.069 4.344 105.689 4.84 105.417C5.328 105.145 5.892 105.009 6.532 105.009ZM6.1 106.437C5.596 106.445 5.192 106.625 4.888 106.977C4.584 107.329 4.432 107.765 4.432 108.285C4.432 108.757 4.584 109.161 4.888 109.497C5.184 109.833 5.588 110.033 6.1 110.097V106.437ZM3.28 100.326C3.28 99.8065 3.388 99.3425 3.604 98.9345C3.82 98.5185 4.14 98.1945 4.564 97.9625C4.988 97.7305 5.5 97.6145 6.1 97.6145H10V98.9705H6.304C5.712 98.9705 5.26 99.1185 4.948 99.4145C4.628 99.7105 4.468 100.114 4.468 100.626C4.468 101.138 4.628 101.546 4.948 101.85C5.26 102.146 5.712 102.294 6.304 102.294H10V103.662H3.388V102.294H4.144C3.872 102.07 3.66 101.786 3.508 101.442C3.356 101.09 3.28 100.718 3.28 100.326ZM4.504 94.2735H8.164C8.412 94.2735 8.592 94.2175 8.704 94.1055C8.808 93.9855 8.86 93.7855 8.86 93.5055V92.6655H10V93.7455C10 94.3615 9.856 94.8335 9.568 95.1615C9.28 95.4895 8.812 95.6535 8.164 95.6535H4.504V96.4335H3.388V95.6535H1.744V94.2735H3.388V92.6655H4.504V94.2735Z" fill="#B5B5C3"/>
<path d="M26.264 2.308L22.928 10H21.548L24.92 2.452H20.48V1.288H26.264V2.308ZM27.4348 5.512C27.4348 4.128 27.6668 3.048 28.1308 2.272C28.6028 1.488 29.4108 1.096 30.5548 1.096C31.6988 1.096 32.5028 1.488 32.9668 2.272C33.4388 3.048 33.6748 4.128 33.6748 5.512C33.6748 6.912 33.4388 8.008 32.9668 8.8C32.5028 9.584 31.6988 9.976 30.5548 9.976C29.4108 9.976 28.6028 9.584 28.1308 8.8C27.6668 8.008 27.4348 6.912 27.4348 5.512ZM32.3308 5.512C32.3308 4.864 32.2868 4.316 32.1988 3.868C32.1188 3.42 31.9508 3.056 31.6948 2.776C31.4388 2.488 31.0588 2.344 30.5548 2.344C30.0508 2.344 29.6708 2.488 29.4148 2.776C29.1588 3.056 28.9868 3.42 28.8988 3.868C28.8188 4.316 28.7788 4.864 28.7788 5.512C28.7788 6.184 28.8188 6.748 28.8988 7.204C28.9788 7.66 29.1468 8.028 29.4028 8.308C29.6668 8.588 30.0508 8.728 30.5548 8.728C31.0588 8.728 31.4388 8.588 31.6948 8.308C31.9588 8.028 32.1308 7.66 32.2108 7.204C32.2908 6.748 32.3308 6.184 32.3308 5.512ZM35.1223 5.512C35.1223 4.128 35.3543 3.048 35.8183 2.272C36.2903 1.488 37.0983 1.096 38.2423 1.096C39.3863 1.096 40.1903 1.488 40.6543 2.272C41.1263 3.048 41.3623 4.128 41.3623 5.512C41.3623 6.912 41.1263 8.008 40.6543 8.8C40.1903 9.584 39.3863 9.976 38.2423 9.976C37.0983 9.976 36.2903 9.584 35.8183 8.8C35.3543 8.008 35.1223 6.912 35.1223 5.512ZM40.0183 5.512C40.0183 4.864 39.9743 4.316 39.8863 3.868C39.8063 3.42 39.6383 3.056 39.3823 2.776C39.1263 2.488 38.7463 2.344 38.2423 2.344C37.7383 2.344 37.3583 2.488 37.1023 2.776C36.8463 3.056 36.6743 3.42 36.5863 3.868C36.5063 4.316 36.4663 4.864 36.4663 5.512C36.4663 6.184 36.5063 6.748 36.5863 7.204C36.6663 7.66 36.8343 8.028 37.0903 8.308C37.3543 8.588 37.7383 8.728 38.2423 8.728C38.7463 8.728 39.1263 8.588 39.3823 8.308C39.6463 8.028 39.8183 7.66 39.8983 7.204C39.9783 6.748 40.0183 6.184 40.0183 5.512Z" fill="#B5B5C3"/>
<path d="M25.424 28.28C25.336 27.912 25.176 27.636 24.944 27.452C24.712 27.268 24.388 27.176 23.972 27.176C23.34 27.176 22.868 27.42 22.556 27.908C22.244 28.388 22.08 29.188 22.064 30.308C22.272 29.956 22.576 29.684 22.976 29.492C23.376 29.3 23.808 29.204 24.272 29.204C24.8 29.204 25.264 29.32 25.664 29.552C26.072 29.776 26.388 30.104 26.612 30.536C26.844 30.968 26.96 31.484 26.96 32.084C26.96 32.644 26.848 33.144 26.624 33.584C26.408 34.024 26.084 34.372 25.652 34.628C25.22 34.876 24.7 35 24.092 35C23.268 35 22.62 34.82 22.148 34.46C21.684 34.092 21.356 33.576 21.164 32.912C20.98 32.248 20.888 31.42 20.888 30.428C20.888 27.5 21.92 26.036 23.984 26.036C24.784 26.036 25.412 26.252 25.868 26.684C26.332 27.116 26.604 27.648 26.684 28.28H25.424ZM23.972 30.356C23.484 30.356 23.068 30.504 22.724 30.8C22.388 31.088 22.22 31.508 22.22 32.06C22.22 32.612 22.376 33.052 22.688 33.38C23.008 33.7 23.452 33.86 24.02 33.86C24.524 33.86 24.92 33.704 25.208 33.392C25.504 33.08 25.652 32.664 25.652 32.144C25.652 31.6 25.508 31.168 25.22 30.848C24.94 30.52 24.524 30.356 23.972 30.356ZM28.4192 30.512C28.4192 29.128 28.6512 28.048 29.1152 27.272C29.5872 26.488 30.3952 26.096 31.5392 26.096C32.6832 26.096 33.4872 26.488 33.9512 27.272C34.4232 28.048 34.6592 29.128 34.6592 30.512C34.6592 31.912 34.4232 33.008 33.9512 33.8C33.4872 34.584 32.6832 34.976 31.5392 34.976C30.3952 34.976 29.5872 34.584 29.1152 33.8C28.6512 33.008 28.4192 31.912 28.4192 30.512ZM33.3152 30.512C33.3152 29.864 33.2712 29.316 33.1832 28.868C33.1032 28.42 32.9352 28.056 32.6792 27.776C32.4232 27.488 32.0432 27.344 31.5392 27.344C31.0352 27.344 30.6552 27.488 30.3992 27.776C30.1432 28.056 29.9712 28.42 29.8832 28.868C29.8032 29.316 29.7632 29.864 29.7632 30.512C29.7632 31.184 29.8032 31.748 29.8832 32.204C29.9632 32.66 30.1312 33.028 30.3872 33.308C30.6512 33.588 31.0352 33.728 31.5392 33.728C32.0432 33.728 32.4232 33.588 32.6792 33.308C32.9432 33.028 33.1152 32.66 33.1952 32.204C33.2752 31.748 33.3152 31.184 33.3152 30.512ZM36.1067 30.512C36.1067 29.128 36.3387 28.048 36.8027 27.272C37.2747 26.488 38.0827 26.096 39.2267 26.096C40.3707 26.096 41.1747 26.488 41.6387 27.272C42.1107 28.048 42.3467 29.128 42.3467 30.512C42.3467 31.912 42.1107 33.008 41.6387 33.8C41.1747 34.584 40.3707 34.976 39.2267 34.976C38.0827 34.976 37.2747 34.584 36.8027 33.8C36.3387 33.008 36.1067 31.912 36.1067 30.512ZM41.0027 30.512C41.0027 29.864 40.9587 29.316 40.8707 28.868C40.7907 28.42 40.6227 28.056 40.3667 27.776C40.1107 27.488 39.7307 27.344 39.2267 27.344C38.7227 27.344 38.3427 27.488 38.0867 27.776C37.8307 28.056 37.6587 28.42 37.5707 28.868C37.4907 29.316 37.4507 29.864 37.4507 30.512C37.4507 31.184 37.4907 31.748 37.5707 32.204C37.6507 32.66 37.8187 33.028 38.0747 33.308C38.3387 33.588 38.7227 33.728 39.2267 33.728C39.7307 33.728 40.1107 33.588 40.3667 33.308C40.6307 33.028 40.8027 32.66 40.8827 32.204C40.9627 31.748 41.0027 31.184 41.0027 30.512Z" fill="#B5B5C3"/>
<path d="M26.36 52.428H22.34V54.816C22.508 54.592 22.756 54.404 23.084 54.252C23.42 54.1 23.776 54.024 24.152 54.024C24.824 54.024 25.368 54.168 25.784 54.456C26.208 54.744 26.508 55.108 26.684 55.548C26.868 55.988 26.96 56.452 26.96 56.94C26.96 57.532 26.844 58.06 26.612 58.524C26.388 58.98 26.048 59.34 25.592 59.604C25.144 59.868 24.592 60 23.936 60C23.064 60 22.364 59.784 21.836 59.352C21.308 58.92 20.992 58.348 20.888 57.636H22.22C22.308 58.012 22.504 58.312 22.808 58.536C23.112 58.752 23.492 58.86 23.948 58.86C24.516 58.86 24.94 58.688 25.22 58.344C25.508 58 25.652 57.544 25.652 56.976C25.652 56.4 25.508 55.96 25.22 55.656C24.932 55.344 24.508 55.188 23.948 55.188C23.556 55.188 23.224 55.288 22.952 55.488C22.688 55.68 22.496 55.944 22.376 56.28H21.08V51.228H26.36V52.428ZM28.3841 55.512C28.3841 54.128 28.6161 53.048 29.0801 52.272C29.5521 51.488 30.3601 51.096 31.5041 51.096C32.6481 51.096 33.4521 51.488 33.9161 52.272C34.3881 53.048 34.6241 54.128 34.6241 55.512C34.6241 56.912 34.3881 58.008 33.9161 58.8C33.4521 59.584 32.6481 59.976 31.5041 59.976C30.3601 59.976 29.5521 59.584 29.0801 58.8C28.6161 58.008 28.3841 56.912 28.3841 55.512ZM33.2801 55.512C33.2801 54.864 33.2361 54.316 33.1481 53.868C33.0681 53.42 32.9001 53.056 32.6441 52.776C32.3881 52.488 32.0081 52.344 31.5041 52.344C31.0001 52.344 30.6201 52.488 30.3641 52.776C30.1081 53.056 29.9361 53.42 29.8481 53.868C29.7681 54.316 29.7281 54.864 29.7281 55.512C29.7281 56.184 29.7681 56.748 29.8481 57.204C29.9281 57.66 30.0961 58.028 30.3521 58.308C30.6161 58.588 31.0001 58.728 31.5041 58.728C32.0081 58.728 32.3881 58.588 32.6441 58.308C32.9081 58.028 33.0801 57.66 33.1601 57.204C33.2401 56.748 33.2801 56.184 33.2801 55.512ZM36.0716 55.512C36.0716 54.128 36.3036 53.048 36.7676 52.272C37.2396 51.488 38.0476 51.096 39.1916 51.096C40.3356 51.096 41.1396 51.488 41.6036 52.272C42.0756 53.048 42.3116 54.128 42.3116 55.512C42.3116 56.912 42.0756 58.008 41.6036 58.8C41.1396 59.584 40.3356 59.976 39.1916 59.976C38.0476 59.976 37.2396 59.584 36.7676 58.8C36.3036 58.008 36.0716 56.912 36.0716 55.512ZM40.9676 55.512C40.9676 54.864 40.9236 54.316 40.8356 53.868C40.7556 53.42 40.5876 53.056 40.3316 52.776C40.0756 52.488 39.6956 52.344 39.1916 52.344C38.6876 52.344 38.3076 52.488 38.0516 52.776C37.7956 53.056 37.6236 53.42 37.5356 53.868C37.4556 54.316 37.4156 54.864 37.4156 55.512C37.4156 56.184 37.4556 56.748 37.5356 57.204C37.6156 57.66 37.7836 58.028 38.0396 58.308C38.3036 58.588 38.6876 58.728 39.1916 58.728C39.6956 58.728 40.0756 58.588 40.3316 58.308C40.5956 58.028 40.7676 57.66 40.8476 57.204C40.9276 56.748 40.9676 56.184 40.9676 55.512Z" fill="#B5B5C3"/>
<path d="M20.552 83.176V82.144L24.584 76.36H26.24V81.988H27.356V83.176H26.24V85H24.896V83.176H20.552ZM24.956 77.752L22.124 81.988H24.956V77.752ZM28.4895 80.512C28.4895 79.128 28.7215 78.048 29.1855 77.272C29.6575 76.488 30.4655 76.096 31.6095 76.096C32.7535 76.096 33.5575 76.488 34.0215 77.272C34.4935 78.048 34.7295 79.128 34.7295 80.512C34.7295 81.912 34.4935 83.008 34.0215 83.8C33.5575 84.584 32.7535 84.976 31.6095 84.976C30.4655 84.976 29.6575 84.584 29.1855 83.8C28.7215 83.008 28.4895 81.912 28.4895 80.512ZM33.3855 80.512C33.3855 79.864 33.3415 79.316 33.2535 78.868C33.1735 78.42 33.0055 78.056 32.7495 77.776C32.4935 77.488 32.1135 77.344 31.6095 77.344C31.1055 77.344 30.7255 77.488 30.4695 77.776C30.2135 78.056 30.0415 78.42 29.9535 78.868C29.8735 79.316 29.8335 79.864 29.8335 80.512C29.8335 81.184 29.8735 81.748 29.9535 82.204C30.0335 82.66 30.2015 83.028 30.4575 83.308C30.7215 83.588 31.1055 83.728 31.6095 83.728C32.1135 83.728 32.4935 83.588 32.7495 83.308C33.0135 83.028 33.1855 82.66 33.2655 82.204C33.3455 81.748 33.3855 81.184 33.3855 80.512ZM36.177 80.512C36.177 79.128 36.409 78.048 36.873 77.272C37.345 76.488 38.153 76.096 39.297 76.096C40.441 76.096 41.245 76.488 41.709 77.272C42.181 78.048 42.417 79.128 42.417 80.512C42.417 81.912 42.181 83.008 41.709 83.8C41.245 84.584 40.441 84.976 39.297 84.976C38.153 84.976 37.345 84.584 36.873 83.8C36.409 83.008 36.177 81.912 36.177 80.512ZM41.073 80.512C41.073 79.864 41.029 79.316 40.941 78.868C40.861 78.42 40.693 78.056 40.437 77.776C40.181 77.488 39.801 77.344 39.297 77.344C38.793 77.344 38.413 77.488 38.157 77.776C37.901 78.056 37.729 78.42 37.641 78.868C37.561 79.316 37.521 79.864 37.521 80.512C37.521 81.184 37.561 81.748 37.641 82.204C37.721 82.66 37.889 83.028 38.145 83.308C38.409 83.588 38.793 83.728 39.297 83.728C39.801 83.728 40.181 83.588 40.437 83.308C40.701 83.028 40.873 82.66 40.953 82.204C41.033 81.748 41.073 81.184 41.073 80.512Z" fill="#B5B5C3"/>
<path d="M20.696 103.412C20.744 102.668 21.028 102.088 21.548 101.672C22.076 101.256 22.748 101.048 23.564 101.048C24.124 101.048 24.608 101.148 25.016 101.348C25.424 101.548 25.732 101.82 25.94 102.164C26.148 102.508 26.252 102.896 26.252 103.328C26.252 103.824 26.12 104.248 25.856 104.6C25.592 104.952 25.276 105.188 24.908 105.308V105.356C25.38 105.5 25.748 105.764 26.012 106.148C26.276 106.524 26.408 107.008 26.408 107.6C26.408 108.072 26.3 108.492 26.084 108.86C25.868 109.228 25.548 109.52 25.124 109.736C24.7 109.944 24.192 110.048 23.6 110.048C22.736 110.048 22.024 109.828 21.464 109.388C20.912 108.94 20.616 108.3 20.576 107.468H21.896C21.928 107.892 22.092 108.24 22.388 108.512C22.684 108.776 23.084 108.908 23.588 108.908C24.076 108.908 24.452 108.776 24.716 108.512C24.98 108.24 25.112 107.892 25.112 107.468C25.112 106.908 24.932 106.512 24.572 106.28C24.22 106.04 23.676 105.92 22.94 105.92H22.628V104.792H22.952C23.6 104.784 24.092 104.676 24.428 104.468C24.772 104.26 24.944 103.932 24.944 103.484C24.944 103.1 24.82 102.796 24.572 102.572C24.324 102.34 23.972 102.224 23.516 102.224C23.068 102.224 22.72 102.34 22.472 102.572C22.224 102.796 22.076 103.076 22.028 103.412H20.696ZM27.845 105.512C27.845 104.128 28.077 103.048 28.541 102.272C29.013 101.488 29.821 101.096 30.965 101.096C32.109 101.096 32.913 101.488 33.377 102.272C33.849 103.048 34.085 104.128 34.085 105.512C34.085 106.912 33.849 108.008 33.377 108.8C32.913 109.584 32.109 109.976 30.965 109.976C29.821 109.976 29.013 109.584 28.541 108.8C28.077 108.008 27.845 106.912 27.845 105.512ZM32.741 105.512C32.741 104.864 32.697 104.316 32.609 103.868C32.529 103.42 32.361 103.056 32.105 102.776C31.849 102.488 31.469 102.344 30.965 102.344C30.461 102.344 30.081 102.488 29.825 102.776C29.569 103.056 29.397 103.42 29.309 103.868C29.229 104.316 29.189 104.864 29.189 105.512C29.189 106.184 29.229 106.748 29.309 107.204C29.389 107.66 29.557 108.028 29.813 108.308C30.077 108.588 30.461 108.728 30.965 108.728C31.469 108.728 31.849 108.588 32.105 108.308C32.369 108.028 32.541 107.66 32.621 107.204C32.701 106.748 32.741 106.184 32.741 105.512ZM35.5325 105.512C35.5325 104.128 35.7645 103.048 36.2285 102.272C36.7005 101.488 37.5085 101.096 38.6525 101.096C39.7965 101.096 40.6005 101.488 41.0645 102.272C41.5365 103.048 41.7725 104.128 41.7725 105.512C41.7725 106.912 41.5365 108.008 41.0645 108.8C40.6005 109.584 39.7965 109.976 38.6525 109.976C37.5085 109.976 36.7005 109.584 36.2285 108.8C35.7645 108.008 35.5325 106.912 35.5325 105.512ZM40.4285 105.512C40.4285 104.864 40.3845 104.316 40.2965 103.868C40.2165 103.42 40.0485 103.056 39.7925 102.776C39.5365 102.488 39.1565 102.344 38.6525 102.344C38.1485 102.344 37.7685 102.488 37.5125 102.776C37.2565 103.056 37.0845 103.42 36.9965 103.868C36.9165 104.316 36.8765 104.864 36.8765 105.512C36.8765 106.184 36.9165 106.748 36.9965 107.204C37.0765 107.66 37.2445 108.028 37.5005 108.308C37.7645 108.588 38.1485 108.728 38.6525 108.728C39.1565 108.728 39.5365 108.588 39.7925 108.308C40.0565 108.028 40.2285 107.66 40.3085 107.204C40.3885 106.748 40.4285 106.184 40.4285 105.512Z" fill="#B5B5C3"/>
<path d="M21.476 133.14C22.244 132.476 22.848 131.932 23.288 131.508C23.736 131.076 24.108 130.628 24.404 130.164C24.7 129.7 24.848 129.236 24.848 128.772C24.848 128.292 24.732 127.916 24.5 127.644C24.276 127.372 23.92 127.236 23.432 127.236C22.96 127.236 22.592 127.388 22.328 127.692C22.072 127.988 21.936 128.388 21.92 128.892H20.6C20.624 127.98 20.896 127.284 21.416 126.804C21.944 126.316 22.612 126.072 23.42 126.072C24.292 126.072 24.972 126.312 25.46 126.792C25.956 127.272 26.204 127.912 26.204 128.712C26.204 129.288 26.056 129.844 25.76 130.38C25.472 130.908 25.124 131.384 24.716 131.808C24.316 132.224 23.804 132.708 23.18 133.26L22.64 133.74H26.444V134.88H20.612V133.884L21.476 133.14ZM27.6458 130.512C27.6458 129.128 27.8778 128.048 28.3418 127.272C28.8138 126.488 29.6218 126.096 30.7658 126.096C31.9098 126.096 32.7138 126.488 33.1778 127.272C33.6498 128.048 33.8858 129.128 33.8858 130.512C33.8858 131.912 33.6498 133.008 33.1778 133.8C32.7138 134.584 31.9098 134.976 30.7658 134.976C29.6218 134.976 28.8138 134.584 28.3418 133.8C27.8778 133.008 27.6458 131.912 27.6458 130.512ZM32.5418 130.512C32.5418 129.864 32.4978 129.316 32.4098 128.868C32.3298 128.42 32.1618 128.056 31.9058 127.776C31.6498 127.488 31.2698 127.344 30.7658 127.344C30.2618 127.344 29.8818 127.488 29.6258 127.776C29.3698 128.056 29.1978 128.42 29.1098 128.868C29.0298 129.316 28.9898 129.864 28.9898 130.512C28.9898 131.184 29.0298 131.748 29.1098 132.204C29.1898 132.66 29.3578 133.028 29.6138 133.308C29.8778 133.588 30.2618 133.728 30.7658 133.728C31.2698 133.728 31.6498 133.588 31.9058 133.308C32.1698 133.028 32.3418 132.66 32.4218 132.204C32.5018 131.748 32.5418 131.184 32.5418 130.512ZM35.3333 130.512C35.3333 129.128 35.5653 128.048 36.0293 127.272C36.5013 126.488 37.3093 126.096 38.4533 126.096C39.5973 126.096 40.4013 126.488 40.8653 127.272C41.3373 128.048 41.5733 129.128 41.5733 130.512C41.5733 131.912 41.3373 133.008 40.8653 133.8C40.4013 134.584 39.5973 134.976 38.4533 134.976C37.3093 134.976 36.5013 134.584 36.0293 133.8C35.5653 133.008 35.3333 131.912 35.3333 130.512ZM40.2293 130.512C40.2293 129.864 40.1853 129.316 40.0973 128.868C40.0173 128.42 39.8493 128.056 39.5933 127.776C39.3373 127.488 38.9573 127.344 38.4533 127.344C37.9493 127.344 37.5693 127.488 37.3133 127.776C37.0573 128.056 36.8853 128.42 36.7973 128.868C36.7173 129.316 36.6773 129.864 36.6773 130.512C36.6773 131.184 36.7173 131.748 36.7973 132.204C36.8773 132.66 37.0453 133.028 37.3013 133.308C37.5653 133.588 37.9493 133.728 38.4533 133.728C38.9573 133.728 39.3373 133.588 39.5933 133.308C39.8573 133.028 40.0293 132.66 40.1093 132.204C40.1893 131.748 40.2293 131.184 40.2293 130.512Z" fill="#B5B5C3"/>
<path d="M20.54 152.5V151.252H23.036V160H21.656V152.5H20.54ZM24.9153 155.512C24.9153 154.128 25.1473 153.048 25.6113 152.272C26.0833 151.488 26.8913 151.096 28.0353 151.096C29.1793 151.096 29.9833 151.488 30.4473 152.272C30.9193 153.048 31.1553 154.128 31.1553 155.512C31.1553 156.912 30.9193 158.008 30.4473 158.8C29.9833 159.584 29.1793 159.976 28.0353 159.976C26.8913 159.976 26.0833 159.584 25.6113 158.8C25.1473 158.008 24.9153 156.912 24.9153 155.512ZM29.8113 155.512C29.8113 154.864 29.7673 154.316 29.6793 153.868C29.5993 153.42 29.4313 153.056 29.1753 152.776C28.9193 152.488 28.5393 152.344 28.0353 152.344C27.5313 152.344 27.1513 152.488 26.8953 152.776C26.6393 153.056 26.4673 153.42 26.3793 153.868C26.2993 154.316 26.2593 154.864 26.2593 155.512C26.2593 156.184 26.2993 156.748 26.3793 157.204C26.4593 157.66 26.6273 158.028 26.8833 158.308C27.1473 158.588 27.5313 158.728 28.0353 158.728C28.5393 158.728 28.9193 158.588 29.1753 158.308C29.4393 158.028 29.6113 157.66 29.6913 157.204C29.7713 156.748 29.8113 156.184 29.8113 155.512ZM32.6028 155.512C32.6028 154.128 32.8348 153.048 33.2988 152.272C33.7708 151.488 34.5788 151.096 35.7228 151.096C36.8668 151.096 37.6708 151.488 38.1348 152.272C38.6068 153.048 38.8428 154.128 38.8428 155.512C38.8428 156.912 38.6068 158.008 38.1348 158.8C37.6708 159.584 36.8668 159.976 35.7228 159.976C34.5788 159.976 33.7708 159.584 33.2988 158.8C32.8348 158.008 32.6028 156.912 32.6028 155.512ZM37.4988 155.512C37.4988 154.864 37.4548 154.316 37.3668 153.868C37.2868 153.42 37.1188 153.056 36.8628 152.776C36.6068 152.488 36.2268 152.344 35.7228 152.344C35.2188 152.344 34.8388 152.488 34.5828 152.776C34.3268 153.056 34.1548 153.42 34.0668 153.868C33.9868 154.316 33.9468 154.864 33.9468 155.512C33.9468 156.184 33.9868 156.748 34.0668 157.204C34.1468 157.66 34.3148 158.028 34.5708 158.308C34.8348 158.588 35.2188 158.728 35.7228 158.728C36.2268 158.728 36.6068 158.588 36.8628 158.308C37.1268 158.028 37.2988 157.66 37.3788 157.204C37.4588 156.748 37.4988 156.184 37.4988 155.512Z" fill="#B5B5C3"/>
<path d="M26.36 177.428H22.34V179.816C22.508 179.592 22.756 179.404 23.084 179.252C23.42 179.1 23.776 179.024 24.152 179.024C24.824 179.024 25.368 179.168 25.784 179.456C26.208 179.744 26.508 180.108 26.684 180.548C26.868 180.988 26.96 181.452 26.96 181.94C26.96 182.532 26.844 183.06 26.612 183.524C26.388 183.98 26.048 184.34 25.592 184.604C25.144 184.868 24.592 185 23.936 185C23.064 185 22.364 184.784 21.836 184.352C21.308 183.92 20.992 183.348 20.888 182.636H22.22C22.308 183.012 22.504 183.312 22.808 183.536C23.112 183.752 23.492 183.86 23.948 183.86C24.516 183.86 24.94 183.688 25.22 183.344C25.508 183 25.652 182.544 25.652 181.976C25.652 181.4 25.508 180.96 25.22 180.656C24.932 180.344 24.508 180.188 23.948 180.188C23.556 180.188 23.224 180.288 22.952 180.488C22.688 180.68 22.496 180.944 22.376 181.28H21.08V176.228H26.36V177.428ZM28.3841 180.512C28.3841 179.128 28.6161 178.048 29.0801 177.272C29.5521 176.488 30.3601 176.096 31.5041 176.096C32.6481 176.096 33.4521 176.488 33.9161 177.272C34.3881 178.048 34.6241 179.128 34.6241 180.512C34.6241 181.912 34.3881 183.008 33.9161 183.8C33.4521 184.584 32.6481 184.976 31.5041 184.976C30.3601 184.976 29.5521 184.584 29.0801 183.8C28.6161 183.008 28.3841 181.912 28.3841 180.512ZM33.2801 180.512C33.2801 179.864 33.2361 179.316 33.1481 178.868C33.0681 178.42 32.9001 178.056 32.6441 177.776C32.3881 177.488 32.0081 177.344 31.5041 177.344C31.0001 177.344 30.6201 177.488 30.3641 177.776C30.1081 178.056 29.9361 178.42 29.8481 178.868C29.7681 179.316 29.7281 179.864 29.7281 180.512C29.7281 181.184 29.7681 181.748 29.8481 182.204C29.9281 182.66 30.0961 183.028 30.3521 183.308C30.6161 183.588 31.0001 183.728 31.5041 183.728C32.0081 183.728 32.3881 183.588 32.6441 183.308C32.9081 183.028 33.0801 182.66 33.1601 182.204C33.2401 181.748 33.2801 181.184 33.2801 180.512Z" fill="#B5B5C3"/>
<path d="M20.72 205.512C20.72 204.128 20.952 203.048 21.416 202.272C21.888 201.488 22.696 201.096 23.84 201.096C24.984 201.096 25.788 201.488 26.252 202.272C26.724 203.048 26.96 204.128 26.96 205.512C26.96 206.912 26.724 208.008 26.252 208.8C25.788 209.584 24.984 209.976 23.84 209.976C22.696 209.976 21.888 209.584 21.416 208.8C20.952 208.008 20.72 206.912 20.72 205.512ZM25.616 205.512C25.616 204.864 25.572 204.316 25.484 203.868C25.404 203.42 25.236 203.056 24.98 202.776C24.724 202.488 24.344 202.344 23.84 202.344C23.336 202.344 22.956 202.488 22.7 202.776C22.444 203.056 22.272 203.42 22.184 203.868C22.104 204.316 22.064 204.864 22.064 205.512C22.064 206.184 22.104 206.748 22.184 207.204C22.264 207.66 22.432 208.028 22.688 208.308C22.952 208.588 23.336 208.728 23.84 208.728C24.344 208.728 24.724 208.588 24.98 208.308C25.244 208.028 25.416 207.66 25.496 207.204C25.576 206.748 25.616 206.184 25.616 205.512Z" fill="#B5B5C3"/>
<line x1="60" y1="5.5" x2="626" y2="5.5" stroke="#EAEAEA" stroke-dasharray="3 4"/>
<line x1="60" y1="30.5" x2="626" y2="30.5" stroke="#EAEAEA" stroke-dasharray="3 4"/>
<line x1="60" y1="55.5" x2="626" y2="55.5" stroke="#EAEAEA" stroke-dasharray="3 4"/>
<line x1="60" y1="80.5" x2="626" y2="80.5" stroke="#EAEAEA" stroke-dasharray="3 4"/>
<line x1="60" y1="105.5" x2="626" y2="105.5" stroke="#EAEAEA" stroke-dasharray="3 4"/>
<line x1="60" y1="130.5" x2="626" y2="130.5" stroke="#EAEAEA" stroke-dasharray="3 4"/>
<line x1="60" y1="155.5" x2="626" y2="155.5" stroke="#EAEAEA" stroke-dasharray="3 4"/>
<line x1="60" y1="180.5" x2="626" y2="180.5" stroke="#EAEAEA" stroke-dasharray="3 4"/>
<line x1="60" y1="205.5" x2="626" y2="205.5" stroke="#EAEAEA" stroke-dasharray="3 4"/>
<path d="M79.0693 229.66C79.9573 229.66 80.7333 229.832 81.3973 230.176C82.0693 230.512 82.5853 231 82.9453 231.64C83.3133 232.272 83.4973 233.012 83.4973 233.86C83.4973 234.708 83.3133 235.444 82.9453 236.068C82.5853 236.692 82.0693 237.172 81.3973 237.508C80.7333 237.836 79.9573 238 79.0693 238H76.3453V229.66H79.0693ZM79.0693 236.884C80.0453 236.884 80.7933 236.62 81.3133 236.092C81.8333 235.564 82.0933 234.82 82.0933 233.86C82.0933 232.892 81.8333 232.136 81.3133 231.592C80.7933 231.048 80.0453 230.776 79.0693 230.776H77.7133V236.884H79.0693ZM90.9131 234.532C90.9131 234.78 90.8971 235.004 90.8651 235.204H85.8131C85.8531 235.732 86.0491 236.156 86.4011 236.476C86.7531 236.796 87.1851 236.956 87.6971 236.956C88.4331 236.956 88.9531 236.648 89.2571 236.032H90.7331C90.5331 236.64 90.1691 237.14 89.6411 237.532C89.1211 237.916 88.4731 238.108 87.6971 238.108C87.0651 238.108 86.4971 237.968 85.9931 237.688C85.4971 237.4 85.1051 237 84.8171 236.488C84.5371 235.968 84.3971 235.368 84.3971 234.688C84.3971 234.008 84.5331 233.412 84.8051 232.9C85.0851 232.38 85.4731 231.98 85.9691 231.7C86.4731 231.42 87.0491 231.28 87.6971 231.28C88.3211 231.28 88.8771 231.416 89.3651 231.688C89.8531 231.96 90.2331 232.344 90.5051 232.84C90.7771 233.328 90.9131 233.892 90.9131 234.532ZM89.4851 234.1C89.4771 233.596 89.2971 233.192 88.9451 232.888C88.5931 232.584 88.1571 232.432 87.6371 232.432C87.1651 232.432 86.7611 232.584 86.4251 232.888C86.0891 233.184 85.8891 233.588 85.8251 234.1H89.4851ZM91.8034 234.688C91.8034 234.008 91.9394 233.412 92.2114 232.9C92.4914 232.38 92.8754 231.98 93.3634 231.7C93.8514 231.42 94.4114 231.28 95.0434 231.28C95.8434 231.28 96.5034 231.472 97.0234 231.856C97.5514 232.232 97.9074 232.772 98.0914 233.476H96.6154C96.4954 233.148 96.3034 232.892 96.0394 232.708C95.7754 232.524 95.4434 232.432 95.0434 232.432C94.4834 232.432 94.0354 232.632 93.6994 233.032C93.3714 233.424 93.2074 233.976 93.2074 234.688C93.2074 235.4 93.3714 235.956 93.6994 236.356C94.0354 236.756 94.4834 236.956 95.0434 236.956C95.8354 236.956 96.3594 236.608 96.6154 235.912H98.0914C97.8994 236.584 97.5394 237.12 97.0114 237.52C96.4834 237.912 95.8274 238.108 95.0434 238.108C94.4114 238.108 93.8514 237.968 93.3634 237.688C92.8754 237.4 92.4914 237 92.2114 236.488C91.9394 235.968 91.8034 235.368 91.8034 234.688Z" fill="#B5B5C3"/>
<path d="M183.299 229.66V235.672C183.299 236.416 183.071 237.004 182.615 237.436C182.167 237.868 181.575 238.084 180.839 238.084C180.103 238.084 179.507 237.868 179.051 237.436C178.603 237.004 178.379 236.416 178.379 235.672H179.759C179.767 236.04 179.859 236.332 180.035 236.548C180.219 236.764 180.487 236.872 180.839 236.872C181.191 236.872 181.459 236.764 181.643 236.548C181.827 236.324 181.919 236.032 181.919 235.672V229.66H183.299ZM185.068 234.664C185.068 234 185.204 233.412 185.476 232.9C185.756 232.388 186.132 231.992 186.604 231.712C187.084 231.424 187.612 231.28 188.188 231.28C188.708 231.28 189.16 231.384 189.544 231.592C189.936 231.792 190.248 232.044 190.48 232.348V231.388H191.86V238H190.48V237.016C190.248 237.328 189.932 237.588 189.532 237.796C189.132 238.004 188.676 238.108 188.164 238.108C187.596 238.108 187.076 237.964 186.604 237.676C186.132 237.38 185.756 236.972 185.476 236.452C185.204 235.924 185.068 235.328 185.068 234.664ZM190.48 234.688C190.48 234.232 190.384 233.836 190.192 233.5C190.008 233.164 189.764 232.908 189.46 232.732C189.156 232.556 188.828 232.468 188.476 232.468C188.124 232.468 187.796 232.556 187.492 232.732C187.188 232.9 186.94 233.152 186.748 233.488C186.564 233.816 186.472 234.208 186.472 234.664C186.472 235.12 186.564 235.52 186.748 235.864C186.94 236.208 187.188 236.472 187.492 236.656C187.804 236.832 188.132 236.92 188.476 236.92C188.828 236.92 189.156 236.832 189.46 236.656C189.764 236.48 190.008 236.224 190.192 235.888C190.384 235.544 190.48 235.144 190.48 234.688ZM196.993 231.28C197.513 231.28 197.977 231.388 198.385 231.604C198.801 231.82 199.125 232.14 199.357 232.564C199.589 232.988 199.705 233.5 199.705 234.1V238H198.349V234.304C198.349 233.712 198.201 233.26 197.905 232.948C197.609 232.628 197.205 232.468 196.693 232.468C196.181 232.468 195.773 232.628 195.469 232.948C195.173 233.26 195.025 233.712 195.025 234.304V238H193.657V231.388H195.025V232.144C195.249 231.872 195.533 231.66 195.877 231.508C196.229 231.356 196.601 231.28 196.993 231.28Z" fill="#B5B5C3"/>
<path d="M286.35 229.66V230.776H282.81V233.236H285.57V234.352H282.81V238H281.442V229.66H286.35ZM293.678 234.532C293.678 234.78 293.662 235.004 293.63 235.204H288.578C288.618 235.732 288.814 236.156 289.166 236.476C289.518 236.796 289.95 236.956 290.462 236.956C291.198 236.956 291.718 236.648 292.022 236.032H293.498C293.298 236.64 292.934 237.14 292.406 237.532C291.886 237.916 291.238 238.108 290.462 238.108C289.83 238.108 289.262 237.968 288.758 237.688C288.262 237.4 287.87 237 287.582 236.488C287.302 235.968 287.162 235.368 287.162 234.688C287.162 234.008 287.298 233.412 287.57 232.9C287.85 232.38 288.238 231.98 288.734 231.7C289.238 231.42 289.814 231.28 290.462 231.28C291.086 231.28 291.642 231.416 292.13 231.688C292.618 231.96 292.998 232.344 293.27 232.84C293.542 233.328 293.678 233.892 293.678 234.532ZM292.25 234.1C292.242 233.596 292.062 233.192 291.71 232.888C291.358 232.584 290.922 232.432 290.402 232.432C289.93 232.432 289.526 232.584 289.19 232.888C288.854 233.184 288.654 233.588 288.59 234.1H292.25ZM296.393 232.372C296.625 232.052 296.941 231.792 297.341 231.592C297.749 231.384 298.201 231.28 298.697 231.28C299.281 231.28 299.809 231.42 300.281 231.7C300.753 231.98 301.125 232.38 301.397 232.9C301.669 233.412 301.805 234 301.805 234.664C301.805 235.328 301.669 235.924 301.397 236.452C301.125 236.972 300.749 237.38 300.269 237.676C299.797 237.964 299.273 238.108 298.697 238.108C298.185 238.108 297.729 238.008 297.329 237.808C296.937 237.608 296.625 237.352 296.393 237.04V238H295.025V229.12H296.393V232.372ZM300.413 234.664C300.413 234.208 300.317 233.816 300.125 233.488C299.941 233.152 299.693 232.9 299.381 232.732C299.077 232.556 298.749 232.468 298.397 232.468C298.053 232.468 297.725 232.556 297.413 232.732C297.109 232.908 296.861 233.164 296.669 233.5C296.485 233.836 296.393 234.232 296.393 234.688C296.393 235.144 296.485 235.544 296.669 235.888C296.861 236.224 297.109 236.48 297.413 236.656C297.725 236.832 298.053 236.92 298.397 236.92C298.749 236.92 299.077 236.832 299.381 236.656C299.693 236.472 299.941 236.208 300.125 235.864C300.317 235.52 300.413 235.12 300.413 234.664Z" fill="#B5B5C3"/>
<path d="M384.13 229.66V238H382.762V232.288L380.218 238H379.27L376.714 232.288V238H375.346V229.66H376.822L379.75 236.2L382.666 229.66H384.13ZM385.472 234.664C385.472 234 385.608 233.412 385.88 232.9C386.16 232.388 386.536 231.992 387.008 231.712C387.488 231.424 388.016 231.28 388.592 231.28C389.112 231.28 389.564 231.384 389.948 231.592C390.34 231.792 390.652 232.044 390.884 232.348V231.388H392.264V238H390.884V237.016C390.652 237.328 390.336 237.588 389.936 237.796C389.536 238.004 389.08 238.108 388.568 238.108C388 238.108 387.48 237.964 387.008 237.676C386.536 237.38 386.16 236.972 385.88 236.452C385.608 235.924 385.472 235.328 385.472 234.664ZM390.884 234.688C390.884 234.232 390.788 233.836 390.596 233.5C390.412 233.164 390.168 232.908 389.864 232.732C389.56 232.556 389.232 232.468 388.88 232.468C388.528 232.468 388.2 232.556 387.896 232.732C387.592 232.9 387.344 233.152 387.152 233.488C386.968 233.816 386.876 234.208 386.876 234.664C386.876 235.12 386.968 235.52 387.152 235.864C387.344 236.208 387.592 236.472 387.896 236.656C388.208 236.832 388.536 236.92 388.88 236.92C389.232 236.92 389.56 236.832 389.864 236.656C390.168 236.48 390.412 236.224 390.596 235.888C390.788 235.544 390.884 235.144 390.884 234.688ZM395.429 232.348C395.629 232.012 395.893 231.752 396.221 231.568C396.557 231.376 396.953 231.28 397.409 231.28V232.696H397.061C396.525 232.696 396.117 232.832 395.837 233.104C395.565 233.376 395.429 233.848 395.429 234.52V238H394.061V231.388H395.429V232.348ZM398.21 234.688C398.21 234.008 398.346 233.412 398.618 232.9C398.898 232.38 399.282 231.98 399.77 231.7C400.258 231.42 400.818 231.28 401.45 231.28C402.25 231.28 402.91 231.472 403.43 231.856C403.958 232.232 404.314 232.772 404.498 233.476H403.022C402.902 233.148 402.71 232.892 402.446 232.708C402.182 232.524 401.85 232.432 401.45 232.432C400.89 232.432 400.442 232.632 400.106 233.032C399.778 233.424 399.614 233.976 399.614 234.688C399.614 235.4 399.778 235.956 400.106 236.356C400.442 236.756 400.89 236.956 401.45 236.956C402.242 236.956 402.766 236.608 403.022 235.912H404.498C404.306 236.584 403.946 237.12 403.418 237.52C402.89 237.912 402.234 238.108 401.45 238.108C400.818 238.108 400.258 237.968 399.77 237.688C399.282 237.4 398.898 237 398.618 236.488C398.346 235.968 398.21 235.368 398.21 234.688ZM409.281 231.28C409.785 231.28 410.233 231.388 410.625 231.604C411.025 231.82 411.337 232.14 411.561 232.564C411.793 232.988 411.909 233.5 411.909 234.1V238H410.553V234.304C410.553 233.712 410.405 233.26 410.109 232.948C409.813 232.628 409.409 232.468 408.897 232.468C408.385 232.468 407.977 232.628 407.673 232.948C407.377 233.26 407.229 233.712 407.229 234.304V238H405.861V229.12H407.229V232.156C407.461 231.876 407.753 231.66 408.105 231.508C408.465 231.356 408.857 231.28 409.281 231.28Z" fill="#B5B5C3"/>
<path d="M491.175 236.296H487.683L487.083 238H485.655L488.643 229.648H490.227L493.215 238H491.775L491.175 236.296ZM490.791 235.18L489.435 231.304L488.067 235.18H490.791ZM495.882 232.36C496.114 232.056 496.43 231.8 496.83 231.592C497.23 231.384 497.682 231.28 498.186 231.28C498.762 231.28 499.286 231.424 499.758 231.712C500.238 231.992 500.614 232.388 500.886 232.9C501.158 233.412 501.294 234 501.294 234.664C501.294 235.328 501.158 235.924 500.886 236.452C500.614 236.972 500.238 237.38 499.758 237.676C499.286 237.964 498.762 238.108 498.186 238.108C497.682 238.108 497.234 238.008 496.842 237.808C496.45 237.6 496.13 237.344 495.882 237.04V241.144H494.514V231.388H495.882V232.36ZM499.902 234.664C499.902 234.208 499.806 233.816 499.614 233.488C499.43 233.152 499.182 232.9 498.87 232.732C498.566 232.556 498.238 232.468 497.886 232.468C497.542 232.468 497.214 232.556 496.902 232.732C496.598 232.908 496.35 233.164 496.158 233.5C495.974 233.836 495.882 234.232 495.882 234.688C495.882 235.144 495.974 235.544 496.158 235.888C496.35 236.224 496.598 236.48 496.902 236.656C497.214 236.832 497.542 236.92 497.886 236.92C498.238 236.92 498.566 236.832 498.87 236.656C499.182 236.472 499.43 236.208 499.614 235.864C499.806 235.52 499.902 235.12 499.902 234.664ZM504.015 232.348C504.215 232.012 504.479 231.752 504.807 231.568C505.143 231.376 505.539 231.28 505.995 231.28V232.696H505.647C505.111 232.696 504.703 232.832 504.423 233.104C504.151 233.376 504.015 233.848 504.015 234.52V238H502.647V231.388H504.015V232.348Z" fill="#B5B5C3"/>
<path d="M594.834 229.66V238H593.466V232.288L590.922 238H589.974L587.418 232.288V238H586.05V229.66H587.526L590.454 236.2L593.37 229.66H594.834ZM596.176 234.664C596.176 234 596.312 233.412 596.584 232.9C596.864 232.388 597.24 231.992 597.712 231.712C598.192 231.424 598.72 231.28 599.296 231.28C599.816 231.28 600.268 231.384 600.652 231.592C601.044 231.792 601.356 232.044 601.588 232.348V231.388H602.968V238H601.588V237.016C601.356 237.328 601.04 237.588 600.64 237.796C600.24 238.004 599.784 238.108 599.272 238.108C598.704 238.108 598.184 237.964 597.712 237.676C597.24 237.38 596.864 236.972 596.584 236.452C596.312 235.924 596.176 235.328 596.176 234.664ZM601.588 234.688C601.588 234.232 601.492 233.836 601.3 233.5C601.116 233.164 600.872 232.908 600.568 232.732C600.264 232.556 599.936 232.468 599.584 232.468C599.232 232.468 598.904 232.556 598.6 232.732C598.296 232.9 598.048 233.152 597.856 233.488C597.672 233.816 597.58 234.208 597.58 234.664C597.58 235.12 597.672 235.52 597.856 235.864C598.048 236.208 598.296 236.472 598.6 236.656C598.912 236.832 599.24 236.92 599.584 236.92C599.936 236.92 600.264 236.832 600.568 236.656C600.872 236.48 601.116 236.224 601.3 235.888C601.492 235.544 601.588 235.144 601.588 234.688ZM610.717 231.388L606.661 241.108H605.245L606.589 237.892L603.985 231.388H605.509L607.369 236.428L609.301 231.388H610.717Z" fill="#B5B5C3"/>
<g clip-path="url(#clip1_9_9570)">
<path d="M155.42 143.316C115.815 157.4 93.605 157.649 54 143.316V214H798V143.316L709.447 110.368C655.61 91.3561 625.778 91.0657 573.211 110.368L457.41 153.454C417.663 166.696 396.467 166.646 360.531 153.454L295.44 129.236C254.232 112.61 231.927 113.446 193.263 129.236L155.42 143.316Z" fill="#0BB783" fill-opacity="0.5" stroke="#0BB783" stroke-width="3"/>
</g>
</g>
<defs>
<clipPath id="clip0_9_9570">
<rect width="626" height="240" fill="white"/>
</clipPath>
<clipPath id="clip1_9_9570">
<rect width="566" height="206" fill="white" transform="translate(60)"/>
</clipPath>
</defs>
</svg>
