<svg width="728" height="302" viewBox="0 0 728 302" fill="none" xmlns="http://www.w3.org/2000/svg">
<g clip-path="url(#clip0_9_9392)">
<path d="M1.66 264.316H10V265.684H4.288L10 268.228V269.176L4.288 271.732H10V273.1H1.66L1.66 271.624L8.2 268.696L1.66 265.78L1.66 264.316ZM2.512 261.822C2.512 262.07 2.428 262.278 2.26 262.446C2.092 262.614 1.884 262.698 1.636 262.698C1.388 262.698 1.18 262.614 1.012 262.446C0.844 262.278 0.76 262.07 0.76 261.822C0.76 261.582 0.844 261.378 1.012 261.21C1.18 261.042 1.388 260.958 1.636 260.958C1.884 260.958 2.092 261.042 2.26 261.21C2.428 261.378 2.512 261.582 2.512 261.822ZM3.388 261.15H10V262.518H3.388V261.15ZM3.28 256.018C3.28 255.498 3.388 255.034 3.604 254.626C3.82 254.21 4.14 253.886 4.564 253.654C4.988 253.422 5.5 253.306 6.1 253.306H10V254.662H6.304C5.712 254.662 5.26 254.81 4.948 255.106C4.628 255.402 4.468 255.806 4.468 256.318C4.468 256.83 4.628 257.238 4.948 257.542C5.26 257.838 5.712 257.986 6.304 257.986H10V259.354H3.388V257.986H4.144C3.872 257.762 3.66 257.478 3.508 257.134C3.356 256.782 3.28 256.41 3.28 256.018ZM3.388 245.573H10V246.941H9.22C9.492 247.157 9.708 247.441 9.868 247.793C10.02 248.137 10.096 248.505 10.096 248.897C10.096 249.417 9.988 249.885 9.772 250.301C9.556 250.709 9.236 251.033 8.812 251.273C8.388 251.505 7.876 251.621 7.276 251.621H3.388V250.265H7.072C7.664 250.265 8.12 250.117 8.44 249.821C8.752 249.525 8.908 249.121 8.908 248.609C8.908 248.097 8.752 247.693 8.44 247.397C8.12 247.093 7.664 246.941 7.072 246.941H3.388V245.573ZM4.504 242.172H8.164C8.412 242.172 8.592 242.116 8.704 242.004C8.808 241.884 8.86 241.684 8.86 241.404V240.564H10V241.644C10 242.26 9.856 242.732 9.568 243.06C9.28 243.388 8.812 243.552 8.164 243.552H4.504V244.332H3.388V243.552H1.744L1.744 242.172H3.388L3.388 240.564H4.504V242.172ZM6.532 233.243C6.78 233.243 7.004 233.259 7.204 233.291L7.204 238.343C7.732 238.303 8.156 238.107 8.476 237.755C8.796 237.403 8.956 236.971 8.956 236.459C8.956 235.723 8.648 235.203 8.032 234.899V233.423C8.64 233.623 9.14 233.987 9.532 234.515C9.916 235.035 10.108 235.683 10.108 236.459C10.108 237.091 9.968 237.659 9.688 238.163C9.4 238.659 9 239.051 8.488 239.339C7.968 239.619 7.368 239.759 6.688 239.759C6.008 239.759 5.412 239.623 4.9 239.351C4.38 239.071 3.98 238.683 3.7 238.187C3.42 237.683 3.28 237.107 3.28 236.459C3.28 235.835 3.416 235.279 3.688 234.791C3.96 234.303 4.344 233.923 4.84 233.651C5.328 233.379 5.892 233.243 6.532 233.243ZM6.1 234.671C5.596 234.679 5.192 234.859 4.888 235.211C4.584 235.563 4.432 235.999 4.432 236.519C4.432 236.991 4.584 237.395 4.888 237.731C5.184 238.067 5.588 238.267 6.1 238.331L6.1 234.671ZM10.108 229.497C10.108 230.017 10.016 230.485 9.832 230.901C9.64 231.309 9.384 231.633 9.064 231.873C8.736 232.113 8.372 232.241 7.972 232.257V230.841C8.252 230.817 8.488 230.685 8.68 230.445C8.864 230.197 8.956 229.889 8.956 229.521C8.956 229.137 8.884 228.841 8.74 228.633C8.588 228.417 8.396 228.309 8.164 228.309C7.916 228.309 7.732 228.429 7.612 228.669C7.492 228.901 7.36 229.273 7.216 229.785C7.08 230.281 6.948 230.685 6.82 230.997C6.692 231.309 6.496 231.581 6.232 231.813C5.968 232.037 5.62 232.149 5.188 232.149C4.836 232.149 4.516 232.045 4.228 231.837C3.932 231.629 3.7 231.333 3.532 230.949C3.364 230.557 3.28 230.109 3.28 229.605C3.28 228.853 3.472 228.249 3.856 227.793C4.232 227.329 4.748 227.081 5.404 227.049V228.417C5.108 228.441 4.872 228.561 4.696 228.777C4.52 228.993 4.432 229.285 4.432 229.653C4.432 230.013 4.5 230.289 4.636 230.481C4.772 230.673 4.952 230.769 5.176 230.769C5.352 230.769 5.5 230.705 5.62 230.577C5.74 230.449 5.836 230.293 5.908 230.109C5.972 229.925 6.056 229.653 6.16 229.293C6.288 228.813 6.42 228.421 6.556 228.117C6.684 227.805 6.876 227.537 7.132 227.313C7.388 227.089 7.728 226.973 8.152 226.965C8.528 226.965 8.864 227.069 9.16 227.277C9.456 227.485 9.688 227.781 9.856 228.165C10.024 228.541 10.108 228.985 10.108 229.497Z" fill="#B5B5C3"/>
<path d="M20.552 8.176V7.144L24.584 1.36H26.24V6.988H27.356V8.176H26.24V10H24.896V8.176H20.552ZM24.956 2.752L22.124 6.988H24.956V2.752ZM28.4895 5.512C28.4895 4.128 28.7215 3.048 29.1855 2.272C29.6575 1.488 30.4655 1.096 31.6095 1.096C32.7535 1.096 33.5575 1.488 34.0215 2.272C34.4935 3.048 34.7295 4.128 34.7295 5.512C34.7295 6.912 34.4935 8.008 34.0215 8.8C33.5575 9.584 32.7535 9.976 31.6095 9.976C30.4655 9.976 29.6575 9.584 29.1855 8.8C28.7215 8.008 28.4895 6.912 28.4895 5.512ZM33.3855 5.512C33.3855 4.864 33.3415 4.316 33.2535 3.868C33.1735 3.42 33.0055 3.056 32.7495 2.776C32.4935 2.488 32.1135 2.344 31.6095 2.344C31.1055 2.344 30.7255 2.488 30.4695 2.776C30.2135 3.056 30.0415 3.42 29.9535 3.868C29.8735 4.316 29.8335 4.864 29.8335 5.512C29.8335 6.184 29.8735 6.748 29.9535 7.204C30.0335 7.66 30.2015 8.028 30.4575 8.308C30.7215 8.588 31.1055 8.728 31.6095 8.728C32.1135 8.728 32.4935 8.588 32.7495 8.308C33.0135 8.028 33.1855 7.66 33.2655 7.204C33.3455 6.748 33.3855 6.184 33.3855 5.512Z" fill="#B5B5C3"/>
<path d="M20.696 36.162C20.744 35.418 21.028 34.838 21.548 34.422C22.076 34.006 22.748 33.798 23.564 33.798C24.124 33.798 24.608 33.898 25.016 34.098C25.424 34.298 25.732 34.57 25.94 34.914C26.148 35.258 26.252 35.646 26.252 36.078C26.252 36.574 26.12 36.998 25.856 37.35C25.592 37.702 25.276 37.938 24.908 38.058V38.106C25.38 38.25 25.748 38.514 26.012 38.898C26.276 39.274 26.408 39.758 26.408 40.35C26.408 40.822 26.3 41.242 26.084 41.61C25.868 41.978 25.548 42.27 25.124 42.486C24.7 42.694 24.192 42.798 23.6 42.798C22.736 42.798 22.024 42.578 21.464 42.138C20.912 41.69 20.616 41.05 20.576 40.218H21.896C21.928 40.642 22.092 40.99 22.388 41.262C22.684 41.526 23.084 41.658 23.588 41.658C24.076 41.658 24.452 41.526 24.716 41.262C24.98 40.99 25.112 40.642 25.112 40.218C25.112 39.658 24.932 39.262 24.572 39.03C24.22 38.79 23.676 38.67 22.94 38.67H22.628V37.542H22.952C23.6 37.534 24.092 37.426 24.428 37.218C24.772 37.01 24.944 36.682 24.944 36.234C24.944 35.85 24.82 35.546 24.572 35.322C24.324 35.09 23.972 34.974 23.516 34.974C23.068 34.974 22.72 35.09 22.472 35.322C22.224 35.546 22.076 35.826 22.028 36.162H20.696ZM33.485 35.178H29.465V37.566C29.633 37.342 29.881 37.154 30.209 37.002C30.545 36.85 30.901 36.774 31.277 36.774C31.949 36.774 32.493 36.918 32.909 37.206C33.333 37.494 33.633 37.858 33.809 38.298C33.993 38.738 34.085 39.202 34.085 39.69C34.085 40.282 33.969 40.81 33.737 41.274C33.513 41.73 33.173 42.09 32.717 42.354C32.269 42.618 31.717 42.75 31.061 42.75C30.189 42.75 29.489 42.534 28.961 42.102C28.433 41.67 28.117 41.098 28.013 40.386H29.345C29.433 40.762 29.629 41.062 29.933 41.286C30.237 41.502 30.617 41.61 31.073 41.61C31.641 41.61 32.065 41.438 32.345 41.094C32.633 40.75 32.777 40.294 32.777 39.726C32.777 39.15 32.633 38.71 32.345 38.406C32.057 38.094 31.633 37.938 31.073 37.938C30.681 37.938 30.349 38.038 30.077 38.238C29.813 38.43 29.621 38.694 29.501 39.03H28.205V33.978H33.485V35.178Z" fill="#B5B5C3"/>
<path d="M20.696 68.912C20.744 68.168 21.028 67.588 21.548 67.172C22.076 66.756 22.748 66.548 23.564 66.548C24.124 66.548 24.608 66.648 25.016 66.848C25.424 67.048 25.732 67.32 25.94 67.664C26.148 68.008 26.252 68.396 26.252 68.828C26.252 69.324 26.12 69.748 25.856 70.1C25.592 70.452 25.276 70.688 24.908 70.808V70.856C25.38 71 25.748 71.264 26.012 71.648C26.276 72.024 26.408 72.508 26.408 73.1C26.408 73.572 26.3 73.992 26.084 74.36C25.868 74.728 25.548 75.02 25.124 75.236C24.7 75.444 24.192 75.548 23.6 75.548C22.736 75.548 22.024 75.328 21.464 74.888C20.912 74.44 20.616 73.8 20.576 72.968H21.896C21.928 73.392 22.092 73.74 22.388 74.012C22.684 74.276 23.084 74.408 23.588 74.408C24.076 74.408 24.452 74.276 24.716 74.012C24.98 73.74 25.112 73.392 25.112 72.968C25.112 72.408 24.932 72.012 24.572 71.78C24.22 71.54 23.676 71.42 22.94 71.42H22.628V70.292H22.952C23.6 70.284 24.092 70.176 24.428 69.968C24.772 69.76 24.944 69.432 24.944 68.984C24.944 68.6 24.82 68.296 24.572 68.072C24.324 67.84 23.972 67.724 23.516 67.724C23.068 67.724 22.72 67.84 22.472 68.072C22.224 68.296 22.076 68.576 22.028 68.912H20.696ZM27.845 71.012C27.845 69.628 28.077 68.548 28.541 67.772C29.013 66.988 29.821 66.596 30.965 66.596C32.109 66.596 32.913 66.988 33.377 67.772C33.849 68.548 34.085 69.628 34.085 71.012C34.085 72.412 33.849 73.508 33.377 74.3C32.913 75.084 32.109 75.476 30.965 75.476C29.821 75.476 29.013 75.084 28.541 74.3C28.077 73.508 27.845 72.412 27.845 71.012ZM32.741 71.012C32.741 70.364 32.697 69.816 32.609 69.368C32.529 68.92 32.361 68.556 32.105 68.276C31.849 67.988 31.469 67.844 30.965 67.844C30.461 67.844 30.081 67.988 29.825 68.276C29.569 68.556 29.397 68.92 29.309 69.368C29.229 69.816 29.189 70.364 29.189 71.012C29.189 71.684 29.229 72.248 29.309 72.704C29.389 73.16 29.557 73.528 29.813 73.808C30.077 74.088 30.461 74.228 30.965 74.228C31.469 74.228 31.849 74.088 32.105 73.808C32.369 73.528 32.541 73.16 32.621 72.704C32.701 72.248 32.741 71.684 32.741 71.012Z" fill="#B5B5C3"/>
<path d="M21.476 106.39C22.244 105.726 22.848 105.182 23.288 104.758C23.736 104.326 24.108 103.878 24.404 103.414C24.7 102.95 24.848 102.486 24.848 102.022C24.848 101.542 24.732 101.166 24.5 100.894C24.276 100.622 23.92 100.486 23.432 100.486C22.96 100.486 22.592 100.638 22.328 100.942C22.072 101.238 21.936 101.638 21.92 102.142H20.6C20.624 101.23 20.896 100.534 21.416 100.054C21.944 99.566 22.612 99.322 23.42 99.322C24.292 99.322 24.972 99.562 25.46 100.042C25.956 100.522 26.204 101.162 26.204 101.962C26.204 102.538 26.056 103.094 25.76 103.63C25.472 104.158 25.124 104.634 24.716 105.058C24.316 105.474 23.804 105.958 23.18 106.51L22.64 106.99H26.444V108.13H20.612V107.134L21.476 106.39ZM33.2858 100.678H29.2658V103.066C29.4338 102.842 29.6818 102.654 30.0098 102.502C30.3458 102.35 30.7018 102.274 31.0778 102.274C31.7498 102.274 32.2938 102.418 32.7098 102.706C33.1338 102.994 33.4338 103.358 33.6098 103.798C33.7938 104.238 33.8858 104.702 33.8858 105.19C33.8858 105.782 33.7698 106.31 33.5378 106.774C33.3138 107.23 32.9738 107.59 32.5178 107.854C32.0698 108.118 31.5178 108.25 30.8618 108.25C29.9898 108.25 29.2898 108.034 28.7618 107.602C28.2338 107.17 27.9178 106.598 27.8138 105.886H29.1458C29.2338 106.262 29.4298 106.562 29.7338 106.786C30.0378 107.002 30.4178 107.11 30.8738 107.11C31.4418 107.11 31.8658 106.938 32.1458 106.594C32.4338 106.25 32.5778 105.794 32.5778 105.226C32.5778 104.65 32.4338 104.21 32.1458 103.906C31.8578 103.594 31.4338 103.438 30.8738 103.438C30.4818 103.438 30.1498 103.538 29.8778 103.738C29.6138 103.93 29.4218 104.194 29.3018 104.53H28.0058V99.478H33.2858V100.678Z" fill="#B5B5C3"/>
<path d="M21.476 139.14C22.244 138.476 22.848 137.932 23.288 137.508C23.736 137.076 24.108 136.628 24.404 136.164C24.7 135.7 24.848 135.236 24.848 134.772C24.848 134.292 24.732 133.916 24.5 133.644C24.276 133.372 23.92 133.236 23.432 133.236C22.96 133.236 22.592 133.388 22.328 133.692C22.072 133.988 21.936 134.388 21.92 134.892H20.6C20.624 133.98 20.896 133.284 21.416 132.804C21.944 132.316 22.612 132.072 23.42 132.072C24.292 132.072 24.972 132.312 25.46 132.792C25.956 133.272 26.204 133.912 26.204 134.712C26.204 135.288 26.056 135.844 25.76 136.38C25.472 136.908 25.124 137.384 24.716 137.808C24.316 138.224 23.804 138.708 23.18 139.26L22.64 139.74H26.444V140.88H20.612V139.884L21.476 139.14ZM27.6458 136.512C27.6458 135.128 27.8778 134.048 28.3418 133.272C28.8138 132.488 29.6218 132.096 30.7658 132.096C31.9098 132.096 32.7138 132.488 33.1778 133.272C33.6498 134.048 33.8858 135.128 33.8858 136.512C33.8858 137.912 33.6498 139.008 33.1778 139.8C32.7138 140.584 31.9098 140.976 30.7658 140.976C29.6218 140.976 28.8138 140.584 28.3418 139.8C27.8778 139.008 27.6458 137.912 27.6458 136.512ZM32.5418 136.512C32.5418 135.864 32.4978 135.316 32.4098 134.868C32.3298 134.42 32.1618 134.056 31.9058 133.776C31.6498 133.488 31.2698 133.344 30.7658 133.344C30.2618 133.344 29.8818 133.488 29.6258 133.776C29.3698 134.056 29.1978 134.42 29.1098 134.868C29.0298 135.316 28.9898 135.864 28.9898 136.512C28.9898 137.184 29.0298 137.748 29.1098 138.204C29.1898 138.66 29.3578 139.028 29.6138 139.308C29.8778 139.588 30.2618 139.728 30.7658 139.728C31.2698 139.728 31.6498 139.588 31.9058 139.308C32.1698 139.028 32.3418 138.66 32.4218 138.204C32.5018 137.748 32.5418 137.184 32.5418 136.512Z" fill="#B5B5C3"/>
<path d="M20.54 166.25V165.002H23.036V173.75H21.656V166.25H20.54ZM30.5553 166.178H26.5353V168.566C26.7033 168.342 26.9513 168.154 27.2793 168.002C27.6153 167.85 27.9713 167.774 28.3473 167.774C29.0193 167.774 29.5633 167.918 29.9793 168.206C30.4033 168.494 30.7033 168.858 30.8793 169.298C31.0633 169.738 31.1553 170.202 31.1553 170.69C31.1553 171.282 31.0393 171.81 30.8073 172.274C30.5833 172.73 30.2433 173.09 29.7873 173.354C29.3393 173.618 28.7873 173.75 28.1313 173.75C27.2593 173.75 26.5593 173.534 26.0313 173.102C25.5033 172.67 25.1873 172.098 25.0833 171.386H26.4153C26.5033 171.762 26.6993 172.062 27.0033 172.286C27.3073 172.502 27.6873 172.61 28.1433 172.61C28.7113 172.61 29.1353 172.438 29.4153 172.094C29.7033 171.75 29.8473 171.294 29.8473 170.726C29.8473 170.15 29.7033 169.71 29.4153 169.406C29.1273 169.094 28.7033 168.938 28.1433 168.938C27.7513 168.938 27.4193 169.038 27.1473 169.238C26.8833 169.43 26.6913 169.694 26.5713 170.03H25.2753V164.978H30.5553V166.178Z" fill="#B5B5C3"/>
<path d="M20.54 199V197.752H23.036V206.5H21.656V199H20.54ZM24.9153 202.012C24.9153 200.628 25.1473 199.548 25.6113 198.772C26.0833 197.988 26.8913 197.596 28.0353 197.596C29.1793 197.596 29.9833 197.988 30.4473 198.772C30.9193 199.548 31.1553 200.628 31.1553 202.012C31.1553 203.412 30.9193 204.508 30.4473 205.3C29.9833 206.084 29.1793 206.476 28.0353 206.476C26.8913 206.476 26.0833 206.084 25.6113 205.3C25.1473 204.508 24.9153 203.412 24.9153 202.012ZM29.8113 202.012C29.8113 201.364 29.7673 200.816 29.6793 200.368C29.5993 199.92 29.4313 199.556 29.1753 199.276C28.9193 198.988 28.5393 198.844 28.0353 198.844C27.5313 198.844 27.1513 198.988 26.8953 199.276C26.6393 199.556 26.4673 199.92 26.3793 200.368C26.2993 200.816 26.2593 201.364 26.2593 202.012C26.2593 202.684 26.2993 203.248 26.3793 203.704C26.4593 204.16 26.6273 204.528 26.8833 204.808C27.1473 205.088 27.5313 205.228 28.0353 205.228C28.5393 205.228 28.9193 205.088 29.1753 204.808C29.4393 204.528 29.6113 204.16 29.6913 203.704C29.7713 203.248 29.8113 202.684 29.8113 202.012Z" fill="#B5B5C3"/>
<path d="M26.36 231.678H22.34V234.066C22.508 233.842 22.756 233.654 23.084 233.502C23.42 233.35 23.776 233.274 24.152 233.274C24.824 233.274 25.368 233.418 25.784 233.706C26.208 233.994 26.508 234.358 26.684 234.798C26.868 235.238 26.96 235.702 26.96 236.19C26.96 236.782 26.844 237.31 26.612 237.774C26.388 238.23 26.048 238.59 25.592 238.854C25.144 239.118 24.592 239.25 23.936 239.25C23.064 239.25 22.364 239.034 21.836 238.602C21.308 238.17 20.992 237.598 20.888 236.886H22.22C22.308 237.262 22.504 237.562 22.808 237.786C23.112 238.002 23.492 238.11 23.948 238.11C24.516 238.11 24.94 237.938 25.22 237.594C25.508 237.25 25.652 236.794 25.652 236.226C25.652 235.65 25.508 235.21 25.22 234.906C24.932 234.594 24.508 234.438 23.948 234.438C23.556 234.438 23.224 234.538 22.952 234.738C22.688 234.93 22.496 235.194 22.376 235.53H21.08V230.478H26.36V231.678Z" fill="#B5B5C3"/>
<path d="M20.72 267.512C20.72 266.128 20.952 265.048 21.416 264.272C21.888 263.488 22.696 263.096 23.84 263.096C24.984 263.096 25.788 263.488 26.252 264.272C26.724 265.048 26.96 266.128 26.96 267.512C26.96 268.912 26.724 270.008 26.252 270.8C25.788 271.584 24.984 271.976 23.84 271.976C22.696 271.976 21.888 271.584 21.416 270.8C20.952 270.008 20.72 268.912 20.72 267.512ZM25.616 267.512C25.616 266.864 25.572 266.316 25.484 265.868C25.404 265.42 25.236 265.056 24.98 264.776C24.724 264.488 24.344 264.344 23.84 264.344C23.336 264.344 22.956 264.488 22.7 264.776C22.444 265.056 22.272 265.42 22.184 265.868C22.104 266.316 22.064 266.864 22.064 267.512C22.064 268.184 22.104 268.748 22.184 269.204C22.264 269.66 22.432 270.028 22.688 270.308C22.952 270.588 23.336 270.728 23.84 270.728C24.344 270.728 24.724 270.588 24.98 270.308C25.244 270.028 25.416 269.66 25.496 269.204C25.576 268.748 25.616 268.184 25.616 267.512Z" fill="#B5B5C3"/>
<line x1="52" y1="5.5" x2="728" y2="5.5" stroke="#EAEAEA" stroke-dasharray="3 4"/>
<line x1="52" y1="38.25" x2="728" y2="38.25" stroke="#EAEAEA" stroke-dasharray="3 4"/>
<line x1="52" y1="71" x2="728" y2="71" stroke="#EAEAEA" stroke-dasharray="3 4"/>
<line x1="52" y1="103.75" x2="728" y2="103.75" stroke="#EAEAEA" stroke-dasharray="3 4"/>
<line x1="52" y1="136.5" x2="728" y2="136.5" stroke="#EAEAEA" stroke-dasharray="3 4"/>
<line x1="52" y1="169.25" x2="728" y2="169.25" stroke="#EAEAEA" stroke-dasharray="3 4"/>
<line x1="52" y1="202" x2="728" y2="202" stroke="#EAEAEA" stroke-dasharray="3 4"/>
<line x1="52" y1="234.75" x2="728" y2="234.75" stroke="#EAEAEA" stroke-dasharray="3 4"/>
<line x1="52" y1="267.5" x2="728" y2="267.5" stroke="#EAEAEA" stroke-dasharray="3 4"/>
<path d="M79.0693 291.66C79.9573 291.66 80.7333 291.832 81.3973 292.176C82.0693 292.512 82.5853 293 82.9453 293.64C83.3133 294.272 83.4973 295.012 83.4973 295.86C83.4973 296.708 83.3133 297.444 82.9453 298.068C82.5853 298.692 82.0693 299.172 81.3973 299.508C80.7333 299.836 79.9573 300 79.0693 300H76.3453V291.66H79.0693ZM79.0693 298.884C80.0453 298.884 80.7933 298.62 81.3133 298.092C81.8333 297.564 82.0933 296.82 82.0933 295.86C82.0933 294.892 81.8333 294.136 81.3133 293.592C80.7933 293.048 80.0453 292.776 79.0693 292.776H77.7133V298.884H79.0693ZM90.9131 296.532C90.9131 296.78 90.8971 297.004 90.8651 297.204H85.8131C85.8531 297.732 86.0491 298.156 86.4011 298.476C86.7531 298.796 87.1851 298.956 87.6971 298.956C88.4331 298.956 88.9531 298.648 89.2571 298.032H90.7331C90.5331 298.64 90.1691 299.14 89.6411 299.532C89.1211 299.916 88.4731 300.108 87.6971 300.108C87.0651 300.108 86.4971 299.968 85.9931 299.688C85.4971 299.4 85.1051 299 84.8171 298.488C84.5371 297.968 84.3971 297.368 84.3971 296.688C84.3971 296.008 84.5331 295.412 84.8051 294.9C85.0851 294.38 85.4731 293.98 85.9691 293.7C86.4731 293.42 87.0491 293.28 87.6971 293.28C88.3211 293.28 88.8771 293.416 89.3651 293.688C89.8531 293.96 90.2331 294.344 90.5051 294.84C90.7771 295.328 90.9131 295.892 90.9131 296.532ZM89.4851 296.1C89.4771 295.596 89.2971 295.192 88.9451 294.888C88.5931 294.584 88.1571 294.432 87.6371 294.432C87.1651 294.432 86.7611 294.584 86.4251 294.888C86.0891 295.184 85.8891 295.588 85.8251 296.1H89.4851ZM91.8034 296.688C91.8034 296.008 91.9394 295.412 92.2114 294.9C92.4914 294.38 92.8754 293.98 93.3634 293.7C93.8514 293.42 94.4114 293.28 95.0434 293.28C95.8434 293.28 96.5034 293.472 97.0234 293.856C97.5514 294.232 97.9074 294.772 98.0914 295.476H96.6154C96.4954 295.148 96.3034 294.892 96.0394 294.708C95.7754 294.524 95.4434 294.432 95.0434 294.432C94.4834 294.432 94.0354 294.632 93.6994 295.032C93.3714 295.424 93.2074 295.976 93.2074 296.688C93.2074 297.4 93.3714 297.956 93.6994 298.356C94.0354 298.756 94.4834 298.956 95.0434 298.956C95.8354 298.956 96.3594 298.608 96.6154 297.912H98.0914C97.8994 298.584 97.5394 299.12 97.0114 299.52C96.4834 299.912 95.8274 300.108 95.0434 300.108C94.4114 300.108 93.8514 299.968 93.3634 299.688C92.8754 299.4 92.4914 299 92.2114 298.488C91.9394 297.968 91.8034 297.368 91.8034 296.688Z" fill="#B5B5C3"/>
<path d="M203.698 291.66V297.672C203.698 298.416 203.47 299.004 203.014 299.436C202.566 299.868 201.974 300.084 201.238 300.084C200.502 300.084 199.906 299.868 199.45 299.436C199.002 299.004 198.778 298.416 198.778 297.672H200.158C200.166 298.04 200.258 298.332 200.434 298.548C200.618 298.764 200.886 298.872 201.238 298.872C201.59 298.872 201.858 298.764 202.042 298.548C202.226 298.324 202.318 298.032 202.318 297.672V291.66H203.698ZM205.468 296.664C205.468 296 205.604 295.412 205.876 294.9C206.156 294.388 206.532 293.992 207.004 293.712C207.484 293.424 208.012 293.28 208.588 293.28C209.108 293.28 209.56 293.384 209.944 293.592C210.336 293.792 210.648 294.044 210.88 294.348V293.388H212.26V300H210.88V299.016C210.648 299.328 210.332 299.588 209.932 299.796C209.532 300.004 209.076 300.108 208.564 300.108C207.996 300.108 207.476 299.964 207.004 299.676C206.532 299.38 206.156 298.972 205.876 298.452C205.604 297.924 205.468 297.328 205.468 296.664ZM210.88 296.688C210.88 296.232 210.784 295.836 210.592 295.5C210.408 295.164 210.164 294.908 209.86 294.732C209.556 294.556 209.228 294.468 208.876 294.468C208.524 294.468 208.196 294.556 207.892 294.732C207.588 294.9 207.34 295.152 207.148 295.488C206.964 295.816 206.872 296.208 206.872 296.664C206.872 297.12 206.964 297.52 207.148 297.864C207.34 298.208 207.588 298.472 207.892 298.656C208.204 298.832 208.532 298.92 208.876 298.92C209.228 298.92 209.556 298.832 209.86 298.656C210.164 298.48 210.408 298.224 210.592 297.888C210.784 297.544 210.88 297.144 210.88 296.688ZM217.393 293.28C217.913 293.28 218.377 293.388 218.785 293.604C219.201 293.82 219.525 294.14 219.757 294.564C219.989 294.988 220.105 295.5 220.105 296.1V300H218.749V296.304C218.749 295.712 218.601 295.26 218.305 294.948C218.009 294.628 217.605 294.468 217.093 294.468C216.581 294.468 216.173 294.628 215.869 294.948C215.573 295.26 215.425 295.712 215.425 296.304V300H214.057V293.388H215.425V294.144C215.649 293.872 215.933 293.66 216.277 293.508C216.629 293.356 217.001 293.28 217.393 293.28Z" fill="#B5B5C3"/>
<path d="M327.151 291.66V292.776H323.611V295.236H326.371V296.352H323.611V300H322.243V291.66H327.151ZM334.479 296.532C334.479 296.78 334.463 297.004 334.431 297.204H329.379C329.419 297.732 329.615 298.156 329.967 298.476C330.319 298.796 330.751 298.956 331.263 298.956C331.999 298.956 332.519 298.648 332.823 298.032H334.299C334.099 298.64 333.735 299.14 333.207 299.532C332.687 299.916 332.039 300.108 331.263 300.108C330.631 300.108 330.063 299.968 329.559 299.688C329.063 299.4 328.671 299 328.383 298.488C328.103 297.968 327.963 297.368 327.963 296.688C327.963 296.008 328.099 295.412 328.371 294.9C328.651 294.38 329.039 293.98 329.535 293.7C330.039 293.42 330.615 293.28 331.263 293.28C331.887 293.28 332.443 293.416 332.931 293.688C333.419 293.96 333.799 294.344 334.071 294.84C334.343 295.328 334.479 295.892 334.479 296.532ZM333.051 296.1C333.043 295.596 332.863 295.192 332.511 294.888C332.159 294.584 331.723 294.432 331.203 294.432C330.731 294.432 330.327 294.584 329.991 294.888C329.655 295.184 329.455 295.588 329.391 296.1H333.051ZM337.193 294.372C337.425 294.052 337.741 293.792 338.141 293.592C338.549 293.384 339.001 293.28 339.497 293.28C340.081 293.28 340.609 293.42 341.081 293.7C341.553 293.98 341.925 294.38 342.197 294.9C342.469 295.412 342.605 296 342.605 296.664C342.605 297.328 342.469 297.924 342.197 298.452C341.925 298.972 341.549 299.38 341.069 299.676C340.597 299.964 340.073 300.108 339.497 300.108C338.985 300.108 338.529 300.008 338.129 299.808C337.737 299.608 337.425 299.352 337.193 299.04V300H335.825V291.12H337.193V294.372ZM341.213 296.664C341.213 296.208 341.117 295.816 340.925 295.488C340.741 295.152 340.493 294.9 340.181 294.732C339.877 294.556 339.549 294.468 339.197 294.468C338.853 294.468 338.525 294.556 338.213 294.732C337.909 294.908 337.661 295.164 337.469 295.5C337.285 295.836 337.193 296.232 337.193 296.688C337.193 297.144 337.285 297.544 337.469 297.888C337.661 298.224 337.909 298.48 338.213 298.656C338.525 298.832 338.853 298.92 339.197 298.92C339.549 298.92 339.877 298.832 340.181 298.656C340.493 298.472 340.741 298.208 340.925 297.864C341.117 297.52 341.213 297.12 341.213 296.664Z" fill="#B5B5C3"/>
<path d="M445.33 291.66V300H443.962V294.288L441.418 300H440.47L437.914 294.288V300H436.546V291.66H438.022L440.95 298.2L443.866 291.66H445.33ZM446.672 296.664C446.672 296 446.808 295.412 447.08 294.9C447.36 294.388 447.736 293.992 448.208 293.712C448.688 293.424 449.216 293.28 449.792 293.28C450.312 293.28 450.764 293.384 451.148 293.592C451.54 293.792 451.852 294.044 452.084 294.348V293.388H453.464V300H452.084V299.016C451.852 299.328 451.536 299.588 451.136 299.796C450.736 300.004 450.28 300.108 449.768 300.108C449.2 300.108 448.68 299.964 448.208 299.676C447.736 299.38 447.36 298.972 447.08 298.452C446.808 297.924 446.672 297.328 446.672 296.664ZM452.084 296.688C452.084 296.232 451.988 295.836 451.796 295.5C451.612 295.164 451.368 294.908 451.064 294.732C450.76 294.556 450.432 294.468 450.08 294.468C449.728 294.468 449.4 294.556 449.096 294.732C448.792 294.9 448.544 295.152 448.352 295.488C448.168 295.816 448.076 296.208 448.076 296.664C448.076 297.12 448.168 297.52 448.352 297.864C448.544 298.208 448.792 298.472 449.096 298.656C449.408 298.832 449.736 298.92 450.08 298.92C450.432 298.92 450.76 298.832 451.064 298.656C451.368 298.48 451.612 298.224 451.796 297.888C451.988 297.544 452.084 297.144 452.084 296.688ZM456.628 294.348C456.828 294.012 457.092 293.752 457.42 293.568C457.756 293.376 458.152 293.28 458.608 293.28V294.696H458.26C457.724 294.696 457.316 294.832 457.036 295.104C456.764 295.376 456.628 295.848 456.628 296.52V300H455.26V293.388H456.628V294.348ZM459.41 296.688C459.41 296.008 459.546 295.412 459.818 294.9C460.098 294.38 460.482 293.98 460.97 293.7C461.458 293.42 462.018 293.28 462.65 293.28C463.45 293.28 464.11 293.472 464.63 293.856C465.158 294.232 465.514 294.772 465.698 295.476H464.222C464.102 295.148 463.91 294.892 463.646 294.708C463.382 294.524 463.05 294.432 462.65 294.432C462.09 294.432 461.642 294.632 461.306 295.032C460.978 295.424 460.814 295.976 460.814 296.688C460.814 297.4 460.978 297.956 461.306 298.356C461.642 298.756 462.09 298.956 462.65 298.956C463.442 298.956 463.966 298.608 464.222 297.912H465.698C465.506 298.584 465.146 299.12 464.618 299.52C464.09 299.912 463.434 300.108 462.65 300.108C462.018 300.108 461.458 299.968 460.97 299.688C460.482 299.4 460.098 299 459.818 298.488C459.546 297.968 459.41 297.368 459.41 296.688ZM470.481 293.28C470.985 293.28 471.433 293.388 471.825 293.604C472.225 293.82 472.537 294.14 472.761 294.564C472.993 294.988 473.109 295.5 473.109 296.1V300H471.753V296.304C471.753 295.712 471.605 295.26 471.309 294.948C471.013 294.628 470.609 294.468 470.097 294.468C469.585 294.468 469.177 294.628 468.873 294.948C468.577 295.26 468.429 295.712 468.429 296.304V300H467.061V291.12H468.429V294.156C468.661 293.876 468.953 293.66 469.305 293.508C469.665 293.356 470.057 293.28 470.481 293.28Z" fill="#B5B5C3"/>
<path d="M572.775 298.296H569.283L568.683 300H567.255L570.243 291.648H571.827L574.815 300H573.375L572.775 298.296ZM572.391 297.18L571.035 293.304L569.667 297.18H572.391ZM577.482 294.36C577.714 294.056 578.03 293.8 578.43 293.592C578.83 293.384 579.282 293.28 579.786 293.28C580.362 293.28 580.886 293.424 581.358 293.712C581.838 293.992 582.214 294.388 582.486 294.9C582.758 295.412 582.894 296 582.894 296.664C582.894 297.328 582.758 297.924 582.486 298.452C582.214 298.972 581.838 299.38 581.358 299.676C580.886 299.964 580.362 300.108 579.786 300.108C579.282 300.108 578.834 300.008 578.442 299.808C578.05 299.6 577.73 299.344 577.482 299.04V303.144H576.114V293.388H577.482V294.36ZM581.502 296.664C581.502 296.208 581.406 295.816 581.214 295.488C581.03 295.152 580.782 294.9 580.47 294.732C580.166 294.556 579.838 294.468 579.486 294.468C579.142 294.468 578.814 294.556 578.502 294.732C578.198 294.908 577.95 295.164 577.758 295.5C577.574 295.836 577.482 296.232 577.482 296.688C577.482 297.144 577.574 297.544 577.758 297.888C577.95 298.224 578.198 298.48 578.502 298.656C578.814 298.832 579.142 298.92 579.486 298.92C579.838 298.92 580.166 298.832 580.47 298.656C580.782 298.472 581.03 298.208 581.214 297.864C581.406 297.52 581.502 297.12 581.502 296.664ZM585.615 294.348C585.815 294.012 586.079 293.752 586.407 293.568C586.743 293.376 587.139 293.28 587.595 293.28V294.696H587.247C586.711 294.696 586.303 294.832 586.023 295.104C585.751 295.376 585.615 295.848 585.615 296.52V300H584.247V293.388H585.615V294.348Z" fill="#B5B5C3"/>
<path d="M696.834 291.66V300H695.466V294.288L692.922 300H691.974L689.418 294.288V300H688.05V291.66H689.526L692.454 298.2L695.37 291.66H696.834ZM698.176 296.664C698.176 296 698.312 295.412 698.584 294.9C698.864 294.388 699.24 293.992 699.712 293.712C700.192 293.424 700.72 293.28 701.296 293.28C701.816 293.28 702.268 293.384 702.652 293.592C703.044 293.792 703.356 294.044 703.588 294.348V293.388H704.968V300H703.588V299.016C703.356 299.328 703.04 299.588 702.64 299.796C702.24 300.004 701.784 300.108 701.272 300.108C700.704 300.108 700.184 299.964 699.712 299.676C699.24 299.38 698.864 298.972 698.584 298.452C698.312 297.924 698.176 297.328 698.176 296.664ZM703.588 296.688C703.588 296.232 703.492 295.836 703.3 295.5C703.116 295.164 702.872 294.908 702.568 294.732C702.264 294.556 701.936 294.468 701.584 294.468C701.232 294.468 700.904 294.556 700.6 294.732C700.296 294.9 700.048 295.152 699.856 295.488C699.672 295.816 699.58 296.208 699.58 296.664C699.58 297.12 699.672 297.52 699.856 297.864C700.048 298.208 700.296 298.472 700.6 298.656C700.912 298.832 701.24 298.92 701.584 298.92C701.936 298.92 702.264 298.832 702.568 298.656C702.872 298.48 703.116 298.224 703.3 297.888C703.492 297.544 703.588 297.144 703.588 296.688ZM712.717 293.388L708.661 303.108H707.245L708.589 299.892L705.985 293.388H707.509L709.369 298.428L711.301 293.388H712.717Z" fill="#B5B5C3"/>
<g clip-path="url(#clip1_9_9392)">
<path d="M76.484 175.364L55.4988 192.39C44.1004 201.638 38.6826 216.386 41.3837 230.813L49 271.495H732V113.455H590.564C585.241 113.455 579.973 112.392 575.066 110.33L464.934 64.0446C460.027 61.9825 454.758 60.9203 449.436 60.9203H346.714C337.216 60.9203 328.027 64.3003 320.793 70.4556L219.207 156.891C211.973 163.046 202.784 166.427 193.286 166.427H101.686C92.5086 166.427 83.6106 169.582 76.484 175.364Z" fill="#FFF5F8" fill-opacity="0.5"/>
<path d="M56.4439 193.555L77.4291 176.529C84.2884 170.964 92.8528 167.927 101.686 167.927H193.286C203.14 167.927 212.673 164.42 220.179 158.034L321.765 71.598C328.728 65.6736 337.572 62.4203 346.714 62.4203H449.436C454.559 62.4203 459.63 63.4426 464.353 65.4274L574.485 111.713C579.575 113.852 585.042 114.955 590.564 114.955H730.5V269.995H50.2453L42.858 230.537C40.2582 216.651 45.4729 202.456 56.4439 193.555Z" stroke="#F1416C" stroke-width="3"/>
</g>
</g>
<defs>
<clipPath id="clip0_9_9392">
<rect width="728" height="302" fill="white"/>
</clipPath>
<clipPath id="clip1_9_9392">
<rect width="676" height="263" fill="white" transform="translate(52 5)"/>
</clipPath>
</defs>
</svg>
