<svg width="422" height="326" viewBox="0 0 422 326" fill="none" xmlns="http://www.w3.org/2000/svg">
<g clip-path="url(#clip0_9_10727)">
<path d="M5.812 273.556C4.996 273.556 4.264 273.368 3.616 272.992C2.968 272.608 2.464 272.092 2.104 271.444C1.736 270.788 1.552 270.072 1.552 269.296C1.552 268.408 1.772 267.62 2.212 266.932C2.644 266.236 3.26 265.732 4.06 265.42L4.06 267.064C3.62 267.28 3.292 267.58 3.076 267.964C2.86 268.348 2.752 268.792 2.752 269.296C2.752 269.848 2.876 270.34 3.124 270.772C3.372 271.204 3.728 271.544 4.192 271.792C4.656 272.032 5.196 272.152 5.812 272.152C6.428 272.152 6.968 272.032 7.432 271.792C7.896 271.544 8.256 271.204 8.512 270.772C8.76 270.34 8.884 269.848 8.884 269.296C8.884 268.792 8.776 268.348 8.56 267.964C8.344 267.58 8.016 267.28 7.576 267.064L7.576 265.42C8.376 265.732 8.992 266.236 9.424 266.932C9.856 267.62 10.072 268.408 10.072 269.296C10.072 270.08 9.892 270.796 9.532 271.444C9.164 272.092 8.656 272.608 8.008 272.992C7.36 273.368 6.628 273.556 5.812 273.556ZM6.664 264.275C6 264.275 5.412 264.139 4.9 263.867C4.388 263.587 3.992 263.211 3.712 262.739C3.424 262.259 3.28 261.731 3.28 261.155C3.28 260.635 3.384 260.183 3.592 259.799C3.792 259.407 4.044 259.095 4.348 258.863H3.388V257.483H10V258.863H9.016C9.328 259.095 9.588 259.411 9.796 259.811C10.004 260.211 10.108 260.667 10.108 261.179C10.108 261.747 9.964 262.267 9.676 262.739C9.38 263.211 8.972 263.587 8.452 263.867C7.924 264.139 7.328 264.275 6.664 264.275ZM6.688 258.863C6.232 258.863 5.836 258.959 5.5 259.151C5.164 259.335 4.908 259.579 4.732 259.883C4.556 260.187 4.468 260.515 4.468 260.867C4.468 261.219 4.556 261.547 4.732 261.851C4.9 262.155 5.152 262.403 5.488 262.595C5.816 262.779 6.208 262.871 6.664 262.871C7.12 262.871 7.52 262.779 7.864 262.595C8.208 262.403 8.472 262.155 8.656 261.851C8.832 261.539 8.92 261.211 8.92 260.867C8.92 260.515 8.832 260.187 8.656 259.883C8.48 259.579 8.224 259.335 7.888 259.151C7.544 258.959 7.144 258.863 6.688 258.863ZM3.28 252.35C3.28 251.83 3.388 251.366 3.604 250.958C3.82 250.542 4.14 250.218 4.564 249.986C4.988 249.754 5.5 249.638 6.1 249.638H10V250.994H6.304C5.712 250.994 5.26 251.142 4.948 251.438C4.628 251.734 4.468 252.138 4.468 252.65C4.468 253.162 4.628 253.57 4.948 253.874C5.26 254.17 5.712 254.318 6.304 254.318H10V255.686H3.388V254.318H4.144C3.872 254.094 3.66 253.81 3.508 253.466C3.356 253.114 3.28 252.742 3.28 252.35ZM6.688 248.349C6.008 248.349 5.412 248.213 4.9 247.941C4.38 247.661 3.98 247.277 3.7 246.789C3.42 246.301 3.28 245.741 3.28 245.109C3.28 244.309 3.472 243.649 3.856 243.129C4.232 242.601 4.772 242.245 5.476 242.061V243.537C5.148 243.657 4.892 243.849 4.708 244.113C4.524 244.377 4.432 244.709 4.432 245.109C4.432 245.669 4.632 246.117 5.032 246.453C5.424 246.781 5.976 246.945 6.688 246.945C7.4 246.945 7.956 246.781 8.356 246.453C8.756 246.117 8.956 245.669 8.956 245.109C8.956 244.317 8.608 243.793 7.912 243.537V242.061C8.584 242.253 9.12 242.613 9.52 243.141C9.912 243.669 10.108 244.325 10.108 245.109C10.108 245.741 9.968 246.301 9.688 246.789C9.4 247.277 9 247.661 8.488 247.941C7.968 248.213 7.368 248.349 6.688 248.349ZM6.532 234.638C6.78 234.638 7.004 234.654 7.204 234.686L7.204 239.738C7.732 239.698 8.156 239.502 8.476 239.15C8.796 238.798 8.956 238.366 8.956 237.854C8.956 237.118 8.648 236.598 8.032 236.294V234.818C8.64 235.018 9.14 235.382 9.532 235.91C9.916 236.43 10.108 237.078 10.108 237.854C10.108 238.486 9.968 239.054 9.688 239.558C9.4 240.054 9 240.446 8.488 240.734C7.968 241.014 7.368 241.154 6.688 241.154C6.008 241.154 5.412 241.018 4.9 240.746C4.38 240.466 3.98 240.078 3.7 239.582C3.42 239.078 3.28 238.502 3.28 237.854C3.28 237.23 3.416 236.674 3.688 236.186C3.96 235.698 4.344 235.318 4.84 235.046C5.328 234.774 5.892 234.638 6.532 234.638ZM6.1 236.066C5.596 236.074 5.192 236.254 4.888 236.606C4.584 236.958 4.432 237.394 4.432 237.914C4.432 238.386 4.584 238.79 4.888 239.126C5.184 239.462 5.588 239.662 6.1 239.726L6.1 236.066ZM1.12 231.923H10V233.291H1.12L1.12 231.923ZM6.532 224.067C6.78 224.067 7.004 224.083 7.204 224.115V229.167C7.732 229.127 8.156 228.931 8.476 228.579C8.796 228.227 8.956 227.795 8.956 227.283C8.956 226.547 8.648 226.027 8.032 225.723V224.247C8.64 224.447 9.14 224.811 9.532 225.339C9.916 225.859 10.108 226.507 10.108 227.283C10.108 227.915 9.968 228.483 9.688 228.987C9.4 229.483 9 229.875 8.488 230.163C7.968 230.443 7.368 230.583 6.688 230.583C6.008 230.583 5.412 230.447 4.9 230.175C4.38 229.895 3.98 229.507 3.7 229.011C3.42 228.507 3.28 227.931 3.28 227.283C3.28 226.659 3.416 226.103 3.688 225.615C3.96 225.127 4.344 224.747 4.84 224.475C5.328 224.203 5.892 224.067 6.532 224.067ZM6.1 225.495C5.596 225.503 5.192 225.683 4.888 226.035C4.584 226.387 4.432 226.823 4.432 227.343C4.432 227.815 4.584 228.219 4.888 228.555C5.184 228.891 5.588 229.091 6.1 229.155V225.495ZM6.664 223.177C6 223.177 5.412 223.041 4.9 222.769C4.388 222.489 3.992 222.113 3.712 221.641C3.424 221.161 3.28 220.629 3.28 220.045C3.28 219.613 3.376 219.189 3.568 218.773C3.752 218.349 4 218.013 4.312 217.765H1.12V216.385H10V217.765H9.004C9.324 217.989 9.588 218.301 9.796 218.701C10.004 219.093 10.108 219.545 10.108 220.057C10.108 220.633 9.964 221.161 9.676 221.641C9.38 222.113 8.972 222.489 8.452 222.769C7.924 223.041 7.328 223.177 6.664 223.177ZM6.688 217.765C6.232 217.765 5.836 217.861 5.5 218.053C5.164 218.237 4.908 218.481 4.732 218.785C4.556 219.089 4.468 219.417 4.468 219.769C4.468 220.121 4.556 220.449 4.732 220.753C4.9 221.057 5.152 221.305 5.488 221.497C5.816 221.681 6.208 221.773 6.664 221.773C7.12 221.773 7.52 221.681 7.864 221.497C8.208 221.305 8.472 221.057 8.656 220.753C8.832 220.441 8.92 220.113 8.92 219.769C8.92 219.417 8.832 219.089 8.656 218.785C8.48 218.481 8.224 218.237 7.888 218.053C7.544 217.861 7.144 217.765 6.688 217.765ZM4.144 205.639C4.568 205.639 4.968 205.739 5.344 205.939C5.72 206.139 6.028 206.459 6.268 206.899C6.5 207.339 6.616 207.903 6.616 208.591L6.616 210.103H10V211.471H1.66L1.66 208.591C1.66 207.951 1.772 207.411 1.996 206.971C2.212 206.523 2.508 206.191 2.884 205.975C3.26 205.751 3.68 205.639 4.144 205.639ZM5.5 208.591C5.5 208.071 5.384 207.683 5.152 207.427C4.912 207.171 4.576 207.043 4.144 207.043C3.232 207.043 2.776 207.559 2.776 208.591V210.103H5.5L5.5 208.591ZM1.12 202.966H10V204.334H1.12L1.12 202.966ZM6.664 201.626C6 201.626 5.412 201.49 4.9 201.218C4.388 200.938 3.992 200.562 3.712 200.09C3.424 199.61 3.28 199.082 3.28 198.506C3.28 197.986 3.384 197.534 3.592 197.15C3.792 196.758 4.044 196.446 4.348 196.214H3.388V194.834H10V196.214H9.016C9.328 196.446 9.588 196.762 9.796 197.162C10.004 197.562 10.108 198.018 10.108 198.53C10.108 199.098 9.964 199.618 9.676 200.09C9.38 200.562 8.972 200.938 8.452 201.218C7.924 201.49 7.328 201.626 6.664 201.626ZM6.688 196.214C6.232 196.214 5.836 196.31 5.5 196.502C5.164 196.686 4.908 196.93 4.732 197.234C4.556 197.538 4.468 197.866 4.468 198.218C4.468 198.57 4.556 198.898 4.732 199.202C4.9 199.506 5.152 199.754 5.488 199.946C5.816 200.13 6.208 200.222 6.664 200.222C7.12 200.222 7.52 200.13 7.864 199.946C8.208 199.754 8.472 199.506 8.656 199.202C8.832 198.89 8.92 198.562 8.92 198.218C8.92 197.866 8.832 197.538 8.656 197.234C8.48 196.93 8.224 196.686 7.888 196.502C7.544 196.31 7.144 196.214 6.688 196.214ZM3.28 189.701C3.28 189.181 3.388 188.717 3.604 188.309C3.82 187.893 4.14 187.569 4.564 187.337C4.988 187.105 5.5 186.989 6.1 186.989H10V188.345H6.304C5.712 188.345 5.26 188.493 4.948 188.789C4.628 189.085 4.468 189.489 4.468 190.001C4.468 190.513 4.628 190.921 4.948 191.225C5.26 191.521 5.712 191.669 6.304 191.669H10V193.037H3.388V191.669H4.144C3.872 191.445 3.66 191.161 3.508 190.817C3.356 190.465 3.28 190.093 3.28 189.701ZM10.108 182.845C10.108 183.365 10.016 183.833 9.832 184.249C9.64 184.657 9.384 184.981 9.064 185.221C8.736 185.461 8.372 185.589 7.972 185.605V184.189C8.252 184.165 8.488 184.033 8.68 183.793C8.864 183.545 8.956 183.237 8.956 182.869C8.956 182.485 8.884 182.189 8.74 181.981C8.588 181.765 8.396 181.657 8.164 181.657C7.916 181.657 7.732 181.777 7.612 182.017C7.492 182.249 7.36 182.621 7.216 183.133C7.08 183.629 6.948 184.033 6.82 184.345C6.692 184.657 6.496 184.929 6.232 185.161C5.968 185.385 5.62 185.497 5.188 185.497C4.836 185.497 4.516 185.393 4.228 185.185C3.932 184.977 3.7 184.681 3.532 184.297C3.364 183.905 3.28 183.457 3.28 182.953C3.28 182.201 3.472 181.597 3.856 181.141C4.232 180.677 4.748 180.429 5.404 180.397V181.765C5.108 181.789 4.872 181.909 4.696 182.125C4.52 182.341 4.432 182.633 4.432 183.001C4.432 183.361 4.5 183.637 4.636 183.829C4.772 184.021 4.952 184.117 5.176 184.117C5.352 184.117 5.5 184.053 5.62 183.925C5.74 183.797 5.836 183.641 5.908 183.457C5.972 183.273 6.056 183.001 6.16 182.641C6.288 182.161 6.42 181.769 6.556 181.465C6.684 181.153 6.876 180.885 7.132 180.661C7.388 180.437 7.728 180.321 8.152 180.313C8.528 180.313 8.864 180.417 9.16 180.625C9.456 180.833 9.688 181.129 9.856 181.513C10.024 181.889 10.108 182.333 10.108 182.845Z" fill="#B5B5C3"/>
<path d="M20.552 8.176V7.144L24.584 1.36H26.24V6.988H27.356V8.176H26.24V10H24.896V8.176H20.552ZM24.956 2.752L22.124 6.988H24.956V2.752Z" fill="#B5B5C3"/>
<path d="M20.696 36.162C20.744 35.418 21.028 34.838 21.548 34.422C22.076 34.006 22.748 33.798 23.564 33.798C24.124 33.798 24.608 33.898 25.016 34.098C25.424 34.298 25.732 34.57 25.94 34.914C26.148 35.258 26.252 35.646 26.252 36.078C26.252 36.574 26.12 36.998 25.856 37.35C25.592 37.702 25.276 37.938 24.908 38.058V38.106C25.38 38.25 25.748 38.514 26.012 38.898C26.276 39.274 26.408 39.758 26.408 40.35C26.408 40.822 26.3 41.242 26.084 41.61C25.868 41.978 25.548 42.27 25.124 42.486C24.7 42.694 24.192 42.798 23.6 42.798C22.736 42.798 22.024 42.578 21.464 42.138C20.912 41.69 20.616 41.05 20.576 40.218H21.896C21.928 40.642 22.092 40.99 22.388 41.262C22.684 41.526 23.084 41.658 23.588 41.658C24.076 41.658 24.452 41.526 24.716 41.262C24.98 40.99 25.112 40.642 25.112 40.218C25.112 39.658 24.932 39.262 24.572 39.03C24.22 38.79 23.676 38.67 22.94 38.67H22.628V37.542H22.952C23.6 37.534 24.092 37.426 24.428 37.218C24.772 37.01 24.944 36.682 24.944 36.234C24.944 35.85 24.82 35.546 24.572 35.322C24.324 35.09 23.972 34.974 23.516 34.974C23.068 34.974 22.72 35.09 22.472 35.322C22.224 35.546 22.076 35.826 22.028 36.162H20.696Z" fill="#B5B5C3"/>
<path d="M21.476 73.64C22.244 72.976 22.848 72.432 23.288 72.008C23.736 71.576 24.108 71.128 24.404 70.664C24.7 70.2 24.848 69.736 24.848 69.272C24.848 68.792 24.732 68.416 24.5 68.144C24.276 67.872 23.92 67.736 23.432 67.736C22.96 67.736 22.592 67.888 22.328 68.192C22.072 68.488 21.936 68.888 21.92 69.392H20.6C20.624 68.48 20.896 67.784 21.416 67.304C21.944 66.816 22.612 66.572 23.42 66.572C24.292 66.572 24.972 66.812 25.46 67.292C25.956 67.772 26.204 68.412 26.204 69.212C26.204 69.788 26.056 70.344 25.76 70.88C25.472 71.408 25.124 71.884 24.716 72.308C24.316 72.724 23.804 73.208 23.18 73.76L22.64 74.24H26.444V75.38H20.612V74.384L21.476 73.64Z" fill="#B5B5C3"/>
<path d="M20.54 100.75V99.502H23.036V108.25H21.656V100.75H20.54Z" fill="#B5B5C3"/>
<path d="M20.72 136.512C20.72 135.128 20.952 134.048 21.416 133.272C21.888 132.488 22.696 132.096 23.84 132.096C24.984 132.096 25.788 132.488 26.252 133.272C26.724 134.048 26.96 135.128 26.96 136.512C26.96 137.912 26.724 139.008 26.252 139.8C25.788 140.584 24.984 140.976 23.84 140.976C22.696 140.976 21.888 140.584 21.416 139.8C20.952 139.008 20.72 137.912 20.72 136.512ZM25.616 136.512C25.616 135.864 25.572 135.316 25.484 134.868C25.404 134.42 25.236 134.056 24.98 133.776C24.724 133.488 24.344 133.344 23.84 133.344C23.336 133.344 22.956 133.488 22.7 133.776C22.444 134.056 22.272 134.42 22.184 134.868C22.104 135.316 22.064 135.864 22.064 136.512C22.064 137.184 22.104 137.748 22.184 138.204C22.264 138.66 22.432 139.028 22.688 139.308C22.952 139.588 23.336 139.728 23.84 139.728C24.344 139.728 24.724 139.588 24.98 139.308C25.244 139.028 25.416 138.66 25.496 138.204C25.576 137.748 25.616 137.184 25.616 136.512Z" fill="#B5B5C3"/>
<path d="M20.54 166.25V165.002H23.036V173.75H21.656V166.25H20.54Z" fill="#B5B5C3"/>
<path d="M21.476 204.64C22.244 203.976 22.848 203.432 23.288 203.008C23.736 202.576 24.108 202.128 24.404 201.664C24.7 201.2 24.848 200.736 24.848 200.272C24.848 199.792 24.732 199.416 24.5 199.144C24.276 198.872 23.92 198.736 23.432 198.736C22.96 198.736 22.592 198.888 22.328 199.192C22.072 199.488 21.936 199.888 21.92 200.392H20.6C20.624 199.48 20.896 198.784 21.416 198.304C21.944 197.816 22.612 197.572 23.42 197.572C24.292 197.572 24.972 197.812 25.46 198.292C25.956 198.772 26.204 199.412 26.204 200.212C26.204 200.788 26.056 201.344 25.76 201.88C25.472 202.408 25.124 202.884 24.716 203.308C24.316 203.724 23.804 204.208 23.18 204.76L22.64 205.24H26.444V206.38H20.612V205.384L21.476 204.64Z" fill="#B5B5C3"/>
<path d="M20.696 232.662C20.744 231.918 21.028 231.338 21.548 230.922C22.076 230.506 22.748 230.298 23.564 230.298C24.124 230.298 24.608 230.398 25.016 230.598C25.424 230.798 25.732 231.07 25.94 231.414C26.148 231.758 26.252 232.146 26.252 232.578C26.252 233.074 26.12 233.498 25.856 233.85C25.592 234.202 25.276 234.438 24.908 234.558V234.606C25.38 234.75 25.748 235.014 26.012 235.398C26.276 235.774 26.408 236.258 26.408 236.85C26.408 237.322 26.3 237.742 26.084 238.11C25.868 238.478 25.548 238.77 25.124 238.986C24.7 239.194 24.192 239.298 23.6 239.298C22.736 239.298 22.024 239.078 21.464 238.638C20.912 238.19 20.616 237.55 20.576 236.718H21.896C21.928 237.142 22.092 237.49 22.388 237.762C22.684 238.026 23.084 238.158 23.588 238.158C24.076 238.158 24.452 238.026 24.716 237.762C24.98 237.49 25.112 237.142 25.112 236.718C25.112 236.158 24.932 235.762 24.572 235.53C24.22 235.29 23.676 235.17 22.94 235.17H22.628V234.042H22.952C23.6 234.034 24.092 233.926 24.428 233.718C24.772 233.51 24.944 233.182 24.944 232.734C24.944 232.35 24.82 232.046 24.572 231.822C24.324 231.59 23.972 231.474 23.516 231.474C23.068 231.474 22.72 231.59 22.472 231.822C22.224 232.046 22.076 232.326 22.028 232.662H20.696Z" fill="#B5B5C3"/>
<path d="M20.552 270.176V269.144L24.584 263.36H26.24V268.988H27.356V270.176H26.24V272H24.896V270.176H20.552ZM24.956 264.752L22.124 268.988H24.956V264.752Z" fill="#B5B5C3"/>
<line x1="44" y1="5.5" x2="422" y2="5.5" stroke="#EAEAEA" stroke-dasharray="3 4"/>
<line x1="44" y1="38.25" x2="422" y2="38.25" stroke="#EAEAEA" stroke-dasharray="3 4"/>
<line x1="44" y1="71" x2="422" y2="71" stroke="#EAEAEA" stroke-dasharray="3 4"/>
<line x1="44" y1="103.75" x2="422" y2="103.75" stroke="#EAEAEA" stroke-dasharray="3 4"/>
<line x1="44" y1="136.5" x2="422" y2="136.5" stroke="#EAEAEA" stroke-dasharray="3 4"/>
<line x1="44" y1="169.25" x2="422" y2="169.25" stroke="#EAEAEA" stroke-dasharray="3 4"/>
<line x1="44" y1="202" x2="422" y2="202" stroke="#EAEAEA" stroke-dasharray="3 4"/>
<line x1="44" y1="234.75" x2="422" y2="234.75" stroke="#EAEAEA" stroke-dasharray="3 4"/>
<line x1="44" y1="267.5" x2="422" y2="267.5" stroke="#EAEAEA" stroke-dasharray="3 4"/>
<path d="M52.9964 298.296H49.5044L48.9044 300H47.4764L50.4644 291.648H52.0484L55.0364 300H53.5964L52.9964 298.296ZM52.6124 297.18L51.2564 293.304L49.8884 297.18H52.6124ZM57.7035 294.36C57.9355 294.056 58.2515 293.8 58.6515 293.592C59.0515 293.384 59.5035 293.28 60.0075 293.28C60.5835 293.28 61.1075 293.424 61.5795 293.712C62.0595 293.992 62.4355 294.388 62.7075 294.9C62.9795 295.412 63.1155 296 63.1155 296.664C63.1155 297.328 62.9795 297.924 62.7075 298.452C62.4355 298.972 62.0595 299.38 61.5795 299.676C61.1075 299.964 60.5835 300.108 60.0075 300.108C59.5035 300.108 59.0555 300.008 58.6635 299.808C58.2715 299.6 57.9515 299.344 57.7035 299.04V303.144H56.3355V293.388H57.7035V294.36ZM61.7235 296.664C61.7235 296.208 61.6275 295.816 61.4355 295.488C61.2515 295.152 61.0035 294.9 60.6915 294.732C60.3875 294.556 60.0595 294.468 59.7075 294.468C59.3635 294.468 59.0355 294.556 58.7235 294.732C58.4195 294.908 58.1715 295.164 57.9795 295.5C57.7955 295.836 57.7035 296.232 57.7035 296.688C57.7035 297.144 57.7955 297.544 57.9795 297.888C58.1715 298.224 58.4195 298.48 58.7235 298.656C59.0355 298.832 59.3635 298.92 59.7075 298.92C60.0595 298.92 60.3875 298.832 60.6915 298.656C61.0035 298.472 61.2515 298.208 61.4355 297.864C61.6275 297.52 61.7235 297.12 61.7235 296.664ZM65.8364 294.348C66.0364 294.012 66.3004 293.752 66.6284 293.568C66.9644 293.376 67.3604 293.28 67.8164 293.28V294.696H67.4684C66.9324 294.696 66.5244 294.832 66.2444 295.104C65.9724 295.376 65.8364 295.848 65.8364 296.52V300H64.4684V293.388H65.8364V294.348ZM72.767 298.14C73.535 297.476 74.139 296.932 74.579 296.508C75.027 296.076 75.399 295.628 75.695 295.164C75.991 294.7 76.139 294.236 76.139 293.772C76.139 293.292 76.023 292.916 75.791 292.644C75.567 292.372 75.211 292.236 74.723 292.236C74.251 292.236 73.883 292.388 73.619 292.692C73.363 292.988 73.227 293.388 73.211 293.892H71.891C71.915 292.98 72.187 292.284 72.707 291.804C73.235 291.316 73.903 291.072 74.711 291.072C75.583 291.072 76.263 291.312 76.751 291.792C77.247 292.272 77.495 292.912 77.495 293.712C77.495 294.288 77.347 294.844 77.051 295.38C76.763 295.908 76.415 296.384 76.007 296.808C75.607 297.224 75.095 297.708 74.471 298.26L73.931 298.74H77.735V299.88H71.903V298.884L72.767 298.14ZM84.4808 292.308L81.1448 300H79.7648L83.1368 292.452H78.6968V291.288H84.4808V292.308ZM68.4662 307.08V308.232H63.5342V307.08H68.4662ZM59.1781 315.66V324H57.8101V318.288L55.2661 324H54.3181L51.7621 318.288V324H50.3941V315.66H51.8701L54.7981 322.2L57.7141 315.66H59.1781ZM60.5202 320.664C60.5202 320 60.6562 319.412 60.9282 318.9C61.2082 318.388 61.5842 317.992 62.0562 317.712C62.5362 317.424 63.0642 317.28 63.6402 317.28C64.1602 317.28 64.6122 317.384 64.9962 317.592C65.3882 317.792 65.7002 318.044 65.9322 318.348V317.388H67.3122V324H65.9322V323.016C65.7002 323.328 65.3842 323.588 64.9842 323.796C64.5842 324.004 64.1282 324.108 63.6162 324.108C63.0482 324.108 62.5282 323.964 62.0562 323.676C61.5842 323.38 61.2082 322.972 60.9282 322.452C60.6562 321.924 60.5202 321.328 60.5202 320.664ZM65.9322 320.688C65.9322 320.232 65.8362 319.836 65.6442 319.5C65.4602 319.164 65.2162 318.908 64.9122 318.732C64.6082 318.556 64.2802 318.468 63.9282 318.468C63.5762 318.468 63.2482 318.556 62.9442 318.732C62.6402 318.9 62.3922 319.152 62.2002 319.488C62.0162 319.816 61.9242 320.208 61.9242 320.664C61.9242 321.12 62.0162 321.52 62.2002 321.864C62.3922 322.208 62.6402 322.472 62.9442 322.656C63.2562 322.832 63.5842 322.92 63.9282 322.92C64.2802 322.92 64.6082 322.832 64.9122 322.656C65.2162 322.48 65.4602 322.224 65.6442 321.888C65.8362 321.544 65.9322 321.144 65.9322 320.688ZM75.061 317.388L71.005 327.108H69.589L70.933 323.892L68.329 317.388H69.853L71.713 322.428L73.645 317.388H75.061ZM78.8505 316.5V315.252H81.3465V324H79.9665V316.5H78.8505Z" fill="#B5B5C3"/>
<path d="M139.313 291.66V300H137.945V294.288L135.401 300H134.453L131.897 294.288V300H130.529V291.66H132.005L134.933 298.2L137.849 291.66H139.313ZM140.655 296.664C140.655 296 140.791 295.412 141.063 294.9C141.343 294.388 141.719 293.992 142.191 293.712C142.671 293.424 143.199 293.28 143.775 293.28C144.295 293.28 144.747 293.384 145.131 293.592C145.523 293.792 145.835 294.044 146.067 294.348V293.388H147.447V300H146.067V299.016C145.835 299.328 145.519 299.588 145.119 299.796C144.719 300.004 144.263 300.108 143.751 300.108C143.183 300.108 142.663 299.964 142.191 299.676C141.719 299.38 141.343 298.972 141.063 298.452C140.791 297.924 140.655 297.328 140.655 296.664ZM146.067 296.688C146.067 296.232 145.971 295.836 145.779 295.5C145.595 295.164 145.351 294.908 145.047 294.732C144.743 294.556 144.415 294.468 144.063 294.468C143.711 294.468 143.383 294.556 143.079 294.732C142.775 294.9 142.527 295.152 142.335 295.488C142.151 295.816 142.059 296.208 142.059 296.664C142.059 297.12 142.151 297.52 142.335 297.864C142.527 298.208 142.775 298.472 143.079 298.656C143.391 298.832 143.719 298.92 144.063 298.92C144.415 298.92 144.743 298.832 145.047 298.656C145.351 298.48 145.595 298.224 145.779 297.888C145.971 297.544 146.067 297.144 146.067 296.688ZM155.196 293.388L151.14 303.108H149.724L151.068 299.892L148.464 293.388H149.988L151.848 298.428L153.78 293.388H155.196ZM159.921 298.14C160.689 297.476 161.293 296.932 161.733 296.508C162.181 296.076 162.553 295.628 162.849 295.164C163.145 294.7 163.293 294.236 163.293 293.772C163.293 293.292 163.177 292.916 162.945 292.644C162.721 292.372 162.365 292.236 161.877 292.236C161.405 292.236 161.037 292.388 160.773 292.692C160.517 292.988 160.381 293.388 160.365 293.892H159.045C159.069 292.98 159.341 292.284 159.861 291.804C160.389 291.316 161.057 291.072 161.865 291.072C162.737 291.072 163.417 291.312 163.905 291.792C164.401 292.272 164.649 292.912 164.649 293.712C164.649 294.288 164.501 294.844 164.205 295.38C163.917 295.908 163.569 296.384 163.161 296.808C162.761 297.224 162.249 297.708 161.625 298.26L161.085 298.74H164.889V299.88H159.057V298.884L159.921 298.14ZM149.966 307.08V308.232H145.034V307.08H149.966ZM138.95 315.66V324H137.582V318.288L135.038 324H134.09L131.534 318.288V324H130.166V315.66H131.642L134.57 322.2L137.486 315.66H138.95ZM140.292 320.664C140.292 320 140.428 319.412 140.7 318.9C140.98 318.388 141.356 317.992 141.828 317.712C142.308 317.424 142.836 317.28 143.412 317.28C143.932 317.28 144.384 317.384 144.768 317.592C145.16 317.792 145.472 318.044 145.704 318.348V317.388H147.084V324H145.704V323.016C145.472 323.328 145.156 323.588 144.756 323.796C144.356 324.004 143.9 324.108 143.388 324.108C142.82 324.108 142.3 323.964 141.828 323.676C141.356 323.38 140.98 322.972 140.7 322.452C140.428 321.924 140.292 321.328 140.292 320.664ZM145.704 320.688C145.704 320.232 145.608 319.836 145.416 319.5C145.232 319.164 144.988 318.908 144.684 318.732C144.38 318.556 144.052 318.468 143.7 318.468C143.348 318.468 143.02 318.556 142.716 318.732C142.412 318.9 142.164 319.152 141.972 319.488C141.788 319.816 141.696 320.208 141.696 320.664C141.696 321.12 141.788 321.52 141.972 321.864C142.164 322.208 142.412 322.472 142.716 322.656C143.028 322.832 143.356 322.92 143.7 322.92C144.052 322.92 144.38 322.832 144.684 322.656C144.988 322.48 145.232 322.224 145.416 321.888C145.608 321.544 145.704 321.144 145.704 320.688ZM154.832 317.388L150.776 327.108H149.36L150.704 323.892L148.1 317.388H149.624L151.484 322.428L153.416 317.388H154.832ZM160.278 319.428C159.446 319.012 159.03 318.356 159.03 317.46C159.03 317.028 159.138 316.632 159.354 316.272C159.57 315.912 159.894 315.628 160.326 315.42C160.758 315.204 161.286 315.096 161.91 315.096C162.526 315.096 163.05 315.204 163.482 315.42C163.922 315.628 164.25 315.912 164.466 316.272C164.682 316.632 164.79 317.028 164.79 317.46C164.79 317.908 164.674 318.304 164.442 318.648C164.218 318.984 163.918 319.244 163.542 319.428C163.998 319.596 164.358 319.872 164.622 320.256C164.886 320.632 165.018 321.076 165.018 321.588C165.018 322.108 164.886 322.568 164.622 322.968C164.358 323.368 163.99 323.676 163.518 323.892C163.046 324.108 162.51 324.216 161.91 324.216C161.31 324.216 160.774 324.108 160.302 323.892C159.838 323.676 159.474 323.368 159.21 322.968C158.946 322.568 158.814 322.108 158.814 321.588C158.814 321.068 158.946 320.62 159.21 320.244C159.474 319.868 159.83 319.596 160.278 319.428ZM163.482 317.628C163.482 317.18 163.342 316.836 163.062 316.596C162.782 316.356 162.398 316.236 161.91 316.236C161.43 316.236 161.05 316.356 160.77 316.596C160.49 316.836 160.35 317.184 160.35 317.64C160.35 318.04 160.494 318.368 160.782 318.624C161.078 318.872 161.454 318.996 161.91 318.996C162.366 318.996 162.742 318.868 163.038 318.612C163.334 318.356 163.482 318.028 163.482 317.628ZM161.91 320.028C161.382 320.028 160.95 320.16 160.614 320.424C160.286 320.68 160.122 321.052 160.122 321.54C160.122 321.996 160.282 322.368 160.602 322.656C160.922 322.936 161.358 323.076 161.91 323.076C162.454 323.076 162.882 322.932 163.194 322.644C163.514 322.356 163.674 321.988 163.674 321.54C163.674 321.06 163.51 320.688 163.182 320.424C162.862 320.16 162.438 320.028 161.91 320.028Z" fill="#B5B5C3"/>
<path d="M220.467 291.66V300H219.099V294.288L216.555 300H215.607L213.051 294.288V300H211.683V291.66H213.159L216.087 298.2L219.003 291.66H220.467ZM221.809 296.664C221.809 296 221.945 295.412 222.217 294.9C222.497 294.388 222.873 293.992 223.345 293.712C223.825 293.424 224.353 293.28 224.929 293.28C225.449 293.28 225.901 293.384 226.285 293.592C226.677 293.792 226.989 294.044 227.221 294.348V293.388H228.601V300H227.221V299.016C226.989 299.328 226.673 299.588 226.273 299.796C225.873 300.004 225.417 300.108 224.905 300.108C224.337 300.108 223.817 299.964 223.345 299.676C222.873 299.38 222.497 298.972 222.217 298.452C221.945 297.924 221.809 297.328 221.809 296.664ZM227.221 296.688C227.221 296.232 227.125 295.836 226.933 295.5C226.749 295.164 226.505 294.908 226.201 294.732C225.897 294.556 225.569 294.468 225.217 294.468C224.865 294.468 224.537 294.556 224.233 294.732C223.929 294.9 223.681 295.152 223.489 295.488C223.305 295.816 223.213 296.208 223.213 296.664C223.213 297.12 223.305 297.52 223.489 297.864C223.681 298.208 223.929 298.472 224.233 298.656C224.545 298.832 224.873 298.92 225.217 298.92C225.569 298.92 225.897 298.832 226.201 298.656C226.505 298.48 226.749 298.224 226.933 297.888C227.125 297.544 227.221 297.144 227.221 296.688ZM236.35 293.388L232.294 303.108H230.878L232.222 299.892L229.618 293.388H231.142L233.002 298.428L234.934 293.388H236.35ZM242.024 297.624C242.104 298.024 242.276 298.328 242.54 298.536C242.804 298.744 243.16 298.848 243.608 298.848C244.176 298.848 244.592 298.624 244.856 298.176C245.12 297.728 245.252 296.964 245.252 295.884C245.06 296.156 244.788 296.368 244.436 296.52C244.092 296.664 243.716 296.736 243.308 296.736C242.788 296.736 242.316 296.632 241.892 296.424C241.468 296.208 241.132 295.892 240.884 295.476C240.644 295.052 240.524 294.54 240.524 293.94C240.524 293.06 240.78 292.36 241.292 291.84C241.812 291.312 242.524 291.048 243.428 291.048C244.516 291.048 245.288 291.412 245.744 292.14C246.208 292.86 246.44 293.968 246.44 295.464C246.44 296.496 246.352 297.34 246.176 297.996C246.008 298.652 245.712 299.148 245.288 299.484C244.864 299.82 244.276 299.988 243.524 299.988C242.668 299.988 242.008 299.764 241.544 299.316C241.08 298.868 240.82 298.304 240.764 297.624H242.024ZM243.548 295.584C244.028 295.584 244.404 295.436 244.676 295.14C244.956 294.836 245.096 294.436 245.096 293.94C245.096 293.388 244.948 292.96 244.652 292.656C244.364 292.344 243.968 292.188 243.464 292.188C242.96 292.188 242.56 292.348 242.264 292.668C241.976 292.98 241.832 293.392 241.832 293.904C241.832 294.392 241.972 294.796 242.252 295.116C242.54 295.428 242.972 295.584 243.548 295.584ZM231.466 307.08V308.232H226.534V307.08H231.466ZM218.346 315.66V324H216.978V318.288L214.434 324H213.486L210.93 318.288V324H209.562V315.66H211.038L213.966 322.2L216.882 315.66H218.346ZM219.688 320.664C219.688 320 219.824 319.412 220.096 318.9C220.376 318.388 220.752 317.992 221.224 317.712C221.704 317.424 222.232 317.28 222.808 317.28C223.328 317.28 223.78 317.384 224.164 317.592C224.556 317.792 224.868 318.044 225.1 318.348V317.388H226.48V324H225.1V323.016C224.868 323.328 224.552 323.588 224.152 323.796C223.752 324.004 223.296 324.108 222.784 324.108C222.216 324.108 221.696 323.964 221.224 323.676C220.752 323.38 220.376 322.972 220.096 322.452C219.824 321.924 219.688 321.328 219.688 320.664ZM225.1 320.688C225.1 320.232 225.004 319.836 224.812 319.5C224.628 319.164 224.384 318.908 224.08 318.732C223.776 318.556 223.448 318.468 223.096 318.468C222.744 318.468 222.416 318.556 222.112 318.732C221.808 318.9 221.56 319.152 221.368 319.488C221.184 319.816 221.092 320.208 221.092 320.664C221.092 321.12 221.184 321.52 221.368 321.864C221.56 322.208 221.808 322.472 222.112 322.656C222.424 322.832 222.752 322.92 223.096 322.92C223.448 322.92 223.776 322.832 224.08 322.656C224.384 322.48 224.628 322.224 224.812 321.888C225.004 321.544 225.1 321.144 225.1 320.688ZM234.229 317.388L230.173 327.108H228.757L230.101 323.892L227.497 317.388H229.021L230.881 322.428L232.813 317.388H234.229ZM238.019 316.5V315.252H240.515V324H239.135V316.5H238.019ZM248.034 316.428H244.014V318.816C244.182 318.592 244.43 318.404 244.758 318.252C245.094 318.1 245.45 318.024 245.826 318.024C246.498 318.024 247.042 318.168 247.458 318.456C247.882 318.744 248.182 319.108 248.358 319.548C248.542 319.988 248.634 320.452 248.634 320.94C248.634 321.532 248.518 322.06 248.286 322.524C248.062 322.98 247.722 323.34 247.266 323.604C246.818 323.868 246.266 324 245.61 324C244.738 324 244.038 323.784 243.51 323.352C242.982 322.92 242.666 322.348 242.562 321.636H243.894C243.982 322.012 244.178 322.312 244.482 322.536C244.786 322.752 245.166 322.86 245.622 322.86C246.19 322.86 246.614 322.688 246.894 322.344C247.182 322 247.326 321.544 247.326 320.976C247.326 320.4 247.182 319.96 246.894 319.656C246.606 319.344 246.182 319.188 245.622 319.188C245.23 319.188 244.898 319.288 244.626 319.488C244.362 319.68 244.17 319.944 244.05 320.28H242.754V315.228H248.034V316.428Z" fill="#B5B5C3"/>
<path d="M299.829 291.66V300H298.461V294.288L295.917 300H294.969L292.413 294.288V300H291.045V291.66H292.521L295.449 298.2L298.365 291.66H299.829ZM301.171 296.664C301.171 296 301.307 295.412 301.579 294.9C301.859 294.388 302.235 293.992 302.707 293.712C303.187 293.424 303.715 293.28 304.291 293.28C304.811 293.28 305.263 293.384 305.647 293.592C306.039 293.792 306.351 294.044 306.583 294.348V293.388H307.963V300H306.583V299.016C306.351 299.328 306.035 299.588 305.635 299.796C305.235 300.004 304.779 300.108 304.267 300.108C303.699 300.108 303.179 299.964 302.707 299.676C302.235 299.38 301.859 298.972 301.579 298.452C301.307 297.924 301.171 297.328 301.171 296.664ZM306.583 296.688C306.583 296.232 306.487 295.836 306.295 295.5C306.111 295.164 305.867 294.908 305.563 294.732C305.259 294.556 304.931 294.468 304.579 294.468C304.227 294.468 303.899 294.556 303.595 294.732C303.291 294.9 303.043 295.152 302.851 295.488C302.667 295.816 302.575 296.208 302.575 296.664C302.575 297.12 302.667 297.52 302.851 297.864C303.043 298.208 303.291 298.472 303.595 298.656C303.907 298.832 304.235 298.92 304.579 298.92C304.931 298.92 305.259 298.832 305.563 298.656C305.867 298.48 306.111 298.224 306.295 297.888C306.487 297.544 306.583 297.144 306.583 296.688ZM315.711 293.388L311.655 303.108H310.239L311.583 299.892L308.979 293.388H310.503L312.363 298.428L314.295 293.388H315.711ZM319.501 292.5V291.252H321.997V300H320.617V292.5H319.501ZM328.58 293.28C328.492 292.912 328.332 292.636 328.1 292.452C327.868 292.268 327.544 292.176 327.128 292.176C326.496 292.176 326.024 292.42 325.712 292.908C325.4 293.388 325.236 294.188 325.22 295.308C325.428 294.956 325.732 294.684 326.132 294.492C326.532 294.3 326.964 294.204 327.428 294.204C327.956 294.204 328.42 294.32 328.82 294.552C329.228 294.776 329.544 295.104 329.768 295.536C330 295.968 330.116 296.484 330.116 297.084C330.116 297.644 330.004 298.144 329.78 298.584C329.564 299.024 329.24 299.372 328.808 299.628C328.376 299.876 327.856 300 327.248 300C326.424 300 325.776 299.82 325.304 299.46C324.84 299.092 324.512 298.576 324.32 297.912C324.136 297.248 324.044 296.42 324.044 295.428C324.044 292.5 325.076 291.036 327.14 291.036C327.94 291.036 328.568 291.252 329.024 291.684C329.488 292.116 329.76 292.648 329.84 293.28H328.58ZM327.128 295.356C326.64 295.356 326.224 295.504 325.88 295.8C325.544 296.088 325.376 296.508 325.376 297.06C325.376 297.612 325.532 298.052 325.844 298.38C326.164 298.7 326.608 298.86 327.176 298.86C327.68 298.86 328.076 298.704 328.364 298.392C328.66 298.08 328.808 297.664 328.808 297.144C328.808 296.6 328.664 296.168 328.376 295.848C328.096 295.52 327.68 295.356 327.128 295.356ZM312.966 307.08V308.232H308.034V307.08H312.966ZM298.85 315.66V324H297.482V318.288L294.938 324H293.99L291.434 318.288V324H290.066V315.66H291.542L294.47 322.2L297.386 315.66H298.85ZM300.192 320.664C300.192 320 300.328 319.412 300.6 318.9C300.88 318.388 301.256 317.992 301.728 317.712C302.208 317.424 302.736 317.28 303.312 317.28C303.832 317.28 304.284 317.384 304.668 317.592C305.06 317.792 305.372 318.044 305.604 318.348V317.388H306.984V324H305.604V323.016C305.372 323.328 305.056 323.588 304.656 323.796C304.256 324.004 303.8 324.108 303.288 324.108C302.72 324.108 302.2 323.964 301.728 323.676C301.256 323.38 300.88 322.972 300.6 322.452C300.328 321.924 300.192 321.328 300.192 320.664ZM305.604 320.688C305.604 320.232 305.508 319.836 305.316 319.5C305.132 319.164 304.888 318.908 304.584 318.732C304.28 318.556 303.952 318.468 303.6 318.468C303.248 318.468 302.92 318.556 302.616 318.732C302.312 318.9 302.064 319.152 301.872 319.488C301.688 319.816 301.596 320.208 301.596 320.664C301.596 321.12 301.688 321.52 301.872 321.864C302.064 322.208 302.312 322.472 302.616 322.656C302.928 322.832 303.256 322.92 303.6 322.92C303.952 322.92 304.28 322.832 304.584 322.656C304.888 322.48 305.132 322.224 305.316 321.888C305.508 321.544 305.604 321.144 305.604 320.688ZM314.733 317.388L310.677 327.108H309.261L310.605 323.892L308.001 317.388H309.525L311.385 322.428L313.317 317.388H314.733ZM319.458 322.14C320.226 321.476 320.83 320.932 321.27 320.508C321.718 320.076 322.09 319.628 322.386 319.164C322.682 318.7 322.83 318.236 322.83 317.772C322.83 317.292 322.714 316.916 322.482 316.644C322.258 316.372 321.902 316.236 321.414 316.236C320.942 316.236 320.574 316.388 320.31 316.692C320.054 316.988 319.918 317.388 319.902 317.892H318.582C318.606 316.98 318.878 316.284 319.398 315.804C319.926 315.316 320.594 315.072 321.402 315.072C322.274 315.072 322.954 315.312 323.442 315.792C323.938 316.272 324.186 316.912 324.186 317.712C324.186 318.288 324.038 318.844 323.742 319.38C323.454 319.908 323.106 320.384 322.698 320.808C322.298 321.224 321.786 321.708 321.162 322.26L320.622 322.74H324.426V323.88H318.594V322.884L319.458 322.14ZM326.384 322.14C327.152 321.476 327.756 320.932 328.196 320.508C328.644 320.076 329.016 319.628 329.312 319.164C329.608 318.7 329.756 318.236 329.756 317.772C329.756 317.292 329.64 316.916 329.408 316.644C329.184 316.372 328.828 316.236 328.34 316.236C327.868 316.236 327.5 316.388 327.236 316.692C326.98 316.988 326.844 317.388 326.828 317.892H325.508C325.532 316.98 325.804 316.284 326.324 315.804C326.852 315.316 327.52 315.072 328.328 315.072C329.2 315.072 329.88 315.312 330.368 315.792C330.864 316.272 331.112 316.912 331.112 317.712C331.112 318.288 330.964 318.844 330.668 319.38C330.38 319.908 330.032 320.384 329.624 320.808C329.224 321.224 328.712 321.708 328.088 322.26L327.548 322.74H331.352V323.88H325.52V322.884L326.384 322.14Z" fill="#B5B5C3"/>
<path d="M380.25 291.66V300H378.882V294.288L376.338 300H375.39L372.834 294.288V300H371.466V291.66H372.942L375.87 298.2L378.786 291.66H380.25ZM381.592 296.664C381.592 296 381.728 295.412 382 294.9C382.28 294.388 382.656 293.992 383.128 293.712C383.608 293.424 384.136 293.28 384.712 293.28C385.232 293.28 385.684 293.384 386.068 293.592C386.46 293.792 386.772 294.044 387.004 294.348V293.388H388.384V300H387.004V299.016C386.772 299.328 386.456 299.588 386.056 299.796C385.656 300.004 385.2 300.108 384.688 300.108C384.12 300.108 383.6 299.964 383.128 299.676C382.656 299.38 382.28 298.972 382 298.452C381.728 297.924 381.592 297.328 381.592 296.664ZM387.004 296.688C387.004 296.232 386.908 295.836 386.716 295.5C386.532 295.164 386.288 294.908 385.984 294.732C385.68 294.556 385.352 294.468 385 294.468C384.648 294.468 384.32 294.556 384.016 294.732C383.712 294.9 383.464 295.152 383.272 295.488C383.088 295.816 382.996 296.208 382.996 296.664C382.996 297.12 383.088 297.52 383.272 297.864C383.464 298.208 383.712 298.472 384.016 298.656C384.328 298.832 384.656 298.92 385 298.92C385.352 298.92 385.68 298.832 385.984 298.656C386.288 298.48 386.532 298.224 386.716 297.888C386.908 297.544 387.004 297.144 387.004 296.688ZM396.133 293.388L392.077 303.108H390.661L392.005 299.892L389.401 293.388H390.925L392.785 298.428L394.717 293.388H396.133ZM400.859 298.14C401.627 297.476 402.231 296.932 402.671 296.508C403.119 296.076 403.491 295.628 403.787 295.164C404.083 294.7 404.231 294.236 404.231 293.772C404.231 293.292 404.115 292.916 403.883 292.644C403.659 292.372 403.303 292.236 402.815 292.236C402.343 292.236 401.975 292.388 401.711 292.692C401.455 292.988 401.319 293.388 401.303 293.892H399.983C400.007 292.98 400.279 292.284 400.799 291.804C401.327 291.316 401.995 291.072 402.803 291.072C403.675 291.072 404.355 291.312 404.843 291.792C405.339 292.272 405.587 292.912 405.587 293.712C405.587 294.288 405.439 294.844 405.143 295.38C404.855 295.908 404.507 296.384 404.099 296.808C403.699 297.224 403.187 297.708 402.563 298.26L402.023 298.74H405.827V299.88H399.995V298.884L400.859 298.14ZM407.005 293.412C407.053 292.668 407.337 292.088 407.857 291.672C408.385 291.256 409.057 291.048 409.873 291.048C410.433 291.048 410.917 291.148 411.325 291.348C411.733 291.548 412.041 291.82 412.249 292.164C412.457 292.508 412.561 292.896 412.561 293.328C412.561 293.824 412.429 294.248 412.165 294.6C411.901 294.952 411.585 295.188 411.217 295.308V295.356C411.689 295.5 412.057 295.764 412.321 296.148C412.585 296.524 412.717 297.008 412.717 297.6C412.717 298.072 412.609 298.492 412.393 298.86C412.177 299.228 411.857 299.52 411.433 299.736C411.009 299.944 410.501 300.048 409.909 300.048C409.045 300.048 408.333 299.828 407.773 299.388C407.221 298.94 406.925 298.3 406.885 297.468H408.205C408.237 297.892 408.401 298.24 408.697 298.512C408.993 298.776 409.393 298.908 409.897 298.908C410.385 298.908 410.761 298.776 411.025 298.512C411.289 298.24 411.421 297.892 411.421 297.468C411.421 296.908 411.241 296.512 410.881 296.28C410.529 296.04 409.985 295.92 409.249 295.92H408.937V294.792H409.261C409.909 294.784 410.401 294.676 410.737 294.468C411.081 294.26 411.253 293.932 411.253 293.484C411.253 293.1 411.129 292.796 410.881 292.572C410.633 292.34 410.281 292.224 409.825 292.224C409.377 292.224 409.029 292.34 408.781 292.572C408.533 292.796 408.385 293.076 408.337 293.412H407.005ZM394.466 307.08V308.232H389.534V307.08H394.466ZM380.455 315.66V324H379.087V318.288L376.543 324H375.595L373.039 318.288V324H371.671V315.66H373.147L376.075 322.2L378.991 315.66H380.455ZM381.798 320.664C381.798 320 381.934 319.412 382.206 318.9C382.486 318.388 382.862 317.992 383.334 317.712C383.814 317.424 384.342 317.28 384.918 317.28C385.438 317.28 385.89 317.384 386.274 317.592C386.666 317.792 386.978 318.044 387.21 318.348V317.388H388.59V324H387.21V323.016C386.978 323.328 386.662 323.588 386.262 323.796C385.862 324.004 385.406 324.108 384.894 324.108C384.326 324.108 383.806 323.964 383.334 323.676C382.862 323.38 382.486 322.972 382.206 322.452C381.934 321.924 381.798 321.328 381.798 320.664ZM387.21 320.688C387.21 320.232 387.114 319.836 386.922 319.5C386.738 319.164 386.494 318.908 386.19 318.732C385.886 318.556 385.558 318.468 385.206 318.468C384.854 318.468 384.526 318.556 384.222 318.732C383.918 318.9 383.67 319.152 383.478 319.488C383.294 319.816 383.202 320.208 383.202 320.664C383.202 321.12 383.294 321.52 383.478 321.864C383.67 322.208 383.918 322.472 384.222 322.656C384.534 322.832 384.862 322.92 385.206 322.92C385.558 322.92 385.886 322.832 386.19 322.656C386.494 322.48 386.738 322.224 386.922 321.888C387.114 321.544 387.21 321.144 387.21 320.688ZM396.338 317.388L392.282 327.108H390.866L392.21 323.892L389.606 317.388H391.13L392.99 322.428L394.922 317.388H396.338ZM401.064 322.14C401.832 321.476 402.436 320.932 402.876 320.508C403.324 320.076 403.696 319.628 403.992 319.164C404.288 318.7 404.436 318.236 404.436 317.772C404.436 317.292 404.32 316.916 404.088 316.644C403.864 316.372 403.508 316.236 403.02 316.236C402.548 316.236 402.18 316.388 401.916 316.692C401.66 316.988 401.524 317.388 401.508 317.892H400.188C400.212 316.98 400.484 316.284 401.004 315.804C401.532 315.316 402.2 315.072 403.008 315.072C403.88 315.072 404.56 315.312 405.048 315.792C405.544 316.272 405.792 316.912 405.792 317.712C405.792 318.288 405.644 318.844 405.348 319.38C405.06 319.908 404.712 320.384 404.304 320.808C403.904 321.224 403.392 321.708 402.768 322.26L402.228 322.74H406.032V323.88H400.2V322.884L401.064 322.14ZM412.778 316.308L409.442 324H408.062L411.434 316.452H406.994V315.288H412.778V316.308Z" fill="#B5B5C3"/>
<path d="M62 107C62 104.791 63.7909 103 66 103C68.2091 103 70 104.791 70 107V137H62V107Z" fill="#FFC700"/>
<path d="M80 75C80 72.7909 81.7909 71 84 71C86.2091 71 88 72.7909 88 75V137H80V75Z" fill="#4A7DFF"/>
<path d="M44 199C44 201.209 45.7909 203 48 203C50.2091 203 52 201.209 52 199V136H44V199Z" fill="#B7FBFB"/>
<path d="M80 199C80 201.209 81.7909 203 84 203C86.2091 203 88 201.209 88 199V137H80V199Z" fill="#CCDAFF"/>
<g clip-path="url(#clip1_9_10727)">
<path d="M127.5 107C127.5 104.791 129.291 103 131.5 103C133.709 103 135.5 104.791 135.5 107V137H127.5V107Z" fill="#04C8C8"/>
<path d="M145.5 166C145.5 168.209 147.291 170 149.5 170C151.709 170 153.5 168.209 153.5 166V137H145.5V166Z" fill="#FFEA99"/>
</g>
<path d="M211 107C211 104.791 212.791 103 215 103C217.209 103 219 104.791 219 107V137H211V107Z" fill="#04C8C8"/>
<path d="M229 107C229 104.791 230.791 103 233 103C235.209 103 237 104.791 237 107V137H229V107Z" fill="#FFC700"/>
<path d="M247 107C247 104.791 248.791 103 251 103C253.209 103 255 104.791 255 107V137H247V107Z" fill="#4A7DFF"/>
<path d="M229 166C229 168.209 230.791 170 233 170C235.209 170 237 168.209 237 166V137H229V166Z" fill="#FFEA99"/>
<path d="M396 107C396 104.791 397.791 103 400 103C402.209 103 404 104.791 404 107V137H396V107Z" fill="#FFC700"/>
</g>
<defs>
<clipPath id="clip0_9_10727">
<rect width="422" height="326" fill="white"/>
</clipPath>
<clipPath id="clip1_9_10727">
<rect width="44" height="263" fill="white" transform="translate(127.5 5)"/>
</clipPath>
</defs>
</svg>
