<svg width="246" height="280" viewBox="0 0 246 280" fill="none" xmlns="http://www.w3.org/2000/svg">
<g clip-path="url(#clip0_9_10296)">
<path d="M4.144 245.268C4.568 245.268 4.968 245.368 5.344 245.568C5.72 245.768 6.028 246.088 6.268 246.528C6.5 246.968 6.616 247.532 6.616 248.22V249.732H10V251.1H1.66L1.66 248.22C1.66 247.58 1.772 247.04 1.996 246.6C2.212 246.152 2.508 245.82 2.884 245.604C3.26 245.38 3.68 245.268 4.144 245.268ZM5.5 248.22C5.5 247.7 5.384 247.312 5.152 247.056C4.912 246.8 4.576 246.672 4.144 246.672C3.232 246.672 2.776 247.188 2.776 248.22L2.776 249.732H5.5V248.22ZM3.388 237.975H10V239.343H9.22C9.492 239.559 9.708 239.843 9.868 240.195C10.02 240.539 10.096 240.907 10.096 241.299C10.096 241.819 9.988 242.287 9.772 242.703C9.556 243.111 9.236 243.435 8.812 243.675C8.388 243.907 7.876 244.023 7.276 244.023H3.388V242.667H7.072C7.664 242.667 8.12 242.519 8.44 242.223C8.752 241.927 8.908 241.523 8.908 241.011C8.908 240.499 8.752 240.095 8.44 239.799C8.12 239.495 7.664 239.343 7.072 239.343H3.388V237.975ZM4.348 234.802C4.012 234.602 3.752 234.338 3.568 234.01C3.376 233.674 3.28 233.278 3.28 232.822H4.696V233.17C4.696 233.706 4.832 234.114 5.104 234.394C5.376 234.666 5.848 234.802 6.52 234.802H10V236.17H3.388V234.802H4.348ZM6.688 232.021C6.008 232.021 5.412 231.885 4.9 231.613C4.38 231.333 3.98 230.949 3.7 230.461C3.42 229.973 3.28 229.413 3.28 228.781C3.28 227.981 3.472 227.321 3.856 226.801C4.232 226.273 4.772 225.917 5.476 225.733V227.209C5.148 227.329 4.892 227.521 4.708 227.785C4.524 228.049 4.432 228.381 4.432 228.781C4.432 229.341 4.632 229.789 5.032 230.125C5.424 230.453 5.976 230.617 6.688 230.617C7.4 230.617 7.956 230.453 8.356 230.125C8.756 229.789 8.956 229.341 8.956 228.781C8.956 227.989 8.608 227.465 7.912 227.209V225.733C8.584 225.925 9.12 226.285 9.52 226.813C9.912 227.341 10.108 227.997 10.108 228.781C10.108 229.413 9.968 229.973 9.688 230.461C9.4 230.949 9 231.333 8.488 231.613C7.968 231.885 7.368 232.021 6.688 232.021ZM3.28 220.95C3.28 220.446 3.388 219.998 3.604 219.606C3.82 219.206 4.14 218.894 4.564 218.67C4.988 218.438 5.5 218.322 6.1 218.322H10V219.678H6.304C5.712 219.678 5.26 219.826 4.948 220.122C4.628 220.418 4.468 220.822 4.468 221.334C4.468 221.846 4.628 222.254 4.948 222.558C5.26 222.854 5.712 223.002 6.304 223.002H10V224.37H1.12V223.002H4.156C3.876 222.77 3.66 222.478 3.508 222.126C3.356 221.766 3.28 221.374 3.28 220.95ZM6.664 217.033C6 217.033 5.412 216.897 4.9 216.625C4.388 216.345 3.992 215.969 3.712 215.497C3.424 215.017 3.28 214.489 3.28 213.913C3.28 213.393 3.384 212.941 3.592 212.557C3.792 212.165 4.044 211.853 4.348 211.621H3.388V210.241H10V211.621H9.016C9.328 211.853 9.588 212.169 9.796 212.569C10.004 212.969 10.108 213.425 10.108 213.937C10.108 214.505 9.964 215.025 9.676 215.497C9.38 215.969 8.972 216.345 8.452 216.625C7.924 216.897 7.328 217.033 6.664 217.033ZM6.688 211.621C6.232 211.621 5.836 211.717 5.5 211.909C5.164 212.093 4.908 212.337 4.732 212.641C4.556 212.945 4.468 213.273 4.468 213.625C4.468 213.977 4.556 214.305 4.732 214.609C4.9 214.913 5.152 215.161 5.488 215.353C5.816 215.537 6.208 215.629 6.664 215.629C7.12 215.629 7.52 215.537 7.864 215.353C8.208 215.161 8.472 214.913 8.656 214.609C8.832 214.297 8.92 213.969 8.92 213.625C8.92 213.273 8.832 212.945 8.656 212.641C8.48 212.337 8.224 212.093 7.888 211.909C7.544 211.717 7.144 211.621 6.688 211.621ZM10.108 206.044C10.108 206.564 10.016 207.032 9.832 207.448C9.64 207.856 9.384 208.18 9.064 208.42C8.736 208.66 8.372 208.788 7.972 208.804V207.388C8.252 207.364 8.488 207.232 8.68 206.992C8.864 206.744 8.956 206.436 8.956 206.068C8.956 205.684 8.884 205.388 8.74 205.18C8.588 204.964 8.396 204.856 8.164 204.856C7.916 204.856 7.732 204.976 7.612 205.216C7.492 205.448 7.36 205.82 7.216 206.332C7.08 206.828 6.948 207.232 6.82 207.544C6.692 207.856 6.496 208.128 6.232 208.36C5.968 208.584 5.62 208.696 5.188 208.696C4.836 208.696 4.516 208.592 4.228 208.384C3.932 208.176 3.7 207.88 3.532 207.496C3.364 207.104 3.28 206.656 3.28 206.152C3.28 205.4 3.472 204.796 3.856 204.34C4.232 203.876 4.748 203.628 5.404 203.596V204.964C5.108 204.988 4.872 205.108 4.696 205.324C4.52 205.54 4.432 205.832 4.432 206.2C4.432 206.56 4.5 206.836 4.636 207.028C4.772 207.22 4.952 207.316 5.176 207.316C5.352 207.316 5.5 207.252 5.62 207.124C5.74 206.996 5.836 206.84 5.908 206.656C5.972 206.472 6.056 206.2 6.16 205.84C6.288 205.36 6.42 204.968 6.556 204.664C6.684 204.352 6.876 204.084 7.132 203.86C7.388 203.636 7.728 203.52 8.152 203.512C8.528 203.512 8.864 203.616 9.16 203.824C9.456 204.032 9.688 204.328 9.856 204.712C10.024 205.088 10.108 205.532 10.108 206.044ZM6.532 195.974C6.78 195.974 7.004 195.99 7.204 196.022V201.074C7.732 201.034 8.156 200.838 8.476 200.486C8.796 200.134 8.956 199.702 8.956 199.19C8.956 198.454 8.648 197.934 8.032 197.63V196.154C8.64 196.354 9.14 196.718 9.532 197.246C9.916 197.766 10.108 198.414 10.108 199.19C10.108 199.822 9.968 200.39 9.688 200.894C9.4 201.39 9 201.782 8.488 202.07C7.968 202.35 7.368 202.49 6.688 202.49C6.008 202.49 5.412 202.354 4.9 202.082C4.38 201.802 3.98 201.414 3.7 200.918C3.42 200.414 3.28 199.838 3.28 199.19C3.28 198.566 3.416 198.01 3.688 197.522C3.96 197.034 4.344 196.654 4.84 196.382C5.328 196.11 5.892 195.974 6.532 195.974ZM6.1 197.402C5.596 197.41 5.192 197.59 4.888 197.942C4.584 198.294 4.432 198.73 4.432 199.25C4.432 199.722 4.584 200.126 4.888 200.462C5.184 200.798 5.588 200.998 6.1 201.062V197.402ZM6.664 195.083C6 195.083 5.412 194.947 4.9 194.675C4.388 194.395 3.992 194.019 3.712 193.547C3.424 193.067 3.28 192.535 3.28 191.951C3.28 191.519 3.376 191.095 3.568 190.679C3.752 190.255 4 189.919 4.312 189.671H1.12L1.12 188.291H10V189.671H9.004C9.324 189.895 9.588 190.207 9.796 190.607C10.004 190.999 10.108 191.451 10.108 191.963C10.108 192.539 9.964 193.067 9.676 193.547C9.38 194.019 8.972 194.395 8.452 194.675C7.924 194.947 7.328 195.083 6.664 195.083ZM6.688 189.671C6.232 189.671 5.836 189.767 5.5 189.959C5.164 190.143 4.908 190.387 4.732 190.691C4.556 190.995 4.468 191.323 4.468 191.675C4.468 192.027 4.556 192.355 4.732 192.659C4.9 192.963 5.152 193.211 5.488 193.403C5.816 193.587 6.208 193.679 6.664 193.679C7.12 193.679 7.52 193.587 7.864 193.403C8.208 193.211 8.472 192.963 8.656 192.659C8.832 192.347 8.92 192.019 8.92 191.675C8.92 191.323 8.832 190.995 8.656 190.691C8.48 190.387 8.224 190.143 7.888 189.959C7.544 189.767 7.144 189.671 6.688 189.671ZM4.144 177.545C4.568 177.545 4.968 177.645 5.344 177.845C5.72 178.045 6.028 178.365 6.268 178.805C6.5 179.245 6.616 179.809 6.616 180.497V182.009H10V183.377H1.66L1.66 180.497C1.66 179.857 1.772 179.317 1.996 178.877C2.212 178.429 2.508 178.097 2.884 177.881C3.26 177.657 3.68 177.545 4.144 177.545ZM5.5 180.497C5.5 179.977 5.384 179.589 5.152 179.333C4.912 179.077 4.576 178.949 4.144 178.949C3.232 178.949 2.776 179.465 2.776 180.497V182.009H5.5V180.497ZM1.12 174.873H10V176.241H1.12V174.873ZM6.664 173.533C6 173.533 5.412 173.397 4.9 173.125C4.388 172.845 3.992 172.469 3.712 171.997C3.424 171.517 3.28 170.989 3.28 170.413C3.28 169.893 3.384 169.441 3.592 169.057C3.792 168.665 4.044 168.353 4.348 168.121H3.388V166.741H10V168.121H9.016C9.328 168.353 9.588 168.669 9.796 169.069C10.004 169.469 10.108 169.925 10.108 170.437C10.108 171.005 9.964 171.525 9.676 171.997C9.38 172.469 8.972 172.845 8.452 173.125C7.924 173.397 7.328 173.533 6.664 173.533ZM6.688 168.121C6.232 168.121 5.836 168.217 5.5 168.409C5.164 168.593 4.908 168.837 4.732 169.141C4.556 169.445 4.468 169.773 4.468 170.125C4.468 170.477 4.556 170.805 4.732 171.109C4.9 171.413 5.152 171.661 5.488 171.853C5.816 172.037 6.208 172.129 6.664 172.129C7.12 172.129 7.52 172.037 7.864 171.853C8.208 171.661 8.472 171.413 8.656 171.109C8.832 170.797 8.92 170.469 8.92 170.125C8.92 169.773 8.832 169.445 8.656 169.141C8.48 168.837 8.224 168.593 7.888 168.409C7.544 168.217 7.144 168.121 6.688 168.121ZM3.28 161.608C3.28 161.088 3.388 160.624 3.604 160.216C3.82 159.8 4.14 159.476 4.564 159.244C4.988 159.012 5.5 158.896 6.1 158.896H10V160.252H6.304C5.712 160.252 5.26 160.4 4.948 160.696C4.628 160.992 4.468 161.396 4.468 161.908C4.468 162.42 4.628 162.828 4.948 163.132C5.26 163.428 5.712 163.576 6.304 163.576H10V164.944H3.388V163.576H4.144C3.872 163.352 3.66 163.068 3.508 162.724C3.356 162.372 3.28 162 3.28 161.608ZM10.108 154.751C10.108 155.271 10.016 155.739 9.832 156.155C9.64 156.563 9.384 156.887 9.064 157.127C8.736 157.367 8.372 157.495 7.972 157.511V156.095C8.252 156.071 8.488 155.939 8.68 155.699C8.864 155.451 8.956 155.143 8.956 154.775C8.956 154.391 8.884 154.095 8.74 153.887C8.588 153.671 8.396 153.563 8.164 153.563C7.916 153.563 7.732 153.683 7.612 153.923C7.492 154.155 7.36 154.527 7.216 155.039C7.08 155.535 6.948 155.939 6.82 156.251C6.692 156.563 6.496 156.835 6.232 157.067C5.968 157.291 5.62 157.403 5.188 157.403C4.836 157.403 4.516 157.299 4.228 157.091C3.932 156.883 3.7 156.587 3.532 156.203C3.364 155.811 3.28 155.363 3.28 154.859C3.28 154.107 3.472 153.503 3.856 153.047C4.232 152.583 4.748 152.335 5.404 152.303V153.671C5.108 153.695 4.872 153.815 4.696 154.031C4.52 154.247 4.432 154.539 4.432 154.907C4.432 155.267 4.5 155.543 4.636 155.735C4.772 155.927 4.952 156.023 5.176 156.023C5.352 156.023 5.5 155.959 5.62 155.831C5.74 155.703 5.836 155.547 5.908 155.363C5.972 155.179 6.056 154.907 6.16 154.547C6.288 154.067 6.42 153.675 6.556 153.371C6.684 153.059 6.876 152.791 7.132 152.567C7.388 152.343 7.728 152.227 8.152 152.219C8.528 152.219 8.864 152.323 9.16 152.531C9.456 152.739 9.688 153.035 9.856 153.419C10.024 153.795 10.108 154.239 10.108 154.751Z" fill="#B5B5C3"/>
<path d="M21.476 8.14C22.244 7.476 22.848 6.932 23.288 6.508C23.736 6.076 24.108 5.628 24.404 5.164C24.7 4.7 24.848 4.236 24.848 3.772C24.848 3.292 24.732 2.916 24.5 2.644C24.276 2.372 23.92 2.236 23.432 2.236C22.96 2.236 22.592 2.388 22.328 2.692C22.072 2.988 21.936 3.388 21.92 3.892H20.6C20.624 2.98 20.896 2.284 21.416 1.804C21.944 1.316 22.612 1.072 23.42 1.072C24.292 1.072 24.972 1.312 25.46 1.792C25.956 2.272 26.204 2.912 26.204 3.712C26.204 4.288 26.056 4.844 25.76 5.38C25.472 5.908 25.124 6.384 24.716 6.808C24.316 7.224 23.804 7.708 23.18 8.26L22.64 8.74H26.444V9.88H20.612V8.884L21.476 8.14ZM29.3258 8.356L27.8738 11.668H26.9858L27.8378 8.356H29.3258ZM30.3411 5.512C30.3411 4.128 30.5731 3.048 31.0371 2.272C31.5091 1.488 32.3171 1.096 33.4611 1.096C34.6051 1.096 35.4091 1.488 35.8731 2.272C36.3451 3.048 36.5811 4.128 36.5811 5.512C36.5811 6.912 36.3451 8.008 35.8731 8.8C35.4091 9.584 34.6051 9.976 33.4611 9.976C32.3171 9.976 31.5091 9.584 31.0371 8.8C30.5731 8.008 30.3411 6.912 30.3411 5.512ZM35.2371 5.512C35.2371 4.864 35.1931 4.316 35.1051 3.868C35.0251 3.42 34.8571 3.056 34.6011 2.776C34.3451 2.488 33.9651 2.344 33.4611 2.344C32.9571 2.344 32.5771 2.488 32.3211 2.776C32.0651 3.056 31.8931 3.42 31.8051 3.868C31.7251 4.316 31.6851 4.864 31.6851 5.512C31.6851 6.184 31.7251 6.748 31.8051 7.204C31.8851 7.66 32.0531 8.028 32.3091 8.308C32.5731 8.588 32.9571 8.728 33.4611 8.728C33.9651 8.728 34.3451 8.588 34.6011 8.308C34.8651 8.028 35.0371 7.66 35.1171 7.204C35.1971 6.748 35.2371 6.184 35.2371 5.512ZM38.0286 5.512C38.0286 4.128 38.2606 3.048 38.7246 2.272C39.1966 1.488 40.0046 1.096 41.1486 1.096C42.2926 1.096 43.0966 1.488 43.5606 2.272C44.0326 3.048 44.2686 4.128 44.2686 5.512C44.2686 6.912 44.0326 8.008 43.5606 8.8C43.0966 9.584 42.2926 9.976 41.1486 9.976C40.0046 9.976 39.1966 9.584 38.7246 8.8C38.2606 8.008 38.0286 6.912 38.0286 5.512ZM42.9246 5.512C42.9246 4.864 42.8806 4.316 42.7926 3.868C42.7126 3.42 42.5446 3.056 42.2886 2.776C42.0326 2.488 41.6526 2.344 41.1486 2.344C40.6446 2.344 40.2646 2.488 40.0086 2.776C39.7526 3.056 39.5806 3.42 39.4926 3.868C39.4126 4.316 39.3726 4.864 39.3726 5.512C39.3726 6.184 39.4126 6.748 39.4926 7.204C39.5726 7.66 39.7406 8.028 39.9966 8.308C40.2606 8.588 40.6446 8.728 41.1486 8.728C41.6526 8.728 42.0326 8.588 42.2886 8.308C42.5526 8.028 42.7246 7.66 42.8046 7.204C42.8846 6.748 42.9246 6.184 42.9246 5.512ZM45.7161 5.512C45.7161 4.128 45.9481 3.048 46.4121 2.272C46.8841 1.488 47.6921 1.096 48.8361 1.096C49.9801 1.096 50.7841 1.488 51.2481 2.272C51.7201 3.048 51.9561 4.128 51.9561 5.512C51.9561 6.912 51.7201 8.008 51.2481 8.8C50.7841 9.584 49.9801 9.976 48.8361 9.976C47.6921 9.976 46.8841 9.584 46.4121 8.8C45.9481 8.008 45.7161 6.912 45.7161 5.512ZM50.6121 5.512C50.6121 4.864 50.5681 4.316 50.4801 3.868C50.4001 3.42 50.2321 3.056 49.9761 2.776C49.7201 2.488 49.3401 2.344 48.8361 2.344C48.3321 2.344 47.9521 2.488 47.6961 2.776C47.4401 3.056 47.2681 3.42 47.1801 3.868C47.1001 4.316 47.0601 4.864 47.0601 5.512C47.0601 6.184 47.1001 6.748 47.1801 7.204C47.2601 7.66 47.4281 8.028 47.6841 8.308C47.9481 8.588 48.3321 8.728 48.8361 8.728C49.3401 8.728 49.7201 8.588 49.9761 8.308C50.2401 8.028 50.4121 7.66 50.4921 7.204C50.5721 6.748 50.6121 6.184 50.6121 5.512Z" fill="#B5B5C3"/>
<path d="M20.54 32.5V31.252H23.036V40H21.656V32.5H20.54ZM26.5953 38.356L25.1433 41.668H24.2553L25.1073 38.356H26.5953ZM33.1546 32.308L29.8186 40H28.4386L31.8106 32.452H27.3706V31.288H33.1546V32.308ZM39.9655 32.428H35.9455V34.816C36.1135 34.592 36.3615 34.404 36.6895 34.252C37.0255 34.1 37.3815 34.024 37.7575 34.024C38.4295 34.024 38.9735 34.168 39.3895 34.456C39.8135 34.744 40.1135 35.108 40.2895 35.548C40.4735 35.988 40.5655 36.452 40.5655 36.94C40.5655 37.532 40.4495 38.06 40.2175 38.524C39.9935 38.98 39.6535 39.34 39.1975 39.604C38.7495 39.868 38.1975 40 37.5415 40C36.6695 40 35.9695 39.784 35.4415 39.352C34.9135 38.92 34.5975 38.348 34.4935 37.636H35.8255C35.9135 38.012 36.1095 38.312 36.4135 38.536C36.7175 38.752 37.0975 38.86 37.5535 38.86C38.1215 38.86 38.5455 38.688 38.8255 38.344C39.1135 38 39.2575 37.544 39.2575 36.976C39.2575 36.4 39.1135 35.96 38.8255 35.656C38.5375 35.344 38.1135 35.188 37.5535 35.188C37.1615 35.188 36.8295 35.288 36.5575 35.488C36.2935 35.68 36.1015 35.944 35.9815 36.28H34.6855V31.228H39.9655V32.428ZM41.9895 35.512C41.9895 34.128 42.2215 33.048 42.6855 32.272C43.1575 31.488 43.9655 31.096 45.1095 31.096C46.2535 31.096 47.0575 31.488 47.5215 32.272C47.9935 33.048 48.2295 34.128 48.2295 35.512C48.2295 36.912 47.9935 38.008 47.5215 38.8C47.0575 39.584 46.2535 39.976 45.1095 39.976C43.9655 39.976 43.1575 39.584 42.6855 38.8C42.2215 38.008 41.9895 36.912 41.9895 35.512ZM46.8855 35.512C46.8855 34.864 46.8415 34.316 46.7535 33.868C46.6735 33.42 46.5055 33.056 46.2495 32.776C45.9935 32.488 45.6135 32.344 45.1095 32.344C44.6055 32.344 44.2255 32.488 43.9695 32.776C43.7135 33.056 43.5415 33.42 43.4535 33.868C43.3735 34.316 43.3335 34.864 43.3335 35.512C43.3335 36.184 43.3735 36.748 43.4535 37.204C43.5335 37.66 43.7015 38.028 43.9575 38.308C44.2215 38.588 44.6055 38.728 45.1095 38.728C45.6135 38.728 45.9935 38.588 46.2495 38.308C46.5135 38.028 46.6855 37.66 46.7655 37.204C46.8455 36.748 46.8855 36.184 46.8855 35.512Z" fill="#B5B5C3"/>
<path d="M20.54 62.5V61.252H23.036V70H21.656V62.5H20.54ZM26.5953 68.356L25.1433 71.668H24.2553L25.1073 68.356H26.5953ZM33.2506 62.428H29.2306V64.816C29.3986 64.592 29.6466 64.404 29.9746 64.252C30.3106 64.1 30.6666 64.024 31.0426 64.024C31.7146 64.024 32.2586 64.168 32.6746 64.456C33.0986 64.744 33.3986 65.108 33.5746 65.548C33.7586 65.988 33.8506 66.452 33.8506 66.94C33.8506 67.532 33.7346 68.06 33.5026 68.524C33.2786 68.98 32.9386 69.34 32.4826 69.604C32.0346 69.868 31.4826 70 30.8266 70C29.9546 70 29.2546 69.784 28.7266 69.352C28.1986 68.92 27.8826 68.348 27.7786 67.636H29.1106C29.1986 68.012 29.3946 68.312 29.6986 68.536C30.0026 68.752 30.3826 68.86 30.8386 68.86C31.4066 68.86 31.8306 68.688 32.1106 68.344C32.3986 68 32.5426 67.544 32.5426 66.976C32.5426 66.4 32.3986 65.96 32.1106 65.656C31.8226 65.344 31.3986 65.188 30.8386 65.188C30.4466 65.188 30.1146 65.288 29.8426 65.488C29.5786 65.68 29.3866 65.944 29.2666 66.28H27.9706V61.228H33.2506V62.428ZM35.2747 65.512C35.2747 64.128 35.5067 63.048 35.9707 62.272C36.4427 61.488 37.2507 61.096 38.3947 61.096C39.5387 61.096 40.3427 61.488 40.8067 62.272C41.2787 63.048 41.5147 64.128 41.5147 65.512C41.5147 66.912 41.2787 68.008 40.8067 68.8C40.3427 69.584 39.5387 69.976 38.3947 69.976C37.2507 69.976 36.4427 69.584 35.9707 68.8C35.5067 68.008 35.2747 66.912 35.2747 65.512ZM40.1707 65.512C40.1707 64.864 40.1267 64.316 40.0387 63.868C39.9587 63.42 39.7907 63.056 39.5347 62.776C39.2787 62.488 38.8987 62.344 38.3947 62.344C37.8907 62.344 37.5107 62.488 37.2547 62.776C36.9987 63.056 36.8267 63.42 36.7387 63.868C36.6587 64.316 36.6187 64.864 36.6187 65.512C36.6187 66.184 36.6587 66.748 36.7387 67.204C36.8187 67.66 36.9867 68.028 37.2427 68.308C37.5067 68.588 37.8907 68.728 38.3947 68.728C38.8987 68.728 39.2787 68.588 39.5347 68.308C39.7987 68.028 39.9707 67.66 40.0507 67.204C40.1307 66.748 40.1707 66.184 40.1707 65.512ZM42.9622 65.512C42.9622 64.128 43.1942 63.048 43.6582 62.272C44.1302 61.488 44.9382 61.096 46.0822 61.096C47.2262 61.096 48.0302 61.488 48.4942 62.272C48.9662 63.048 49.2022 64.128 49.2022 65.512C49.2022 66.912 48.9662 68.008 48.4942 68.8C48.0302 69.584 47.2262 69.976 46.0822 69.976C44.9382 69.976 44.1302 69.584 43.6582 68.8C43.1942 68.008 42.9622 66.912 42.9622 65.512ZM47.8582 65.512C47.8582 64.864 47.8142 64.316 47.7262 63.868C47.6462 63.42 47.4782 63.056 47.2222 62.776C46.9662 62.488 46.5862 62.344 46.0822 62.344C45.5782 62.344 45.1982 62.488 44.9422 62.776C44.6862 63.056 44.5142 63.42 44.4262 63.868C44.3462 64.316 44.3062 64.864 44.3062 65.512C44.3062 66.184 44.3462 66.748 44.4262 67.204C44.5062 67.66 44.6742 68.028 44.9302 68.308C45.1942 68.588 45.5782 68.728 46.0822 68.728C46.5862 68.728 46.9662 68.588 47.2222 68.308C47.4862 68.028 47.6582 67.66 47.7382 67.204C47.8182 66.748 47.8582 66.184 47.8582 65.512Z" fill="#B5B5C3"/>
<path d="M20.54 92.5V91.252H23.036V100H21.656V92.5H20.54ZM26.5953 98.356L25.1433 101.668H24.2553L25.1073 98.356H26.5953ZM28.3666 98.14C29.1346 97.476 29.7386 96.932 30.1786 96.508C30.6266 96.076 30.9986 95.628 31.2946 95.164C31.5906 94.7 31.7386 94.236 31.7386 93.772C31.7386 93.292 31.6226 92.916 31.3906 92.644C31.1666 92.372 30.8106 92.236 30.3226 92.236C29.8506 92.236 29.4826 92.388 29.2186 92.692C28.9626 92.988 28.8266 93.388 28.8106 93.892H27.4906C27.5146 92.98 27.7866 92.284 28.3066 91.804C28.8346 91.316 29.5026 91.072 30.3106 91.072C31.1826 91.072 31.8626 91.312 32.3506 91.792C32.8466 92.272 33.0946 92.912 33.0946 93.712C33.0946 94.288 32.9466 94.844 32.6506 95.38C32.3626 95.908 32.0146 96.384 31.6066 96.808C31.2066 97.224 30.6946 97.708 30.0706 98.26L29.5306 98.74H33.3346V99.88H27.5026V98.884L28.3666 98.14ZM40.1764 92.428H36.1564V94.816C36.3244 94.592 36.5724 94.404 36.9004 94.252C37.2364 94.1 37.5924 94.024 37.9684 94.024C38.6404 94.024 39.1844 94.168 39.6004 94.456C40.0244 94.744 40.3244 95.108 40.5004 95.548C40.6844 95.988 40.7764 96.452 40.7764 96.94C40.7764 97.532 40.6604 98.06 40.4284 98.524C40.2044 98.98 39.8644 99.34 39.4084 99.604C38.9604 99.868 38.4084 100 37.7524 100C36.8804 100 36.1804 99.784 35.6524 99.352C35.1244 98.92 34.8084 98.348 34.7044 97.636H36.0364C36.1244 98.012 36.3204 98.312 36.6244 98.536C36.9284 98.752 37.3084 98.86 37.7644 98.86C38.3324 98.86 38.7564 98.688 39.0364 98.344C39.3244 98 39.4684 97.544 39.4684 96.976C39.4684 96.4 39.3244 95.96 39.0364 95.656C38.7484 95.344 38.3244 95.188 37.7644 95.188C37.3724 95.188 37.0404 95.288 36.7684 95.488C36.5044 95.68 36.3124 95.944 36.1924 96.28H34.8964V91.228H40.1764V92.428ZM42.2005 95.512C42.2005 94.128 42.4325 93.048 42.8965 92.272C43.3685 91.488 44.1765 91.096 45.3205 91.096C46.4645 91.096 47.2685 91.488 47.7325 92.272C48.2045 93.048 48.4405 94.128 48.4405 95.512C48.4405 96.912 48.2045 98.008 47.7325 98.8C47.2685 99.584 46.4645 99.976 45.3205 99.976C44.1765 99.976 43.3685 99.584 42.8965 98.8C42.4325 98.008 42.2005 96.912 42.2005 95.512ZM47.0965 95.512C47.0965 94.864 47.0525 94.316 46.9645 93.868C46.8845 93.42 46.7165 93.056 46.4605 92.776C46.2045 92.488 45.8245 92.344 45.3205 92.344C44.8165 92.344 44.4365 92.488 44.1805 92.776C43.9245 93.056 43.7525 93.42 43.6645 93.868C43.5845 94.316 43.5445 94.864 43.5445 95.512C43.5445 96.184 43.5845 96.748 43.6645 97.204C43.7445 97.66 43.9125 98.028 44.1685 98.308C44.4325 98.588 44.8165 98.728 45.3205 98.728C45.8245 98.728 46.2045 98.588 46.4605 98.308C46.7245 98.028 46.8965 97.66 46.9765 97.204C47.0565 96.748 47.0965 96.184 47.0965 95.512Z" fill="#B5B5C3"/>
<path d="M20.54 122.5V121.252H23.036V130H21.656V122.5H20.54ZM26.5953 128.356L25.1433 131.668H24.2553L25.1073 128.356H26.5953ZM27.6106 125.512C27.6106 124.128 27.8426 123.048 28.3066 122.272C28.7786 121.488 29.5866 121.096 30.7306 121.096C31.8746 121.096 32.6786 121.488 33.1426 122.272C33.6146 123.048 33.8506 124.128 33.8506 125.512C33.8506 126.912 33.6146 128.008 33.1426 128.8C32.6786 129.584 31.8746 129.976 30.7306 129.976C29.5866 129.976 28.7786 129.584 28.3066 128.8C27.8426 128.008 27.6106 126.912 27.6106 125.512ZM32.5066 125.512C32.5066 124.864 32.4626 124.316 32.3746 123.868C32.2946 123.42 32.1266 123.056 31.8706 122.776C31.6146 122.488 31.2346 122.344 30.7306 122.344C30.2266 122.344 29.8466 122.488 29.5906 122.776C29.3346 123.056 29.1626 123.42 29.0746 123.868C28.9946 124.316 28.9546 124.864 28.9546 125.512C28.9546 126.184 28.9946 126.748 29.0746 127.204C29.1546 127.66 29.3226 128.028 29.5786 128.308C29.8426 128.588 30.2266 128.728 30.7306 128.728C31.2346 128.728 31.6146 128.588 31.8706 128.308C32.1346 128.028 32.3066 127.66 32.3866 127.204C32.4666 126.748 32.5066 126.184 32.5066 125.512ZM35.2981 125.512C35.2981 124.128 35.5301 123.048 35.9941 122.272C36.4661 121.488 37.2741 121.096 38.4181 121.096C39.5621 121.096 40.3661 121.488 40.8301 122.272C41.3021 123.048 41.5381 124.128 41.5381 125.512C41.5381 126.912 41.3021 128.008 40.8301 128.8C40.3661 129.584 39.5621 129.976 38.4181 129.976C37.2741 129.976 36.4661 129.584 35.9941 128.8C35.5301 128.008 35.2981 126.912 35.2981 125.512ZM40.1941 125.512C40.1941 124.864 40.1501 124.316 40.0621 123.868C39.9821 123.42 39.8141 123.056 39.5581 122.776C39.3021 122.488 38.9221 122.344 38.4181 122.344C37.9141 122.344 37.5341 122.488 37.2781 122.776C37.0221 123.056 36.8501 123.42 36.7621 123.868C36.6821 124.316 36.6421 124.864 36.6421 125.512C36.6421 126.184 36.6821 126.748 36.7621 127.204C36.8421 127.66 37.0101 128.028 37.2661 128.308C37.5301 128.588 37.9141 128.728 38.4181 128.728C38.9221 128.728 39.3021 128.588 39.5581 128.308C39.8221 128.028 39.9941 127.66 40.0741 127.204C40.1541 126.748 40.1941 126.184 40.1941 125.512ZM42.9856 125.512C42.9856 124.128 43.2176 123.048 43.6816 122.272C44.1536 121.488 44.9616 121.096 46.1056 121.096C47.2496 121.096 48.0536 121.488 48.5176 122.272C48.9896 123.048 49.2256 124.128 49.2256 125.512C49.2256 126.912 48.9896 128.008 48.5176 128.8C48.0536 129.584 47.2496 129.976 46.1056 129.976C44.9616 129.976 44.1536 129.584 43.6816 128.8C43.2176 128.008 42.9856 126.912 42.9856 125.512ZM47.8816 125.512C47.8816 124.864 47.8376 124.316 47.7496 123.868C47.6696 123.42 47.5016 123.056 47.2456 122.776C46.9896 122.488 46.6096 122.344 46.1056 122.344C45.6016 122.344 45.2216 122.488 44.9656 122.776C44.7096 123.056 44.5376 123.42 44.4496 123.868C44.3696 124.316 44.3296 124.864 44.3296 125.512C44.3296 126.184 44.3696 126.748 44.4496 127.204C44.5296 127.66 44.6976 128.028 44.9536 128.308C45.2176 128.588 45.6016 128.728 46.1056 128.728C46.6096 128.728 46.9896 128.588 47.2456 128.308C47.5096 128.028 47.6816 127.66 47.7616 127.204C47.8416 126.748 47.8816 126.184 47.8816 125.512Z" fill="#B5B5C3"/>
<path d="M26.264 152.308L22.928 160H21.548L24.92 152.452H20.48V151.288H26.264V152.308ZM33.0748 152.428H29.0548V154.816C29.2228 154.592 29.4708 154.404 29.7988 154.252C30.1348 154.1 30.4908 154.024 30.8668 154.024C31.5388 154.024 32.0828 154.168 32.4988 154.456C32.9228 154.744 33.2228 155.108 33.3988 155.548C33.5828 155.988 33.6748 156.452 33.6748 156.94C33.6748 157.532 33.5588 158.06 33.3268 158.524C33.1028 158.98 32.7628 159.34 32.3068 159.604C31.8588 159.868 31.3068 160 30.6508 160C29.7788 160 29.0788 159.784 28.5508 159.352C28.0228 158.92 27.7068 158.348 27.6028 157.636H28.9348C29.0228 158.012 29.2188 158.312 29.5228 158.536C29.8268 158.752 30.2068 158.86 30.6628 158.86C31.2308 158.86 31.6548 158.688 31.9348 158.344C32.2228 158 32.3668 157.544 32.3668 156.976C32.3668 156.4 32.2228 155.96 31.9348 155.656C31.6468 155.344 31.2228 155.188 30.6628 155.188C30.2708 155.188 29.9388 155.288 29.6668 155.488C29.4028 155.68 29.2108 155.944 29.0908 156.28H27.7948V151.228H33.0748V152.428ZM35.0989 155.512C35.0989 154.128 35.3309 153.048 35.7949 152.272C36.2669 151.488 37.0749 151.096 38.2189 151.096C39.3629 151.096 40.1669 151.488 40.6309 152.272C41.1029 153.048 41.3389 154.128 41.3389 155.512C41.3389 156.912 41.1029 158.008 40.6309 158.8C40.1669 159.584 39.3629 159.976 38.2189 159.976C37.0749 159.976 36.2669 159.584 35.7949 158.8C35.3309 158.008 35.0989 156.912 35.0989 155.512ZM39.9949 155.512C39.9949 154.864 39.9509 154.316 39.8629 153.868C39.7829 153.42 39.6149 153.056 39.3589 152.776C39.1029 152.488 38.7229 152.344 38.2189 152.344C37.7149 152.344 37.3349 152.488 37.0789 152.776C36.8229 153.056 36.6509 153.42 36.5629 153.868C36.4829 154.316 36.4429 154.864 36.4429 155.512C36.4429 156.184 36.4829 156.748 36.5629 157.204C36.6429 157.66 36.8109 158.028 37.0669 158.308C37.3309 158.588 37.7149 158.728 38.2189 158.728C38.7229 158.728 39.1029 158.588 39.3589 158.308C39.6229 158.028 39.7949 157.66 39.8749 157.204C39.9549 156.748 39.9949 156.184 39.9949 155.512Z" fill="#B5B5C3"/>
<path d="M26.36 182.428H22.34V184.816C22.508 184.592 22.756 184.404 23.084 184.252C23.42 184.1 23.776 184.024 24.152 184.024C24.824 184.024 25.368 184.168 25.784 184.456C26.208 184.744 26.508 185.108 26.684 185.548C26.868 185.988 26.96 186.452 26.96 186.94C26.96 187.532 26.844 188.06 26.612 188.524C26.388 188.98 26.048 189.34 25.592 189.604C25.144 189.868 24.592 190 23.936 190C23.064 190 22.364 189.784 21.836 189.352C21.308 188.92 20.992 188.348 20.888 187.636H22.22C22.308 188.012 22.504 188.312 22.808 188.536C23.112 188.752 23.492 188.86 23.948 188.86C24.516 188.86 24.94 188.688 25.22 188.344C25.508 188 25.652 187.544 25.652 186.976C25.652 186.4 25.508 185.96 25.22 185.656C24.932 185.344 24.508 185.188 23.948 185.188C23.556 185.188 23.224 185.288 22.952 185.488C22.688 185.68 22.496 185.944 22.376 186.28H21.08V181.228H26.36V182.428ZM28.3841 185.512C28.3841 184.128 28.6161 183.048 29.0801 182.272C29.5521 181.488 30.3601 181.096 31.5041 181.096C32.6481 181.096 33.4521 181.488 33.9161 182.272C34.3881 183.048 34.6241 184.128 34.6241 185.512C34.6241 186.912 34.3881 188.008 33.9161 188.8C33.4521 189.584 32.6481 189.976 31.5041 189.976C30.3601 189.976 29.5521 189.584 29.0801 188.8C28.6161 188.008 28.3841 186.912 28.3841 185.512ZM33.2801 185.512C33.2801 184.864 33.2361 184.316 33.1481 183.868C33.0681 183.42 32.9001 183.056 32.6441 182.776C32.3881 182.488 32.0081 182.344 31.5041 182.344C31.0001 182.344 30.6201 182.488 30.3641 182.776C30.1081 183.056 29.9361 183.42 29.8481 183.868C29.7681 184.316 29.7281 184.864 29.7281 185.512C29.7281 186.184 29.7681 186.748 29.8481 187.204C29.9281 187.66 30.0961 188.028 30.3521 188.308C30.6161 188.588 31.0001 188.728 31.5041 188.728C32.0081 188.728 32.3881 188.588 32.6441 188.308C32.9081 188.028 33.0801 187.66 33.1601 187.204C33.2401 186.748 33.2801 186.184 33.2801 185.512ZM36.0716 185.512C36.0716 184.128 36.3036 183.048 36.7676 182.272C37.2396 181.488 38.0476 181.096 39.1916 181.096C40.3356 181.096 41.1396 181.488 41.6036 182.272C42.0756 183.048 42.3116 184.128 42.3116 185.512C42.3116 186.912 42.0756 188.008 41.6036 188.8C41.1396 189.584 40.3356 189.976 39.1916 189.976C38.0476 189.976 37.2396 189.584 36.7676 188.8C36.3036 188.008 36.0716 186.912 36.0716 185.512ZM40.9676 185.512C40.9676 184.864 40.9236 184.316 40.8356 183.868C40.7556 183.42 40.5876 183.056 40.3316 182.776C40.0756 182.488 39.6956 182.344 39.1916 182.344C38.6876 182.344 38.3076 182.488 38.0516 182.776C37.7956 183.056 37.6236 183.42 37.5356 183.868C37.4556 184.316 37.4156 184.864 37.4156 185.512C37.4156 186.184 37.4556 186.748 37.5356 187.204C37.6156 187.66 37.7836 188.028 38.0396 188.308C38.3036 188.588 38.6876 188.728 39.1916 188.728C39.6956 188.728 40.0756 188.588 40.3316 188.308C40.5956 188.028 40.7676 187.66 40.8476 187.204C40.9276 186.748 40.9676 186.184 40.9676 185.512Z" fill="#B5B5C3"/>
<path d="M21.476 218.14C22.244 217.476 22.848 216.932 23.288 216.508C23.736 216.076 24.108 215.628 24.404 215.164C24.7 214.7 24.848 214.236 24.848 213.772C24.848 213.292 24.732 212.916 24.5 212.644C24.276 212.372 23.92 212.236 23.432 212.236C22.96 212.236 22.592 212.388 22.328 212.692C22.072 212.988 21.936 213.388 21.92 213.892H20.6C20.624 212.98 20.896 212.284 21.416 211.804C21.944 211.316 22.612 211.072 23.42 211.072C24.292 211.072 24.972 211.312 25.46 211.792C25.956 212.272 26.204 212.912 26.204 213.712C26.204 214.288 26.056 214.844 25.76 215.38C25.472 215.908 25.124 216.384 24.716 216.808C24.316 217.224 23.804 217.708 23.18 218.26L22.64 218.74H26.444V219.88H20.612V218.884L21.476 218.14ZM33.2858 212.428H29.2658V214.816C29.4338 214.592 29.6818 214.404 30.0098 214.252C30.3458 214.1 30.7018 214.024 31.0778 214.024C31.7498 214.024 32.2938 214.168 32.7098 214.456C33.1338 214.744 33.4338 215.108 33.6098 215.548C33.7938 215.988 33.8858 216.452 33.8858 216.94C33.8858 217.532 33.7698 218.06 33.5378 218.524C33.3138 218.98 32.9738 219.34 32.5178 219.604C32.0698 219.868 31.5178 220 30.8618 220C29.9898 220 29.2898 219.784 28.7618 219.352C28.2338 218.92 27.9178 218.348 27.8138 217.636H29.1458C29.2338 218.012 29.4298 218.312 29.7338 218.536C30.0378 218.752 30.4178 218.86 30.8738 218.86C31.4418 218.86 31.8658 218.688 32.1458 218.344C32.4338 218 32.5778 217.544 32.5778 216.976C32.5778 216.4 32.4338 215.96 32.1458 215.656C31.8578 215.344 31.4338 215.188 30.8738 215.188C30.4818 215.188 30.1498 215.288 29.8778 215.488C29.6138 215.68 29.4218 215.944 29.3018 216.28H28.0058V211.228H33.2858V212.428ZM35.3098 215.512C35.3098 214.128 35.5418 213.048 36.0058 212.272C36.4778 211.488 37.2858 211.096 38.4298 211.096C39.5738 211.096 40.3778 211.488 40.8418 212.272C41.3138 213.048 41.5498 214.128 41.5498 215.512C41.5498 216.912 41.3138 218.008 40.8418 218.8C40.3778 219.584 39.5738 219.976 38.4298 219.976C37.2858 219.976 36.4778 219.584 36.0058 218.8C35.5418 218.008 35.3098 216.912 35.3098 215.512ZM40.2058 215.512C40.2058 214.864 40.1618 214.316 40.0738 213.868C39.9938 213.42 39.8258 213.056 39.5698 212.776C39.3138 212.488 38.9338 212.344 38.4298 212.344C37.9258 212.344 37.5458 212.488 37.2898 212.776C37.0338 213.056 36.8618 213.42 36.7738 213.868C36.6938 214.316 36.6538 214.864 36.6538 215.512C36.6538 216.184 36.6938 216.748 36.7738 217.204C36.8538 217.66 37.0218 218.028 37.2778 218.308C37.5418 218.588 37.9258 218.728 38.4298 218.728C38.9338 218.728 39.3138 218.588 39.5698 218.308C39.8338 218.028 40.0058 217.66 40.0858 217.204C40.1658 216.748 40.2058 216.184 40.2058 215.512Z" fill="#B5B5C3"/>
<path d="M20.72 245.512C20.72 244.128 20.952 243.048 21.416 242.272C21.888 241.488 22.696 241.096 23.84 241.096C24.984 241.096 25.788 241.488 26.252 242.272C26.724 243.048 26.96 244.128 26.96 245.512C26.96 246.912 26.724 248.008 26.252 248.8C25.788 249.584 24.984 249.976 23.84 249.976C22.696 249.976 21.888 249.584 21.416 248.8C20.952 248.008 20.72 246.912 20.72 245.512ZM25.616 245.512C25.616 244.864 25.572 244.316 25.484 243.868C25.404 243.42 25.236 243.056 24.98 242.776C24.724 242.488 24.344 242.344 23.84 242.344C23.336 242.344 22.956 242.488 22.7 242.776C22.444 243.056 22.272 243.42 22.184 243.868C22.104 244.316 22.064 244.864 22.064 245.512C22.064 246.184 22.104 246.748 22.184 247.204C22.264 247.66 22.432 248.028 22.688 248.308C22.952 248.588 23.336 248.728 23.84 248.728C24.344 248.728 24.724 248.588 24.98 248.308C25.244 248.028 25.416 247.66 25.496 247.204C25.576 246.748 25.616 246.184 25.616 245.512Z" fill="#B5B5C3"/>
<line x1="69" y1="5.5" x2="246" y2="5.5" stroke="#EAEAEA" stroke-dasharray="3 4"/>
<line x1="69" y1="35.5" x2="246" y2="35.5" stroke="#EAEAEA" stroke-dasharray="3 4"/>
<line x1="69" y1="65.5" x2="246" y2="65.5" stroke="#EAEAEA" stroke-dasharray="3 4"/>
<line x1="69" y1="95.5" x2="246" y2="95.5" stroke="#EAEAEA" stroke-dasharray="3 4"/>
<line x1="69" y1="125.5" x2="246" y2="125.5" stroke="#EAEAEA" stroke-dasharray="3 4"/>
<line x1="69" y1="155.5" x2="246" y2="155.5" stroke="#EAEAEA" stroke-dasharray="3 4"/>
<line x1="69" y1="185.5" x2="246" y2="185.5" stroke="#EAEAEA" stroke-dasharray="3 4"/>
<line x1="69" y1="215.5" x2="246" y2="215.5" stroke="#EAEAEA" stroke-dasharray="3 4"/>
<line x1="69" y1="245.5" x2="246" y2="245.5" stroke="#EAEAEA" stroke-dasharray="3 4"/>
<path d="M84.6088 276.14C85.3768 275.476 85.9808 274.932 86.4208 274.508C86.8688 274.076 87.2408 273.628 87.5368 273.164C87.8328 272.7 87.9808 272.236 87.9808 271.772C87.9808 271.292 87.8648 270.916 87.6328 270.644C87.4088 270.372 87.0528 270.236 86.5648 270.236C86.0928 270.236 85.7248 270.388 85.4608 270.692C85.2048 270.988 85.0688 271.388 85.0528 271.892H83.7328C83.7568 270.98 84.0288 270.284 84.5488 269.804C85.0768 269.316 85.7448 269.072 86.5528 269.072C87.4248 269.072 88.1048 269.312 88.5928 269.792C89.0888 270.272 89.3368 270.912 89.3368 271.712C89.3368 272.288 89.1888 272.844 88.8928 273.38C88.6048 273.908 88.2568 274.384 87.8488 274.808C87.4488 275.224 86.9368 275.708 86.3128 276.26L85.7728 276.74H89.5768V277.88H83.7448V276.884L84.6088 276.14ZM90.7786 273.512C90.7786 272.128 91.0106 271.048 91.4746 270.272C91.9466 269.488 92.7546 269.096 93.8986 269.096C95.0426 269.096 95.8466 269.488 96.3106 270.272C96.7826 271.048 97.0186 272.128 97.0186 273.512C97.0186 274.912 96.7826 276.008 96.3106 276.8C95.8466 277.584 95.0426 277.976 93.8986 277.976C92.7546 277.976 91.9466 277.584 91.4746 276.8C91.0106 276.008 90.7786 274.912 90.7786 273.512ZM95.6746 273.512C95.6746 272.864 95.6306 272.316 95.5426 271.868C95.4626 271.42 95.2946 271.056 95.0386 270.776C94.7826 270.488 94.4026 270.344 93.8986 270.344C93.3946 270.344 93.0146 270.488 92.7586 270.776C92.5026 271.056 92.3306 271.42 92.2426 271.868C92.1626 272.316 92.1226 272.864 92.1226 273.512C92.1226 274.184 92.1626 274.748 92.2426 275.204C92.3226 275.66 92.4906 276.028 92.7466 276.308C93.0106 276.588 93.3946 276.728 93.8986 276.728C94.4026 276.728 94.7826 276.588 95.0386 276.308C95.3026 276.028 95.4746 275.66 95.5546 275.204C95.6346 274.748 95.6746 274.184 95.6746 273.512ZM99.2221 276.14C99.9901 275.476 100.594 274.932 101.034 274.508C101.482 274.076 101.854 273.628 102.15 273.164C102.446 272.7 102.594 272.236 102.594 271.772C102.594 271.292 102.478 270.916 102.246 270.644C102.022 270.372 101.666 270.236 101.178 270.236C100.706 270.236 100.338 270.388 100.074 270.692C99.8181 270.988 99.6821 271.388 99.6661 271.892H98.3461C98.3701 270.98 98.6421 270.284 99.1621 269.804C99.6901 269.316 100.358 269.072 101.166 269.072C102.038 269.072 102.718 269.312 103.206 269.792C103.702 270.272 103.95 270.912 103.95 271.712C103.95 272.288 103.802 272.844 103.506 273.38C103.218 273.908 102.87 274.384 102.462 274.808C102.062 275.224 101.55 275.708 100.926 276.26L100.386 276.74H104.19V277.88H98.3581V276.884L99.2221 276.14ZM105.212 270.5V269.252H107.708V278H106.328V270.5H105.212Z" fill="#B5B5C3"/>
<path d="M196.744 276.14C197.512 275.476 198.116 274.932 198.556 274.508C199.004 274.076 199.376 273.628 199.672 273.164C199.968 272.7 200.116 272.236 200.116 271.772C200.116 271.292 200 270.916 199.768 270.644C199.544 270.372 199.188 270.236 198.7 270.236C198.228 270.236 197.86 270.388 197.596 270.692C197.34 270.988 197.204 271.388 197.188 271.892H195.868C195.892 270.98 196.164 270.284 196.684 269.804C197.212 269.316 197.88 269.072 198.688 269.072C199.56 269.072 200.24 269.312 200.728 269.792C201.224 270.272 201.472 270.912 201.472 271.712C201.472 272.288 201.324 272.844 201.028 273.38C200.74 273.908 200.392 274.384 199.984 274.808C199.584 275.224 199.072 275.708 198.448 276.26L197.908 276.74H201.712V277.88H195.88V276.884L196.744 276.14ZM202.913 273.512C202.913 272.128 203.145 271.048 203.609 270.272C204.081 269.488 204.889 269.096 206.033 269.096C207.177 269.096 207.981 269.488 208.445 270.272C208.917 271.048 209.153 272.128 209.153 273.512C209.153 274.912 208.917 276.008 208.445 276.8C207.981 277.584 207.177 277.976 206.033 277.976C204.889 277.976 204.081 277.584 203.609 276.8C203.145 276.008 202.913 274.912 202.913 273.512ZM207.809 273.512C207.809 272.864 207.765 272.316 207.677 271.868C207.597 271.42 207.429 271.056 207.173 270.776C206.917 270.488 206.537 270.344 206.033 270.344C205.529 270.344 205.149 270.488 204.893 270.776C204.637 271.056 204.465 271.42 204.377 271.868C204.297 272.316 204.257 272.864 204.257 273.512C204.257 274.184 204.297 274.748 204.377 275.204C204.457 275.66 204.625 276.028 204.881 276.308C205.145 276.588 205.529 276.728 206.033 276.728C206.537 276.728 206.917 276.588 207.173 276.308C207.437 276.028 207.609 275.66 207.689 275.204C207.769 274.748 207.809 274.184 207.809 273.512ZM211.357 276.14C212.125 275.476 212.729 274.932 213.169 274.508C213.617 274.076 213.989 273.628 214.285 273.164C214.581 272.7 214.729 272.236 214.729 271.772C214.729 271.292 214.613 270.916 214.381 270.644C214.157 270.372 213.801 270.236 213.313 270.236C212.841 270.236 212.473 270.388 212.209 270.692C211.953 270.988 211.817 271.388 211.801 271.892H210.481C210.505 270.98 210.777 270.284 211.297 269.804C211.825 269.316 212.493 269.072 213.301 269.072C214.173 269.072 214.853 269.312 215.341 269.792C215.837 270.272 216.085 270.912 216.085 271.712C216.085 272.288 215.937 272.844 215.641 273.38C215.353 273.908 215.005 274.384 214.597 274.808C214.197 275.224 213.685 275.708 213.061 276.26L212.521 276.74H216.325V277.88H210.493V276.884L211.357 276.14ZM218.283 276.14C219.051 275.476 219.655 274.932 220.095 274.508C220.543 274.076 220.915 273.628 221.211 273.164C221.507 272.7 221.655 272.236 221.655 271.772C221.655 271.292 221.539 270.916 221.307 270.644C221.083 270.372 220.727 270.236 220.239 270.236C219.767 270.236 219.399 270.388 219.135 270.692C218.879 270.988 218.743 271.388 218.727 271.892H217.407C217.431 270.98 217.703 270.284 218.223 269.804C218.751 269.316 219.419 269.072 220.227 269.072C221.099 269.072 221.779 269.312 222.267 269.792C222.763 270.272 223.011 270.912 223.011 271.712C223.011 272.288 222.863 272.844 222.567 273.38C222.279 273.908 221.931 274.384 221.523 274.808C221.123 275.224 220.611 275.708 219.987 276.26L219.447 276.74H223.251V277.88H217.419V276.884L218.283 276.14Z" fill="#B5B5C3"/>
<path d="M76 155C76 150.582 79.5817 147 84 147C88.4183 147 92 150.582 92 155V246H76V155Z" fill="#4A7DFF"/>
<path d="M100 180.85C100 176.432 103.582 172.85 108 172.85C112.418 172.85 116 176.432 116 180.85V246H100V180.85Z" fill="#CCDAFF"/>
<path d="M189 96C189 91.5817 192.582 88 197 88C201.418 88 205 91.5817 205 96V246H189V96Z" fill="#4A7DFF"/>
<path d="M213 137.397C213 132.979 216.582 129.397 221 129.397C225.418 129.397 229 132.979 229 137.397V246H213V137.397Z" fill="#CCDAFF"/>
</g>
<defs>
<clipPath id="clip0_9_10296">
<rect width="246" height="280" fill="white"/>
</clipPath>
</defs>
</svg>
