<svg width="100" height="100" viewBox="0 0 100 100" fill="none" xmlns="http://www.w3.org/2000/svg">
<circle cx="50" cy="50" r="42.5" stroke="#4A7DFF" stroke-width="15"/>
<path d="M78.1579 81.8337C80.9022 84.9362 80.6361 89.7315 77.1582 91.9814C71.4109 95.6993 64.9378 98.2125 58.1314 99.3344C48.8474 100.865 39.3201 99.7441 30.6445 96.1017C21.9688 92.4592 14.497 86.4427 9.08791 78.7437C3.67878 71.0447 0.551859 61.9756 0.0665511 52.5789C-0.418757 43.1822 1.75725 33.8392 6.34446 25.6239C10.9317 17.4086 17.7439 10.6544 25.9981 6.1376C34.2524 1.62081 43.6136 -0.475216 53.0058 0.0904305C59.8916 0.505126 66.5891 2.3381 72.6889 5.44421C76.38 7.3238 77.1387 12.0662 74.7286 15.4349C72.3185 18.8037 67.65 19.4937 63.8458 17.8551C60.1402 16.259 56.169 15.3081 52.1041 15.0633C45.5295 14.6673 38.9767 16.1346 33.1987 19.2963C27.4207 22.4581 22.6522 27.186 19.4411 32.9367C16.2301 38.6875 14.7069 45.2275 15.0466 51.8052C15.3863 58.3829 17.5751 64.7313 21.3615 70.1206C25.1479 75.5099 30.3782 79.7215 36.4511 82.2712C42.5241 84.8209 49.1932 85.6052 55.692 84.5341C59.7101 83.8718 63.5622 82.5168 67.0836 80.5475C70.6988 78.5257 75.4136 78.7311 78.1579 81.8337Z" fill="#FFC700"/>
<path d="M78.1579 81.8337C80.9022 84.9362 80.636 89.7316 77.1582 91.9815C69.3742 97.017 60.2972 99.8171 50.9298 99.9914C39.0482 100.212 27.4764 96.1942 18.2886 88.6573C9.10083 81.1204 2.89785 70.5574 0.791609 58.862C-0.868944 49.6413 0.102498 40.192 3.51899 31.5737C5.04546 27.7231 9.69628 26.5245 13.2755 28.6093C16.8548 30.6941 17.9778 35.2778 16.7019 39.2185C14.939 44.6633 14.5263 50.4959 15.5541 56.2034C17.0285 64.3902 21.3706 71.7843 27.802 77.0601C34.2335 82.336 42.3338 85.1486 50.6509 84.9939C56.4491 84.8861 62.0884 83.341 67.0835 80.5476C70.6988 78.5259 75.4136 78.7311 78.1579 81.8337Z" fill="#04C8C8"/>
</svg>
