<svg width="100" height="100" viewBox="0 0 100 100" fill="none" xmlns="http://www.w3.org/2000/svg">
<circle cx="50" cy="50" r="42.5" stroke="#FFEA99" stroke-width="15"/>
<path d="M78.1579 81.8337C80.9022 84.9362 80.6361 89.7315 77.1582 91.9814C70.7792 96.108 63.514 98.7452 55.9045 99.6501C45.8004 100.852 35.5703 98.942 26.5803 94.176C17.5903 89.41 10.2683 82.0145 5.59233 72.9774C0.916335 63.9402 -0.89114 53.6915 0.411296 43.6C1.71373 33.5084 6.06408 24.0545 12.8814 16.5007C19.6986 8.94684 28.6583 3.65276 38.5638 1.32544C48.4693 -1.00188 58.8491 -0.251659 68.3169 3.47592C75.4473 6.28322 81.8049 10.6786 86.9272 16.2896C89.7198 19.3488 88.7598 24.0545 85.3176 26.3586C81.8755 28.6628 77.2631 27.6643 74.2797 24.7909C70.9961 21.6285 67.1085 19.1208 62.8219 17.4331C56.1944 14.8238 48.9285 14.2987 41.9946 15.9278C35.0608 17.5569 28.789 21.2628 24.0169 26.5505C19.2449 31.8381 16.1996 38.4559 15.2879 45.52C14.3762 52.584 15.6414 59.7581 18.9146 66.0842C22.1878 72.4102 27.3132 77.587 33.6062 80.9232C39.8992 84.2594 47.0603 85.5962 54.1331 84.7551C58.7078 84.2111 63.1047 82.7727 67.0836 80.5475C70.6988 78.5258 75.4136 78.7311 78.1579 81.8337Z" fill="#FFC700"/>
</svg>
