<svg width="473" height="153" viewBox="0 0 473 153" fill="none" xmlns="http://www.w3.org/2000/svg">
<path d="M0.733105 87.082C0.733105 83.9892 3.24031 81.482 6.33311 81.482C9.42591 81.482 11.9331 83.9892 11.9331 87.082V152.554H0.733105V87.082Z" fill="white" fill-opacity="0.3"/>
<path d="M17.5332 76.929C17.5332 73.8362 20.0404 71.3289 23.1332 71.3289C26.226 71.3289 28.7332 73.8362 28.7332 76.929V152.554H17.5332V76.929Z" fill="white"/>
<path d="M75.4001 36.3165C75.4001 33.2237 77.9073 30.7165 81.0001 30.7165C84.0929 30.7165 86.6001 33.2237 86.6001 36.3165V152.554H75.4001V36.3165Z" fill="white" fill-opacity="0.3"/>
<path d="M92.1994 26.1632C92.1994 23.0704 94.7066 20.5632 97.7994 20.5632C100.892 20.5632 103.399 23.0704 103.399 26.1632V152.554H92.1994V26.1632Z" fill="white"/>
<path d="M150.066 16.0102C150.066 12.9174 152.573 10.4102 155.666 10.4102C158.759 10.4102 161.266 12.9174 161.266 16.0102V152.554H150.066V16.0102Z" fill="white" fill-opacity="0.3"/>
<path d="M166.866 5.85714C166.866 2.76434 169.374 0.257141 172.466 0.257141C175.559 0.257141 178.066 2.76435 178.066 5.85715V152.554H166.866V5.85714Z" fill="white"/>
<path d="M224.733 66.7759C224.733 63.6831 227.24 61.1759 230.333 61.1759C233.426 61.1759 235.933 63.6831 235.933 66.7759V152.554H224.733V66.7759Z" fill="white" fill-opacity="0.3"/>
<path d="M241.533 56.6226C241.533 53.5298 244.041 51.0226 247.133 51.0226C250.226 51.0226 252.733 53.5298 252.733 56.6226V152.554H241.533V56.6226Z" fill="white"/>
<path d="M299.4 82.0053C299.4 78.9125 301.907 76.4053 305 76.4053C308.093 76.4053 310.6 78.9125 310.6 82.0053V152.554H299.4V82.0053Z" fill="white" fill-opacity="0.3"/>
<path d="M316.2 71.8523C316.2 68.7595 318.707 66.2523 321.8 66.2523C324.892 66.2523 327.4 68.7595 327.4 71.8523V152.554H316.2V71.8523Z" fill="white"/>
<path d="M372.2 46.4696C372.2 43.3768 374.707 40.8696 377.8 40.8696C380.893 40.8696 383.4 43.3768 383.4 46.4696V152.554H372.2V46.4696Z" fill="white" fill-opacity="0.3"/>
<path d="M389 36.3165C389 33.2237 391.507 30.7165 394.6 30.7165C397.693 30.7165 400.2 33.2237 400.2 36.3165V152.554H389V36.3165Z" fill="white"/>
<path d="M445 61.6993C445 58.6065 447.507 56.0993 450.6 56.0993C453.693 56.0993 456.2 58.6065 456.2 61.6993V152.554H445V61.6993Z" fill="white" fill-opacity="0.3"/>
<path d="M461.799 51.5459C461.799 48.4532 464.307 45.946 467.399 45.946C470.492 45.946 472.999 48.4532 472.999 51.5459V152.554H461.799V51.5459Z" fill="white"/>
</svg>
