<svg width="18" height="12" viewBox="0 0 18 12" fill="none" xmlns="http://www.w3.org/2000/svg">
<path d="M13.1042 4.61809L11.2486 7.97602L10.7412 6.54827C10.5969 6.14035 10.2138 5.87172 9.78602 5.87172H8.22396L6.78627 1.01142C6.52759 0.150797 5.35355 0.00155538 4.89588 0.857206L2.97067 4.832H1.44343C0.881287 4.832 0.428589 5.2847 0.428589 5.84684C0.428589 6.40898 0.881287 6.86168 1.44343 6.86168H3.60743C3.99546 6.86168 4.35364 6.63782 4.52278 6.28959L5.58239 4.10072L6.49276 7.17509C6.62211 7.60789 7.01511 7.9014 7.46781 7.9014H9.06966L10.0895 10.7768C10.3233 11.4484 11.358 11.8165 11.9351 10.931L14.5966 6.12542H16.5566C17.1187 6.12542 17.5714 5.67273 17.5714 5.11058C17.5714 4.54844 17.1187 4.09574 16.5566 4.09574H13.9996C13.6215 4.09077 13.2832 4.29473 13.1042 4.61809Z" fill="#1BC5BD"/>
</svg>
