<svg width="626" height="326" viewBox="0 0 626 326" fill="none" xmlns="http://www.w3.org/2000/svg">
<g clip-path="url(#clip0_9_10348)">
<path d="M10 268.768L6.664 270.688V271.732H10V273.1H1.66L1.66 270.22C1.66 269.58 1.772 269.04 1.996 268.6C2.22 268.152 2.52 267.82 2.896 267.604C3.272 267.38 3.692 267.268 4.156 267.268C4.7 267.268 5.196 267.428 5.644 267.748C6.084 268.06 6.384 268.544 6.544 269.2L10 267.136V268.768ZM5.572 271.732V270.22C5.572 269.708 5.444 269.324 5.188 269.068C4.932 268.804 4.588 268.672 4.156 268.672C3.724 268.672 3.388 268.8 3.148 269.056C2.9 269.312 2.776 269.7 2.776 270.22L2.776 271.732H5.572ZM6.532 259.458C6.78 259.458 7.004 259.474 7.204 259.506V264.558C7.732 264.518 8.156 264.322 8.476 263.97C8.796 263.618 8.956 263.186 8.956 262.674C8.956 261.938 8.648 261.418 8.032 261.114V259.638C8.64 259.838 9.14 260.202 9.532 260.73C9.916 261.25 10.108 261.898 10.108 262.674C10.108 263.306 9.968 263.874 9.688 264.378C9.4 264.874 9 265.266 8.488 265.554C7.968 265.834 7.368 265.974 6.688 265.974C6.008 265.974 5.412 265.838 4.9 265.566C4.38 265.286 3.98 264.898 3.7 264.402C3.42 263.898 3.28 263.322 3.28 262.674C3.28 262.05 3.416 261.494 3.688 261.006C3.96 260.518 4.344 260.138 4.84 259.866C5.328 259.594 5.892 259.458 6.532 259.458ZM6.1 260.886C5.596 260.894 5.192 261.074 4.888 261.426C4.584 261.778 4.432 262.214 4.432 262.734C4.432 263.206 4.584 263.61 4.888 263.946C5.184 264.282 5.588 264.482 6.1 264.546V260.886ZM4.504 255.34V256.564H10V257.944H4.504V258.724H3.388V257.944H2.92C2.16 257.944 1.608 257.744 1.264 257.344C0.912 256.936 0.736 256.3 0.736 255.436H1.876C1.876 255.852 1.956 256.144 2.116 256.312C2.268 256.48 2.536 256.564 2.92 256.564H3.388L3.388 255.34H4.504ZM3.388 248.139H10V249.507H9.22C9.492 249.723 9.708 250.007 9.868 250.359C10.02 250.703 10.096 251.071 10.096 251.463C10.096 251.983 9.988 252.451 9.772 252.867C9.556 253.275 9.236 253.599 8.812 253.839C8.388 254.071 7.876 254.187 7.276 254.187H3.388V252.831H7.072C7.664 252.831 8.12 252.683 8.44 252.387C8.752 252.091 8.908 251.687 8.908 251.175C8.908 250.663 8.752 250.259 8.44 249.963C8.12 249.659 7.664 249.507 7.072 249.507H3.388L3.388 248.139ZM3.28 242.998C3.28 242.478 3.388 242.014 3.604 241.606C3.82 241.19 4.14 240.866 4.564 240.634C4.988 240.402 5.5 240.286 6.1 240.286H10V241.642H6.304C5.712 241.642 5.26 241.79 4.948 242.086C4.628 242.382 4.468 242.786 4.468 243.298C4.468 243.81 4.628 244.218 4.948 244.522C5.26 244.818 5.712 244.966 6.304 244.966H10V246.334H3.388V244.966H4.144C3.872 244.742 3.66 244.458 3.508 244.114C3.356 243.762 3.28 243.39 3.28 242.998ZM6.664 238.997C6 238.997 5.412 238.861 4.9 238.589C4.388 238.309 3.992 237.933 3.712 237.461C3.424 236.981 3.28 236.449 3.28 235.865C3.28 235.433 3.376 235.009 3.568 234.593C3.752 234.169 4 233.833 4.312 233.585H1.12L1.12 232.205H10V233.585H9.004C9.324 233.809 9.588 234.121 9.796 234.521C10.004 234.913 10.108 235.365 10.108 235.877C10.108 236.453 9.964 236.981 9.676 237.461C9.38 237.933 8.972 238.309 8.452 238.589C7.924 238.861 7.328 238.997 6.664 238.997ZM6.688 233.585C6.232 233.585 5.836 233.681 5.5 233.873C5.164 234.057 4.908 234.301 4.732 234.605C4.556 234.909 4.468 235.237 4.468 235.589C4.468 235.941 4.556 236.269 4.732 236.573C4.9 236.877 5.152 237.125 5.488 237.317C5.816 237.501 6.208 237.593 6.664 237.593C7.12 237.593 7.52 237.501 7.864 237.317C8.208 237.125 8.472 236.877 8.656 236.573C8.832 236.261 8.92 235.933 8.92 235.589C8.92 235.237 8.832 234.909 8.656 234.605C8.48 234.301 8.224 234.057 7.888 233.873C7.544 233.681 7.144 233.585 6.688 233.585ZM4.372 225.923C4.052 225.691 3.792 225.375 3.592 224.975C3.384 224.567 3.28 224.115 3.28 223.619C3.28 223.035 3.42 222.507 3.7 222.035C3.98 221.563 4.38 221.191 4.9 220.919C5.412 220.647 6 220.511 6.664 220.511C7.328 220.511 7.924 220.647 8.452 220.919C8.972 221.191 9.38 221.567 9.676 222.047C9.964 222.519 10.108 223.043 10.108 223.619C10.108 224.131 10.008 224.587 9.808 224.987C9.608 225.379 9.352 225.691 9.04 225.923H10V227.291H1.12V225.923H4.372ZM6.664 221.903C6.208 221.903 5.816 221.999 5.488 222.191C5.152 222.375 4.9 222.623 4.732 222.935C4.556 223.239 4.468 223.567 4.468 223.919C4.468 224.263 4.556 224.591 4.732 224.903C4.908 225.207 5.164 225.455 5.5 225.647C5.836 225.831 6.232 225.923 6.688 225.923C7.144 225.923 7.544 225.831 7.888 225.647C8.224 225.455 8.48 225.207 8.656 224.903C8.832 224.591 8.92 224.263 8.92 223.919C8.92 223.567 8.832 223.239 8.656 222.935C8.472 222.623 8.208 222.375 7.864 222.191C7.52 221.999 7.12 221.903 6.664 221.903ZM3.388 213.207L13.108 217.263V218.679L9.892 217.335L3.388 219.939L3.388 218.415L8.428 216.555L3.388 214.623V213.207ZM4.144 203.225C4.568 203.225 4.968 203.325 5.344 203.525C5.72 203.725 6.028 204.045 6.268 204.485C6.5 204.925 6.616 205.489 6.616 206.177V207.689H10V209.057H1.66L1.66 206.177C1.66 205.537 1.772 204.997 1.996 204.557C2.212 204.109 2.508 203.777 2.884 203.561C3.26 203.337 3.68 203.225 4.144 203.225ZM5.5 206.177C5.5 205.657 5.384 205.269 5.152 205.013C4.912 204.757 4.576 204.629 4.144 204.629C3.232 204.629 2.776 205.145 2.776 206.177V207.689H5.5V206.177ZM1.12 200.552H10L10 201.92H1.12V200.552ZM6.664 199.212C6 199.212 5.412 199.076 4.9 198.804C4.388 198.524 3.992 198.148 3.712 197.676C3.424 197.196 3.28 196.668 3.28 196.092C3.28 195.572 3.384 195.12 3.592 194.736C3.792 194.344 4.044 194.032 4.348 193.8H3.388V192.42H10V193.8H9.016C9.328 194.032 9.588 194.348 9.796 194.748C10.004 195.148 10.108 195.604 10.108 196.116C10.108 196.684 9.964 197.204 9.676 197.676C9.38 198.148 8.972 198.524 8.452 198.804C7.924 199.076 7.328 199.212 6.664 199.212ZM6.688 193.8C6.232 193.8 5.836 193.896 5.5 194.088C5.164 194.272 4.908 194.516 4.732 194.82C4.556 195.124 4.468 195.452 4.468 195.804C4.468 196.156 4.556 196.484 4.732 196.788C4.9 197.092 5.152 197.34 5.488 197.532C5.816 197.716 6.208 197.808 6.664 197.808C7.12 197.808 7.52 197.716 7.864 197.532C8.208 197.34 8.472 197.092 8.656 196.788C8.832 196.476 8.92 196.148 8.92 195.804C8.92 195.452 8.832 195.124 8.656 194.82C8.48 194.516 8.224 194.272 7.888 194.088C7.544 193.896 7.144 193.8 6.688 193.8ZM3.28 187.287C3.28 186.767 3.388 186.303 3.604 185.895C3.82 185.479 4.14 185.155 4.564 184.923C4.988 184.691 5.5 184.575 6.1 184.575H10V185.931H6.304C5.712 185.931 5.26 186.079 4.948 186.375C4.628 186.671 4.468 187.075 4.468 187.587C4.468 188.099 4.628 188.507 4.948 188.811C5.26 189.107 5.712 189.255 6.304 189.255H10V190.623H3.388L3.388 189.255H4.144C3.872 189.031 3.66 188.747 3.508 188.403C3.356 188.051 3.28 187.679 3.28 187.287Z" fill="#B5B5C3"/>
<path d="M20.552 8.176V7.144L24.584 1.36H26.24V6.988H27.356V8.176H26.24V10H24.896V8.176H20.552ZM24.956 2.752L22.124 6.988H24.956V2.752Z" fill="#B5B5C3"/>
<path d="M20.696 36.162C20.744 35.418 21.028 34.838 21.548 34.422C22.076 34.006 22.748 33.798 23.564 33.798C24.124 33.798 24.608 33.898 25.016 34.098C25.424 34.298 25.732 34.57 25.94 34.914C26.148 35.258 26.252 35.646 26.252 36.078C26.252 36.574 26.12 36.998 25.856 37.35C25.592 37.702 25.276 37.938 24.908 38.058V38.106C25.38 38.25 25.748 38.514 26.012 38.898C26.276 39.274 26.408 39.758 26.408 40.35C26.408 40.822 26.3 41.242 26.084 41.61C25.868 41.978 25.548 42.27 25.124 42.486C24.7 42.694 24.192 42.798 23.6 42.798C22.736 42.798 22.024 42.578 21.464 42.138C20.912 41.69 20.616 41.05 20.576 40.218H21.896C21.928 40.642 22.092 40.99 22.388 41.262C22.684 41.526 23.084 41.658 23.588 41.658C24.076 41.658 24.452 41.526 24.716 41.262C24.98 40.99 25.112 40.642 25.112 40.218C25.112 39.658 24.932 39.262 24.572 39.03C24.22 38.79 23.676 38.67 22.94 38.67H22.628V37.542H22.952C23.6 37.534 24.092 37.426 24.428 37.218C24.772 37.01 24.944 36.682 24.944 36.234C24.944 35.85 24.82 35.546 24.572 35.322C24.324 35.09 23.972 34.974 23.516 34.974C23.068 34.974 22.72 35.09 22.472 35.322C22.224 35.546 22.076 35.826 22.028 36.162H20.696Z" fill="#B5B5C3"/>
<path d="M21.476 73.64C22.244 72.976 22.848 72.432 23.288 72.008C23.736 71.576 24.108 71.128 24.404 70.664C24.7 70.2 24.848 69.736 24.848 69.272C24.848 68.792 24.732 68.416 24.5 68.144C24.276 67.872 23.92 67.736 23.432 67.736C22.96 67.736 22.592 67.888 22.328 68.192C22.072 68.488 21.936 68.888 21.92 69.392H20.6C20.624 68.48 20.896 67.784 21.416 67.304C21.944 66.816 22.612 66.572 23.42 66.572C24.292 66.572 24.972 66.812 25.46 67.292C25.956 67.772 26.204 68.412 26.204 69.212C26.204 69.788 26.056 70.344 25.76 70.88C25.472 71.408 25.124 71.884 24.716 72.308C24.316 72.724 23.804 73.208 23.18 73.76L22.64 74.24H26.444V75.38H20.612V74.384L21.476 73.64Z" fill="#B5B5C3"/>
<path d="M20.54 100.75V99.502H23.036V108.25H21.656V100.75H20.54Z" fill="#B5B5C3"/>
<path d="M20.72 136.512C20.72 135.128 20.952 134.048 21.416 133.272C21.888 132.488 22.696 132.096 23.84 132.096C24.984 132.096 25.788 132.488 26.252 133.272C26.724 134.048 26.96 135.128 26.96 136.512C26.96 137.912 26.724 139.008 26.252 139.8C25.788 140.584 24.984 140.976 23.84 140.976C22.696 140.976 21.888 140.584 21.416 139.8C20.952 139.008 20.72 137.912 20.72 136.512ZM25.616 136.512C25.616 135.864 25.572 135.316 25.484 134.868C25.404 134.42 25.236 134.056 24.98 133.776C24.724 133.488 24.344 133.344 23.84 133.344C23.336 133.344 22.956 133.488 22.7 133.776C22.444 134.056 22.272 134.42 22.184 134.868C22.104 135.316 22.064 135.864 22.064 136.512C22.064 137.184 22.104 137.748 22.184 138.204C22.264 138.66 22.432 139.028 22.688 139.308C22.952 139.588 23.336 139.728 23.84 139.728C24.344 139.728 24.724 139.588 24.98 139.308C25.244 139.028 25.416 138.66 25.496 138.204C25.576 137.748 25.616 137.184 25.616 136.512Z" fill="#B5B5C3"/>
<path d="M20.54 166.25V165.002H23.036V173.75H21.656V166.25H20.54Z" fill="#B5B5C3"/>
<path d="M21.476 204.64C22.244 203.976 22.848 203.432 23.288 203.008C23.736 202.576 24.108 202.128 24.404 201.664C24.7 201.2 24.848 200.736 24.848 200.272C24.848 199.792 24.732 199.416 24.5 199.144C24.276 198.872 23.92 198.736 23.432 198.736C22.96 198.736 22.592 198.888 22.328 199.192C22.072 199.488 21.936 199.888 21.92 200.392H20.6C20.624 199.48 20.896 198.784 21.416 198.304C21.944 197.816 22.612 197.572 23.42 197.572C24.292 197.572 24.972 197.812 25.46 198.292C25.956 198.772 26.204 199.412 26.204 200.212C26.204 200.788 26.056 201.344 25.76 201.88C25.472 202.408 25.124 202.884 24.716 203.308C24.316 203.724 23.804 204.208 23.18 204.76L22.64 205.24H26.444V206.38H20.612V205.384L21.476 204.64Z" fill="#B5B5C3"/>
<path d="M20.696 232.662C20.744 231.918 21.028 231.338 21.548 230.922C22.076 230.506 22.748 230.298 23.564 230.298C24.124 230.298 24.608 230.398 25.016 230.598C25.424 230.798 25.732 231.07 25.94 231.414C26.148 231.758 26.252 232.146 26.252 232.578C26.252 233.074 26.12 233.498 25.856 233.85C25.592 234.202 25.276 234.438 24.908 234.558V234.606C25.38 234.75 25.748 235.014 26.012 235.398C26.276 235.774 26.408 236.258 26.408 236.85C26.408 237.322 26.3 237.742 26.084 238.11C25.868 238.478 25.548 238.77 25.124 238.986C24.7 239.194 24.192 239.298 23.6 239.298C22.736 239.298 22.024 239.078 21.464 238.638C20.912 238.19 20.616 237.55 20.576 236.718H21.896C21.928 237.142 22.092 237.49 22.388 237.762C22.684 238.026 23.084 238.158 23.588 238.158C24.076 238.158 24.452 238.026 24.716 237.762C24.98 237.49 25.112 237.142 25.112 236.718C25.112 236.158 24.932 235.762 24.572 235.53C24.22 235.29 23.676 235.17 22.94 235.17H22.628V234.042H22.952C23.6 234.034 24.092 233.926 24.428 233.718C24.772 233.51 24.944 233.182 24.944 232.734C24.944 232.35 24.82 232.046 24.572 231.822C24.324 231.59 23.972 231.474 23.516 231.474C23.068 231.474 22.72 231.59 22.472 231.822C22.224 232.046 22.076 232.326 22.028 232.662H20.696Z" fill="#B5B5C3"/>
<path d="M20.552 270.176V269.144L24.584 263.36H26.24V268.988H27.356V270.176H26.24V272H24.896V270.176H20.552ZM24.956 264.752L22.124 268.988H24.956V264.752Z" fill="#B5B5C3"/>
<line x1="44" y1="5.5" x2="626" y2="5.5" stroke="#EAEAEA" stroke-dasharray="3 4"/>
<line x1="44" y1="38.25" x2="626" y2="38.25" stroke="#EAEAEA" stroke-dasharray="3 4"/>
<line x1="44" y1="71" x2="626" y2="71" stroke="#EAEAEA" stroke-dasharray="3 4"/>
<line x1="44" y1="103.75" x2="626" y2="103.75" stroke="#EAEAEA" stroke-dasharray="3 4"/>
<line x1="44" y1="136.5" x2="626" y2="136.5" stroke="#EAEAEA" stroke-dasharray="3 4"/>
<line x1="44" y1="169.25" x2="626" y2="169.25" stroke="#EAEAEA" stroke-dasharray="3 4"/>
<line x1="44" y1="202" x2="626" y2="202" stroke="#EAEAEA" stroke-dasharray="3 4"/>
<line x1="44" y1="234.75" x2="626" y2="234.75" stroke="#EAEAEA" stroke-dasharray="3 4"/>
<line x1="44" y1="267.5" x2="626" y2="267.5" stroke="#EAEAEA" stroke-dasharray="3 4"/>
<path d="M52.9964 298.296H49.5044L48.9044 300H47.4764L50.4644 291.648H52.0484L55.0364 300H53.5964L52.9964 298.296ZM52.6124 297.18L51.2564 293.304L49.8884 297.18H52.6124ZM57.7035 294.36C57.9355 294.056 58.2515 293.8 58.6515 293.592C59.0515 293.384 59.5035 293.28 60.0075 293.28C60.5835 293.28 61.1075 293.424 61.5795 293.712C62.0595 293.992 62.4355 294.388 62.7075 294.9C62.9795 295.412 63.1155 296 63.1155 296.664C63.1155 297.328 62.9795 297.924 62.7075 298.452C62.4355 298.972 62.0595 299.38 61.5795 299.676C61.1075 299.964 60.5835 300.108 60.0075 300.108C59.5035 300.108 59.0555 300.008 58.6635 299.808C58.2715 299.6 57.9515 299.344 57.7035 299.04V303.144H56.3355V293.388H57.7035V294.36ZM61.7235 296.664C61.7235 296.208 61.6275 295.816 61.4355 295.488C61.2515 295.152 61.0035 294.9 60.6915 294.732C60.3875 294.556 60.0595 294.468 59.7075 294.468C59.3635 294.468 59.0355 294.556 58.7235 294.732C58.4195 294.908 58.1715 295.164 57.9795 295.5C57.7955 295.836 57.7035 296.232 57.7035 296.688C57.7035 297.144 57.7955 297.544 57.9795 297.888C58.1715 298.224 58.4195 298.48 58.7235 298.656C59.0355 298.832 59.3635 298.92 59.7075 298.92C60.0595 298.92 60.3875 298.832 60.6915 298.656C61.0035 298.472 61.2515 298.208 61.4355 297.864C61.6275 297.52 61.7235 297.12 61.7235 296.664ZM65.8364 294.348C66.0364 294.012 66.3004 293.752 66.6284 293.568C66.9644 293.376 67.3604 293.28 67.8164 293.28V294.696H67.4684C66.9324 294.696 66.5244 294.832 66.2444 295.104C65.9724 295.376 65.8364 295.848 65.8364 296.52V300H64.4684V293.388H65.8364V294.348ZM72.767 298.14C73.535 297.476 74.139 296.932 74.579 296.508C75.027 296.076 75.399 295.628 75.695 295.164C75.991 294.7 76.139 294.236 76.139 293.772C76.139 293.292 76.023 292.916 75.791 292.644C75.567 292.372 75.211 292.236 74.723 292.236C74.251 292.236 73.883 292.388 73.619 292.692C73.363 292.988 73.227 293.388 73.211 293.892H71.891C71.915 292.98 72.187 292.284 72.707 291.804C73.235 291.316 73.903 291.072 74.711 291.072C75.583 291.072 76.263 291.312 76.751 291.792C77.247 292.272 77.495 292.912 77.495 293.712C77.495 294.288 77.347 294.844 77.051 295.38C76.763 295.908 76.415 296.384 76.007 296.808C75.607 297.224 75.095 297.708 74.471 298.26L73.931 298.74H77.735V299.88H71.903V298.884L72.767 298.14ZM84.4808 292.308L81.1448 300H79.7648L83.1368 292.452H78.6968V291.288H84.4808V292.308ZM68.4662 307.08V308.232H63.5342V307.08H68.4662ZM59.1781 315.66V324H57.8101V318.288L55.2661 324H54.3181L51.7621 318.288V324H50.3941V315.66H51.8701L54.7981 322.2L57.7141 315.66H59.1781ZM60.5202 320.664C60.5202 320 60.6562 319.412 60.9282 318.9C61.2082 318.388 61.5842 317.992 62.0562 317.712C62.5362 317.424 63.0642 317.28 63.6402 317.28C64.1602 317.28 64.6122 317.384 64.9962 317.592C65.3882 317.792 65.7002 318.044 65.9322 318.348V317.388H67.3122V324H65.9322V323.016C65.7002 323.328 65.3842 323.588 64.9842 323.796C64.5842 324.004 64.1282 324.108 63.6162 324.108C63.0482 324.108 62.5282 323.964 62.0562 323.676C61.5842 323.38 61.2082 322.972 60.9282 322.452C60.6562 321.924 60.5202 321.328 60.5202 320.664ZM65.9322 320.688C65.9322 320.232 65.8362 319.836 65.6442 319.5C65.4602 319.164 65.2162 318.908 64.9122 318.732C64.6082 318.556 64.2802 318.468 63.9282 318.468C63.5762 318.468 63.2482 318.556 62.9442 318.732C62.6402 318.9 62.3922 319.152 62.2002 319.488C62.0162 319.816 61.9242 320.208 61.9242 320.664C61.9242 321.12 62.0162 321.52 62.2002 321.864C62.3922 322.208 62.6402 322.472 62.9442 322.656C63.2562 322.832 63.5842 322.92 63.9282 322.92C64.2802 322.92 64.6082 322.832 64.9122 322.656C65.2162 322.48 65.4602 322.224 65.6442 321.888C65.8362 321.544 65.9322 321.144 65.9322 320.688ZM75.061 317.388L71.005 327.108H69.589L70.933 323.892L68.329 317.388H69.853L71.713 322.428L73.645 317.388H75.061ZM78.8505 316.5V315.252H81.3465V324H79.9665V316.5H78.8505Z" fill="#B5B5C3"/>
<path d="M190.313 291.66V300H188.945V294.288L186.401 300H185.453L182.897 294.288V300H181.529V291.66H183.005L185.933 298.2L188.849 291.66H190.313ZM191.655 296.664C191.655 296 191.791 295.412 192.063 294.9C192.343 294.388 192.719 293.992 193.191 293.712C193.671 293.424 194.199 293.28 194.775 293.28C195.295 293.28 195.747 293.384 196.131 293.592C196.523 293.792 196.835 294.044 197.067 294.348V293.388H198.447V300H197.067V299.016C196.835 299.328 196.519 299.588 196.119 299.796C195.719 300.004 195.263 300.108 194.751 300.108C194.183 300.108 193.663 299.964 193.191 299.676C192.719 299.38 192.343 298.972 192.063 298.452C191.791 297.924 191.655 297.328 191.655 296.664ZM197.067 296.688C197.067 296.232 196.971 295.836 196.779 295.5C196.595 295.164 196.351 294.908 196.047 294.732C195.743 294.556 195.415 294.468 195.063 294.468C194.711 294.468 194.383 294.556 194.079 294.732C193.775 294.9 193.527 295.152 193.335 295.488C193.151 295.816 193.059 296.208 193.059 296.664C193.059 297.12 193.151 297.52 193.335 297.864C193.527 298.208 193.775 298.472 194.079 298.656C194.391 298.832 194.719 298.92 195.063 298.92C195.415 298.92 195.743 298.832 196.047 298.656C196.351 298.48 196.595 298.224 196.779 297.888C196.971 297.544 197.067 297.144 197.067 296.688ZM206.196 293.388L202.14 303.108H200.724L202.068 299.892L199.464 293.388H200.988L202.848 298.428L204.78 293.388H206.196ZM210.921 298.14C211.689 297.476 212.293 296.932 212.733 296.508C213.181 296.076 213.553 295.628 213.849 295.164C214.145 294.7 214.293 294.236 214.293 293.772C214.293 293.292 214.177 292.916 213.945 292.644C213.721 292.372 213.365 292.236 212.877 292.236C212.405 292.236 212.037 292.388 211.773 292.692C211.517 292.988 211.381 293.388 211.365 293.892H210.045C210.069 292.98 210.341 292.284 210.861 291.804C211.389 291.316 212.057 291.072 212.865 291.072C213.737 291.072 214.417 291.312 214.905 291.792C215.401 292.272 215.649 292.912 215.649 293.712C215.649 294.288 215.501 294.844 215.205 295.38C214.917 295.908 214.569 296.384 214.161 296.808C213.761 297.224 213.249 297.708 212.625 298.26L212.085 298.74H215.889V299.88H210.057V298.884L210.921 298.14ZM200.966 307.08V308.232H196.034V307.08H200.966ZM189.95 315.66V324H188.582V318.288L186.038 324H185.09L182.534 318.288V324H181.166V315.66H182.642L185.57 322.2L188.486 315.66H189.95ZM191.292 320.664C191.292 320 191.428 319.412 191.7 318.9C191.98 318.388 192.356 317.992 192.828 317.712C193.308 317.424 193.836 317.28 194.412 317.28C194.932 317.28 195.384 317.384 195.768 317.592C196.16 317.792 196.472 318.044 196.704 318.348V317.388H198.084V324H196.704V323.016C196.472 323.328 196.156 323.588 195.756 323.796C195.356 324.004 194.9 324.108 194.388 324.108C193.82 324.108 193.3 323.964 192.828 323.676C192.356 323.38 191.98 322.972 191.7 322.452C191.428 321.924 191.292 321.328 191.292 320.664ZM196.704 320.688C196.704 320.232 196.608 319.836 196.416 319.5C196.232 319.164 195.988 318.908 195.684 318.732C195.38 318.556 195.052 318.468 194.7 318.468C194.348 318.468 194.02 318.556 193.716 318.732C193.412 318.9 193.164 319.152 192.972 319.488C192.788 319.816 192.696 320.208 192.696 320.664C192.696 321.12 192.788 321.52 192.972 321.864C193.164 322.208 193.412 322.472 193.716 322.656C194.028 322.832 194.356 322.92 194.7 322.92C195.052 322.92 195.38 322.832 195.684 322.656C195.988 322.48 196.232 322.224 196.416 321.888C196.608 321.544 196.704 321.144 196.704 320.688ZM205.832 317.388L201.776 327.108H200.36L201.704 323.892L199.1 317.388H200.624L202.484 322.428L204.416 317.388H205.832ZM211.278 319.428C210.446 319.012 210.03 318.356 210.03 317.46C210.03 317.028 210.138 316.632 210.354 316.272C210.57 315.912 210.894 315.628 211.326 315.42C211.758 315.204 212.286 315.096 212.91 315.096C213.526 315.096 214.05 315.204 214.482 315.42C214.922 315.628 215.25 315.912 215.466 316.272C215.682 316.632 215.79 317.028 215.79 317.46C215.79 317.908 215.674 318.304 215.442 318.648C215.218 318.984 214.918 319.244 214.542 319.428C214.998 319.596 215.358 319.872 215.622 320.256C215.886 320.632 216.018 321.076 216.018 321.588C216.018 322.108 215.886 322.568 215.622 322.968C215.358 323.368 214.99 323.676 214.518 323.892C214.046 324.108 213.51 324.216 212.91 324.216C212.31 324.216 211.774 324.108 211.302 323.892C210.838 323.676 210.474 323.368 210.21 322.968C209.946 322.568 209.814 322.108 209.814 321.588C209.814 321.068 209.946 320.62 210.21 320.244C210.474 319.868 210.83 319.596 211.278 319.428ZM214.482 317.628C214.482 317.18 214.342 316.836 214.062 316.596C213.782 316.356 213.398 316.236 212.91 316.236C212.43 316.236 212.05 316.356 211.77 316.596C211.49 316.836 211.35 317.184 211.35 317.64C211.35 318.04 211.494 318.368 211.782 318.624C212.078 318.872 212.454 318.996 212.91 318.996C213.366 318.996 213.742 318.868 214.038 318.612C214.334 318.356 214.482 318.028 214.482 317.628ZM212.91 320.028C212.382 320.028 211.95 320.16 211.614 320.424C211.286 320.68 211.122 321.052 211.122 321.54C211.122 321.996 211.282 322.368 211.602 322.656C211.922 322.936 212.358 323.076 212.91 323.076C213.454 323.076 213.882 322.932 214.194 322.644C214.514 322.356 214.674 321.988 214.674 321.54C214.674 321.06 214.51 320.688 214.182 320.424C213.862 320.16 213.438 320.028 212.91 320.028Z" fill="#B5B5C3"/>
<path d="M322.467 291.66V300H321.099V294.288L318.555 300H317.607L315.051 294.288V300H313.683V291.66H315.159L318.087 298.2L321.003 291.66H322.467ZM323.809 296.664C323.809 296 323.945 295.412 324.217 294.9C324.497 294.388 324.873 293.992 325.345 293.712C325.825 293.424 326.353 293.28 326.929 293.28C327.449 293.28 327.901 293.384 328.285 293.592C328.677 293.792 328.989 294.044 329.221 294.348V293.388H330.601V300H329.221V299.016C328.989 299.328 328.673 299.588 328.273 299.796C327.873 300.004 327.417 300.108 326.905 300.108C326.337 300.108 325.817 299.964 325.345 299.676C324.873 299.38 324.497 298.972 324.217 298.452C323.945 297.924 323.809 297.328 323.809 296.664ZM329.221 296.688C329.221 296.232 329.125 295.836 328.933 295.5C328.749 295.164 328.505 294.908 328.201 294.732C327.897 294.556 327.569 294.468 327.217 294.468C326.865 294.468 326.537 294.556 326.233 294.732C325.929 294.9 325.681 295.152 325.489 295.488C325.305 295.816 325.213 296.208 325.213 296.664C325.213 297.12 325.305 297.52 325.489 297.864C325.681 298.208 325.929 298.472 326.233 298.656C326.545 298.832 326.873 298.92 327.217 298.92C327.569 298.92 327.897 298.832 328.201 298.656C328.505 298.48 328.749 298.224 328.933 297.888C329.125 297.544 329.221 297.144 329.221 296.688ZM338.35 293.388L334.294 303.108H332.878L334.222 299.892L331.618 293.388H333.142L335.002 298.428L336.934 293.388H338.35ZM344.024 297.624C344.104 298.024 344.276 298.328 344.54 298.536C344.804 298.744 345.16 298.848 345.608 298.848C346.176 298.848 346.592 298.624 346.856 298.176C347.12 297.728 347.252 296.964 347.252 295.884C347.06 296.156 346.788 296.368 346.436 296.52C346.092 296.664 345.716 296.736 345.308 296.736C344.788 296.736 344.316 296.632 343.892 296.424C343.468 296.208 343.132 295.892 342.884 295.476C342.644 295.052 342.524 294.54 342.524 293.94C342.524 293.06 342.78 292.36 343.292 291.84C343.812 291.312 344.524 291.048 345.428 291.048C346.516 291.048 347.288 291.412 347.744 292.14C348.208 292.86 348.44 293.968 348.44 295.464C348.44 296.496 348.352 297.34 348.176 297.996C348.008 298.652 347.712 299.148 347.288 299.484C346.864 299.82 346.276 299.988 345.524 299.988C344.668 299.988 344.008 299.764 343.544 299.316C343.08 298.868 342.82 298.304 342.764 297.624H344.024ZM345.548 295.584C346.028 295.584 346.404 295.436 346.676 295.14C346.956 294.836 347.096 294.436 347.096 293.94C347.096 293.388 346.948 292.96 346.652 292.656C346.364 292.344 345.968 292.188 345.464 292.188C344.96 292.188 344.56 292.348 344.264 292.668C343.976 292.98 343.832 293.392 343.832 293.904C343.832 294.392 343.972 294.796 344.252 295.116C344.54 295.428 344.972 295.584 345.548 295.584ZM333.466 307.08V308.232H328.534V307.08H333.466ZM320.346 315.66V324H318.978V318.288L316.434 324H315.486L312.93 318.288V324H311.562V315.66H313.038L315.966 322.2L318.882 315.66H320.346ZM321.688 320.664C321.688 320 321.824 319.412 322.096 318.9C322.376 318.388 322.752 317.992 323.224 317.712C323.704 317.424 324.232 317.28 324.808 317.28C325.328 317.28 325.78 317.384 326.164 317.592C326.556 317.792 326.868 318.044 327.1 318.348V317.388H328.48V324H327.1V323.016C326.868 323.328 326.552 323.588 326.152 323.796C325.752 324.004 325.296 324.108 324.784 324.108C324.216 324.108 323.696 323.964 323.224 323.676C322.752 323.38 322.376 322.972 322.096 322.452C321.824 321.924 321.688 321.328 321.688 320.664ZM327.1 320.688C327.1 320.232 327.004 319.836 326.812 319.5C326.628 319.164 326.384 318.908 326.08 318.732C325.776 318.556 325.448 318.468 325.096 318.468C324.744 318.468 324.416 318.556 324.112 318.732C323.808 318.9 323.56 319.152 323.368 319.488C323.184 319.816 323.092 320.208 323.092 320.664C323.092 321.12 323.184 321.52 323.368 321.864C323.56 322.208 323.808 322.472 324.112 322.656C324.424 322.832 324.752 322.92 325.096 322.92C325.448 322.92 325.776 322.832 326.08 322.656C326.384 322.48 326.628 322.224 326.812 321.888C327.004 321.544 327.1 321.144 327.1 320.688ZM336.229 317.388L332.173 327.108H330.757L332.101 323.892L329.497 317.388H331.021L332.881 322.428L334.813 317.388H336.229ZM340.019 316.5V315.252H342.515V324H341.135V316.5H340.019ZM350.034 316.428H346.014V318.816C346.182 318.592 346.43 318.404 346.758 318.252C347.094 318.1 347.45 318.024 347.826 318.024C348.498 318.024 349.042 318.168 349.458 318.456C349.882 318.744 350.182 319.108 350.358 319.548C350.542 319.988 350.634 320.452 350.634 320.94C350.634 321.532 350.518 322.06 350.286 322.524C350.062 322.98 349.722 323.34 349.266 323.604C348.818 323.868 348.266 324 347.61 324C346.738 324 346.038 323.784 345.51 323.352C344.982 322.92 344.666 322.348 344.562 321.636H345.894C345.982 322.012 346.178 322.312 346.482 322.536C346.786 322.752 347.166 322.86 347.622 322.86C348.19 322.86 348.614 322.688 348.894 322.344C349.182 322 349.326 321.544 349.326 320.976C349.326 320.4 349.182 319.96 348.894 319.656C348.606 319.344 348.182 319.188 347.622 319.188C347.23 319.188 346.898 319.288 346.626 319.488C346.362 319.68 346.17 319.944 346.05 320.28H344.754V315.228H350.034V316.428Z" fill="#B5B5C3"/>
<path d="M452.829 291.66V300H451.461V294.288L448.917 300H447.969L445.413 294.288V300H444.045V291.66H445.521L448.449 298.2L451.365 291.66H452.829ZM454.171 296.664C454.171 296 454.307 295.412 454.579 294.9C454.859 294.388 455.235 293.992 455.707 293.712C456.187 293.424 456.715 293.28 457.291 293.28C457.811 293.28 458.263 293.384 458.647 293.592C459.039 293.792 459.351 294.044 459.583 294.348V293.388H460.963V300H459.583V299.016C459.351 299.328 459.035 299.588 458.635 299.796C458.235 300.004 457.779 300.108 457.267 300.108C456.699 300.108 456.179 299.964 455.707 299.676C455.235 299.38 454.859 298.972 454.579 298.452C454.307 297.924 454.171 297.328 454.171 296.664ZM459.583 296.688C459.583 296.232 459.487 295.836 459.295 295.5C459.111 295.164 458.867 294.908 458.563 294.732C458.259 294.556 457.931 294.468 457.579 294.468C457.227 294.468 456.899 294.556 456.595 294.732C456.291 294.9 456.043 295.152 455.851 295.488C455.667 295.816 455.575 296.208 455.575 296.664C455.575 297.12 455.667 297.52 455.851 297.864C456.043 298.208 456.291 298.472 456.595 298.656C456.907 298.832 457.235 298.92 457.579 298.92C457.931 298.92 458.259 298.832 458.563 298.656C458.867 298.48 459.111 298.224 459.295 297.888C459.487 297.544 459.583 297.144 459.583 296.688ZM468.711 293.388L464.655 303.108H463.239L464.583 299.892L461.979 293.388H463.503L465.363 298.428L467.295 293.388H468.711ZM472.501 292.5V291.252H474.997V300H473.617V292.5H472.501ZM481.58 293.28C481.492 292.912 481.332 292.636 481.1 292.452C480.868 292.268 480.544 292.176 480.128 292.176C479.496 292.176 479.024 292.42 478.712 292.908C478.4 293.388 478.236 294.188 478.22 295.308C478.428 294.956 478.732 294.684 479.132 294.492C479.532 294.3 479.964 294.204 480.428 294.204C480.956 294.204 481.42 294.32 481.82 294.552C482.228 294.776 482.544 295.104 482.768 295.536C483 295.968 483.116 296.484 483.116 297.084C483.116 297.644 483.004 298.144 482.78 298.584C482.564 299.024 482.24 299.372 481.808 299.628C481.376 299.876 480.856 300 480.248 300C479.424 300 478.776 299.82 478.304 299.46C477.84 299.092 477.512 298.576 477.32 297.912C477.136 297.248 477.044 296.42 477.044 295.428C477.044 292.5 478.076 291.036 480.14 291.036C480.94 291.036 481.568 291.252 482.024 291.684C482.488 292.116 482.76 292.648 482.84 293.28H481.58ZM480.128 295.356C479.64 295.356 479.224 295.504 478.88 295.8C478.544 296.088 478.376 296.508 478.376 297.06C478.376 297.612 478.532 298.052 478.844 298.38C479.164 298.7 479.608 298.86 480.176 298.86C480.68 298.86 481.076 298.704 481.364 298.392C481.66 298.08 481.808 297.664 481.808 297.144C481.808 296.6 481.664 296.168 481.376 295.848C481.096 295.52 480.68 295.356 480.128 295.356ZM465.966 307.08V308.232H461.034V307.08H465.966ZM451.85 315.66V324H450.482V318.288L447.938 324H446.99L444.434 318.288V324H443.066V315.66H444.542L447.47 322.2L450.386 315.66H451.85ZM453.192 320.664C453.192 320 453.328 319.412 453.6 318.9C453.88 318.388 454.256 317.992 454.728 317.712C455.208 317.424 455.736 317.28 456.312 317.28C456.832 317.28 457.284 317.384 457.668 317.592C458.06 317.792 458.372 318.044 458.604 318.348V317.388H459.984V324H458.604V323.016C458.372 323.328 458.056 323.588 457.656 323.796C457.256 324.004 456.8 324.108 456.288 324.108C455.72 324.108 455.2 323.964 454.728 323.676C454.256 323.38 453.88 322.972 453.6 322.452C453.328 321.924 453.192 321.328 453.192 320.664ZM458.604 320.688C458.604 320.232 458.508 319.836 458.316 319.5C458.132 319.164 457.888 318.908 457.584 318.732C457.28 318.556 456.952 318.468 456.6 318.468C456.248 318.468 455.92 318.556 455.616 318.732C455.312 318.9 455.064 319.152 454.872 319.488C454.688 319.816 454.596 320.208 454.596 320.664C454.596 321.12 454.688 321.52 454.872 321.864C455.064 322.208 455.312 322.472 455.616 322.656C455.928 322.832 456.256 322.92 456.6 322.92C456.952 322.92 457.28 322.832 457.584 322.656C457.888 322.48 458.132 322.224 458.316 321.888C458.508 321.544 458.604 321.144 458.604 320.688ZM467.733 317.388L463.677 327.108H462.261L463.605 323.892L461.001 317.388H462.525L464.385 322.428L466.317 317.388H467.733ZM472.458 322.14C473.226 321.476 473.83 320.932 474.27 320.508C474.718 320.076 475.09 319.628 475.386 319.164C475.682 318.7 475.83 318.236 475.83 317.772C475.83 317.292 475.714 316.916 475.482 316.644C475.258 316.372 474.902 316.236 474.414 316.236C473.942 316.236 473.574 316.388 473.31 316.692C473.054 316.988 472.918 317.388 472.902 317.892H471.582C471.606 316.98 471.878 316.284 472.398 315.804C472.926 315.316 473.594 315.072 474.402 315.072C475.274 315.072 475.954 315.312 476.442 315.792C476.938 316.272 477.186 316.912 477.186 317.712C477.186 318.288 477.038 318.844 476.742 319.38C476.454 319.908 476.106 320.384 475.698 320.808C475.298 321.224 474.786 321.708 474.162 322.26L473.622 322.74H477.426V323.88H471.594V322.884L472.458 322.14ZM479.384 322.14C480.152 321.476 480.756 320.932 481.196 320.508C481.644 320.076 482.016 319.628 482.312 319.164C482.608 318.7 482.756 318.236 482.756 317.772C482.756 317.292 482.64 316.916 482.408 316.644C482.184 316.372 481.828 316.236 481.34 316.236C480.868 316.236 480.5 316.388 480.236 316.692C479.98 316.988 479.844 317.388 479.828 317.892H478.508C478.532 316.98 478.804 316.284 479.324 315.804C479.852 315.316 480.52 315.072 481.328 315.072C482.2 315.072 482.88 315.312 483.368 315.792C483.864 316.272 484.112 316.912 484.112 317.712C484.112 318.288 483.964 318.844 483.668 319.38C483.38 319.908 483.032 320.384 482.624 320.808C482.224 321.224 481.712 321.708 481.088 322.26L480.548 322.74H484.352V323.88H478.52V322.884L479.384 322.14Z" fill="#B5B5C3"/>
<path d="M584.25 291.66V300H582.882V294.288L580.338 300H579.39L576.834 294.288V300H575.466V291.66H576.942L579.87 298.2L582.786 291.66H584.25ZM585.592 296.664C585.592 296 585.728 295.412 586 294.9C586.28 294.388 586.656 293.992 587.128 293.712C587.608 293.424 588.136 293.28 588.712 293.28C589.232 293.28 589.684 293.384 590.068 293.592C590.46 293.792 590.772 294.044 591.004 294.348V293.388H592.384V300H591.004V299.016C590.772 299.328 590.456 299.588 590.056 299.796C589.656 300.004 589.2 300.108 588.688 300.108C588.12 300.108 587.6 299.964 587.128 299.676C586.656 299.38 586.28 298.972 586 298.452C585.728 297.924 585.592 297.328 585.592 296.664ZM591.004 296.688C591.004 296.232 590.908 295.836 590.716 295.5C590.532 295.164 590.288 294.908 589.984 294.732C589.68 294.556 589.352 294.468 589 294.468C588.648 294.468 588.32 294.556 588.016 294.732C587.712 294.9 587.464 295.152 587.272 295.488C587.088 295.816 586.996 296.208 586.996 296.664C586.996 297.12 587.088 297.52 587.272 297.864C587.464 298.208 587.712 298.472 588.016 298.656C588.328 298.832 588.656 298.92 589 298.92C589.352 298.92 589.68 298.832 589.984 298.656C590.288 298.48 590.532 298.224 590.716 297.888C590.908 297.544 591.004 297.144 591.004 296.688ZM600.133 293.388L596.077 303.108H594.661L596.005 299.892L593.401 293.388H594.925L596.785 298.428L598.717 293.388H600.133ZM604.859 298.14C605.627 297.476 606.231 296.932 606.671 296.508C607.119 296.076 607.491 295.628 607.787 295.164C608.083 294.7 608.231 294.236 608.231 293.772C608.231 293.292 608.115 292.916 607.883 292.644C607.659 292.372 607.303 292.236 606.815 292.236C606.343 292.236 605.975 292.388 605.711 292.692C605.455 292.988 605.319 293.388 605.303 293.892H603.983C604.007 292.98 604.279 292.284 604.799 291.804C605.327 291.316 605.995 291.072 606.803 291.072C607.675 291.072 608.355 291.312 608.843 291.792C609.339 292.272 609.587 292.912 609.587 293.712C609.587 294.288 609.439 294.844 609.143 295.38C608.855 295.908 608.507 296.384 608.099 296.808C607.699 297.224 607.187 297.708 606.563 298.26L606.023 298.74H609.827V299.88H603.995V298.884L604.859 298.14ZM611.005 293.412C611.053 292.668 611.337 292.088 611.857 291.672C612.385 291.256 613.057 291.048 613.873 291.048C614.433 291.048 614.917 291.148 615.325 291.348C615.733 291.548 616.041 291.82 616.249 292.164C616.457 292.508 616.561 292.896 616.561 293.328C616.561 293.824 616.429 294.248 616.165 294.6C615.901 294.952 615.585 295.188 615.217 295.308V295.356C615.689 295.5 616.057 295.764 616.321 296.148C616.585 296.524 616.717 297.008 616.717 297.6C616.717 298.072 616.609 298.492 616.393 298.86C616.177 299.228 615.857 299.52 615.433 299.736C615.009 299.944 614.501 300.048 613.909 300.048C613.045 300.048 612.333 299.828 611.773 299.388C611.221 298.94 610.925 298.3 610.885 297.468H612.205C612.237 297.892 612.401 298.24 612.697 298.512C612.993 298.776 613.393 298.908 613.897 298.908C614.385 298.908 614.761 298.776 615.025 298.512C615.289 298.24 615.421 297.892 615.421 297.468C615.421 296.908 615.241 296.512 614.881 296.28C614.529 296.04 613.985 295.92 613.249 295.92H612.937V294.792H613.261C613.909 294.784 614.401 294.676 614.737 294.468C615.081 294.26 615.253 293.932 615.253 293.484C615.253 293.1 615.129 292.796 614.881 292.572C614.633 292.34 614.281 292.224 613.825 292.224C613.377 292.224 613.029 292.34 612.781 292.572C612.533 292.796 612.385 293.076 612.337 293.412H611.005ZM598.466 307.08V308.232H593.534V307.08H598.466ZM584.455 315.66V324H583.087V318.288L580.543 324H579.595L577.039 318.288V324H575.671V315.66H577.147L580.075 322.2L582.991 315.66H584.455ZM585.798 320.664C585.798 320 585.934 319.412 586.206 318.9C586.486 318.388 586.862 317.992 587.334 317.712C587.814 317.424 588.342 317.28 588.918 317.28C589.438 317.28 589.89 317.384 590.274 317.592C590.666 317.792 590.978 318.044 591.21 318.348V317.388H592.59V324H591.21V323.016C590.978 323.328 590.662 323.588 590.262 323.796C589.862 324.004 589.406 324.108 588.894 324.108C588.326 324.108 587.806 323.964 587.334 323.676C586.862 323.38 586.486 322.972 586.206 322.452C585.934 321.924 585.798 321.328 585.798 320.664ZM591.21 320.688C591.21 320.232 591.114 319.836 590.922 319.5C590.738 319.164 590.494 318.908 590.19 318.732C589.886 318.556 589.558 318.468 589.206 318.468C588.854 318.468 588.526 318.556 588.222 318.732C587.918 318.9 587.67 319.152 587.478 319.488C587.294 319.816 587.202 320.208 587.202 320.664C587.202 321.12 587.294 321.52 587.478 321.864C587.67 322.208 587.918 322.472 588.222 322.656C588.534 322.832 588.862 322.92 589.206 322.92C589.558 322.92 589.886 322.832 590.19 322.656C590.494 322.48 590.738 322.224 590.922 321.888C591.114 321.544 591.21 321.144 591.21 320.688ZM600.338 317.388L596.282 327.108H594.866L596.21 323.892L593.606 317.388H595.13L596.99 322.428L598.922 317.388H600.338ZM605.064 322.14C605.832 321.476 606.436 320.932 606.876 320.508C607.324 320.076 607.696 319.628 607.992 319.164C608.288 318.7 608.436 318.236 608.436 317.772C608.436 317.292 608.32 316.916 608.088 316.644C607.864 316.372 607.508 316.236 607.02 316.236C606.548 316.236 606.18 316.388 605.916 316.692C605.66 316.988 605.524 317.388 605.508 317.892H604.188C604.212 316.98 604.484 316.284 605.004 315.804C605.532 315.316 606.2 315.072 607.008 315.072C607.88 315.072 608.56 315.312 609.048 315.792C609.544 316.272 609.792 316.912 609.792 317.712C609.792 318.288 609.644 318.844 609.348 319.38C609.06 319.908 608.712 320.384 608.304 320.808C607.904 321.224 607.392 321.708 606.768 322.26L606.228 322.74H610.032V323.88H604.2V322.884L605.064 322.14ZM616.778 316.308L613.442 324H612.062L615.434 316.452H610.994V315.288H616.778V316.308Z" fill="#B5B5C3"/>
<path d="M62 107C62 104.791 63.7909 103 66 103C68.2091 103 70 104.791 70 107V137H62V107Z" fill="#FFC700"/>
<path d="M80 75C80 72.7909 81.7909 71 84 71C86.2091 71 88 72.7909 88 75V137H80V75Z" fill="#4A7DFF"/>
<path d="M44 199C44 201.209 45.7909 203 48 203C50.2091 203 52 201.209 52 199V136H44V199Z" fill="#B7FBFB"/>
<path d="M80 199C80 201.209 81.7909 203 84 203C86.2091 203 88 201.209 88 199V137H80V199Z" fill="#CCDAFF"/>
<g clip-path="url(#clip1_9_10348)">
<path d="M178.5 107C178.5 104.791 180.291 103 182.5 103C184.709 103 186.5 104.791 186.5 107V137H178.5V107Z" fill="#04C8C8"/>
<path d="M196.5 166C196.5 168.209 198.291 170 200.5 170C202.709 170 204.5 168.209 204.5 166V137H196.5V166Z" fill="#FFEA99"/>
</g>
<path d="M313 107C313 104.791 314.791 103 317 103C319.209 103 321 104.791 321 107V137H313V107Z" fill="#04C8C8"/>
<path d="M331 107C331 104.791 332.791 103 335 103C337.209 103 339 104.791 339 107V137H331V107Z" fill="#FFC700"/>
<path d="M349 107C349 104.791 350.791 103 353 103C355.209 103 357 104.791 357 107V137H349V107Z" fill="#4A7DFF"/>
<path d="M331 166C331 168.209 332.791 170 335 170C337.209 170 339 168.209 339 166V137H331V166Z" fill="#FFEA99"/>
<path d="M600 107C600 104.791 601.791 103 604 103C606.209 103 608 104.791 608 107V137H600V107Z" fill="#FFC700"/>
</g>
<defs>
<clipPath id="clip0_9_10348">
<rect width="626" height="326" fill="white"/>
</clipPath>
<clipPath id="clip1_9_10348">
<rect width="44" height="263" fill="white" transform="translate(178.5 5)"/>
</clipPath>
</defs>
</svg>
