<svg width="422" height="280" viewBox="0 0 422 280" fill="none" xmlns="http://www.w3.org/2000/svg">
<g clip-path="url(#clip0_9_10603)">
<path d="M10 222.768L6.664 224.688V225.732H10V227.1H1.66L1.66 224.22C1.66 223.58 1.772 223.04 1.996 222.6C2.22 222.152 2.52 221.82 2.896 221.604C3.272 221.38 3.692 221.268 4.156 221.268C4.7 221.268 5.196 221.428 5.644 221.748C6.084 222.06 6.384 222.544 6.544 223.2L10 221.136V222.768ZM5.572 225.732V224.22C5.572 223.708 5.444 223.324 5.188 223.068C4.932 222.804 4.588 222.672 4.156 222.672C3.724 222.672 3.388 222.8 3.148 223.056C2.9 223.312 2.776 223.7 2.776 224.22L2.776 225.732H5.572ZM6.532 213.458C6.78 213.458 7.004 213.474 7.204 213.506V218.558C7.732 218.518 8.156 218.322 8.476 217.97C8.796 217.618 8.956 217.186 8.956 216.674C8.956 215.938 8.648 215.418 8.032 215.114V213.638C8.64 213.838 9.14 214.202 9.532 214.73C9.916 215.25 10.108 215.898 10.108 216.674C10.108 217.306 9.968 217.874 9.688 218.378C9.4 218.874 9 219.266 8.488 219.554C7.968 219.834 7.368 219.974 6.688 219.974C6.008 219.974 5.412 219.838 4.9 219.566C4.38 219.286 3.98 218.898 3.7 218.402C3.42 217.898 3.28 217.322 3.28 216.674C3.28 216.05 3.416 215.494 3.688 215.006C3.96 214.518 4.344 214.138 4.84 213.866C5.328 213.594 5.892 213.458 6.532 213.458ZM6.1 214.886C5.596 214.894 5.192 215.074 4.888 215.426C4.584 215.778 4.432 216.214 4.432 216.734C4.432 217.206 4.584 217.61 4.888 217.946C5.184 218.282 5.588 218.482 6.1 218.546V214.886ZM8.776 209.556L3.388 207.684V206.232L10 208.752V210.384L3.388 212.892V211.428L8.776 209.556ZM6.532 199.138C6.78 199.138 7.004 199.154 7.204 199.186V204.238C7.732 204.198 8.156 204.002 8.476 203.65C8.796 203.298 8.956 202.866 8.956 202.354C8.956 201.618 8.648 201.098 8.032 200.794V199.318C8.64 199.518 9.14 199.882 9.532 200.41C9.916 200.93 10.108 201.578 10.108 202.354C10.108 202.986 9.968 203.554 9.688 204.058C9.4 204.554 9 204.946 8.488 205.234C7.968 205.514 7.368 205.654 6.688 205.654C6.008 205.654 5.412 205.518 4.9 205.246C4.38 204.966 3.98 204.578 3.7 204.082C3.42 203.578 3.28 203.002 3.28 202.354C3.28 201.73 3.416 201.174 3.688 200.686C3.96 200.198 4.344 199.818 4.84 199.546C5.328 199.274 5.892 199.138 6.532 199.138ZM6.1 200.566C5.596 200.574 5.192 200.754 4.888 201.106C4.584 201.458 4.432 201.894 4.432 202.414C4.432 202.886 4.584 203.29 4.888 203.626C5.184 203.962 5.588 204.162 6.1 204.226V200.566ZM3.28 194.455C3.28 193.935 3.388 193.471 3.604 193.063C3.82 192.647 4.14 192.323 4.564 192.091C4.988 191.859 5.5 191.743 6.1 191.743H10V193.099H6.304C5.712 193.099 5.26 193.247 4.948 193.543C4.628 193.839 4.468 194.243 4.468 194.755C4.468 195.267 4.628 195.675 4.948 195.979C5.26 196.275 5.712 196.423 6.304 196.423H10V197.791H3.388V196.423H4.144C3.872 196.199 3.66 195.915 3.508 195.571C3.356 195.219 3.28 194.847 3.28 194.455ZM3.388 184.01H10L10 185.378H9.22C9.492 185.594 9.708 185.878 9.868 186.23C10.02 186.574 10.096 186.942 10.096 187.334C10.096 187.854 9.988 188.322 9.772 188.738C9.556 189.146 9.236 189.47 8.812 189.71C8.388 189.942 7.876 190.058 7.276 190.058H3.388V188.702H7.072C7.664 188.702 8.12 188.554 8.44 188.258C8.752 187.962 8.908 187.558 8.908 187.046C8.908 186.534 8.752 186.13 8.44 185.834C8.12 185.53 7.664 185.378 7.072 185.378H3.388V184.01ZM6.532 176.145C6.78 176.145 7.004 176.161 7.204 176.193L7.204 181.245C7.732 181.205 8.156 181.009 8.476 180.657C8.796 180.305 8.956 179.873 8.956 179.361C8.956 178.625 8.648 178.105 8.032 177.801V176.325C8.64 176.525 9.14 176.889 9.532 177.417C9.916 177.937 10.108 178.585 10.108 179.361C10.108 179.993 9.968 180.561 9.688 181.065C9.4 181.561 9 181.953 8.488 182.241C7.968 182.521 7.368 182.661 6.688 182.661C6.008 182.661 5.412 182.525 4.9 182.253C4.38 181.973 3.98 181.585 3.7 181.089C3.42 180.585 3.28 180.009 3.28 179.361C3.28 178.737 3.416 178.181 3.688 177.693C3.96 177.205 4.344 176.825 4.84 176.553C5.328 176.281 5.892 176.145 6.532 176.145ZM6.1 177.573C5.596 177.581 5.192 177.761 4.888 178.113C4.584 178.465 4.432 178.901 4.432 179.421C4.432 179.893 4.584 180.297 4.888 180.633C5.184 180.969 5.588 181.169 6.1 181.233V177.573Z" fill="#B5B5C3"/>
<path d="M20.696 3.412C20.744 2.668 21.028 2.088 21.548 1.672C22.076 1.256 22.748 1.048 23.564 1.048C24.124 1.048 24.608 1.148 25.016 1.348C25.424 1.548 25.732 1.82 25.94 2.164C26.148 2.508 26.252 2.896 26.252 3.328C26.252 3.824 26.12 4.248 25.856 4.6C25.592 4.952 25.276 5.188 24.908 5.308V5.356C25.38 5.5 25.748 5.764 26.012 6.148C26.276 6.524 26.408 7.008 26.408 7.6C26.408 8.072 26.3 8.492 26.084 8.86C25.868 9.228 25.548 9.52 25.124 9.736C24.7 9.944 24.192 10.048 23.6 10.048C22.736 10.048 22.024 9.828 21.464 9.388C20.912 8.94 20.616 8.3 20.576 7.468H21.896C21.928 7.892 22.092 8.24 22.388 8.512C22.684 8.776 23.084 8.908 23.588 8.908C24.076 8.908 24.452 8.776 24.716 8.512C24.98 8.24 25.112 7.892 25.112 7.468C25.112 6.908 24.932 6.512 24.572 6.28C24.22 6.04 23.676 5.92 22.94 5.92H22.628V4.792H22.952C23.6 4.784 24.092 4.676 24.428 4.468C24.772 4.26 24.944 3.932 24.944 3.484C24.944 3.1 24.82 2.796 24.572 2.572C24.324 2.34 23.972 2.224 23.516 2.224C23.068 2.224 22.72 2.34 22.472 2.572C22.224 2.796 22.076 3.076 22.028 3.412H20.696ZM33.485 2.428H29.465V4.816C29.633 4.592 29.881 4.404 30.209 4.252C30.545 4.1 30.901 4.024 31.277 4.024C31.949 4.024 32.493 4.168 32.909 4.456C33.333 4.744 33.633 5.108 33.809 5.548C33.993 5.988 34.085 6.452 34.085 6.94C34.085 7.532 33.969 8.06 33.737 8.524C33.513 8.98 33.173 9.34 32.717 9.604C32.269 9.868 31.717 10 31.061 10C30.189 10 29.489 9.784 28.961 9.352C28.433 8.92 28.117 8.348 28.013 7.636H29.345C29.433 8.012 29.629 8.312 29.933 8.536C30.237 8.752 30.617 8.86 31.073 8.86C31.641 8.86 32.065 8.688 32.345 8.344C32.633 8 32.777 7.544 32.777 6.976C32.777 6.4 32.633 5.96 32.345 5.656C32.057 5.344 31.633 5.188 31.073 5.188C30.681 5.188 30.349 5.288 30.077 5.488C29.813 5.68 29.621 5.944 29.501 6.28H28.205V1.228H33.485V2.428ZM38.3051 6.7L41.3531 10H39.5051L37.0571 7.156V10H35.6891V1.12H37.0571V6.28L39.4571 3.388H41.3531L38.3051 6.7Z" fill="#B5B5C3"/>
<path d="M20.696 30.412C20.744 29.668 21.028 29.088 21.548 28.672C22.076 28.256 22.748 28.048 23.564 28.048C24.124 28.048 24.608 28.148 25.016 28.348C25.424 28.548 25.732 28.82 25.94 29.164C26.148 29.508 26.252 29.896 26.252 30.328C26.252 30.824 26.12 31.248 25.856 31.6C25.592 31.952 25.276 32.188 24.908 32.308V32.356C25.38 32.5 25.748 32.764 26.012 33.148C26.276 33.524 26.408 34.008 26.408 34.6C26.408 35.072 26.3 35.492 26.084 35.86C25.868 36.228 25.548 36.52 25.124 36.736C24.7 36.944 24.192 37.048 23.6 37.048C22.736 37.048 22.024 36.828 21.464 36.388C20.912 35.94 20.616 35.3 20.576 34.468H21.896C21.928 34.892 22.092 35.24 22.388 35.512C22.684 35.776 23.084 35.908 23.588 35.908C24.076 35.908 24.452 35.776 24.716 35.512C24.98 35.24 25.112 34.892 25.112 34.468C25.112 33.908 24.932 33.512 24.572 33.28C24.22 33.04 23.676 32.92 22.94 32.92H22.628V31.792H22.952C23.6 31.784 24.092 31.676 24.428 31.468C24.772 31.26 24.944 30.932 24.944 30.484C24.944 30.1 24.82 29.796 24.572 29.572C24.324 29.34 23.972 29.224 23.516 29.224C23.068 29.224 22.72 29.34 22.472 29.572C22.224 29.796 22.076 30.076 22.028 30.412H20.696ZM27.845 32.512C27.845 31.128 28.077 30.048 28.541 29.272C29.013 28.488 29.821 28.096 30.965 28.096C32.109 28.096 32.913 28.488 33.377 29.272C33.849 30.048 34.085 31.128 34.085 32.512C34.085 33.912 33.849 35.008 33.377 35.8C32.913 36.584 32.109 36.976 30.965 36.976C29.821 36.976 29.013 36.584 28.541 35.8C28.077 35.008 27.845 33.912 27.845 32.512ZM32.741 32.512C32.741 31.864 32.697 31.316 32.609 30.868C32.529 30.42 32.361 30.056 32.105 29.776C31.849 29.488 31.469 29.344 30.965 29.344C30.461 29.344 30.081 29.488 29.825 29.776C29.569 30.056 29.397 30.42 29.309 30.868C29.229 31.316 29.189 31.864 29.189 32.512C29.189 33.184 29.229 33.748 29.309 34.204C29.389 34.66 29.557 35.028 29.813 35.308C30.077 35.588 30.461 35.728 30.965 35.728C31.469 35.728 31.849 35.588 32.105 35.308C32.369 35.028 32.541 34.66 32.621 34.204C32.701 33.748 32.741 33.184 32.741 32.512ZM38.3285 33.7L41.3765 37H39.5285L37.0805 34.156V37H35.7125V28.12H37.0805V33.28L39.4805 30.388H41.3765L38.3285 33.7Z" fill="#B5B5C3"/>
<path d="M21.476 62.14C22.244 61.476 22.848 60.932 23.288 60.508C23.736 60.076 24.108 59.628 24.404 59.164C24.7 58.7 24.848 58.236 24.848 57.772C24.848 57.292 24.732 56.916 24.5 56.644C24.276 56.372 23.92 56.236 23.432 56.236C22.96 56.236 22.592 56.388 22.328 56.692C22.072 56.988 21.936 57.388 21.92 57.892H20.6C20.624 56.98 20.896 56.284 21.416 55.804C21.944 55.316 22.612 55.072 23.42 55.072C24.292 55.072 24.972 55.312 25.46 55.792C25.956 56.272 26.204 56.912 26.204 57.712C26.204 58.288 26.056 58.844 25.76 59.38C25.472 59.908 25.124 60.384 24.716 60.808C24.316 61.224 23.804 61.708 23.18 62.26L22.64 62.74H26.444V63.88H20.612V62.884L21.476 62.14ZM33.2858 56.428H29.2658V58.816C29.4338 58.592 29.6818 58.404 30.0098 58.252C30.3458 58.1 30.7018 58.024 31.0778 58.024C31.7498 58.024 32.2938 58.168 32.7098 58.456C33.1338 58.744 33.4338 59.108 33.6098 59.548C33.7938 59.988 33.8858 60.452 33.8858 60.94C33.8858 61.532 33.7698 62.06 33.5378 62.524C33.3138 62.98 32.9738 63.34 32.5178 63.604C32.0698 63.868 31.5178 64 30.8618 64C29.9898 64 29.2898 63.784 28.7618 63.352C28.2338 62.92 27.9178 62.348 27.8138 61.636H29.1458C29.2338 62.012 29.4298 62.312 29.7338 62.536C30.0378 62.752 30.4178 62.86 30.8738 62.86C31.4418 62.86 31.8658 62.688 32.1458 62.344C32.4338 62 32.5778 61.544 32.5778 60.976C32.5778 60.4 32.4338 59.96 32.1458 59.656C31.8578 59.344 31.4338 59.188 30.8738 59.188C30.4818 59.188 30.1498 59.288 29.8778 59.488C29.6138 59.68 29.4218 59.944 29.3018 60.28H28.0058V55.228H33.2858V56.428ZM38.1058 60.7L41.1538 64H39.3058L36.8578 61.156V64H35.4898V55.12H36.8578V60.28L39.2578 57.388H41.1538L38.1058 60.7Z" fill="#B5B5C3"/>
<path d="M21.476 89.14C22.244 88.476 22.848 87.932 23.288 87.508C23.736 87.076 24.108 86.628 24.404 86.164C24.7 85.7 24.848 85.236 24.848 84.772C24.848 84.292 24.732 83.916 24.5 83.644C24.276 83.372 23.92 83.236 23.432 83.236C22.96 83.236 22.592 83.388 22.328 83.692C22.072 83.988 21.936 84.388 21.92 84.892H20.6C20.624 83.98 20.896 83.284 21.416 82.804C21.944 82.316 22.612 82.072 23.42 82.072C24.292 82.072 24.972 82.312 25.46 82.792C25.956 83.272 26.204 83.912 26.204 84.712C26.204 85.288 26.056 85.844 25.76 86.38C25.472 86.908 25.124 87.384 24.716 87.808C24.316 88.224 23.804 88.708 23.18 89.26L22.64 89.74H26.444V90.88H20.612V89.884L21.476 89.14ZM27.6458 86.512C27.6458 85.128 27.8778 84.048 28.3418 83.272C28.8138 82.488 29.6218 82.096 30.7658 82.096C31.9098 82.096 32.7138 82.488 33.1778 83.272C33.6498 84.048 33.8858 85.128 33.8858 86.512C33.8858 87.912 33.6498 89.008 33.1778 89.8C32.7138 90.584 31.9098 90.976 30.7658 90.976C29.6218 90.976 28.8138 90.584 28.3418 89.8C27.8778 89.008 27.6458 87.912 27.6458 86.512ZM32.5418 86.512C32.5418 85.864 32.4978 85.316 32.4098 84.868C32.3298 84.42 32.1618 84.056 31.9058 83.776C31.6498 83.488 31.2698 83.344 30.7658 83.344C30.2618 83.344 29.8818 83.488 29.6258 83.776C29.3698 84.056 29.1978 84.42 29.1098 84.868C29.0298 85.316 28.9898 85.864 28.9898 86.512C28.9898 87.184 29.0298 87.748 29.1098 88.204C29.1898 88.66 29.3578 89.028 29.6138 89.308C29.8778 89.588 30.2618 89.728 30.7658 89.728C31.2698 89.728 31.6498 89.588 31.9058 89.308C32.1698 89.028 32.3418 88.66 32.4218 88.204C32.5018 87.748 32.5418 87.184 32.5418 86.512ZM38.1293 87.7L41.1773 91H39.3293L36.8813 88.156V91H35.5133V82.12H36.8813V87.28L39.2813 84.388H41.1773L38.1293 87.7Z" fill="#B5B5C3"/>
<path d="M20.54 110.5V109.252H23.036V118H21.656V110.5H20.54ZM30.5553 110.428H26.5353V112.816C26.7033 112.592 26.9513 112.404 27.2793 112.252C27.6153 112.1 27.9713 112.024 28.3473 112.024C29.0193 112.024 29.5633 112.168 29.9793 112.456C30.4033 112.744 30.7033 113.108 30.8793 113.548C31.0633 113.988 31.1553 114.452 31.1553 114.94C31.1553 115.532 31.0393 116.06 30.8073 116.524C30.5833 116.98 30.2433 117.34 29.7873 117.604C29.3393 117.868 28.7873 118 28.1313 118C27.2593 118 26.5593 117.784 26.0313 117.352C25.5033 116.92 25.1873 116.348 25.0833 115.636H26.4153C26.5033 116.012 26.6993 116.312 27.0033 116.536C27.3073 116.752 27.6873 116.86 28.1433 116.86C28.7113 116.86 29.1353 116.688 29.4153 116.344C29.7033 116 29.8473 115.544 29.8473 114.976C29.8473 114.4 29.7033 113.96 29.4153 113.656C29.1273 113.344 28.7033 113.188 28.1433 113.188C27.7513 113.188 27.4193 113.288 27.1473 113.488C26.8833 113.68 26.6913 113.944 26.5713 114.28H25.2753V109.228H30.5553V110.428ZM35.3754 114.7L38.4234 118H36.5754L34.1274 115.156V118H32.7594V109.12H34.1274V114.28L36.5274 111.388H38.4234L35.3754 114.7Z" fill="#B5B5C3"/>
<path d="M20.54 137.5V136.252H23.036V145H21.656V137.5H20.54ZM24.9153 140.512C24.9153 139.128 25.1473 138.048 25.6113 137.272C26.0833 136.488 26.8913 136.096 28.0353 136.096C29.1793 136.096 29.9833 136.488 30.4473 137.272C30.9193 138.048 31.1553 139.128 31.1553 140.512C31.1553 141.912 30.9193 143.008 30.4473 143.8C29.9833 144.584 29.1793 144.976 28.0353 144.976C26.8913 144.976 26.0833 144.584 25.6113 143.8C25.1473 143.008 24.9153 141.912 24.9153 140.512ZM29.8113 140.512C29.8113 139.864 29.7673 139.316 29.6793 138.868C29.5993 138.42 29.4313 138.056 29.1753 137.776C28.9193 137.488 28.5393 137.344 28.0353 137.344C27.5313 137.344 27.1513 137.488 26.8953 137.776C26.6393 138.056 26.4673 138.42 26.3793 138.868C26.2993 139.316 26.2593 139.864 26.2593 140.512C26.2593 141.184 26.2993 141.748 26.3793 142.204C26.4593 142.66 26.6273 143.028 26.8833 143.308C27.1473 143.588 27.5313 143.728 28.0353 143.728C28.5393 143.728 28.9193 143.588 29.1753 143.308C29.4393 143.028 29.6113 142.66 29.6913 142.204C29.7713 141.748 29.8113 141.184 29.8113 140.512ZM35.3988 141.7L38.4468 145H36.5988L34.1508 142.156V145H32.7828V136.12H34.1508V141.28L36.5508 138.388H38.4468L35.3988 141.7Z" fill="#B5B5C3"/>
<path d="M26.36 164.428H22.34V166.816C22.508 166.592 22.756 166.404 23.084 166.252C23.42 166.1 23.776 166.024 24.152 166.024C24.824 166.024 25.368 166.168 25.784 166.456C26.208 166.744 26.508 167.108 26.684 167.548C26.868 167.988 26.96 168.452 26.96 168.94C26.96 169.532 26.844 170.06 26.612 170.524C26.388 170.98 26.048 171.34 25.592 171.604C25.144 171.868 24.592 172 23.936 172C23.064 172 22.364 171.784 21.836 171.352C21.308 170.92 20.992 170.348 20.888 169.636H22.22C22.308 170.012 22.504 170.312 22.808 170.536C23.112 170.752 23.492 170.86 23.948 170.86C24.516 170.86 24.94 170.688 25.22 170.344C25.508 170 25.652 169.544 25.652 168.976C25.652 168.4 25.508 167.96 25.22 167.656C24.932 167.344 24.508 167.188 23.948 167.188C23.556 167.188 23.224 167.288 22.952 167.488C22.688 167.68 22.496 167.944 22.376 168.28H21.08V163.228H26.36V164.428ZM31.1801 168.7L34.2281 172H32.3801L29.9321 169.156V172H28.5641V163.12H29.9321V168.28L32.3321 165.388H34.2281L31.1801 168.7Z" fill="#B5B5C3"/>
<path d="M21.476 197.14C22.244 196.476 22.848 195.932 23.288 195.508C23.736 195.076 24.108 194.628 24.404 194.164C24.7 193.7 24.848 193.236 24.848 192.772C24.848 192.292 24.732 191.916 24.5 191.644C24.276 191.372 23.92 191.236 23.432 191.236C22.96 191.236 22.592 191.388 22.328 191.692C22.072 191.988 21.936 192.388 21.92 192.892H20.6C20.624 191.98 20.896 191.284 21.416 190.804C21.944 190.316 22.612 190.072 23.42 190.072C24.292 190.072 24.972 190.312 25.46 190.792C25.956 191.272 26.204 191.912 26.204 192.712C26.204 193.288 26.056 193.844 25.76 194.38C25.472 194.908 25.124 195.384 24.716 195.808C24.316 196.224 23.804 196.708 23.18 197.26L22.64 197.74H26.444V198.88H20.612V197.884L21.476 197.14ZM29.3258 197.356L27.8738 200.668H26.9858L27.8378 197.356H29.3258ZM35.9811 191.428H31.9611V193.816C32.1291 193.592 32.3771 193.404 32.7051 193.252C33.0411 193.1 33.3971 193.024 33.7731 193.024C34.4451 193.024 34.9891 193.168 35.4051 193.456C35.8291 193.744 36.1291 194.108 36.3051 194.548C36.4891 194.988 36.5811 195.452 36.5811 195.94C36.5811 196.532 36.4651 197.06 36.2331 197.524C36.0091 197.98 35.6691 198.34 35.2131 198.604C34.7651 198.868 34.2131 199 33.5571 199C32.6851 199 31.9851 198.784 31.4571 198.352C30.9291 197.92 30.6131 197.348 30.5091 196.636H31.8411C31.9291 197.012 32.1251 197.312 32.4291 197.536C32.7331 197.752 33.1131 197.86 33.5691 197.86C34.1371 197.86 34.5611 197.688 34.8411 197.344C35.1291 197 35.2731 196.544 35.2731 195.976C35.2731 195.4 35.1291 194.96 34.8411 194.656C34.5531 194.344 34.1291 194.188 33.5691 194.188C33.1771 194.188 32.8451 194.288 32.5731 194.488C32.3091 194.68 32.1171 194.944 31.9971 195.28H30.7011V190.228H35.9811V191.428ZM40.8012 195.7L43.8492 199H42.0012L39.5532 196.156V199H38.1852V190.12H39.5532V195.28L41.9532 192.388H43.8492L40.8012 195.7Z" fill="#B5B5C3"/>
<path d="M20.72 221.512C20.72 220.128 20.952 219.048 21.416 218.272C21.888 217.488 22.696 217.096 23.84 217.096C24.984 217.096 25.788 217.488 26.252 218.272C26.724 219.048 26.96 220.128 26.96 221.512C26.96 222.912 26.724 224.008 26.252 224.8C25.788 225.584 24.984 225.976 23.84 225.976C22.696 225.976 21.888 225.584 21.416 224.8C20.952 224.008 20.72 222.912 20.72 221.512ZM25.616 221.512C25.616 220.864 25.572 220.316 25.484 219.868C25.404 219.42 25.236 219.056 24.98 218.776C24.724 218.488 24.344 218.344 23.84 218.344C23.336 218.344 22.956 218.488 22.7 218.776C22.444 219.056 22.272 219.42 22.184 219.868C22.104 220.316 22.064 220.864 22.064 221.512C22.064 222.184 22.104 222.748 22.184 223.204C22.264 223.66 22.432 224.028 22.688 224.308C22.952 224.588 23.336 224.728 23.84 224.728C24.344 224.728 24.724 224.588 24.98 224.308C25.244 224.028 25.416 223.66 25.496 223.204C25.576 222.748 25.616 222.184 25.616 221.512ZM31.2035 222.7L34.2515 226H32.4035L29.9555 223.156V226H28.5875V217.12H29.9555V222.28L32.3555 219.388H34.2515L31.2035 222.7Z" fill="#B5B5C3"/>
<line x1="60" y1="5.5" x2="422" y2="5.5" stroke="#EAEAEA" stroke-dasharray="3 4"/>
<line x1="60" y1="32.5" x2="422" y2="32.5" stroke="#EAEAEA" stroke-dasharray="3 4"/>
<line x1="60" y1="59.5" x2="422" y2="59.5" stroke="#EAEAEA" stroke-dasharray="3 4"/>
<line x1="60" y1="86.5" x2="422" y2="86.5" stroke="#EAEAEA" stroke-dasharray="3 4"/>
<line x1="60" y1="113.5" x2="422" y2="113.5" stroke="#EAEAEA" stroke-dasharray="3 4"/>
<line x1="60" y1="140.5" x2="422" y2="140.5" stroke="#EAEAEA" stroke-dasharray="3 4"/>
<line x1="60" y1="167.5" x2="422" y2="167.5" stroke="#EAEAEA" stroke-dasharray="3 4"/>
<line x1="60" y1="194.5" x2="422" y2="194.5" stroke="#EAEAEA" stroke-dasharray="3 4"/>
<line x1="60" y1="221.5" x2="422" y2="221.5" stroke="#EAEAEA" stroke-dasharray="3 4"/>
<path d="M68.9964 252.296H65.5044L64.9044 254H63.4764L66.4644 245.648H68.0484L71.0364 254H69.5964L68.9964 252.296ZM68.6124 251.18L67.2564 247.304L65.8884 251.18H68.6124ZM73.7035 248.36C73.9355 248.056 74.2515 247.8 74.6515 247.592C75.0515 247.384 75.5035 247.28 76.0075 247.28C76.5835 247.28 77.1075 247.424 77.5795 247.712C78.0595 247.992 78.4355 248.388 78.7075 248.9C78.9795 249.412 79.1155 250 79.1155 250.664C79.1155 251.328 78.9795 251.924 78.7075 252.452C78.4355 252.972 78.0595 253.38 77.5795 253.676C77.1075 253.964 76.5835 254.108 76.0075 254.108C75.5035 254.108 75.0555 254.008 74.6635 253.808C74.2715 253.6 73.9515 253.344 73.7035 253.04V257.144H72.3355V247.388H73.7035V248.36ZM77.7235 250.664C77.7235 250.208 77.6275 249.816 77.4355 249.488C77.2515 249.152 77.0035 248.9 76.6915 248.732C76.3875 248.556 76.0595 248.468 75.7075 248.468C75.3635 248.468 75.0355 248.556 74.7235 248.732C74.4195 248.908 74.1715 249.164 73.9795 249.5C73.7955 249.836 73.7035 250.232 73.7035 250.688C73.7035 251.144 73.7955 251.544 73.9795 251.888C74.1715 252.224 74.4195 252.48 74.7235 252.656C75.0355 252.832 75.3635 252.92 75.7075 252.92C76.0595 252.92 76.3875 252.832 76.6915 252.656C77.0035 252.472 77.2515 252.208 77.4355 251.864C77.6275 251.52 77.7235 251.12 77.7235 250.664ZM81.8364 248.348C82.0364 248.012 82.3004 247.752 82.6284 247.568C82.9644 247.376 83.3604 247.28 83.8164 247.28V248.696H83.4684C82.9324 248.696 82.5244 248.832 82.2444 249.104C81.9724 249.376 81.8364 249.848 81.8364 250.52V254H80.4684V247.388H81.8364V248.348ZM88.767 252.14C89.535 251.476 90.139 250.932 90.579 250.508C91.027 250.076 91.399 249.628 91.695 249.164C91.991 248.7 92.139 248.236 92.139 247.772C92.139 247.292 92.023 246.916 91.791 246.644C91.567 246.372 91.211 246.236 90.723 246.236C90.251 246.236 89.883 246.388 89.619 246.692C89.363 246.988 89.227 247.388 89.211 247.892H87.891C87.915 246.98 88.187 246.284 88.707 245.804C89.235 245.316 89.903 245.072 90.711 245.072C91.583 245.072 92.263 245.312 92.751 245.792C93.247 246.272 93.495 246.912 93.495 247.712C93.495 248.288 93.347 248.844 93.051 249.38C92.763 249.908 92.415 250.384 92.007 250.808C91.607 251.224 91.095 251.708 90.471 252.26L89.931 252.74H93.735V253.88H87.903V252.884L88.767 252.14ZM100.481 246.308L97.1448 254H95.7648L99.1368 246.452H94.6968V245.288H100.481V246.308ZM84.4662 261.08V262.232H79.5342V261.08H84.4662ZM75.1781 269.66V278H73.8101V272.288L71.2661 278H70.3181L67.7621 272.288V278H66.3941V269.66H67.8701L70.7981 276.2L73.7141 269.66H75.1781ZM76.5202 274.664C76.5202 274 76.6562 273.412 76.9282 272.9C77.2082 272.388 77.5842 271.992 78.0562 271.712C78.5362 271.424 79.0642 271.28 79.6402 271.28C80.1602 271.28 80.6122 271.384 80.9962 271.592C81.3882 271.792 81.7002 272.044 81.9322 272.348V271.388H83.3122V278H81.9322V277.016C81.7002 277.328 81.3842 277.588 80.9842 277.796C80.5842 278.004 80.1282 278.108 79.6162 278.108C79.0482 278.108 78.5282 277.964 78.0562 277.676C77.5842 277.38 77.2082 276.972 76.9282 276.452C76.6562 275.924 76.5202 275.328 76.5202 274.664ZM81.9322 274.688C81.9322 274.232 81.8362 273.836 81.6442 273.5C81.4602 273.164 81.2162 272.908 80.9122 272.732C80.6082 272.556 80.2802 272.468 79.9282 272.468C79.5762 272.468 79.2482 272.556 78.9442 272.732C78.6402 272.9 78.3922 273.152 78.2002 273.488C78.0162 273.816 77.9242 274.208 77.9242 274.664C77.9242 275.12 78.0162 275.52 78.2002 275.864C78.3922 276.208 78.6402 276.472 78.9442 276.656C79.2562 276.832 79.5842 276.92 79.9282 276.92C80.2802 276.92 80.6082 276.832 80.9122 276.656C81.2162 276.48 81.4602 276.224 81.6442 275.888C81.8362 275.544 81.9322 275.144 81.9322 274.688ZM91.061 271.388L87.005 281.108H85.589L86.933 277.892L84.329 271.388H85.853L87.713 276.428L89.645 271.388H91.061ZM94.8505 270.5V269.252H97.3465V278H95.9665V270.5H94.8505Z" fill="#B5B5C3"/>
<path d="M151.313 245.66V254H149.945V248.288L147.401 254H146.453L143.897 248.288V254H142.529V245.66H144.005L146.933 252.2L149.849 245.66H151.313ZM152.655 250.664C152.655 250 152.791 249.412 153.063 248.9C153.343 248.388 153.719 247.992 154.191 247.712C154.671 247.424 155.199 247.28 155.775 247.28C156.295 247.28 156.747 247.384 157.131 247.592C157.523 247.792 157.835 248.044 158.067 248.348V247.388H159.447V254H158.067V253.016C157.835 253.328 157.519 253.588 157.119 253.796C156.719 254.004 156.263 254.108 155.751 254.108C155.183 254.108 154.663 253.964 154.191 253.676C153.719 253.38 153.343 252.972 153.063 252.452C152.791 251.924 152.655 251.328 152.655 250.664ZM158.067 250.688C158.067 250.232 157.971 249.836 157.779 249.5C157.595 249.164 157.351 248.908 157.047 248.732C156.743 248.556 156.415 248.468 156.063 248.468C155.711 248.468 155.383 248.556 155.079 248.732C154.775 248.9 154.527 249.152 154.335 249.488C154.151 249.816 154.059 250.208 154.059 250.664C154.059 251.12 154.151 251.52 154.335 251.864C154.527 252.208 154.775 252.472 155.079 252.656C155.391 252.832 155.719 252.92 156.063 252.92C156.415 252.92 156.743 252.832 157.047 252.656C157.351 252.48 157.595 252.224 157.779 251.888C157.971 251.544 158.067 251.144 158.067 250.688ZM167.196 247.388L163.14 257.108H161.724L163.068 253.892L160.464 247.388H161.988L163.848 252.428L165.78 247.388H167.196ZM171.921 252.14C172.689 251.476 173.293 250.932 173.733 250.508C174.181 250.076 174.553 249.628 174.849 249.164C175.145 248.7 175.293 248.236 175.293 247.772C175.293 247.292 175.177 246.916 174.945 246.644C174.721 246.372 174.365 246.236 173.877 246.236C173.405 246.236 173.037 246.388 172.773 246.692C172.517 246.988 172.381 247.388 172.365 247.892H171.045C171.069 246.98 171.341 246.284 171.861 245.804C172.389 245.316 173.057 245.072 173.865 245.072C174.737 245.072 175.417 245.312 175.905 245.792C176.401 246.272 176.649 246.912 176.649 247.712C176.649 248.288 176.501 248.844 176.205 249.38C175.917 249.908 175.569 250.384 175.161 250.808C174.761 251.224 174.249 251.708 173.625 252.26L173.085 252.74H176.889V253.88H171.057V252.884L171.921 252.14ZM161.966 261.08V262.232H157.034V261.08H161.966ZM150.95 269.66V278H149.582V272.288L147.038 278H146.09L143.534 272.288V278H142.166V269.66H143.642L146.57 276.2L149.486 269.66H150.95ZM152.292 274.664C152.292 274 152.428 273.412 152.7 272.9C152.98 272.388 153.356 271.992 153.828 271.712C154.308 271.424 154.836 271.28 155.412 271.28C155.932 271.28 156.384 271.384 156.768 271.592C157.16 271.792 157.472 272.044 157.704 272.348V271.388H159.084V278H157.704V277.016C157.472 277.328 157.156 277.588 156.756 277.796C156.356 278.004 155.9 278.108 155.388 278.108C154.82 278.108 154.3 277.964 153.828 277.676C153.356 277.38 152.98 276.972 152.7 276.452C152.428 275.924 152.292 275.328 152.292 274.664ZM157.704 274.688C157.704 274.232 157.608 273.836 157.416 273.5C157.232 273.164 156.988 272.908 156.684 272.732C156.38 272.556 156.052 272.468 155.7 272.468C155.348 272.468 155.02 272.556 154.716 272.732C154.412 272.9 154.164 273.152 153.972 273.488C153.788 273.816 153.696 274.208 153.696 274.664C153.696 275.12 153.788 275.52 153.972 275.864C154.164 276.208 154.412 276.472 154.716 276.656C155.028 276.832 155.356 276.92 155.7 276.92C156.052 276.92 156.38 276.832 156.684 276.656C156.988 276.48 157.232 276.224 157.416 275.888C157.608 275.544 157.704 275.144 157.704 274.688ZM166.832 271.388L162.776 281.108H161.36L162.704 277.892L160.1 271.388H161.624L163.484 276.428L165.416 271.388H166.832ZM172.278 273.428C171.446 273.012 171.03 272.356 171.03 271.46C171.03 271.028 171.138 270.632 171.354 270.272C171.57 269.912 171.894 269.628 172.326 269.42C172.758 269.204 173.286 269.096 173.91 269.096C174.526 269.096 175.05 269.204 175.482 269.42C175.922 269.628 176.25 269.912 176.466 270.272C176.682 270.632 176.79 271.028 176.79 271.46C176.79 271.908 176.674 272.304 176.442 272.648C176.218 272.984 175.918 273.244 175.542 273.428C175.998 273.596 176.358 273.872 176.622 274.256C176.886 274.632 177.018 275.076 177.018 275.588C177.018 276.108 176.886 276.568 176.622 276.968C176.358 277.368 175.99 277.676 175.518 277.892C175.046 278.108 174.51 278.216 173.91 278.216C173.31 278.216 172.774 278.108 172.302 277.892C171.838 277.676 171.474 277.368 171.21 276.968C170.946 276.568 170.814 276.108 170.814 275.588C170.814 275.068 170.946 274.62 171.21 274.244C171.474 273.868 171.83 273.596 172.278 273.428ZM175.482 271.628C175.482 271.18 175.342 270.836 175.062 270.596C174.782 270.356 174.398 270.236 173.91 270.236C173.43 270.236 173.05 270.356 172.77 270.596C172.49 270.836 172.35 271.184 172.35 271.64C172.35 272.04 172.494 272.368 172.782 272.624C173.078 272.872 173.454 272.996 173.91 272.996C174.366 272.996 174.742 272.868 175.038 272.612C175.334 272.356 175.482 272.028 175.482 271.628ZM173.91 274.028C173.382 274.028 172.95 274.16 172.614 274.424C172.286 274.68 172.122 275.052 172.122 275.54C172.122 275.996 172.282 276.368 172.602 276.656C172.922 276.936 173.358 277.076 173.91 277.076C174.454 277.076 174.882 276.932 175.194 276.644C175.514 276.356 175.674 275.988 175.674 275.54C175.674 275.06 175.51 274.688 175.182 274.424C174.862 274.16 174.438 274.028 173.91 274.028Z" fill="#B5B5C3"/>
<path d="M228.467 245.66V254H227.099V248.288L224.555 254H223.607L221.051 248.288V254H219.683V245.66H221.159L224.087 252.2L227.003 245.66H228.467ZM229.809 250.664C229.809 250 229.945 249.412 230.217 248.9C230.497 248.388 230.873 247.992 231.345 247.712C231.825 247.424 232.353 247.28 232.929 247.28C233.449 247.28 233.901 247.384 234.285 247.592C234.677 247.792 234.989 248.044 235.221 248.348V247.388H236.601V254H235.221V253.016C234.989 253.328 234.673 253.588 234.273 253.796C233.873 254.004 233.417 254.108 232.905 254.108C232.337 254.108 231.817 253.964 231.345 253.676C230.873 253.38 230.497 252.972 230.217 252.452C229.945 251.924 229.809 251.328 229.809 250.664ZM235.221 250.688C235.221 250.232 235.125 249.836 234.933 249.5C234.749 249.164 234.505 248.908 234.201 248.732C233.897 248.556 233.569 248.468 233.217 248.468C232.865 248.468 232.537 248.556 232.233 248.732C231.929 248.9 231.681 249.152 231.489 249.488C231.305 249.816 231.213 250.208 231.213 250.664C231.213 251.12 231.305 251.52 231.489 251.864C231.681 252.208 231.929 252.472 232.233 252.656C232.545 252.832 232.873 252.92 233.217 252.92C233.569 252.92 233.897 252.832 234.201 252.656C234.505 252.48 234.749 252.224 234.933 251.888C235.125 251.544 235.221 251.144 235.221 250.688ZM244.35 247.388L240.294 257.108H238.878L240.222 253.892L237.618 247.388H239.142L241.002 252.428L242.934 247.388H244.35ZM250.024 251.624C250.104 252.024 250.276 252.328 250.54 252.536C250.804 252.744 251.16 252.848 251.608 252.848C252.176 252.848 252.592 252.624 252.856 252.176C253.12 251.728 253.252 250.964 253.252 249.884C253.06 250.156 252.788 250.368 252.436 250.52C252.092 250.664 251.716 250.736 251.308 250.736C250.788 250.736 250.316 250.632 249.892 250.424C249.468 250.208 249.132 249.892 248.884 249.476C248.644 249.052 248.524 248.54 248.524 247.94C248.524 247.06 248.78 246.36 249.292 245.84C249.812 245.312 250.524 245.048 251.428 245.048C252.516 245.048 253.288 245.412 253.744 246.14C254.208 246.86 254.44 247.968 254.44 249.464C254.44 250.496 254.352 251.34 254.176 251.996C254.008 252.652 253.712 253.148 253.288 253.484C252.864 253.82 252.276 253.988 251.524 253.988C250.668 253.988 250.008 253.764 249.544 253.316C249.08 252.868 248.82 252.304 248.764 251.624H250.024ZM251.548 249.584C252.028 249.584 252.404 249.436 252.676 249.14C252.956 248.836 253.096 248.436 253.096 247.94C253.096 247.388 252.948 246.96 252.652 246.656C252.364 246.344 251.968 246.188 251.464 246.188C250.96 246.188 250.56 246.348 250.264 246.668C249.976 246.98 249.832 247.392 249.832 247.904C249.832 248.392 249.972 248.796 250.252 249.116C250.54 249.428 250.972 249.584 251.548 249.584ZM239.466 261.08V262.232H234.534V261.08H239.466ZM226.346 269.66V278H224.978V272.288L222.434 278H221.486L218.93 272.288V278H217.562V269.66H219.038L221.966 276.2L224.882 269.66H226.346ZM227.688 274.664C227.688 274 227.824 273.412 228.096 272.9C228.376 272.388 228.752 271.992 229.224 271.712C229.704 271.424 230.232 271.28 230.808 271.28C231.328 271.28 231.78 271.384 232.164 271.592C232.556 271.792 232.868 272.044 233.1 272.348V271.388H234.48V278H233.1V277.016C232.868 277.328 232.552 277.588 232.152 277.796C231.752 278.004 231.296 278.108 230.784 278.108C230.216 278.108 229.696 277.964 229.224 277.676C228.752 277.38 228.376 276.972 228.096 276.452C227.824 275.924 227.688 275.328 227.688 274.664ZM233.1 274.688C233.1 274.232 233.004 273.836 232.812 273.5C232.628 273.164 232.384 272.908 232.08 272.732C231.776 272.556 231.448 272.468 231.096 272.468C230.744 272.468 230.416 272.556 230.112 272.732C229.808 272.9 229.56 273.152 229.368 273.488C229.184 273.816 229.092 274.208 229.092 274.664C229.092 275.12 229.184 275.52 229.368 275.864C229.56 276.208 229.808 276.472 230.112 276.656C230.424 276.832 230.752 276.92 231.096 276.92C231.448 276.92 231.776 276.832 232.08 276.656C232.384 276.48 232.628 276.224 232.812 275.888C233.004 275.544 233.1 275.144 233.1 274.688ZM242.229 271.388L238.173 281.108H236.757L238.101 277.892L235.497 271.388H237.021L238.881 276.428L240.813 271.388H242.229ZM246.019 270.5V269.252H248.515V278H247.135V270.5H246.019ZM256.034 270.428H252.014V272.816C252.182 272.592 252.43 272.404 252.758 272.252C253.094 272.1 253.45 272.024 253.826 272.024C254.498 272.024 255.042 272.168 255.458 272.456C255.882 272.744 256.182 273.108 256.358 273.548C256.542 273.988 256.634 274.452 256.634 274.94C256.634 275.532 256.518 276.06 256.286 276.524C256.062 276.98 255.722 277.34 255.266 277.604C254.818 277.868 254.266 278 253.61 278C252.738 278 252.038 277.784 251.51 277.352C250.982 276.92 250.666 276.348 250.562 275.636H251.894C251.982 276.012 252.178 276.312 252.482 276.536C252.786 276.752 253.166 276.86 253.622 276.86C254.19 276.86 254.614 276.688 254.894 276.344C255.182 276 255.326 275.544 255.326 274.976C255.326 274.4 255.182 273.96 254.894 273.656C254.606 273.344 254.182 273.188 253.622 273.188C253.23 273.188 252.898 273.288 252.626 273.488C252.362 273.68 252.17 273.944 252.05 274.28H250.754V269.228H256.034V270.428Z" fill="#B5B5C3"/>
<path d="M303.829 245.66V254H302.461V248.288L299.917 254H298.969L296.413 248.288V254H295.045V245.66H296.521L299.449 252.2L302.365 245.66H303.829ZM305.171 250.664C305.171 250 305.307 249.412 305.579 248.9C305.859 248.388 306.235 247.992 306.707 247.712C307.187 247.424 307.715 247.28 308.291 247.28C308.811 247.28 309.263 247.384 309.647 247.592C310.039 247.792 310.351 248.044 310.583 248.348V247.388H311.963V254H310.583V253.016C310.351 253.328 310.035 253.588 309.635 253.796C309.235 254.004 308.779 254.108 308.267 254.108C307.699 254.108 307.179 253.964 306.707 253.676C306.235 253.38 305.859 252.972 305.579 252.452C305.307 251.924 305.171 251.328 305.171 250.664ZM310.583 250.688C310.583 250.232 310.487 249.836 310.295 249.5C310.111 249.164 309.867 248.908 309.563 248.732C309.259 248.556 308.931 248.468 308.579 248.468C308.227 248.468 307.899 248.556 307.595 248.732C307.291 248.9 307.043 249.152 306.851 249.488C306.667 249.816 306.575 250.208 306.575 250.664C306.575 251.12 306.667 251.52 306.851 251.864C307.043 252.208 307.291 252.472 307.595 252.656C307.907 252.832 308.235 252.92 308.579 252.92C308.931 252.92 309.259 252.832 309.563 252.656C309.867 252.48 310.111 252.224 310.295 251.888C310.487 251.544 310.583 251.144 310.583 250.688ZM319.711 247.388L315.655 257.108H314.239L315.583 253.892L312.979 247.388H314.503L316.363 252.428L318.295 247.388H319.711ZM323.501 246.5V245.252H325.997V254H324.617V246.5H323.501ZM332.58 247.28C332.492 246.912 332.332 246.636 332.1 246.452C331.868 246.268 331.544 246.176 331.128 246.176C330.496 246.176 330.024 246.42 329.712 246.908C329.4 247.388 329.236 248.188 329.22 249.308C329.428 248.956 329.732 248.684 330.132 248.492C330.532 248.3 330.964 248.204 331.428 248.204C331.956 248.204 332.42 248.32 332.82 248.552C333.228 248.776 333.544 249.104 333.768 249.536C334 249.968 334.116 250.484 334.116 251.084C334.116 251.644 334.004 252.144 333.78 252.584C333.564 253.024 333.24 253.372 332.808 253.628C332.376 253.876 331.856 254 331.248 254C330.424 254 329.776 253.82 329.304 253.46C328.84 253.092 328.512 252.576 328.32 251.912C328.136 251.248 328.044 250.42 328.044 249.428C328.044 246.5 329.076 245.036 331.14 245.036C331.94 245.036 332.568 245.252 333.024 245.684C333.488 246.116 333.76 246.648 333.84 247.28H332.58ZM331.128 249.356C330.64 249.356 330.224 249.504 329.88 249.8C329.544 250.088 329.376 250.508 329.376 251.06C329.376 251.612 329.532 252.052 329.844 252.38C330.164 252.7 330.608 252.86 331.176 252.86C331.68 252.86 332.076 252.704 332.364 252.392C332.66 252.08 332.808 251.664 332.808 251.144C332.808 250.6 332.664 250.168 332.376 249.848C332.096 249.52 331.68 249.356 331.128 249.356ZM316.966 261.08V262.232H312.034V261.08H316.966ZM302.85 269.66V278H301.482V272.288L298.938 278H297.99L295.434 272.288V278H294.066V269.66H295.542L298.47 276.2L301.386 269.66H302.85ZM304.192 274.664C304.192 274 304.328 273.412 304.6 272.9C304.88 272.388 305.256 271.992 305.728 271.712C306.208 271.424 306.736 271.28 307.312 271.28C307.832 271.28 308.284 271.384 308.668 271.592C309.06 271.792 309.372 272.044 309.604 272.348V271.388H310.984V278H309.604V277.016C309.372 277.328 309.056 277.588 308.656 277.796C308.256 278.004 307.8 278.108 307.288 278.108C306.72 278.108 306.2 277.964 305.728 277.676C305.256 277.38 304.88 276.972 304.6 276.452C304.328 275.924 304.192 275.328 304.192 274.664ZM309.604 274.688C309.604 274.232 309.508 273.836 309.316 273.5C309.132 273.164 308.888 272.908 308.584 272.732C308.28 272.556 307.952 272.468 307.6 272.468C307.248 272.468 306.92 272.556 306.616 272.732C306.312 272.9 306.064 273.152 305.872 273.488C305.688 273.816 305.596 274.208 305.596 274.664C305.596 275.12 305.688 275.52 305.872 275.864C306.064 276.208 306.312 276.472 306.616 276.656C306.928 276.832 307.256 276.92 307.6 276.92C307.952 276.92 308.28 276.832 308.584 276.656C308.888 276.48 309.132 276.224 309.316 275.888C309.508 275.544 309.604 275.144 309.604 274.688ZM318.733 271.388L314.677 281.108H313.261L314.605 277.892L312.001 271.388H313.525L315.385 276.428L317.317 271.388H318.733ZM323.458 276.14C324.226 275.476 324.83 274.932 325.27 274.508C325.718 274.076 326.09 273.628 326.386 273.164C326.682 272.7 326.83 272.236 326.83 271.772C326.83 271.292 326.714 270.916 326.482 270.644C326.258 270.372 325.902 270.236 325.414 270.236C324.942 270.236 324.574 270.388 324.31 270.692C324.054 270.988 323.918 271.388 323.902 271.892H322.582C322.606 270.98 322.878 270.284 323.398 269.804C323.926 269.316 324.594 269.072 325.402 269.072C326.274 269.072 326.954 269.312 327.442 269.792C327.938 270.272 328.186 270.912 328.186 271.712C328.186 272.288 328.038 272.844 327.742 273.38C327.454 273.908 327.106 274.384 326.698 274.808C326.298 275.224 325.786 275.708 325.162 276.26L324.622 276.74H328.426V277.88H322.594V276.884L323.458 276.14ZM330.384 276.14C331.152 275.476 331.756 274.932 332.196 274.508C332.644 274.076 333.016 273.628 333.312 273.164C333.608 272.7 333.756 272.236 333.756 271.772C333.756 271.292 333.64 270.916 333.408 270.644C333.184 270.372 332.828 270.236 332.34 270.236C331.868 270.236 331.5 270.388 331.236 270.692C330.98 270.988 330.844 271.388 330.828 271.892H329.508C329.532 270.98 329.804 270.284 330.324 269.804C330.852 269.316 331.52 269.072 332.328 269.072C333.2 269.072 333.88 269.312 334.368 269.792C334.864 270.272 335.112 270.912 335.112 271.712C335.112 272.288 334.964 272.844 334.668 273.38C334.38 273.908 334.032 274.384 333.624 274.808C333.224 275.224 332.712 275.708 332.088 276.26L331.548 276.74H335.352V277.88H329.52V276.884L330.384 276.14Z" fill="#B5B5C3"/>
<path d="M380.25 245.66V254H378.882V248.288L376.338 254H375.39L372.834 248.288V254H371.466V245.66H372.942L375.87 252.2L378.786 245.66H380.25ZM381.592 250.664C381.592 250 381.728 249.412 382 248.9C382.28 248.388 382.656 247.992 383.128 247.712C383.608 247.424 384.136 247.28 384.712 247.28C385.232 247.28 385.684 247.384 386.068 247.592C386.46 247.792 386.772 248.044 387.004 248.348V247.388H388.384V254H387.004V253.016C386.772 253.328 386.456 253.588 386.056 253.796C385.656 254.004 385.2 254.108 384.688 254.108C384.12 254.108 383.6 253.964 383.128 253.676C382.656 253.38 382.28 252.972 382 252.452C381.728 251.924 381.592 251.328 381.592 250.664ZM387.004 250.688C387.004 250.232 386.908 249.836 386.716 249.5C386.532 249.164 386.288 248.908 385.984 248.732C385.68 248.556 385.352 248.468 385 248.468C384.648 248.468 384.32 248.556 384.016 248.732C383.712 248.9 383.464 249.152 383.272 249.488C383.088 249.816 382.996 250.208 382.996 250.664C382.996 251.12 383.088 251.52 383.272 251.864C383.464 252.208 383.712 252.472 384.016 252.656C384.328 252.832 384.656 252.92 385 252.92C385.352 252.92 385.68 252.832 385.984 252.656C386.288 252.48 386.532 252.224 386.716 251.888C386.908 251.544 387.004 251.144 387.004 250.688ZM396.133 247.388L392.077 257.108H390.661L392.005 253.892L389.401 247.388H390.925L392.785 252.428L394.717 247.388H396.133ZM400.859 252.14C401.627 251.476 402.231 250.932 402.671 250.508C403.119 250.076 403.491 249.628 403.787 249.164C404.083 248.7 404.231 248.236 404.231 247.772C404.231 247.292 404.115 246.916 403.883 246.644C403.659 246.372 403.303 246.236 402.815 246.236C402.343 246.236 401.975 246.388 401.711 246.692C401.455 246.988 401.319 247.388 401.303 247.892H399.983C400.007 246.98 400.279 246.284 400.799 245.804C401.327 245.316 401.995 245.072 402.803 245.072C403.675 245.072 404.355 245.312 404.843 245.792C405.339 246.272 405.587 246.912 405.587 247.712C405.587 248.288 405.439 248.844 405.143 249.38C404.855 249.908 404.507 250.384 404.099 250.808C403.699 251.224 403.187 251.708 402.563 252.26L402.023 252.74H405.827V253.88H399.995V252.884L400.859 252.14ZM407.005 247.412C407.053 246.668 407.337 246.088 407.857 245.672C408.385 245.256 409.057 245.048 409.873 245.048C410.433 245.048 410.917 245.148 411.325 245.348C411.733 245.548 412.041 245.82 412.249 246.164C412.457 246.508 412.561 246.896 412.561 247.328C412.561 247.824 412.429 248.248 412.165 248.6C411.901 248.952 411.585 249.188 411.217 249.308V249.356C411.689 249.5 412.057 249.764 412.321 250.148C412.585 250.524 412.717 251.008 412.717 251.6C412.717 252.072 412.609 252.492 412.393 252.86C412.177 253.228 411.857 253.52 411.433 253.736C411.009 253.944 410.501 254.048 409.909 254.048C409.045 254.048 408.333 253.828 407.773 253.388C407.221 252.94 406.925 252.3 406.885 251.468H408.205C408.237 251.892 408.401 252.24 408.697 252.512C408.993 252.776 409.393 252.908 409.897 252.908C410.385 252.908 410.761 252.776 411.025 252.512C411.289 252.24 411.421 251.892 411.421 251.468C411.421 250.908 411.241 250.512 410.881 250.28C410.529 250.04 409.985 249.92 409.249 249.92H408.937V248.792H409.261C409.909 248.784 410.401 248.676 410.737 248.468C411.081 248.26 411.253 247.932 411.253 247.484C411.253 247.1 411.129 246.796 410.881 246.572C410.633 246.34 410.281 246.224 409.825 246.224C409.377 246.224 409.029 246.34 408.781 246.572C408.533 246.796 408.385 247.076 408.337 247.412H407.005ZM394.466 261.08V262.232H389.534V261.08H394.466ZM380.455 269.66V278H379.087V272.288L376.543 278H375.595L373.039 272.288V278H371.671V269.66H373.147L376.075 276.2L378.991 269.66H380.455ZM381.798 274.664C381.798 274 381.934 273.412 382.206 272.9C382.486 272.388 382.862 271.992 383.334 271.712C383.814 271.424 384.342 271.28 384.918 271.28C385.438 271.28 385.89 271.384 386.274 271.592C386.666 271.792 386.978 272.044 387.21 272.348V271.388H388.59V278H387.21V277.016C386.978 277.328 386.662 277.588 386.262 277.796C385.862 278.004 385.406 278.108 384.894 278.108C384.326 278.108 383.806 277.964 383.334 277.676C382.862 277.38 382.486 276.972 382.206 276.452C381.934 275.924 381.798 275.328 381.798 274.664ZM387.21 274.688C387.21 274.232 387.114 273.836 386.922 273.5C386.738 273.164 386.494 272.908 386.19 272.732C385.886 272.556 385.558 272.468 385.206 272.468C384.854 272.468 384.526 272.556 384.222 272.732C383.918 272.9 383.67 273.152 383.478 273.488C383.294 273.816 383.202 274.208 383.202 274.664C383.202 275.12 383.294 275.52 383.478 275.864C383.67 276.208 383.918 276.472 384.222 276.656C384.534 276.832 384.862 276.92 385.206 276.92C385.558 276.92 385.886 276.832 386.19 276.656C386.494 276.48 386.738 276.224 386.922 275.888C387.114 275.544 387.21 275.144 387.21 274.688ZM396.338 271.388L392.282 281.108H390.866L392.21 277.892L389.606 271.388H391.13L392.99 276.428L394.922 271.388H396.338ZM401.064 276.14C401.832 275.476 402.436 274.932 402.876 274.508C403.324 274.076 403.696 273.628 403.992 273.164C404.288 272.7 404.436 272.236 404.436 271.772C404.436 271.292 404.32 270.916 404.088 270.644C403.864 270.372 403.508 270.236 403.02 270.236C402.548 270.236 402.18 270.388 401.916 270.692C401.66 270.988 401.524 271.388 401.508 271.892H400.188C400.212 270.98 400.484 270.284 401.004 269.804C401.532 269.316 402.2 269.072 403.008 269.072C403.88 269.072 404.56 269.312 405.048 269.792C405.544 270.272 405.792 270.912 405.792 271.712C405.792 272.288 405.644 272.844 405.348 273.38C405.06 273.908 404.712 274.384 404.304 274.808C403.904 275.224 403.392 275.708 402.768 276.26L402.228 276.74H406.032V277.88H400.2V276.884L401.064 276.14ZM412.778 270.308L409.442 278H408.062L411.434 270.452H406.994V269.288H412.778V270.308Z" fill="#B5B5C3"/>
<g clip-path="url(#clip1_9_10603)">
<path d="M142.276 161.827L82.7298 132.938C69.4471 126.494 54 136.169 54 150.932V210C54 221.046 62.9543 230 74 230H574C585.046 230 594 221.046 594 210V138.953C594 130.656 588.876 123.22 581.123 120.265L433.011 63.8153C426.757 61.432 419.726 62.3343 414.277 66.2195L323.043 131.27C316.128 136.2 306.854 136.226 299.911 131.334L250.674 96.6364C242.76 91.059 231.987 91.952 225.099 98.7562L165.061 158.062C159.031 164.018 149.902 165.527 142.276 161.827Z" fill="#FBF1F8" fill-opacity="0.5" stroke="#663259" stroke-width="3"/>
</g>
</g>
<defs>
<clipPath id="clip0_9_10603">
<rect width="422" height="280" fill="white"/>
</clipPath>
<clipPath id="clip1_9_10603">
<rect width="362" height="217" fill="white" transform="translate(60 5)"/>
</clipPath>
</defs>
</svg>
