<svg width="28" height="32" viewBox="0 0 28 32" fill="none" xmlns="http://www.w3.org/2000/svg">
<path d="M27.241 11.0345C27.241 11.0345 24.9651 11.3103 23.9306 7.72414C22.5033 2.776 19.3319 0 13.9996 0C8.66725 0 5.49587 2.776 4.06856 7.72414C3.03407 11.3103 0.75821 11.0345 0.75821 11.0345C0.75821 11.0345 -0.483169 13.7931 2.41338 15.4483H1.30993C1.30993 15.4483 1.98069 18.7981 5.35842 19.2535C5.78773 20.2235 7.13069 21.5172 11.241 21.5172H13.9996H16.7582C20.8685 21.5172 22.2115 20.2234 22.6408 19.2535C26.0185 18.7981 26.6892 15.4483 26.6892 15.4483H25.5858C28.4824 13.7931 27.241 11.0345 27.241 11.0345Z" fill="#9D6E48"/>
<path d="M19.5168 11.0345C12.6892 7.58621 13.103 1.51724 13.9996 0C8.66731 0 5.49586 2.776 4.06855 7.72414C3.03407 11.3103 0.75821 11.0345 0.75821 11.0345C0.75821 11.0345 -0.483169 13.7931 2.41338 15.4483H1.30993C1.30993 15.4483 1.98069 18.7981 5.35842 19.2535C5.78773 20.2235 7.13069 21.5172 11.241 21.5172L19.5168 11.0345Z" fill="#8D5F3D"/>
<path d="M24.2338 30.1262L23.6001 25.3739C23.4648 24.3593 22.7789 23.503 21.8182 23.1496L18.0657 21.7689C17.6151 21.6187 17.3112 21.197 17.3112 20.7221V18.9426L19.6878 17.9523C20.9215 17.4383 21.725 16.233 21.725 14.8966V14.3449C22.6391 14.3449 23.3802 13.6039 23.3802 12.6897C23.3802 11.7756 22.6391 11.0346 21.725 11.0346V9.93111C21.725 8.40752 20.4899 7.17249 18.9664 7.17249H9.03534C7.51176 7.17249 6.27672 8.40759 6.27672 9.93111V11.0346C5.36258 11.0346 4.62155 11.7756 4.62155 12.6897C4.62155 13.6039 5.36258 14.3449 6.27672 14.3449V14.8966C6.27672 16.233 7.08024 17.4383 8.31383 17.9523L10.6905 18.9426V20.722C10.6905 21.197 10.3866 21.6186 9.93603 21.7688L6.18348 23.1495C5.22286 23.503 4.53693 24.3592 4.40162 25.3739L3.76796 30.1261C3.63569 31.1184 4.40755 32.0001 5.40858 32.0001H14.0009H22.5931C23.5942 32.0001 24.3661 31.1184 24.2338 30.1262Z" fill="#F6B47B"/>
<path d="M10.6909 18.9655V20.7219C10.6909 21.1146 10.4828 21.4703 10.1562 21.6668C14.553 22.4265 17.0661 19.2668 17.2944 18.9655H10.6909V18.9655Z" fill="#E2A071"/>
<path d="M21.7222 11.0346V9.93111C21.7222 8.40752 20.4871 7.17249 18.9636 7.17249H9.03257C7.50898 7.17249 6.27395 8.40759 6.27395 9.93111V11.0346C5.35981 11.0346 4.61877 11.7756 4.61877 12.6897C4.61877 13.6039 5.35981 14.3449 6.27395 14.3449V14.8966C6.27395 16.233 7.07746 17.4383 8.31105 17.9523L11.8759 19.4377C12.5484 19.7179 13.2696 19.8621 13.998 19.8621C14.7264 19.8621 15.4476 19.7179 16.12 19.4377L19.6851 17.9523C20.9187 17.4383 21.7222 16.233 21.7222 14.8966V14.3449C22.6364 14.3449 23.3774 13.6039 23.3774 12.6897C23.3774 11.7756 22.6364 11.0346 21.7222 11.0346Z" fill="#FDC88E"/>
<path d="M10.1361 13.2414C9.83269 13.2414 9.58441 12.9931 9.58441 12.6896V12.1379C9.58441 11.8345 9.83269 11.5862 10.1361 11.5862C10.4396 11.5862 10.6879 11.8345 10.6879 12.1379V12.6896C10.6879 12.9931 10.4396 13.2414 10.1361 13.2414Z" fill="#623F33"/>
<path d="M13.9994 17.1185C13.0185 17.1185 12.101 16.8771 11.4821 16.4561C11.2303 16.2848 11.1647 15.9415 11.3364 15.6897C11.5074 15.4381 11.851 15.3726 12.1028 15.5439C12.5365 15.8389 13.2456 16.0151 13.9994 16.0151C14.7532 16.0151 15.4622 15.8389 15.8959 15.5439C16.1483 15.3721 16.491 15.4378 16.6623 15.6897C16.8339 15.9415 16.7685 16.2848 16.5166 16.4561C15.8978 16.8771 14.9803 17.1185 13.9994 17.1185Z" fill="#E2A071"/>
<path d="M20.3335 22.5283L18.3481 25.7047C18.0457 26.1887 17.5153 26.4827 16.9446 26.4827H11.0552C10.4845 26.4827 9.95408 26.1887 9.6516 25.7047L7.66636 22.5283C7.50691 22.2732 7.17256 22.1929 6.91463 22.3476L5.10236 23.435C4.83773 23.5938 4.75477 23.9388 4.91836 24.2005L7.37918 28.1378H20.6206L23.0814 24.2005C23.245 23.9387 23.162 23.5938 22.8974 23.4349L21.0851 22.3476C20.8273 22.1929 20.4928 22.2733 20.3335 22.5283Z" fill="#F23F44"/>
<path d="M20.6196 28.1379H7.37817V32H20.6196V28.1379Z" fill="#FF4F4F"/>
<path d="M9.17022 16.8086C8.72319 16.3292 8.48091 15.6968 8.48091 15.0413V9.18876C10.3977 10.5321 13.0492 11.5826 17.9982 11.8621L17.5154 10.207C17.5154 10.207 14.0837 8.27773 12.4119 7.17249H9.03257C8.84346 7.17249 8.65919 7.19235 8.48084 7.22862V7.22807C8.43836 7.23669 8.39636 7.24649 8.35464 7.25704C8.35077 7.258 8.34677 7.25869 8.34291 7.25966C8.34195 7.25993 8.34112 7.26069 8.34008 7.26097C7.15188 7.56828 6.27395 8.64683 6.27395 9.93111V11.0346C5.35981 11.0346 4.61877 11.7756 4.61877 12.6897C4.61877 13.6039 5.35981 14.3449 6.27395 14.3449V14.8966C6.27395 16.233 7.07746 17.4383 8.31105 17.9523L11.8759 19.4377C12.0504 19.5104 12.2284 19.573 12.4088 19.6273C10.8333 18.4748 9.78464 17.4673 9.17022 16.8086Z" fill="#F6B47B"/>
<path d="M17.8611 13.2414C17.5577 13.2414 17.3094 12.9931 17.3094 12.6896V12.1379C17.3094 11.8345 17.5577 11.5862 17.8611 11.5862C18.1646 11.5862 18.4128 11.8345 18.4128 12.1379V12.6896C18.4128 12.9931 18.1646 13.2414 17.8611 13.2414Z" fill="#623F33"/>
<path d="M19.5169 11.0345L18.9651 9.93109C18.9651 9.93109 20.7109 11.0325 21.7927 11.0325V6.89661H8.7688C10.8535 8.89254 13.4526 11.0345 19.5169 11.0345Z" fill="#9D6E48"/>
<path d="M19.5169 11.0345C17.1988 9.86378 15.7162 8.39088 14.803 6.89661H8.7688C10.8536 8.89254 13.4527 11.0345 19.5169 11.0345Z" fill="#8D5F3D"/>
</svg>
