<svg width="24" height="32" viewBox="0 0 24 32" fill="none" xmlns="http://www.w3.org/2000/svg">
<path d="M3.17217 12.1379C3.17217 12.1379 2.06873 7.62247 2.06873 6.06895C2.06873 2.73565 4.82734 2.75861 4.82734 2.75861L4.82782 2.75813C6.47106 0.0115172 12.5515 0 12.5515 0L13.1032 1.10345C16.1377 0.137931 20.2756 0 20.2756 0C20.2756 0 21.0687 1.10345 21.379 2.75861C22.0221 6.18861 20.8273 12.1379 20.8273 12.1379H3.17217Z" fill="#734A3E"/>
<path d="M12.5515 0C12.5515 0 6.44803 0 4.82782 2.75813L4.82734 2.75861C4.82734 2.75861 2.06873 2.73565 2.06873 6.06895C2.06873 7.62247 3.17217 12.1379 3.17217 12.1379H6.73327L10.3446 7.1724C10.3446 7.1724 15.9078 4.32178 20.2756 0C20.2756 0 16.1377 0.137931 13.1032 1.10345L12.5515 0Z" fill="#623F33"/>
<path d="M23.0239 29.1639L22.9738 28.7132C22.954 28.5349 22.7934 28.4064 22.6151 28.4261L22.5871 28.4292L22.1025 24.5524C21.997 23.7091 21.4167 23.0013 20.6105 22.7325L17.4374 21.6748L17.5162 21.5172L16.32 20.7197C16.0665 20.5507 15.724 20.6192 15.5549 20.8728L15.3864 21.1256C15.3367 20.9995 15.3093 20.8631 15.3093 20.7219V18.9424L17.6859 17.9522C18.9195 17.4382 19.723 16.2329 19.723 14.8965V14.3448C20.6371 14.3448 21.3782 13.6038 21.3782 12.6896C21.3782 12.2534 21.2091 11.8569 20.9334 11.5612C21.2114 9.98605 21.9002 5.54254 21.3782 2.75861C21.0678 1.10345 20.2747 0 20.2747 0C20.2747 0 16.1368 0.137931 13.1023 1.10345L12.5506 0C12.5506 0 6.44717 0 4.82697 2.75813L4.82649 2.75861C4.82649 2.75861 4.8258 2.75861 4.82449 2.75861C4.82187 2.75861 4.81656 2.75861 4.8089 2.75882C4.80125 2.75903 4.79104 2.7593 4.77863 2.75979C4.76621 2.76034 4.75152 2.7611 4.73469 2.7622C4.72628 2.76275 4.71738 2.76337 4.70794 2.76413C4.67966 2.76634 4.64683 2.76944 4.61 2.77372C4.58545 2.77661 4.55918 2.77999 4.53125 2.78406C4.50332 2.78813 4.4738 2.79282 4.4429 2.79827C4.41194 2.80379 4.37959 2.80993 4.34594 2.81703C3.67332 2.95841 2.49553 3.44144 2.1596 5.09123C2.15118 5.13247 2.14332 5.17447 2.13601 5.21716C2.11401 5.3453 2.09698 5.48013 2.08546 5.62199C2.07394 5.76385 2.06787 5.91268 2.06787 6.06895C2.06787 6.19033 2.07463 6.32978 2.08704 6.48371C2.09946 6.63764 2.1176 6.80612 2.14029 6.98557C2.14484 7.0215 2.1496 7.05778 2.15449 7.09454C2.26249 7.9026 2.45601 8.90888 2.64546 9.8095C2.65408 9.85046 2.6627 9.89115 2.67125 9.93163C2.80008 10.5387 2.92504 11.0903 3.01787 11.4901C3.02566 11.5237 3.03318 11.5558 3.04049 11.5873C2.77891 11.8799 2.6196 12.2661 2.6196 12.6896C2.6196 13.6038 3.36063 14.3448 4.27476 14.3448V14.8965C4.27476 16.2329 5.07828 17.4382 6.31186 17.9522L8.68855 18.9426V20.722C8.68855 20.8633 8.6611 20.9996 8.61144 21.1257L8.44289 20.8729C8.27386 20.6193 7.93131 20.5508 7.67779 20.7198L6.48166 21.5173L6.56048 21.6749L3.38732 22.7326C2.58104 23.0013 2.00077 23.7092 1.89539 24.5525L1.41077 28.4293L1.3827 28.4262C1.20436 28.4064 1.04381 28.5349 1.02394 28.7132L0.973875 29.164C0.954082 29.3423 1.08256 29.5029 1.26084 29.5227L2.06787 29.6124V30.8966C2.06787 31.5059 2.56187 32 3.17132 32H5.92993H18.0678H20.8265C21.4359 32 21.9299 31.5059 21.9299 30.8966V29.6124L22.7369 29.5227C22.9152 29.5028 23.0438 29.3422 23.0239 29.1639Z" fill="#F6B47B"/>
<path d="M22.1037 24.5524C21.9983 23.7091 21.418 23.0013 20.6118 22.7325L17.0429 21.5428C16.5232 22.7147 13.6553 23.7241 13.6553 23.7241L12.5519 24.8275C12.5519 24.8319 11.5347 24.8275 11.4485 24.8275L10.345 23.7241C10.345 23.7241 7.47715 22.7148 6.9575 21.5428L3.38854 22.7325C2.58227 23.0013 2.00199 23.7091 1.89661 24.5524L1.37186 28.7505L5.93116 29.2413V31.9999H18.0691V29.2413H22.6897L22.1037 24.5524Z" fill="#FF4F4F"/>
<path d="M3.17217 12.1379C3.17217 12.1379 2.06873 7.62247 2.06873 6.06895C2.06873 2.73565 4.82734 2.75861 4.82734 2.75861L4.82782 2.75813C6.42506 0.0459999 12.5515 0 12.5515 0L13.1032 1.10345C16.1377 0.137931 20.2756 0 20.2756 0C20.2756 0 21.0687 1.10345 21.379 2.75861C22.0221 6.18861 20.8273 12.1379 20.8273 12.1379H3.17217Z" fill="#734A3E"/>
<path d="M12.5515 0C12.5515 0 6.44803 0 4.82782 2.75813L4.82734 2.75861C4.82734 2.75861 2.06873 2.73565 2.06873 6.06895C2.06873 7.62247 3.17217 12.1379 3.17217 12.1379H6.73327L10.3446 7.1724C10.3446 7.1724 15.9078 4.32178 20.2756 0C20.2756 0 16.1377 0.137931 13.1032 1.10345L12.5515 0Z" fill="#623F33"/>
<path d="M15.3079 18.8966H8.68727V20.722C8.68727 21.1192 8.46754 21.4689 8.13437 21.664C12.7615 22.4738 15.3079 18.8966 15.3079 18.8966Z" fill="#E2A071"/>
<path d="M19.7222 11.0344V9.93098C19.7222 8.40746 18.4871 7.17236 16.9635 7.17236H7.03253C5.50901 7.17236 4.27391 8.40746 4.27391 9.93098V11.0344C3.35978 11.0344 2.61874 11.7755 2.61874 12.6896C2.61874 13.6037 3.35978 14.3448 4.27391 14.3448V14.8965C4.27391 16.2328 5.07743 17.4381 6.31101 17.9522L9.8759 19.4376C10.5483 19.7178 11.2696 19.862 11.998 19.862C12.7264 19.862 13.4475 19.7177 14.12 19.4376L17.6851 17.9521C18.9186 17.4382 19.7222 16.2329 19.7222 14.8965V14.3448C20.6363 14.3448 21.3773 13.6037 21.3773 12.6896C21.3773 11.7755 20.6363 11.0344 19.7222 11.0344Z" fill="#FDC88E"/>
<path d="M8.13607 13.2413C7.83263 13.2413 7.58435 12.9931 7.58435 12.6896V12.1379C7.58435 11.8345 7.83263 11.5862 8.13607 11.5862C8.43952 11.5862 8.68779 11.8345 8.68779 12.1379V12.6896C8.68779 12.9931 8.43952 13.2413 8.13607 13.2413Z" fill="#623F33"/>
<path d="M15.8611 13.2413C15.5576 13.2413 15.3094 12.9931 15.3094 12.6896V12.1379C15.3094 11.8345 15.5576 11.5862 15.8611 11.5862C16.1645 11.5862 16.4128 11.8345 16.4128 12.1379V12.6896C16.4128 12.9931 16.1645 13.2413 15.8611 13.2413Z" fill="#623F33"/>
<path d="M11.9993 17.1185C11.0184 17.1185 10.1009 16.8771 9.48206 16.4561C9.2302 16.2848 9.16468 15.9415 9.33634 15.6897C9.50737 15.4381 9.85089 15.3726 10.1028 15.5439C10.5365 15.8389 11.2455 16.0151 11.9993 16.0151C12.7531 16.0151 13.4621 15.8389 13.8958 15.5439C14.1483 15.3721 14.4909 15.4378 14.6623 15.6897C14.8338 15.9415 14.7684 16.2848 14.5165 16.4561C13.8978 16.8771 12.9802 17.1185 11.9993 17.1185Z" fill="#E2A071"/>
<path d="M5.92954 29.6578V28.4091C5.92954 27.8783 5.73823 27.3653 5.39072 26.9641L2.35493 23.4597C2.10997 23.7699 1.94597 24.1445 1.895 24.5523L1.31873 29.1625C2.19624 29.2152 4.53031 29.4886 5.92954 29.6578Z" fill="#F23F44"/>
<path d="M5.93 28.9314L1.3827 28.4262C1.20436 28.4064 1.04381 28.5349 1.02394 28.7132L0.973875 29.1639C0.954082 29.3422 1.08256 29.5028 1.26084 29.5226L5.93 30.0414V28.9314Z" fill="#D6343A"/>
<path d="M18.0687 29.6578V28.4091C18.0687 27.8783 18.26 27.3653 18.6076 26.9641L21.6433 23.4597C21.8883 23.7699 22.0523 24.1445 22.1033 24.5523L22.6795 29.1625C21.8021 29.2152 19.468 29.4886 18.0687 29.6578Z" fill="#F23F44"/>
<path d="M18.0687 28.9314L22.616 28.4262C22.7944 28.4064 22.9549 28.5349 22.9748 28.7132L23.0249 29.1639C23.0446 29.3422 22.9162 29.5028 22.7379 29.5226L18.0687 30.0414V28.9314Z" fill="#D6343A"/>
<path d="M8.44247 20.8728L10.3433 23.7241L8.68813 25.931L6.48123 21.5172L7.67737 20.7198C7.93088 20.5508 8.27344 20.6193 8.44247 20.8728Z" fill="#F23F44"/>
<path d="M15.554 20.8728L13.6531 23.7241L15.3083 25.931L17.5152 21.5172L16.319 20.7198C16.0655 20.5508 15.723 20.6193 15.554 20.8728Z" fill="#F23F44"/>
<path d="M11.9986 29.2413C11.6939 29.2413 11.4469 28.9943 11.4469 28.6896V24.8275H12.5503V28.6896C12.5503 28.9943 12.3034 29.2413 11.9986 29.2413Z" fill="#F23F44"/>
<path d="M7.17018 16.8085C6.72315 16.3292 6.48087 15.6967 6.48087 15.0412V8.71077C8.41928 8.49553 12.6418 7.98271 16.9636 7.17236H7.03253C6.8426 7.17236 6.65867 7.1945 6.4808 7.23312V7.22795C5.2217 7.4836 4.27391 8.59643 4.27391 9.93098V11.0344C3.35978 11.0344 2.61874 11.7755 2.61874 12.6896C2.61874 13.6037 3.35978 14.3448 4.27391 14.3448V14.8965C4.27391 16.2329 5.07743 17.4382 6.31101 17.9522L9.87583 19.4376C10.0503 19.5103 10.2284 19.5729 10.4087 19.6272C8.83328 18.4747 7.78459 17.4672 7.17018 16.8085Z" fill="#F6B47B"/>
</svg>
