<svg width="32" height="32" viewBox="0 0 32 32" fill="none" xmlns="http://www.w3.org/2000/svg">
<path d="M27.0255 29.1639L26.9754 28.7132C26.9556 28.5349 26.795 28.4064 26.6167 28.4261L26.5887 28.4293L26.104 24.5524C25.9986 23.7091 25.4183 23.0013 24.612 22.7325L21.9191 21.8349C21.5494 21.7115 21.1437 21.79 20.8585 22.0331L20.0653 21.7686C19.6147 21.6184 19.3108 21.1968 19.3108 20.7218V18.9424L21.6874 17.9521C22.9211 17.4382 23.7246 16.2329 23.7246 14.8965V14.3448C24.6387 14.3448 25.3798 13.6038 25.3798 12.6896C25.3798 12.4136 25.3118 12.1535 25.1922 11.9247C25.3125 11.6523 25.3798 11.3513 25.3798 11.0345C25.3798 10.811 25.3367 10.5997 25.2749 10.3965C25.6798 9.99639 25.9315 9.4417 25.9315 8.82757C25.9315 8.60412 25.8884 8.39281 25.8267 8.18957C26.2316 7.7895 26.4832 7.23481 26.4832 6.62068C26.4832 5.55923 25.7333 4.67406 24.7348 4.46282C24.7895 4.27061 24.828 4.07178 24.828 3.86206C24.828 2.64324 23.84 1.65517 22.6211 1.65517C22.1634 1.65517 21.7383 1.79462 21.3858 2.03324C21.0846 1.17276 20.2741 0.551723 19.3108 0.551723C18.7666 0.551723 18.2749 0.756205 17.8901 1.08276C17.5052 0.437034 16.8069 0 16.0005 0C15.1942 0 14.496 0.437034 14.111 1.08276C13.7261 0.756205 13.2344 0.551723 12.6902 0.551723C11.7269 0.551723 10.9164 1.17276 10.6152 2.03324C10.2626 1.79462 9.83752 1.65517 9.37987 1.65517C8.16104 1.65517 7.17297 2.64324 7.17297 3.86206C7.17297 4.07178 7.21159 4.27061 7.26621 4.46282C6.2676 4.67406 5.51774 5.55923 5.51774 6.62068C5.51774 7.23481 5.76939 7.7895 6.17429 8.18957C6.11256 8.39281 6.06946 8.60412 6.06946 8.82757C6.06946 9.4417 6.32111 9.99639 6.72601 10.3965C6.66429 10.5997 6.62118 10.811 6.62118 11.0345C6.62118 11.3513 6.68842 11.6523 6.8087 11.9247C6.68918 12.1535 6.62118 12.4136 6.62118 12.6896C6.62118 13.6038 7.36221 14.3448 8.27635 14.3448V14.8965C8.27635 16.2329 9.07987 17.4382 10.3134 17.9522L12.6901 18.9425V20.7219C12.6901 21.1969 12.3862 21.6185 11.9357 21.7687L11.1424 22.0331C10.8572 21.7901 10.4516 21.7116 10.0818 21.8349L7.3889 22.7326C6.58263 23.0013 6.00236 23.7092 5.89691 24.5525L5.41229 28.4293L5.38422 28.4262C5.20594 28.4064 5.04532 28.5349 5.02553 28.7133L4.97546 29.164C4.95567 29.3423 5.08415 29.5029 5.26243 29.5227L6.06946 29.6124V30.8965C6.06946 31.5059 6.56353 31.9999 7.1729 31.9999H9.93152H22.0694H24.828C25.4375 31.9999 25.9315 31.5059 25.9315 30.8965V29.6123L26.7385 29.5226C26.9168 29.5028 27.0453 29.3422 27.0255 29.1639Z" fill="#C38762"/>
<path d="M25.8262 8.18957C26.2311 7.7895 26.4827 7.23481 26.4827 6.62068C26.4827 5.55923 25.7328 4.67406 24.7343 4.46282C24.789 4.27061 24.8275 4.07178 24.8275 3.86206C24.8275 2.64324 23.8394 1.65517 22.6206 1.65517C22.1629 1.65517 21.7378 1.79462 21.3852 2.03324C21.0841 1.17276 20.2736 0.551723 19.3103 0.551723C18.7661 0.551723 18.2744 0.756205 17.8895 1.08276C17.5046 0.437034 16.8064 0 16 0C15.1937 0 14.4955 0.437034 14.1104 1.08276C13.7256 0.756205 13.2339 0.551723 12.6897 0.551723C11.7264 0.551723 10.9159 1.17276 10.6147 2.03324C10.2621 1.79462 9.837 1.65517 9.37934 1.65517C8.16052 1.65517 7.17245 2.64324 7.17245 3.86206C7.17245 4.07178 7.21107 4.27061 7.26569 4.46282C6.26707 4.67406 5.51721 5.55923 5.51721 6.62068C5.51721 7.23481 5.76887 7.7895 6.17376 8.18957C6.11204 8.39281 6.06893 8.60412 6.06893 8.82757C6.06893 9.4417 6.32059 9.99639 6.72548 10.3965C6.66376 10.5997 6.62066 10.811 6.62066 11.0345C6.62066 12.2533 7.60872 13.2414 8.82755 13.2414C8.82776 13.2414 8.82796 13.2414 8.82824 13.2414H23.1717C23.1719 13.2414 23.1721 13.2414 23.1724 13.2414C24.3912 13.2414 25.3793 12.2533 25.3793 11.0345C25.3793 10.811 25.3362 10.5997 25.2745 10.3965C25.6794 9.99639 25.931 9.4417 25.931 8.82757C25.931 8.60412 25.8879 8.39281 25.8262 8.18957Z" fill="#623F33"/>
<path d="M22.0691 32V29.2414H26.6898L26.1036 24.5525C25.9982 23.7092 25.4179 23.0014 24.6116 22.7326L21.9188 21.8349C21.4498 21.6786 20.9222 21.8456 20.6573 22.2629C19.6794 23.8039 17.9604 24.8276 16.0002 24.8276C14.04 24.8276 12.321 23.8038 11.343 22.2629C11.0781 21.8455 10.5505 21.6785 10.0815 21.8349L7.38864 22.7325C6.58237 23.0013 6.00209 23.7092 5.89664 24.5525L5.37189 28.7505L9.93126 29.2414V32H22.0692V32H22.0691Z" fill="#FFD739"/>
<path d="M19.3111 18.9425L12.6904 17.4712V20.7219C12.6904 21.1191 12.4707 21.4689 12.1375 21.6639C16.7647 22.4738 19.3111 18.9425 19.3111 18.9425Z" fill="#A46D4D"/>
<path d="M23.7253 11.0345V9.37931C23.7253 7.85579 22.4902 6.06897 20.9667 6.06897H11.0357C9.51209 6.06897 8.27706 7.85579 8.27706 9.37931V11.0345C7.36292 11.0345 6.62189 11.7756 6.62189 12.6896C6.62189 13.6038 7.36292 14.3448 8.27706 14.3448V14.8965C8.27706 16.2329 9.08057 17.4382 10.3142 17.9523L13.879 19.4376C14.5515 19.7178 15.2728 19.862 16.0012 19.862C16.7296 19.862 17.4508 19.7178 18.1232 19.4376L21.6883 17.9522C22.9218 17.4383 23.7253 16.2329 23.7253 14.8965V14.3448C24.6394 14.3448 25.3805 13.6038 25.3805 12.6896C25.3805 11.7755 24.6394 11.0345 23.7253 11.0345Z" fill="#D29771"/>
<path d="M12.1392 13.2413C11.8358 13.2413 11.5875 12.9931 11.5875 12.6896V12.1379C11.5875 11.8345 11.8358 11.5862 12.1392 11.5862C12.4427 11.5862 12.691 11.8345 12.691 12.1379V12.6896C12.691 12.9931 12.4426 13.2413 12.1392 13.2413Z" fill="#623F33"/>
<path d="M19.8626 13.2413C19.5592 13.2413 19.3109 12.9931 19.3109 12.6896V12.1379C19.3109 11.8345 19.5592 11.5862 19.8626 11.5862C20.1661 11.5862 20.4143 11.8345 20.4143 12.1379V12.6896C20.4143 12.9931 20.1661 13.2413 19.8626 13.2413Z" fill="#623F33"/>
<path d="M16.0008 17.1185C15.02 17.1185 14.1024 16.8771 13.4836 16.4561C13.2318 16.2848 13.1663 15.9415 13.3379 15.6897C13.5089 15.4381 13.8524 15.3726 14.1043 15.5439C14.538 15.8389 15.2471 16.0151 16.0008 16.0151C16.7546 16.0151 17.4637 15.8389 17.8974 15.5439C18.1498 15.3721 18.4925 15.4378 18.6638 15.6897C18.8354 15.9415 18.7699 16.2848 18.5181 16.4561C17.8993 16.8771 16.9817 17.1185 16.0008 17.1185Z" fill="#A46D4D"/>
<path d="M9.93113 29.6579V28.4092C9.93113 27.8784 9.73982 27.3654 9.3923 26.9642L6.35652 23.4598C6.11155 23.77 5.94755 24.1447 5.89659 24.5525L5.32031 29.1626C6.19776 29.2153 8.53182 29.4887 9.93113 29.6579Z" fill="#FFC33D"/>
<path d="M9.93158 28.9314L5.38429 28.4262C5.20594 28.4064 5.04539 28.5349 5.02553 28.7132L4.97546 29.1639C4.95567 29.3422 5.08415 29.5028 5.26243 29.5226L9.93158 30.0414V28.9314Z" fill="#FFB440"/>
<path d="M22.0688 29.6579V28.4092C22.0688 27.8784 22.2601 27.3654 22.6076 26.9642L25.6434 23.4598C25.8883 23.77 26.0523 24.1447 26.1033 24.5525L26.6796 29.1626C25.8021 29.2153 23.468 29.4887 22.0688 29.6579Z" fill="#FFC33D"/>
<path d="M22.0688 28.9314L26.6161 28.4262C26.7944 28.4064 26.9549 28.5349 26.9748 28.7132L27.0249 29.1639C27.0447 29.3422 26.9162 29.5028 26.7379 29.5226L22.0688 30.0414V28.9314Z" fill="#FFB440"/>
<path d="M8.27706 6.13794V11.0345C7.36292 11.0345 6.62189 11.7755 6.62189 12.6896C6.62189 13.6038 7.36292 14.3448 8.27706 14.3448V14.8965C8.27706 16.233 9.08057 17.4383 10.3142 17.9523L13.879 19.4376C14.0535 19.5103 14.2315 19.5729 14.4119 19.6272C12.8364 18.4747 11.7877 17.4672 11.1733 16.8085C10.7262 16.3292 10.4839 15.6967 10.4839 15.0412V8.81193C11.0712 8.74649 11.5954 8.47518 11.9862 8.07311C12.2872 8.20276 12.6182 8.27587 12.9667 8.27587C13.7251 8.27587 14.3956 7.92856 14.851 7.3927C15.1868 7.59911 15.5781 7.72414 16.0012 7.72414C16.5677 7.72414 17.079 7.50442 17.4699 7.15352C17.8982 7.50469 18.4386 7.72414 19.0357 7.72414C20.0897 7.72414 20.9838 7.06518 21.3422 6.13794H8.27706Z" fill="#C38762"/>
<path d="M23.7253 6.62069C23.6894 6.62069 23.656 6.62897 23.6207 6.63124C23.6847 6.45497 23.7253 6.26731 23.7253 6.06897C23.7253 5.15483 22.9843 4.4138 22.0701 4.4138C21.8694 4.4138 21.6794 4.45497 21.5013 4.52042C21.4128 3.22973 20.3489 2.20691 19.0357 2.20691C17.9051 2.20691 16.9618 2.96725 16.6618 4.00104C16.4592 3.91256 16.2364 3.86208 16.0012 3.86208C15.3819 3.86208 14.8486 4.20615 14.5648 4.70966C14.2174 4.19828 13.6315 3.86208 12.9668 3.86208C12.1767 3.86208 11.4997 4.3378 11.2006 5.01725C10.8971 4.65159 10.4446 4.4138 9.93229 4.4138C9.31733 4.4138 8.78112 4.74939 8.49575 5.24718C8.45781 5.24339 8.4194 5.24139 8.3805 5.24139C7.75202 5.24139 7.24258 5.75083 7.24258 6.37931C7.24258 6.56469 7.28782 6.73918 7.36651 6.89386C6.91802 7.18993 6.62189 7.69821 6.62189 8.27586C6.62189 9.19 7.36292 9.93103 8.27706 9.93103C9.19119 9.93103 9.93223 9.19 9.93223 8.27586C9.93223 8.07752 9.8916 7.88986 9.8276 7.71359C9.86292 7.71586 9.89643 7.72414 9.93223 7.72414C10.5515 7.72414 11.0848 7.38007 11.3686 6.87655C11.716 7.38793 12.302 7.72414 12.9667 7.72414C13.7568 7.72414 14.4338 7.24842 14.7328 6.56897C15.0364 6.93462 15.4887 7.17242 16.0012 7.17242C16.5503 7.17242 17.0334 6.90193 17.3345 6.49014C17.7793 6.91042 18.3754 7.17242 19.0357 7.17242C19.5989 7.17242 20.1124 6.97766 20.529 6.66159C20.7679 7.282 21.3655 7.72414 22.0701 7.72414C22.106 7.72414 22.1394 7.71586 22.1748 7.71359C22.1108 7.88986 22.0701 8.07752 22.0701 8.27586C22.0701 9.19 22.8112 9.93103 23.7253 9.93103C24.6394 9.93103 25.3805 9.19 25.3805 8.27586C25.3805 7.36173 24.6394 6.62069 23.7253 6.62069Z" fill="#623F33"/>
</svg>
