<svg width="62" height="72" viewBox="0 0 62 72" fill="none" xmlns="http://www.w3.org/2000/svg">
<path d="M60.4244 25.41C60.4244 25.41 55.3669 26.023 53.068 18.0537C49.8962 7.05781 42.8487 0.888916 30.9991 0.888916C19.1494 0.888916 12.1019 7.05781 8.9301 18.0537C6.63125 26.023 1.57378 25.41 1.57378 25.41C1.57378 25.41 -1.18484 31.5403 5.25194 35.2184H2.79983C2.79983 35.2184 4.29041 42.6626 11.7965 43.6745C12.7505 45.8301 15.7349 48.705 24.8688 48.705H30.9991H37.1293C46.2633 48.705 49.2477 45.8299 50.2017 43.6745C57.7077 42.6626 59.1983 35.2184 59.1983 35.2184H56.7462C63.183 31.5403 60.4244 25.41 60.4244 25.41Z" fill="#9D6E48"/>
<path d="M43.2596 25.41C28.0872 17.7472 29.0067 4.26056 30.9991 0.888916C19.1496 0.888916 12.1019 7.05781 8.9301 18.0537C6.63125 26.023 1.57378 25.41 1.57378 25.41C1.57378 25.41 -1.18484 31.5403 5.25194 35.2184H2.79983C2.79983 35.2184 4.29041 42.6626 11.7965 43.6745C12.7505 45.8301 15.7349 48.705 24.8688 48.705L43.2596 25.41Z" fill="#8D5F3D"/>
<path d="M53.7416 67.836L52.3335 57.2754C52.0328 55.0207 50.5085 53.1179 48.3738 52.3324L40.0348 49.2642C39.0336 48.9304 38.3581 47.9934 38.3581 46.9379V42.9836L43.6395 40.783C46.381 39.6408 48.1666 36.9623 48.1666 33.9925V32.7665C50.198 32.7665 51.8447 31.1197 51.8447 29.0883C51.8447 27.0569 50.198 25.4101 48.1666 25.4101V22.958C48.1666 19.5723 45.4219 16.8278 42.0363 16.8278H19.9673C16.5816 16.8278 13.8371 19.5724 13.8371 22.958V25.4101C11.8057 25.4101 10.1589 27.0569 10.1589 29.0883C10.1589 31.1197 11.8057 32.7665 13.8371 32.7665V33.9925C13.8371 36.9623 15.6227 39.6408 18.364 40.783L23.6455 42.9836V46.9378C23.6455 47.9933 22.9701 48.9303 21.9689 49.2641L13.6299 52.3323C11.4952 53.1177 9.97086 55.0206 9.67018 57.2753L8.26205 67.8359C7.96811 70.0409 9.68336 72.0002 11.9079 72.0002H31.0018H50.0958C52.3203 72.0002 54.0357 70.0409 53.7416 67.836Z" fill="#F6B47B"/>
<path d="M23.6464 43.0345V46.9376C23.6464 47.8101 23.184 48.6007 22.4584 49.0374C32.2289 50.7255 37.8136 43.7039 38.321 43.0343H23.6464V43.0345Z" fill="#E2A071"/>
<path d="M48.1605 25.4101V22.958C48.1605 19.5723 45.4158 16.8278 42.0302 16.8278H19.9613C16.5755 16.8278 13.831 19.5724 13.831 22.958V25.4101C11.7996 25.4101 10.1528 27.0569 10.1528 29.0883C10.1528 31.1197 11.7996 32.7665 13.831 32.7665V33.9925C13.831 36.9623 15.6166 39.6408 18.3579 40.783L26.2799 44.0839C27.7741 44.7065 29.3769 45.027 30.9956 45.027C32.6143 45.027 34.2169 44.7065 35.7112 44.0839L43.6336 40.7829C46.3749 39.6408 48.1605 36.9623 48.1605 33.9925V32.7665C50.1919 32.7665 51.8387 31.1197 51.8387 29.0883C51.8387 27.0569 50.1919 25.4101 48.1605 25.4101Z" fill="#FDC88E"/>
<path d="M22.4136 30.3143C21.7393 30.3143 21.1876 29.7625 21.1876 29.0882V27.8622C21.1876 27.1878 21.7393 26.6361 22.4136 26.6361C23.0879 26.6361 23.6397 27.1878 23.6397 27.8622V29.0882C23.6397 29.7625 23.0879 30.3143 22.4136 30.3143Z" fill="#623F33"/>
<path d="M30.9986 38.9301C28.8188 38.9301 26.7799 38.3937 25.4047 37.4581C24.845 37.0774 24.6994 36.3146 25.0809 35.7549C25.4609 35.1958 26.2243 35.0503 26.784 35.4311C27.7478 36.0866 29.3235 36.4781 30.9986 36.4781C32.6736 36.4781 34.2493 36.0866 35.2131 35.4311C35.774 35.0492 36.5356 35.1952 36.9163 35.7549C37.2976 36.3146 37.1521 37.0774 36.5924 37.4581C35.2174 38.3937 33.1783 38.9301 30.9986 38.9301Z" fill="#E2A071"/>
<path d="M45.0743 50.9519L40.6625 58.0106C39.9903 59.086 38.8116 59.7394 37.5434 59.7394H24.4559C23.1877 59.7394 22.009 59.086 21.3368 58.0106L16.9252 50.9519C16.5708 50.385 15.8279 50.2065 15.2547 50.5504L11.2274 52.9668C10.6393 53.3196 10.455 54.0863 10.8185 54.6679L16.287 63.4175H45.7123L51.1808 54.6678C51.5443 54.0862 51.36 53.3196 50.7719 52.9666L46.7446 50.5502C46.1716 50.2065 45.4285 50.3852 45.0743 50.9519Z" fill="#F23F44"/>
<path d="M45.71 63.4176H16.2847V72H45.71V63.4176Z" fill="#FF4F4F"/>
<path d="M20.2672 38.2412C19.2738 37.1761 18.7354 35.7706 18.7354 34.314V21.3084C22.9948 24.2935 28.8871 26.6279 39.8848 27.2492L38.812 23.5711C38.812 23.5711 31.1861 19.2839 27.4708 16.8278H19.9613C19.541 16.8278 19.1315 16.8719 18.7352 16.9525V16.9513C18.6408 16.9704 18.5475 16.9922 18.4547 17.0157C18.4462 17.0178 18.4373 17.0193 18.4287 17.0215C18.4265 17.0221 18.4247 17.0238 18.4224 17.0244C15.7819 17.7073 13.831 20.1041 13.831 22.958V25.4101C11.7996 25.4101 10.1528 27.0569 10.1528 29.0883C10.1528 31.1197 11.7996 32.7665 13.831 32.7665V33.9925C13.831 36.9623 15.6166 39.6408 18.3579 40.783L26.2797 44.0839C26.6675 44.2454 27.0632 44.3845 27.4639 44.5052C23.9629 41.9439 21.6325 39.7052 20.2672 38.2412Z" fill="#F6B47B"/>
<path d="M39.5802 30.3143C38.9059 30.3143 38.3542 29.7625 38.3542 29.0882V27.8622C38.3542 27.1878 38.9059 26.6361 39.5802 26.6361C40.2546 26.6361 40.8063 27.1878 40.8063 27.8622V29.0882C40.8063 29.7625 40.2546 30.3143 39.5802 30.3143Z" fill="#623F33"/>
<path d="M43.2596 25.41L42.0336 22.9579C42.0336 22.9579 45.913 25.4054 48.3171 25.4054V16.2146H19.3751C24.0077 20.65 29.7835 25.41 43.2596 25.41Z" fill="#9D6E48"/>
<path d="M43.2598 25.41C38.1084 22.8083 34.8137 19.5352 32.7844 16.2146H19.3751C24.0079 20.65 29.7836 25.41 43.2598 25.41Z" fill="#8D5F3D"/>
</svg>
