<svg width="18" height="17" viewBox="0 0 18 17" fill="none" xmlns="http://www.w3.org/2000/svg">
    <path d="M9.66436 1.15931L11.6392 5.16187C11.6927 5.26964 11.7715 5.36283 11.8689 5.43347C11.9663 5.5041 12.0793 5.55006 12.1984 5.5674L16.6136 6.20811C16.751 6.22778 16.88 6.28558 16.9862 6.37495C17.0923 6.46431 17.1712 6.58165 17.2139 6.71364C17.2567 6.84562 17.2615 6.98695 17.228 7.12156C17.1944 7.25617 17.1237 7.37866 17.024 7.4751L13.8301 10.5946C13.744 10.6782 13.6795 10.7816 13.6423 10.8957C13.6051 11.0099 13.5962 11.1314 13.6165 11.2497L14.37 15.6554C14.3934 15.7917 14.3783 15.9318 14.3262 16.06C14.2742 16.1881 14.1873 16.2991 14.0755 16.3805C13.9637 16.4619 13.8313 16.5103 13.6934 16.5204C13.5555 16.5305 13.4175 16.5019 13.295 16.4377L9.34521 14.362C9.23886 14.3053 9.12019 14.2756 8.99966 14.2756C8.87914 14.2756 8.76047 14.3053 8.65412 14.362L4.70435 16.4377C4.58186 16.5019 4.44386 16.5305 4.30593 16.5204C4.168 16.5103 4.03565 16.4619 3.92382 16.3805C3.812 16.2991 3.72516 16.1881 3.67312 16.06C3.62108 15.9318 3.60591 15.7917 3.62933 15.6554L4.38281 11.2569C4.40309 11.1386 4.39424 11.0171 4.35703 10.9029C4.31982 10.7888 4.25537 10.6854 4.16924 10.6018L0.97295 7.4823C0.874083 7.38531 0.804255 7.26265 0.771328 7.12812C0.738402 6.9936 0.743685 6.85255 0.786582 6.72087C0.82948 6.58918 0.908289 6.47209 1.01413 6.38277C1.11998 6.29345 1.24866 6.23545 1.38568 6.2153L5.80098 5.5746C5.92002 5.55725 6.03307 5.5113 6.13045 5.44066C6.22783 5.37003 6.30663 5.27683 6.36009 5.16907L8.33497 1.16651C8.39558 1.04222 8.48973 0.937358 8.60679 0.86376C8.72385 0.790162 8.85916 0.75076 8.99743 0.750011C9.1357 0.749262 9.27143 0.787194 9.38928 0.85952C9.50713 0.931846 9.60241 1.03569 9.66436 1.15931Z" fill="#F69B11"/>
</svg>
