<svg width="310" height="310" viewBox="0 0 310 310" fill="none" xmlns="http://www.w3.org/2000/svg">
<circle cx="155" cy="155" r="142" stroke="#00AFAF" stroke-width="26"/>
<mask id="path-2-inside-1_41_4401" fill="white">
<path d="M155 298C155 304.627 149.619 310.048 143.011 309.536C110.812 307.039 80.0841 294.53 55.2179 273.611C27.2806 250.108 8.5359 217.499 2.28723 181.529C-3.96143 145.56 2.68704 108.539 21.0609 76.9915C39.4348 45.4439 68.3548 21.3944 102.724 9.08144C137.093 -3.23149 174.706 -3.01752 208.933 9.68564C243.16 22.3888 271.804 46.7658 289.818 78.5204C307.832 110.275 314.059 147.369 307.401 183.265C301.475 215.215 285.681 244.391 262.393 266.767C257.614 271.359 250.015 270.588 245.806 265.468L244.406 263.765C240.198 258.645 240.982 251.121 245.688 246.454C264.244 228.054 276.836 204.366 281.636 178.487C287.168 148.659 281.993 117.836 267.025 91.4503C252.057 65.0642 228.255 44.8085 199.815 34.253C171.374 23.6975 140.121 23.5197 111.562 33.751C83.0034 43.9822 58.9727 63.9658 43.7052 90.1799C28.4376 116.394 22.9132 147.156 28.1054 177.044C33.2977 206.933 48.8733 234.029 72.0874 253.558C92.2287 270.502 116.998 280.806 143.017 283.237C149.615 283.853 155 289.168 155 295.795V298Z"/>
</mask>
<path d="M155 298C155 304.627 149.619 310.048 143.011 309.536C110.812 307.039 80.0841 294.53 55.2179 273.611C27.2806 250.108 8.5359 217.499 2.28723 181.529C-3.96143 145.56 2.68704 108.539 21.0609 76.9915C39.4348 45.4439 68.3548 21.3944 102.724 9.08144C137.093 -3.23149 174.706 -3.01752 208.933 9.68564C243.16 22.3888 271.804 46.7658 289.818 78.5204C307.832 110.275 314.059 147.369 307.401 183.265C301.475 215.215 285.681 244.391 262.393 266.767C257.614 271.359 250.015 270.588 245.806 265.468L244.406 263.765C240.198 258.645 240.982 251.121 245.688 246.454C264.244 228.054 276.836 204.366 281.636 178.487C287.168 148.659 281.993 117.836 267.025 91.4503C252.057 65.0642 228.255 44.8085 199.815 34.253C171.374 23.6975 140.121 23.5197 111.562 33.751C83.0034 43.9822 58.9727 63.9658 43.7052 90.1799C28.4376 116.394 22.9132 147.156 28.1054 177.044C33.2977 206.933 48.8733 234.029 72.0874 253.558C92.2287 270.502 116.998 280.806 143.017 283.237C149.615 283.853 155 289.168 155 295.795V298Z" stroke="#5014D0" stroke-width="28" mask="url(#path-2-inside-1_41_4401)"/>
<mask id="path-3-inside-2_41_4401" fill="white">
<path d="M155 298C155 304.627 149.619 310.048 143.012 309.536C124.534 308.102 106.429 303.364 89.569 295.513C69.0761 285.97 50.9185 272.06 36.3693 254.759C21.8201 237.457 11.2315 217.182 5.3458 195.356C-0.539905 173.53 -1.58022 150.681 2.29779 128.41C6.1758 106.139 14.8783 84.9863 27.7951 66.4342C40.7119 47.8821 57.5303 32.3799 77.0713 21.0145C96.6123 9.64904 118.403 2.69547 140.915 0.641275C159.436 -1.04875 178.077 0.611104 195.952 5.50782C202.344 7.25884 205.576 14.1794 203.336 20.4167L202.59 22.4918C200.35 28.7292 193.487 31.9111 187.068 30.2609C172.815 26.5969 158.01 25.3951 143.296 26.7377C124.59 28.4446 106.484 34.2226 90.2462 43.6666C74.0089 53.1105 60.0338 65.9918 49.3008 81.4074C38.5678 96.823 31.3366 114.4 28.1142 132.905C24.8918 151.411 25.7562 170.397 30.6469 188.533C35.5375 206.67 44.336 223.516 56.4255 237.893C68.5149 252.27 83.6027 263.828 100.631 271.757C114.025 277.994 128.365 281.867 143.017 283.237C149.616 283.853 155 289.168 155 295.795V298Z"/>
</mask>
<path d="M155 298C155 304.627 149.619 310.048 143.012 309.536C124.534 308.102 106.429 303.364 89.569 295.513C69.0761 285.97 50.9185 272.06 36.3693 254.759C21.8201 237.457 11.2315 217.182 5.3458 195.356C-0.539905 173.53 -1.58022 150.681 2.29779 128.41C6.1758 106.139 14.8783 84.9863 27.7951 66.4342C40.7119 47.8821 57.5303 32.3799 77.0713 21.0145C96.6123 9.64904 118.403 2.69547 140.915 0.641275C159.436 -1.04875 178.077 0.611104 195.952 5.50782C202.344 7.25884 205.576 14.1794 203.336 20.4167L202.59 22.4918C200.35 28.7292 193.487 31.9111 187.068 30.2609C172.815 26.5969 158.01 25.3951 143.296 26.7377C124.59 28.4446 106.484 34.2226 90.2462 43.6666C74.0089 53.1105 60.0338 65.9918 49.3008 81.4074C38.5678 96.823 31.3366 114.4 28.1142 132.905C24.8918 151.411 25.7562 170.397 30.6469 188.533C35.5375 206.67 44.336 223.516 56.4255 237.893C68.5149 252.27 83.6027 263.828 100.631 271.757C114.025 277.994 128.365 281.867 143.017 283.237C149.616 283.853 155 289.168 155 295.795V298Z" stroke="#0095E8" stroke-width="28" mask="url(#path-3-inside-2_41_4401)"/>
<mask id="path-4-inside-3_41_4401" fill="white">
<path d="M155 298C155 304.627 149.619 310.048 143.012 309.536C120.854 307.817 99.2743 301.348 79.7617 290.515C56.7441 277.735 37.3609 259.303 23.4402 236.957C9.51942 214.611 1.51992 189.088 0.196081 162.794C-0.92617 140.504 2.7803 118.283 11.0055 97.6363C13.4583 91.4794 20.696 89.0395 26.6447 91.9611L28.6237 92.933C34.5724 95.8546 36.9692 103.03 34.6138 109.225C28.2949 125.843 25.4694 143.633 26.3678 161.476C27.4678 183.325 34.1149 204.533 45.6821 223.101C57.2494 241.669 73.3556 256.985 92.4817 267.604C108.102 276.276 125.315 281.582 143.017 283.237C149.616 283.853 155 289.168 155 295.795V298Z"/>
</mask>
<path d="M155 298C155 304.627 149.619 310.048 143.012 309.536C120.854 307.817 99.2743 301.348 79.7617 290.515C56.7441 277.735 37.3609 259.303 23.4402 236.957C9.51942 214.611 1.51992 189.088 0.196081 162.794C-0.92617 140.504 2.7803 118.283 11.0055 97.6363C13.4583 91.4794 20.696 89.0395 26.6447 91.9611L28.6237 92.933C34.5724 95.8546 36.9692 103.03 34.6138 109.225C28.2949 125.843 25.4694 143.633 26.3678 161.476C27.4678 183.325 34.1149 204.533 45.6821 223.101C57.2494 241.669 73.3556 256.985 92.4817 267.604C108.102 276.276 125.315 281.582 143.017 283.237C149.616 283.853 155 289.168 155 295.795V298Z" stroke="#F69B11" stroke-width="28" mask="url(#path-4-inside-3_41_4401)"/>
<path d="M156.772 113.071L162.038 123.744C162.181 124.032 162.391 124.28 162.651 124.468C162.91 124.657 163.212 124.779 163.529 124.826L175.303 126.534C175.67 126.587 176.014 126.741 176.297 126.979C176.58 127.217 176.79 127.53 176.904 127.882C177.018 128.234 177.031 128.611 176.942 128.97C176.852 129.329 176.664 129.656 176.398 129.913L167.881 138.231C167.651 138.455 167.479 138.73 167.38 139.035C167.281 139.339 167.257 139.663 167.311 139.978L169.32 151.727C169.383 152.09 169.342 152.464 169.204 152.806C169.065 153.147 168.833 153.444 168.535 153.661C168.237 153.877 167.884 154.007 167.516 154.034C167.148 154.061 166.78 153.984 166.454 153.813L155.921 148.278C155.637 148.127 155.321 148.047 154.999 148.047C154.678 148.047 154.362 148.127 154.078 148.278L143.545 153.813C143.219 153.984 142.851 154.061 142.483 154.034C142.115 154.007 141.762 153.877 141.464 153.661C141.166 153.444 140.934 153.147 140.795 152.806C140.657 152.464 140.616 152.09 140.679 151.727L142.688 139.998C142.742 139.682 142.718 139.358 142.619 139.054C142.52 138.749 142.348 138.474 142.118 138.251L133.595 129.932C133.331 129.673 133.145 129.346 133.057 128.988C132.969 128.629 132.983 128.253 133.098 127.901C133.212 127.55 133.422 127.238 133.705 127C133.987 126.762 134.33 126.607 134.695 126.553L146.47 124.845C146.787 124.799 147.089 124.676 147.348 124.488C147.608 124.299 147.818 124.051 147.961 123.763L153.227 113.09C153.389 112.758 153.64 112.479 153.952 112.283C154.264 112.086 154.625 111.981 154.993 111.979C155.362 111.977 155.724 112.078 156.038 112.271C156.353 112.464 156.607 112.741 156.772 113.071Z" fill="#F1BC00"/>
<path d="M135.254 173.197H128.39V176.233C128.684 175.911 129.094 175.647 129.622 175.441C130.15 175.236 130.722 175.133 131.338 175.133C132.438 175.133 133.348 175.383 134.066 175.881C134.8 176.38 135.335 177.025 135.672 177.817C136.01 178.609 136.178 179.467 136.178 180.391C136.178 182.107 135.694 183.471 134.726 184.483C133.758 185.481 132.394 185.979 130.634 185.979C129.461 185.979 128.442 185.781 127.576 185.385C126.711 184.975 126.044 184.41 125.574 183.691C125.105 182.973 124.848 182.144 124.804 181.205H128.478C128.566 181.66 128.779 182.041 129.116 182.349C129.454 182.643 129.916 182.789 130.502 182.789C131.192 182.789 131.705 182.569 132.042 182.129C132.38 181.689 132.548 181.103 132.548 180.369C132.548 179.651 132.372 179.101 132.02 178.719C131.668 178.338 131.155 178.147 130.48 178.147C129.982 178.147 129.571 178.272 129.248 178.521C128.926 178.756 128.713 179.071 128.61 179.467H124.98V169.897H135.254V173.197ZM142.677 182.503L140.235 188.817H137.837L139.113 182.503H142.677ZM147.211 177.355C145.833 176.622 145.143 175.471 145.143 173.901C145.143 173.109 145.349 172.391 145.759 171.745C146.17 171.085 146.793 170.565 147.629 170.183C148.465 169.787 149.492 169.589 150.709 169.589C151.927 169.589 152.946 169.787 153.767 170.183C154.603 170.565 155.227 171.085 155.637 171.745C156.048 172.391 156.253 173.109 156.253 173.901C156.253 174.693 156.063 175.383 155.681 175.969C155.315 176.556 154.816 177.018 154.185 177.355C154.977 177.737 155.586 178.265 156.011 178.939C156.437 179.599 156.649 180.377 156.649 181.271C156.649 182.313 156.385 183.215 155.857 183.977C155.329 184.725 154.611 185.297 153.701 185.693C152.807 186.089 151.809 186.287 150.709 186.287C149.609 186.287 148.605 186.089 147.695 185.693C146.801 185.297 146.089 184.725 145.561 183.977C145.033 183.215 144.769 182.313 144.769 181.271C144.769 180.362 144.982 179.577 145.407 178.917C145.833 178.243 146.434 177.722 147.211 177.355ZM152.601 174.473C152.601 173.872 152.425 173.41 152.073 173.087C151.736 172.75 151.281 172.581 150.709 172.581C150.137 172.581 149.675 172.75 149.323 173.087C148.986 173.425 148.817 173.894 148.817 174.495C148.817 175.067 148.993 175.522 149.345 175.859C149.697 176.182 150.152 176.343 150.709 176.343C151.267 176.343 151.721 176.175 152.073 175.837C152.425 175.5 152.601 175.045 152.601 174.473ZM150.709 178.983C150.02 178.983 149.463 179.174 149.037 179.555C148.612 179.922 148.399 180.435 148.399 181.095C148.399 181.711 148.605 182.217 149.015 182.613C149.441 183.009 150.005 183.207 150.709 183.207C151.413 183.207 151.963 183.009 152.359 182.613C152.77 182.217 152.975 181.711 152.975 181.095C152.975 180.45 152.763 179.937 152.337 179.555C151.927 179.174 151.384 178.983 150.709 178.983ZM158.925 183.119V180.083L165.877 170.139H170.079V179.863H171.883V183.119H170.079V185.979H166.317V183.119H158.925ZM166.581 174.275L162.885 179.863H166.581V174.275ZM185.034 173.197H178.17V176.233C178.463 175.911 178.874 175.647 179.402 175.441C179.93 175.236 180.502 175.133 181.118 175.133C182.218 175.133 183.127 175.383 183.846 175.881C184.579 176.38 185.114 177.025 185.452 177.817C185.789 178.609 185.958 179.467 185.958 180.391C185.958 182.107 185.474 183.471 184.506 184.483C183.538 185.481 182.174 185.979 180.414 185.979C179.24 185.979 178.221 185.781 177.356 185.385C176.49 184.975 175.823 184.41 175.354 183.691C174.884 182.973 174.628 182.144 174.584 181.205H178.258C178.346 181.66 178.558 182.041 178.896 182.349C179.233 182.643 179.695 182.789 180.282 182.789C180.971 182.789 181.484 182.569 181.822 182.129C182.159 181.689 182.328 181.103 182.328 180.369C182.328 179.651 182.152 179.101 181.8 178.719C181.448 178.338 180.934 178.147 180.26 178.147C179.761 178.147 179.35 178.272 179.028 178.521C178.705 178.756 178.492 179.071 178.39 179.467H174.76V169.897H185.034V173.197Z" fill="#464E5F"/>
</svg>
