<svg width="200" height="200" viewBox="0 0 200 200" fill="none" xmlns="http://www.w3.org/2000/svg">
<circle cx="100" cy="100" r="93.5" stroke="#00AFAF" stroke-width="13"/>
<mask id="path-2-inside-1_9_9436" fill="white">
<path d="M161.948 170.035C164.326 172.723 164.087 176.849 161.249 179.048C145.784 191.031 127.099 198.245 107.494 199.719C85.7237 201.355 64.0161 195.822 45.6853 183.964C27.3545 172.106 13.4079 154.575 5.9747 134.048C-1.4585 113.52 -1.96984 91.1243 4.51876 70.2791C11.0074 49.4338 24.1394 31.2847 41.9099 18.6026C59.6803 5.92051 81.1129 -0.597724 102.935 0.0430869C124.758 0.683897 145.771 8.44854 162.766 22.1515C178.071 34.4913 189.361 51.0361 195.293 69.68C196.381 73.1003 194.237 76.6333 190.753 77.4972C187.269 78.361 183.768 76.2268 182.647 72.8172C177.42 56.925 167.703 42.8285 154.608 32.2703C139.821 20.3484 121.54 13.593 102.554 13.0355C83.5678 12.478 64.9211 18.149 49.4604 29.1827C33.9998 40.2163 22.5747 56.0064 16.9294 74.1422C11.2842 92.278 11.7291 111.763 18.1961 129.622C24.6632 147.481 36.797 162.734 52.7451 173.05C68.6933 183.367 87.5794 188.181 106.52 186.757C123.294 185.497 139.295 179.405 152.618 169.287C155.476 167.116 159.57 167.346 161.948 170.035Z"/>
</mask>
<path d="M161.948 170.035C164.326 172.723 164.087 176.849 161.249 179.048C145.784 191.031 127.099 198.245 107.494 199.719C85.7237 201.355 64.0161 195.822 45.6853 183.964C27.3545 172.106 13.4079 154.575 5.9747 134.048C-1.4585 113.52 -1.96984 91.1243 4.51876 70.2791C11.0074 49.4338 24.1394 31.2847 41.9099 18.6026C59.6803 5.92051 81.1129 -0.597724 102.935 0.0430869C124.758 0.683897 145.771 8.44854 162.766 22.1515C178.071 34.4913 189.361 51.0361 195.293 69.68C196.381 73.1003 194.237 76.6333 190.753 77.4972C187.269 78.361 183.768 76.2268 182.647 72.8172C177.42 56.925 167.703 42.8285 154.608 32.2703C139.821 20.3484 121.54 13.593 102.554 13.0355C83.5678 12.478 64.9211 18.149 49.4604 29.1827C33.9998 40.2163 22.5747 56.0064 16.9294 74.1422C11.2842 92.278 11.7291 111.763 18.1961 129.622C24.6632 147.481 36.797 162.734 52.7451 173.05C68.6933 183.367 87.5794 188.181 106.52 186.757C123.294 185.497 139.295 179.405 152.618 169.287C155.476 167.116 159.57 167.346 161.948 170.035Z" stroke="#5014D0" stroke-width="20" mask="url(#path-2-inside-1_9_9436)"/>
<mask id="path-3-inside-2_9_9436" fill="white">
<path d="M161.948 170.035C164.326 172.723 164.087 176.849 161.249 179.048C148.797 188.696 134.214 195.287 118.677 198.24C101.008 201.6 82.7605 200.131 65.8559 193.99C48.9513 187.849 34.0158 177.263 22.6227 163.346C11.2296 149.43 3.80059 132.698 1.11832 114.914C-1.56395 97.1292 0.599789 78.9507 7.3816 62.2928C14.1634 45.635 25.3123 31.1145 39.6537 20.2609C53.9951 9.40734 70.9983 2.6225 88.8721 0.621085C104.588 -1.13876 120.466 0.857092 135.211 6.4041C138.57 7.66795 140.016 11.5396 138.537 14.8099C137.057 18.0802 133.214 19.5073 129.842 18.2761C117.238 13.6737 103.711 12.0388 90.3185 13.5384C74.7679 15.2797 59.9749 21.1826 47.4975 30.6254C35.0202 40.0682 25.3205 52.7013 19.4202 67.194C13.5199 81.6867 11.6374 97.5023 13.971 112.975C16.3046 128.448 22.768 143.005 32.6802 155.113C42.5925 167.22 55.5866 176.431 70.294 181.773C85.0013 187.116 100.877 188.394 116.25 185.471C129.489 182.954 141.932 177.402 152.618 169.287C155.476 167.116 159.57 167.346 161.948 170.035Z"/>
</mask>
<path d="M161.948 170.035C164.326 172.723 164.087 176.849 161.249 179.048C148.797 188.696 134.214 195.287 118.677 198.24C101.008 201.6 82.7605 200.131 65.8559 193.99C48.9513 187.849 34.0158 177.263 22.6227 163.346C11.2296 149.43 3.80059 132.698 1.11832 114.914C-1.56395 97.1292 0.599789 78.9507 7.3816 62.2928C14.1634 45.635 25.3123 31.1145 39.6537 20.2609C53.9951 9.40734 70.9983 2.6225 88.8721 0.621085C104.588 -1.13876 120.466 0.857092 135.211 6.4041C138.57 7.66795 140.016 11.5396 138.537 14.8099C137.057 18.0802 133.214 19.5073 129.842 18.2761C117.238 13.6737 103.711 12.0388 90.3185 13.5384C74.7679 15.2797 59.9749 21.1826 47.4975 30.6254C35.0202 40.0682 25.3205 52.7013 19.4202 67.194C13.5199 81.6867 11.6374 97.5023 13.971 112.975C16.3046 128.448 22.768 143.005 32.6802 155.113C42.5925 167.22 55.5866 176.431 70.294 181.773C85.0013 187.116 100.877 188.394 116.25 185.471C129.489 182.954 141.932 177.402 152.618 169.287C155.476 167.116 159.57 167.346 161.948 170.035Z" stroke="#0095E8" stroke-width="20" mask="url(#path-3-inside-2_9_9436)"/>
<mask id="path-4-inside-3_9_9436" fill="white">
<path d="M161.948 170.035C164.326 172.723 164.087 176.849 161.249 179.048C144.815 191.782 124.769 199.112 103.886 199.924C80.833 200.821 58.1789 193.719 39.7635 179.822C21.348 165.925 8.30415 146.088 2.84255 123.673C-2.10481 103.369 -0.554779 82.0809 7.18315 62.7837C8.51902 59.4523 12.4209 58.0903 15.6586 59.6396C18.8963 61.189 20.2403 65.0627 18.9368 68.407C12.4747 84.9869 11.2339 103.206 15.4711 120.596C20.2228 140.098 31.5712 157.356 47.593 169.447C63.6148 181.537 83.3243 187.716 103.381 186.936C121.266 186.241 138.446 180.05 152.618 169.287C155.476 167.117 159.57 167.346 161.948 170.035Z"/>
</mask>
<path d="M161.948 170.035C164.326 172.723 164.087 176.849 161.249 179.048C144.815 191.782 124.769 199.112 103.886 199.924C80.833 200.821 58.1789 193.719 39.7635 179.822C21.348 165.925 8.30415 146.088 2.84255 123.673C-2.10481 103.369 -0.554779 82.0809 7.18315 62.7837C8.51902 59.4523 12.4209 58.0903 15.6586 59.6396C18.8963 61.189 20.2403 65.0627 18.9368 68.407C12.4747 84.9869 11.2339 103.206 15.4711 120.596C20.2228 140.098 31.5712 157.356 47.593 169.447C63.6148 181.537 83.3243 187.716 103.381 186.936C121.266 186.241 138.446 180.05 152.618 169.287C155.476 167.117 159.57 167.346 161.948 170.035Z" stroke="#F69B11" stroke-width="20" mask="url(#path-4-inside-3_9_9436)"/>
</svg>
