<svg width="200" height="200" viewBox="0 0 200 200" fill="none" xmlns="http://www.w3.org/2000/svg">
<circle cx="100" cy="100" r="93.5" stroke="#F64E60" stroke-width="13"/>
<mask id="path-2-inside-1_9_9222" fill="white">
<path d="M161.948 170.035C164.326 172.723 164.087 176.849 161.249 179.048C147.601 189.623 131.415 196.508 114.252 198.979C94.9407 201.76 75.2376 198.831 57.5703 190.552C39.9029 182.274 25.0432 169.008 14.8216 152.389C4.60013 135.771 -0.53658 116.525 0.0443352 97.0226C0.625251 77.5206 6.89842 58.6145 18.091 42.6335C29.2836 26.6525 44.9066 14.2948 63.0354 7.08274C81.1641 -0.129294 101.007 -1.88058 120.118 2.04465C137.103 5.53305 152.851 13.3694 165.846 24.7382C168.547 27.1016 168.541 31.2345 166.007 33.7767C163.473 36.3188 159.373 36.3048 156.649 33.9677C145.468 24.3754 132.004 17.755 117.503 14.7769C100.876 11.3619 83.6124 12.8855 67.84 19.1602C52.0677 25.4348 38.4753 36.1862 28.7376 50.09C18.9998 63.9938 13.542 80.4425 13.0366 97.4096C12.5312 114.377 17.0002 131.121 25.8932 145.58C34.7861 160.039 47.7144 171.58 63.0853 178.782C78.4562 185.985 95.5983 188.533 112.4 186.114C127.051 184.004 140.886 178.197 152.618 169.287C155.476 167.116 159.57 167.346 161.948 170.035Z"/>
</mask>
<path d="M161.948 170.035C164.326 172.723 164.087 176.849 161.249 179.048C147.601 189.623 131.415 196.508 114.252 198.979C94.9407 201.76 75.2376 198.831 57.5703 190.552C39.9029 182.274 25.0432 169.008 14.8216 152.389C4.60013 135.771 -0.53658 116.525 0.0443352 97.0226C0.625251 77.5206 6.89842 58.6145 18.091 42.6335C29.2836 26.6525 44.9066 14.2948 63.0354 7.08274C81.1641 -0.129294 101.007 -1.88058 120.118 2.04465C137.103 5.53305 152.851 13.3694 165.846 24.7382C168.547 27.1016 168.541 31.2345 166.007 33.7767C163.473 36.3188 159.373 36.3048 156.649 33.9677C145.468 24.3754 132.004 17.755 117.503 14.7769C100.876 11.3619 83.6124 12.8855 67.84 19.1602C52.0677 25.4348 38.4753 36.1862 28.7376 50.09C18.9998 63.9938 13.542 80.4425 13.0366 97.4096C12.5312 114.377 17.0002 131.121 25.8932 145.58C34.7861 160.039 47.7144 171.58 63.0853 178.782C78.4562 185.985 95.5983 188.533 112.4 186.114C127.051 184.004 140.886 178.197 152.618 169.287C155.476 167.116 159.57 167.346 161.948 170.035Z" stroke="#3699FF" stroke-width="20" mask="url(#path-2-inside-1_9_9222)"/>
</svg>
