<svg width="32" height="32" viewBox="0 0 32 32" fill="none" xmlns="http://www.w3.org/2000/svg">
<path opacity="0.3" fill-rule="evenodd" clip-rule="evenodd" d="M11.9998 14.6667C9.05432 14.6667 6.6665 12.2789 6.6665 9.33333C6.6665 6.38781 9.05432 4 11.9998 4C14.9454 4 17.3332 6.38781 17.3332 9.33333C17.3332 12.2789 14.9454 14.6667 11.9998 14.6667ZM24.9998 14.6667C24.4476 14.6667 23.9998 14.219 23.9998 13.6667V10.6667H20.9998C20.4476 10.6667 19.9998 10.219 19.9998 9.66667V9C19.9998 8.44772 20.4476 8 20.9998 8H23.9998V5C23.9998 4.44772 24.4476 4 24.9998 4H25.6665C26.2188 4 26.6665 4.44772 26.6665 5V8H29.6665C30.2188 8 30.6665 8.44772 30.6665 9V9.66667C30.6665 10.219 30.2188 10.6667 29.6665 10.6667H26.6665V13.6667C26.6665 14.219 26.2188 14.6667 25.6665 14.6667H24.9998Z" fill="#7239EA"/>
<path d="M0.000868912 26.9323C0.517678 20.5687 5.68255 17.3334 11.9778 17.3334C18.3616 17.3334 23.6065 20.391 23.9972 26.9334C24.0128 27.194 23.9972 28 22.9956 28C18.0548 28 10.713 28 0.970003 28C0.635616 28 -0.0272823 27.2789 0.000868912 26.9323Z" fill="#7239EA"/>
</svg>
