<svg width="200" height="200" viewBox="0 0 200 200" fill="none" xmlns="http://www.w3.org/2000/svg">
<circle cx="100" cy="100" r="93.5" stroke="#4A7DFF" stroke-width="13"/>
<mask id="path-2-inside-1_9_9346" fill="white">
<path d="M161.948 170.035C164.326 172.723 164.087 176.849 161.249 179.048C147.601 189.623 131.415 196.508 114.252 198.979C94.9407 201.76 75.2376 198.831 57.5703 190.552C39.9029 182.274 25.0432 169.008 14.8216 152.389C4.60013 135.771 -0.53658 116.525 0.0443352 97.0226C0.625251 77.5206 6.89842 58.6145 18.091 42.6335C29.2836 26.6525 44.9066 14.2948 63.0354 7.08274C81.1641 -0.129294 101.007 -1.88058 120.118 2.04465C137.103 5.53305 152.851 13.3694 165.846 24.7382C168.547 27.1016 168.541 31.2345 166.007 33.7767C163.473 36.3188 159.373 36.3048 156.649 33.9677C145.468 24.3754 132.004 17.755 117.503 14.7769C100.876 11.3619 83.6124 12.8855 67.84 19.1602C52.0677 25.4348 38.4753 36.1862 28.7376 50.09C18.9998 63.9938 13.542 80.4425 13.0366 97.4096C12.5312 114.377 17.0002 131.121 25.8932 145.58C34.7861 160.039 47.7144 171.58 63.0853 178.782C78.4562 185.985 95.5983 188.533 112.4 186.114C127.051 184.004 140.886 178.197 152.618 169.287C155.476 167.116 159.57 167.346 161.948 170.035Z"/>
</mask>
<path d="M161.948 170.035C164.326 172.723 164.087 176.849 161.249 179.048C147.601 189.623 131.415 196.508 114.252 198.979C94.9407 201.76 75.2376 198.831 57.5703 190.552C39.9029 182.274 25.0432 169.008 14.8216 152.389C4.60013 135.771 -0.53658 116.525 0.0443352 97.0226C0.625251 77.5206 6.89842 58.6145 18.091 42.6335C29.2836 26.6525 44.9066 14.2948 63.0354 7.08274C81.1641 -0.129294 101.007 -1.88058 120.118 2.04465C137.103 5.53305 152.851 13.3694 165.846 24.7382C168.547 27.1016 168.541 31.2345 166.007 33.7767C163.473 36.3188 159.373 36.3048 156.649 33.9677C145.468 24.3754 132.004 17.755 117.503 14.7769C100.876 11.3619 83.6124 12.8855 67.84 19.1602C52.0677 25.4348 38.4753 36.1862 28.7376 50.09C18.9998 63.9938 13.542 80.4425 13.0366 97.4096C12.5312 114.377 17.0002 131.121 25.8932 145.58C34.7861 160.039 47.7144 171.58 63.0853 178.782C78.4562 185.985 95.5983 188.533 112.4 186.114C127.051 184.004 140.886 178.197 152.618 169.287C155.476 167.116 159.57 167.346 161.948 170.035Z" stroke="#FFC700" stroke-width="20" mask="url(#path-2-inside-1_9_9346)"/>
<mask id="path-3-inside-2_9_9346" fill="white">
<path d="M161.948 170.035C164.326 172.723 164.087 176.849 161.249 179.048C147.999 189.315 132.348 196.109 115.725 198.756C96.9576 201.744 77.7273 199.323 60.2864 191.776C42.8455 184.229 27.9162 171.868 17.247 156.142C7.79681 142.213 2.03555 126.153 0.448947 109.465C0.109226 105.892 2.95283 102.893 6.54054 102.786C10.1283 102.679 13.0983 105.506 13.4727 109.076C14.9638 123.293 19.9402 136.96 28.0033 148.845C37.2856 162.527 50.2744 173.281 65.4484 179.847C80.6223 186.413 97.353 188.519 113.681 185.92C127.864 183.661 141.233 177.933 152.618 169.287C155.476 167.116 159.57 167.346 161.948 170.035Z"/>
</mask>
<path d="M161.948 170.035C164.326 172.723 164.087 176.849 161.249 179.048C147.999 189.315 132.348 196.109 115.725 198.756C96.9576 201.744 77.7273 199.323 60.2864 191.776C42.8455 184.229 27.9162 171.868 17.247 156.142C7.79681 142.213 2.03555 126.153 0.448947 109.465C0.109226 105.892 2.95283 102.893 6.54054 102.786C10.1283 102.679 13.0983 105.506 13.4727 109.076C14.9638 123.293 19.9402 136.96 28.0033 148.845C37.2856 162.527 50.2744 173.281 65.4484 179.847C80.6223 186.413 97.353 188.519 113.681 185.92C127.864 183.661 141.233 177.933 152.618 169.287C155.476 167.116 159.57 167.346 161.948 170.035Z" stroke="#04C8C8" stroke-width="20" mask="url(#path-3-inside-2_9_9346)"/>
</svg>
