<svg width="200" height="200" viewBox="0 0 200 200" fill="none" xmlns="http://www.w3.org/2000/svg">
<circle cx="100" cy="100" r="93.5" stroke="#4A7DFF" stroke-width="13"/>
<mask id="path-2-inside-1_9_10667" fill="white">
<path d="M161.948 170.035C164.326 172.723 164.087 176.849 161.249 179.048C147.619 189.609 131.457 196.49 114.319 198.97C95.0318 201.76 75.3498 198.854 57.6921 190.609C40.0343 182.364 25.1704 169.14 14.9275 152.561C4.6845 135.982 -0.491164 116.772 0.0366906 97.2914C0.564546 77.8107 6.77291 58.9088 17.8986 42.9091C29.0244 26.9094 44.5826 14.5091 62.6609 7.23259C80.7392 -0.0439633 100.55 -1.87969 119.657 1.95107C136.636 5.35501 152.402 13.1013 165.44 24.3852C168.154 26.734 168.17 30.8669 165.65 33.4227C163.13 35.9784 159.03 35.9864 156.293 33.664C145.075 24.1447 131.597 17.6014 117.102 14.6955C100.478 11.3627 83.2427 12.9598 67.5143 19.2905C51.7858 25.6213 38.2498 36.4097 28.5702 50.3298C18.8906 64.2499 13.4892 80.6949 13.03 97.6434C12.5707 114.592 17.0736 131.305 25.9852 145.729C34.8968 160.153 47.8287 171.659 63.1913 178.832C78.5538 186.005 95.6776 188.533 112.458 186.105C127.088 183.989 140.901 178.185 152.618 169.287C155.476 167.116 159.57 167.346 161.948 170.035Z"/>
</mask>
<path d="M161.948 170.035C164.326 172.723 164.087 176.849 161.249 179.048C147.619 189.609 131.457 196.49 114.319 198.97C95.0318 201.76 75.3498 198.854 57.6921 190.609C40.0343 182.364 25.1704 169.14 14.9275 152.561C4.6845 135.982 -0.491164 116.772 0.0366906 97.2914C0.564546 77.8107 6.77291 58.9088 17.8986 42.9091C29.0244 26.9094 44.5826 14.5091 62.6609 7.23259C80.7392 -0.0439633 100.55 -1.87969 119.657 1.95107C136.636 5.35501 152.402 13.1013 165.44 24.3852C168.154 26.734 168.17 30.8669 165.65 33.4227C163.13 35.9784 159.03 35.9864 156.293 33.664C145.075 24.1447 131.597 17.6014 117.102 14.6955C100.478 11.3627 83.2427 12.9598 67.5143 19.2905C51.7858 25.6213 38.2498 36.4097 28.5702 50.3298C18.8906 64.2499 13.4892 80.6949 13.03 97.6434C12.5707 114.592 17.0736 131.305 25.9852 145.729C34.8968 160.153 47.8287 171.659 63.1913 178.832C78.5538 186.005 95.6776 188.533 112.458 186.105C127.088 183.989 140.901 178.185 152.618 169.287C155.476 167.116 159.57 167.346 161.948 170.035Z" stroke="#FFEA99" stroke-width="20" mask="url(#path-2-inside-1_9_10667)"/>
<mask id="path-3-inside-2_9_10667" fill="white">
<path d="M161.948 170.035C164.326 172.723 164.086 176.85 161.249 179.048C142.119 193.872 118.187 201.302 93.8844 199.813C67.4124 198.191 42.6689 186.119 25.0973 166.254C7.52565 146.388 -1.43478 120.356 0.187179 93.8844C1.67623 69.5817 11.9723 46.7359 29.0208 29.5587C31.5492 27.0111 35.6739 27.2767 38.0519 29.9652C40.43 32.6537 40.1585 36.7448 37.6548 39.3167C23.176 54.1909 14.4391 73.8182 13.1609 94.6793C11.7497 117.71 19.5455 140.359 34.8332 157.642C50.1208 174.926 71.6481 185.428 94.6793 186.839C115.54 188.117 136.087 181.842 152.618 169.287C155.476 167.116 159.57 167.346 161.948 170.035Z"/>
</mask>
<path d="M161.948 170.035C164.326 172.723 164.086 176.85 161.249 179.048C142.119 193.872 118.187 201.302 93.8844 199.813C67.4124 198.191 42.6689 186.119 25.0973 166.254C7.52565 146.388 -1.43478 120.356 0.187179 93.8844C1.67623 69.5817 11.9723 46.7359 29.0208 29.5587C31.5492 27.0111 35.6739 27.2767 38.0519 29.9652C40.43 32.6537 40.1585 36.7448 37.6548 39.3167C23.176 54.1909 14.4391 73.8182 13.1609 94.6793C11.7497 117.71 19.5455 140.359 34.8332 157.642C50.1208 174.926 71.6481 185.428 94.6793 186.839C115.54 188.117 136.087 181.842 152.618 169.287C155.476 167.116 159.57 167.346 161.948 170.035Z" stroke="#FFC700" stroke-width="20" mask="url(#path-3-inside-2_9_10667)"/>
<mask id="path-4-inside-3_9_10667" fill="white">
<path d="M100 193.501C100 197.09 97.0869 200.022 93.5052 199.789C75.0677 198.589 57.276 192.299 42.1377 181.56C26.9994 170.82 15.1846 156.105 7.96062 139.099C6.55726 135.796 8.36189 132.078 11.7496 130.892C15.1374 129.706 18.8226 131.503 20.2579 134.793C26.57 149.26 36.7188 161.778 49.6587 170.958C62.5985 180.139 77.7668 185.582 93.5068 186.759C97.0861 187.027 100 189.912 100 193.501Z"/>
</mask>
<path d="M100 193.501C100 197.09 97.0869 200.022 93.5052 199.789C75.0677 198.589 57.276 192.299 42.1377 181.56C26.9994 170.82 15.1846 156.105 7.96062 139.099C6.55726 135.796 8.36189 132.078 11.7496 130.892C15.1374 129.706 18.8226 131.503 20.2579 134.793C26.57 149.26 36.7188 161.778 49.6587 170.958C62.5985 180.139 77.7668 185.582 93.5068 186.759C97.0861 187.027 100 189.912 100 193.501Z" stroke="#B7FBFB" stroke-width="20" mask="url(#path-4-inside-3_9_10667)"/>
<mask id="path-5-inside-4_9_10667" fill="white">
<path d="M161.948 170.035C164.326 172.723 164.087 176.849 161.249 179.048C148.212 189.149 132.849 195.891 116.517 198.626C100.185 201.362 83.4635 199.993 67.8467 194.69C64.448 193.536 62.8773 189.713 64.2497 186.396C65.622 183.08 69.4174 181.529 72.8271 182.65C86.1839 187.041 100.44 188.14 114.37 185.807C128.301 183.474 141.421 177.791 152.618 169.287C155.476 167.116 159.57 167.346 161.948 170.035Z"/>
</mask>
<path d="M161.948 170.035C164.326 172.723 164.087 176.849 161.249 179.048C148.212 189.149 132.849 195.891 116.517 198.626C100.185 201.362 83.4635 199.993 67.8467 194.69C64.448 193.536 62.8773 189.713 64.2497 186.396C65.622 183.08 69.4174 181.529 72.8271 182.65C86.1839 187.041 100.44 188.14 114.37 185.807C128.301 183.474 141.421 177.791 152.618 169.287C155.476 167.116 159.57 167.346 161.948 170.035Z" stroke="#04C8C8" stroke-width="20" mask="url(#path-5-inside-4_9_10667)"/>
</svg>
